<?xml version="1.0" encoding="utf-8" standalone="no"?>
<!DOCTYPE svg PUBLIC "-//W3C//DTD SVG 1.1//EN"
  "http://www.w3.org/Graphics/SVG/1.1/DTD/svg11.dtd">
<svg xmlns:xlink="http://www.w3.org/1999/xlink" width="288pt" height="216pt" viewBox="0 0 288 216" xmlns="http://www.w3.org/2000/svg" version="1.1">
 <metadata>
  <rdf:RDF xmlns:dc="http://purl.org/dc/elements/1.1/" xmlns:cc="http://creativecommons.org/ns#" xmlns:rdf="http://www.w3.org/1999/02/22-rdf-syntax-ns#">
   <cc:Work>
    <dc:type rdf:resource="http://purl.org/dc/dcmitype/StillImage"/>
    <dc:date>2025-03-21T15:13:44.183358</dc:date>
    <dc:format>image/svg+xml</dc:format>
    <dc:creator>
     <cc:Agent>
      <dc:title>Matplotlib v3.9.2, https://matplotlib.org/</dc:title>
     </cc:Agent>
    </dc:creator>
   </cc:Work>
  </rdf:RDF>
 </metadata>
 <defs>
  <style type="text/css">*{stroke-linejoin: round; stroke-linecap: butt}</style>
 </defs>
 <g id="figure_1">
  <g id="patch_1">
   <path d="M 0 216 
L 288 216 
L 288 0 
L 0 0 
z
" style="fill: #ffffff"/>
  </g>
  <g id="axes_1">
   <g id="patch_2">
    <path d="M 51.05 174.04 
L 277.2 174.04 
L 277.2 25.44 
L 51.05 25.44 
z
" style="fill: #ffffff"/>
   </g>
   <g id="matplotlib.axis_1">
    <g id="xtick_1">
     <g id="line2d_1">
      <path d="M 61.329545 174.04 
L 61.329545 25.44 
" clip-path="url(#p4214e943a5)" style="fill: none; stroke: #b0b0b0; stroke-width: 0.8; stroke-linecap: square"/>
     </g>
     <g id="line2d_2">
      <defs>
       <path id="mbce3cc3bec" d="M 0 0 
L 0 3.5 
" style="stroke: #000000; stroke-width: 0.8"/>
      </defs>
      <g>
       <use xlink:href="#mbce3cc3bec" x="61.329545" y="174.04" style="stroke: #000000; stroke-width: 0.8"/>
      </g>
     </g>
     <g id="text_1">
      <!-- 0 -->
      <g transform="translate(58.148295 188.638438) scale(0.1 -0.1)">
       <defs>
        <path id="DejaVuSans-30" d="M 2034 4250 
Q 1547 4250 1301 3770 
Q 1056 3291 1056 2328 
Q 1056 1369 1301 889 
Q 1547 409 2034 409 
Q 2525 409 2770 889 
Q 3016 1369 3016 2328 
Q 3016 3291 2770 3770 
Q 2525 4250 2034 4250 
z
M 2034 4750 
Q 2819 4750 3233 4129 
Q 3647 3509 3647 2328 
Q 3647 1150 3233 529 
Q 2819 -91 2034 -91 
Q 1250 -91 836 529 
Q 422 1150 422 2328 
Q 422 3509 836 4129 
Q 1250 4750 2034 4750 
z
" transform="scale(0.015625)"/>
       </defs>
       <use xlink:href="#DejaVuSans-30"/>
      </g>
     </g>
    </g>
    <g id="xtick_2">
     <g id="line2d_3">
      <path d="M 99.543469 174.04 
L 99.543469 25.44 
" clip-path="url(#p4214e943a5)" style="fill: none; stroke: #b0b0b0; stroke-width: 0.8; stroke-linecap: square"/>
     </g>
     <g id="line2d_4">
      <g>
       <use xlink:href="#mbce3cc3bec" x="99.543469" y="174.04" style="stroke: #000000; stroke-width: 0.8"/>
      </g>
     </g>
     <g id="text_2">
      <!-- 5 -->
      <g transform="translate(96.362219 188.638438) scale(0.1 -0.1)">
       <defs>
        <path id="DejaVuSans-35" d="M 691 4666 
L 3169 4666 
L 3169 4134 
L 1269 4134 
L 1269 2991 
Q 1406 3038 1543 3061 
Q 1681 3084 1819 3084 
Q 2600 3084 3056 2656 
Q 3513 2228 3513 1497 
Q 3513 744 3044 326 
Q 2575 -91 1722 -91 
Q 1428 -91 1123 -41 
Q 819 9 494 109 
L 494 744 
Q 775 591 1075 516 
Q 1375 441 1709 441 
Q 2250 441 2565 725 
Q 2881 1009 2881 1497 
Q 2881 1984 2565 2268 
Q 2250 2553 1709 2553 
Q 1456 2553 1204 2497 
Q 953 2441 691 2322 
L 691 4666 
z
" transform="scale(0.015625)"/>
       </defs>
       <use xlink:href="#DejaVuSans-35"/>
      </g>
     </g>
    </g>
    <g id="xtick_3">
     <g id="line2d_5">
      <path d="M 137.757393 174.04 
L 137.757393 25.44 
" clip-path="url(#p4214e943a5)" style="fill: none; stroke: #b0b0b0; stroke-width: 0.8; stroke-linecap: square"/>
     </g>
     <g id="line2d_6">
      <g>
       <use xlink:href="#mbce3cc3bec" x="137.757393" y="174.04" style="stroke: #000000; stroke-width: 0.8"/>
      </g>
     </g>
     <g id="text_3">
      <!-- 10 -->
      <g transform="translate(131.394893 188.638438) scale(0.1 -0.1)">
       <defs>
        <path id="DejaVuSans-31" d="M 794 531 
L 1825 531 
L 1825 4091 
L 703 3866 
L 703 4441 
L 1819 4666 
L 2450 4666 
L 2450 531 
L 3481 531 
L 3481 0 
L 794 0 
L 794 531 
z
" transform="scale(0.015625)"/>
       </defs>
       <use xlink:href="#DejaVuSans-31"/>
       <use xlink:href="#DejaVuSans-30" x="63.623047"/>
      </g>
     </g>
    </g>
    <g id="xtick_4">
     <g id="line2d_7">
      <path d="M 175.971316 174.04 
L 175.971316 25.44 
" clip-path="url(#p4214e943a5)" style="fill: none; stroke: #b0b0b0; stroke-width: 0.8; stroke-linecap: square"/>
     </g>
     <g id="line2d_8">
      <g>
       <use xlink:href="#mbce3cc3bec" x="175.971316" y="174.04" style="stroke: #000000; stroke-width: 0.8"/>
      </g>
     </g>
     <g id="text_4">
      <!-- 15 -->
      <g transform="translate(169.608816 188.638438) scale(0.1 -0.1)">
       <use xlink:href="#DejaVuSans-31"/>
       <use xlink:href="#DejaVuSans-35" x="63.623047"/>
      </g>
     </g>
    </g>
    <g id="xtick_5">
     <g id="line2d_9">
      <path d="M 214.18524 174.04 
L 214.18524 25.44 
" clip-path="url(#p4214e943a5)" style="fill: none; stroke: #b0b0b0; stroke-width: 0.8; stroke-linecap: square"/>
     </g>
     <g id="line2d_10">
      <g>
       <use xlink:href="#mbce3cc3bec" x="214.18524" y="174.04" style="stroke: #000000; stroke-width: 0.8"/>
      </g>
     </g>
     <g id="text_5">
      <!-- 20 -->
      <g transform="translate(207.82274 188.638438) scale(0.1 -0.1)">
       <defs>
        <path id="DejaVuSans-32" d="M 1228 531 
L 3431 531 
L 3431 0 
L 469 0 
L 469 531 
Q 828 903 1448 1529 
Q 2069 2156 2228 2338 
Q 2531 2678 2651 2914 
Q 2772 3150 2772 3378 
Q 2772 3750 2511 3984 
Q 2250 4219 1831 4219 
Q 1534 4219 1204 4116 
Q 875 4013 500 3803 
L 500 4441 
Q 881 4594 1212 4672 
Q 1544 4750 1819 4750 
Q 2544 4750 2975 4387 
Q 3406 4025 3406 3419 
Q 3406 3131 3298 2873 
Q 3191 2616 2906 2266 
Q 2828 2175 2409 1742 
Q 1991 1309 1228 531 
z
" transform="scale(0.015625)"/>
       </defs>
       <use xlink:href="#DejaVuSans-32"/>
       <use xlink:href="#DejaVuSans-30" x="63.623047"/>
      </g>
     </g>
    </g>
    <g id="xtick_6">
     <g id="line2d_11">
      <path d="M 252.399164 174.04 
L 252.399164 25.44 
" clip-path="url(#p4214e943a5)" style="fill: none; stroke: #b0b0b0; stroke-width: 0.8; stroke-linecap: square"/>
     </g>
     <g id="line2d_12">
      <g>
       <use xlink:href="#mbce3cc3bec" x="252.399164" y="174.04" style="stroke: #000000; stroke-width: 0.8"/>
      </g>
     </g>
     <g id="text_6">
      <!-- 25 -->
      <g transform="translate(246.036664 188.638438) scale(0.1 -0.1)">
       <use xlink:href="#DejaVuSans-32"/>
       <use xlink:href="#DejaVuSans-35" x="63.623047"/>
      </g>
     </g>
    </g>
    <g id="text_7">
     <!-- Time (seconds) -->
     <g transform="translate(125.963281 202.316563) scale(0.1 -0.1)">
      <defs>
       <path id="DejaVuSans-54" d="M -19 4666 
L 3928 4666 
L 3928 4134 
L 2272 4134 
L 2272 0 
L 1638 0 
L 1638 4134 
L -19 4134 
L -19 4666 
z
" transform="scale(0.015625)"/>
       <path id="DejaVuSans-69" d="M 603 3500 
L 1178 3500 
L 1178 0 
L 603 0 
L 603 3500 
z
M 603 4863 
L 1178 4863 
L 1178 4134 
L 603 4134 
L 603 4863 
z
" transform="scale(0.015625)"/>
       <path id="DejaVuSans-6d" d="M 3328 2828 
Q 3544 3216 3844 3400 
Q 4144 3584 4550 3584 
Q 5097 3584 5394 3201 
Q 5691 2819 5691 2113 
L 5691 0 
L 5113 0 
L 5113 2094 
Q 5113 2597 4934 2840 
Q 4756 3084 4391 3084 
Q 3944 3084 3684 2787 
Q 3425 2491 3425 1978 
L 3425 0 
L 2847 0 
L 2847 2094 
Q 2847 2600 2669 2842 
Q 2491 3084 2119 3084 
Q 1678 3084 1418 2786 
Q 1159 2488 1159 1978 
L 1159 0 
L 581 0 
L 581 3500 
L 1159 3500 
L 1159 2956 
Q 1356 3278 1631 3431 
Q 1906 3584 2284 3584 
Q 2666 3584 2933 3390 
Q 3200 3197 3328 2828 
z
" transform="scale(0.015625)"/>
       <path id="DejaVuSans-65" d="M 3597 1894 
L 3597 1613 
L 953 1613 
Q 991 1019 1311 708 
Q 1631 397 2203 397 
Q 2534 397 2845 478 
Q 3156 559 3463 722 
L 3463 178 
Q 3153 47 2828 -22 
Q 2503 -91 2169 -91 
Q 1331 -91 842 396 
Q 353 884 353 1716 
Q 353 2575 817 3079 
Q 1281 3584 2069 3584 
Q 2775 3584 3186 3129 
Q 3597 2675 3597 1894 
z
M 3022 2063 
Q 3016 2534 2758 2815 
Q 2500 3097 2075 3097 
Q 1594 3097 1305 2825 
Q 1016 2553 972 2059 
L 3022 2063 
z
" transform="scale(0.015625)"/>
       <path id="DejaVuSans-20" transform="scale(0.015625)"/>
       <path id="DejaVuSans-28" d="M 1984 4856 
Q 1566 4138 1362 3434 
Q 1159 2731 1159 2009 
Q 1159 1288 1364 580 
Q 1569 -128 1984 -844 
L 1484 -844 
Q 1016 -109 783 600 
Q 550 1309 550 2009 
Q 550 2706 781 3412 
Q 1013 4119 1484 4856 
L 1984 4856 
z
" transform="scale(0.015625)"/>
       <path id="DejaVuSans-73" d="M 2834 3397 
L 2834 2853 
Q 2591 2978 2328 3040 
Q 2066 3103 1784 3103 
Q 1356 3103 1142 2972 
Q 928 2841 928 2578 
Q 928 2378 1081 2264 
Q 1234 2150 1697 2047 
L 1894 2003 
Q 2506 1872 2764 1633 
Q 3022 1394 3022 966 
Q 3022 478 2636 193 
Q 2250 -91 1575 -91 
Q 1294 -91 989 -36 
Q 684 19 347 128 
L 347 722 
Q 666 556 975 473 
Q 1284 391 1588 391 
Q 1994 391 2212 530 
Q 2431 669 2431 922 
Q 2431 1156 2273 1281 
Q 2116 1406 1581 1522 
L 1381 1569 
Q 847 1681 609 1914 
Q 372 2147 372 2553 
Q 372 3047 722 3315 
Q 1072 3584 1716 3584 
Q 2034 3584 2315 3537 
Q 2597 3491 2834 3397 
z
" transform="scale(0.015625)"/>
       <path id="DejaVuSans-63" d="M 3122 3366 
L 3122 2828 
Q 2878 2963 2633 3030 
Q 2388 3097 2138 3097 
Q 1578 3097 1268 2742 
Q 959 2388 959 1747 
Q 959 1106 1268 751 
Q 1578 397 2138 397 
Q 2388 397 2633 464 
Q 2878 531 3122 666 
L 3122 134 
Q 2881 22 2623 -34 
Q 2366 -91 2075 -91 
Q 1284 -91 818 406 
Q 353 903 353 1747 
Q 353 2603 823 3093 
Q 1294 3584 2113 3584 
Q 2378 3584 2631 3529 
Q 2884 3475 3122 3366 
z
" transform="scale(0.015625)"/>
       <path id="DejaVuSans-6f" d="M 1959 3097 
Q 1497 3097 1228 2736 
Q 959 2375 959 1747 
Q 959 1119 1226 758 
Q 1494 397 1959 397 
Q 2419 397 2687 759 
Q 2956 1122 2956 1747 
Q 2956 2369 2687 2733 
Q 2419 3097 1959 3097 
z
M 1959 3584 
Q 2709 3584 3137 3096 
Q 3566 2609 3566 1747 
Q 3566 888 3137 398 
Q 2709 -91 1959 -91 
Q 1206 -91 779 398 
Q 353 888 353 1747 
Q 353 2609 779 3096 
Q 1206 3584 1959 3584 
z
" transform="scale(0.015625)"/>
       <path id="DejaVuSans-6e" d="M 3513 2113 
L 3513 0 
L 2938 0 
L 2938 2094 
Q 2938 2591 2744 2837 
Q 2550 3084 2163 3084 
Q 1697 3084 1428 2787 
Q 1159 2491 1159 1978 
L 1159 0 
L 581 0 
L 581 3500 
L 1159 3500 
L 1159 2956 
Q 1366 3272 1645 3428 
Q 1925 3584 2291 3584 
Q 2894 3584 3203 3211 
Q 3513 2838 3513 2113 
z
" transform="scale(0.015625)"/>
       <path id="DejaVuSans-64" d="M 2906 2969 
L 2906 4863 
L 3481 4863 
L 3481 0 
L 2906 0 
L 2906 525 
Q 2725 213 2448 61 
Q 2172 -91 1784 -91 
Q 1150 -91 751 415 
Q 353 922 353 1747 
Q 353 2572 751 3078 
Q 1150 3584 1784 3584 
Q 2172 3584 2448 3432 
Q 2725 3281 2906 2969 
z
M 947 1747 
Q 947 1113 1208 752 
Q 1469 391 1925 391 
Q 2381 391 2643 752 
Q 2906 1113 2906 1747 
Q 2906 2381 2643 2742 
Q 2381 3103 1925 3103 
Q 1469 3103 1208 2742 
Q 947 2381 947 1747 
z
" transform="scale(0.015625)"/>
       <path id="DejaVuSans-29" d="M 513 4856 
L 1013 4856 
Q 1481 4119 1714 3412 
Q 1947 2706 1947 2009 
Q 1947 1309 1714 600 
Q 1481 -109 1013 -844 
L 513 -844 
Q 928 -128 1133 580 
Q 1338 1288 1338 2009 
Q 1338 2731 1133 3434 
Q 928 4138 513 4856 
z
" transform="scale(0.015625)"/>
      </defs>
      <use xlink:href="#DejaVuSans-54"/>
      <use xlink:href="#DejaVuSans-69" x="57.958984"/>
      <use xlink:href="#DejaVuSans-6d" x="85.742188"/>
      <use xlink:href="#DejaVuSans-65" x="183.154297"/>
      <use xlink:href="#DejaVuSans-20" x="244.677734"/>
      <use xlink:href="#DejaVuSans-28" x="276.464844"/>
      <use xlink:href="#DejaVuSans-73" x="315.478516"/>
      <use xlink:href="#DejaVuSans-65" x="367.578125"/>
      <use xlink:href="#DejaVuSans-63" x="429.101562"/>
      <use xlink:href="#DejaVuSans-6f" x="484.082031"/>
      <use xlink:href="#DejaVuSans-6e" x="545.263672"/>
      <use xlink:href="#DejaVuSans-64" x="608.642578"/>
      <use xlink:href="#DejaVuSans-73" x="672.119141"/>
      <use xlink:href="#DejaVuSans-29" x="724.21875"/>
     </g>
    </g>
   </g>
   <g id="matplotlib.axis_2">
    <g id="ytick_1">
     <g id="line2d_13">
      <path d="M 51.05 155.931294 
L 277.2 155.931294 
" clip-path="url(#p4214e943a5)" style="fill: none; stroke: #b0b0b0; stroke-width: 0.8; stroke-linecap: square"/>
     </g>
     <g id="line2d_14">
      <defs>
       <path id="m10abeb62cf" d="M 0 0 
L -3.5 0 
" style="stroke: #000000; stroke-width: 0.8"/>
      </defs>
      <g>
       <use xlink:href="#m10abeb62cf" x="51.05" y="155.931294" style="stroke: #000000; stroke-width: 0.8"/>
      </g>
     </g>
     <g id="text_8">
      <!-- 60 -->
      <g transform="translate(31.325 159.730513) scale(0.1 -0.1)">
       <defs>
        <path id="DejaVuSans-36" d="M 2113 2584 
Q 1688 2584 1439 2293 
Q 1191 2003 1191 1497 
Q 1191 994 1439 701 
Q 1688 409 2113 409 
Q 2538 409 2786 701 
Q 3034 994 3034 1497 
Q 3034 2003 2786 2293 
Q 2538 2584 2113 2584 
z
M 3366 4563 
L 3366 3988 
Q 3128 4100 2886 4159 
Q 2644 4219 2406 4219 
Q 1781 4219 1451 3797 
Q 1122 3375 1075 2522 
Q 1259 2794 1537 2939 
Q 1816 3084 2150 3084 
Q 2853 3084 3261 2657 
Q 3669 2231 3669 1497 
Q 3669 778 3244 343 
Q 2819 -91 2113 -91 
Q 1303 -91 875 529 
Q 447 1150 447 2328 
Q 447 3434 972 4092 
Q 1497 4750 2381 4750 
Q 2619 4750 2861 4703 
Q 3103 4656 3366 4563 
z
" transform="scale(0.015625)"/>
       </defs>
       <use xlink:href="#DejaVuSans-36"/>
       <use xlink:href="#DejaVuSans-30" x="63.623047"/>
      </g>
     </g>
    </g>
    <g id="ytick_2">
     <g id="line2d_15">
      <path d="M 51.05 131.183944 
L 277.2 131.183944 
" clip-path="url(#p4214e943a5)" style="fill: none; stroke: #b0b0b0; stroke-width: 0.8; stroke-linecap: square"/>
     </g>
     <g id="line2d_16">
      <g>
       <use xlink:href="#m10abeb62cf" x="51.05" y="131.183944" style="stroke: #000000; stroke-width: 0.8"/>
      </g>
     </g>
     <g id="text_9">
      <!-- 80 -->
      <g transform="translate(31.325 134.983163) scale(0.1 -0.1)">
       <defs>
        <path id="DejaVuSans-38" d="M 2034 2216 
Q 1584 2216 1326 1975 
Q 1069 1734 1069 1313 
Q 1069 891 1326 650 
Q 1584 409 2034 409 
Q 2484 409 2743 651 
Q 3003 894 3003 1313 
Q 3003 1734 2745 1975 
Q 2488 2216 2034 2216 
z
M 1403 2484 
Q 997 2584 770 2862 
Q 544 3141 544 3541 
Q 544 4100 942 4425 
Q 1341 4750 2034 4750 
Q 2731 4750 3128 4425 
Q 3525 4100 3525 3541 
Q 3525 3141 3298 2862 
Q 3072 2584 2669 2484 
Q 3125 2378 3379 2068 
Q 3634 1759 3634 1313 
Q 3634 634 3220 271 
Q 2806 -91 2034 -91 
Q 1263 -91 848 271 
Q 434 634 434 1313 
Q 434 1759 690 2068 
Q 947 2378 1403 2484 
z
M 1172 3481 
Q 1172 3119 1398 2916 
Q 1625 2713 2034 2713 
Q 2441 2713 2670 2916 
Q 2900 3119 2900 3481 
Q 2900 3844 2670 4047 
Q 2441 4250 2034 4250 
Q 1625 4250 1398 4047 
Q 1172 3844 1172 3481 
z
" transform="scale(0.015625)"/>
       </defs>
       <use xlink:href="#DejaVuSans-38"/>
       <use xlink:href="#DejaVuSans-30" x="63.623047"/>
      </g>
     </g>
    </g>
    <g id="ytick_3">
     <g id="line2d_17">
      <path d="M 51.05 106.436594 
L 277.2 106.436594 
" clip-path="url(#p4214e943a5)" style="fill: none; stroke: #b0b0b0; stroke-width: 0.8; stroke-linecap: square"/>
     </g>
     <g id="line2d_18">
      <g>
       <use xlink:href="#m10abeb62cf" x="51.05" y="106.436594" style="stroke: #000000; stroke-width: 0.8"/>
      </g>
     </g>
     <g id="text_10">
      <!-- 100 -->
      <g transform="translate(24.9625 110.235813) scale(0.1 -0.1)">
       <use xlink:href="#DejaVuSans-31"/>
       <use xlink:href="#DejaVuSans-30" x="63.623047"/>
       <use xlink:href="#DejaVuSans-30" x="127.246094"/>
      </g>
     </g>
    </g>
    <g id="ytick_4">
     <g id="line2d_19">
      <path d="M 51.05 81.689245 
L 277.2 81.689245 
" clip-path="url(#p4214e943a5)" style="fill: none; stroke: #b0b0b0; stroke-width: 0.8; stroke-linecap: square"/>
     </g>
     <g id="line2d_20">
      <g>
       <use xlink:href="#m10abeb62cf" x="51.05" y="81.689245" style="stroke: #000000; stroke-width: 0.8"/>
      </g>
     </g>
     <g id="text_11">
      <!-- 120 -->
      <g transform="translate(24.9625 85.488464) scale(0.1 -0.1)">
       <use xlink:href="#DejaVuSans-31"/>
       <use xlink:href="#DejaVuSans-32" x="63.623047"/>
       <use xlink:href="#DejaVuSans-30" x="127.246094"/>
      </g>
     </g>
    </g>
    <g id="ytick_5">
     <g id="line2d_21">
      <path d="M 51.05 56.941895 
L 277.2 56.941895 
" clip-path="url(#p4214e943a5)" style="fill: none; stroke: #b0b0b0; stroke-width: 0.8; stroke-linecap: square"/>
     </g>
     <g id="line2d_22">
      <g>
       <use xlink:href="#m10abeb62cf" x="51.05" y="56.941895" style="stroke: #000000; stroke-width: 0.8"/>
      </g>
     </g>
     <g id="text_12">
      <!-- 140 -->
      <g transform="translate(24.9625 60.741114) scale(0.1 -0.1)">
       <defs>
        <path id="DejaVuSans-34" d="M 2419 4116 
L 825 1625 
L 2419 1625 
L 2419 4116 
z
M 2253 4666 
L 3047 4666 
L 3047 1625 
L 3713 1625 
L 3713 1100 
L 3047 1100 
L 3047 0 
L 2419 0 
L 2419 1100 
L 313 1100 
L 313 1709 
L 2253 4666 
z
" transform="scale(0.015625)"/>
       </defs>
       <use xlink:href="#DejaVuSans-31"/>
       <use xlink:href="#DejaVuSans-34" x="63.623047"/>
       <use xlink:href="#DejaVuSans-30" x="127.246094"/>
      </g>
     </g>
    </g>
    <g id="ytick_6">
     <g id="line2d_23">
      <path d="M 51.05 32.194545 
L 277.2 32.194545 
" clip-path="url(#p4214e943a5)" style="fill: none; stroke: #b0b0b0; stroke-width: 0.8; stroke-linecap: square"/>
     </g>
     <g id="line2d_24">
      <g>
       <use xlink:href="#m10abeb62cf" x="51.05" y="32.194545" style="stroke: #000000; stroke-width: 0.8"/>
      </g>
     </g>
     <g id="text_13">
      <!-- 160 -->
      <g transform="translate(24.9625 35.993764) scale(0.1 -0.1)">
       <use xlink:href="#DejaVuSans-31"/>
       <use xlink:href="#DejaVuSans-36" x="63.623047"/>
       <use xlink:href="#DejaVuSans-30" x="127.246094"/>
      </g>
     </g>
    </g>
    <g id="text_14">
     <!-- Temperature (°C) -->
     <g transform="translate(18.882812 142.891563) rotate(-90) scale(0.1 -0.1)">
      <defs>
       <path id="DejaVuSans-70" d="M 1159 525 
L 1159 -1331 
L 581 -1331 
L 581 3500 
L 1159 3500 
L 1159 2969 
Q 1341 3281 1617 3432 
Q 1894 3584 2278 3584 
Q 2916 3584 3314 3078 
Q 3713 2572 3713 1747 
Q 3713 922 3314 415 
Q 2916 -91 2278 -91 
Q 1894 -91 1617 61 
Q 1341 213 1159 525 
z
M 3116 1747 
Q 3116 2381 2855 2742 
Q 2594 3103 2138 3103 
Q 1681 3103 1420 2742 
Q 1159 2381 1159 1747 
Q 1159 1113 1420 752 
Q 1681 391 2138 391 
Q 2594 391 2855 752 
Q 3116 1113 3116 1747 
z
" transform="scale(0.015625)"/>
       <path id="DejaVuSans-72" d="M 2631 2963 
Q 2534 3019 2420 3045 
Q 2306 3072 2169 3072 
Q 1681 3072 1420 2755 
Q 1159 2438 1159 1844 
L 1159 0 
L 581 0 
L 581 3500 
L 1159 3500 
L 1159 2956 
Q 1341 3275 1631 3429 
Q 1922 3584 2338 3584 
Q 2397 3584 2469 3576 
Q 2541 3569 2628 3553 
L 2631 2963 
z
" transform="scale(0.015625)"/>
       <path id="DejaVuSans-61" d="M 2194 1759 
Q 1497 1759 1228 1600 
Q 959 1441 959 1056 
Q 959 750 1161 570 
Q 1363 391 1709 391 
Q 2188 391 2477 730 
Q 2766 1069 2766 1631 
L 2766 1759 
L 2194 1759 
z
M 3341 1997 
L 3341 0 
L 2766 0 
L 2766 531 
Q 2569 213 2275 61 
Q 1981 -91 1556 -91 
Q 1019 -91 701 211 
Q 384 513 384 1019 
Q 384 1609 779 1909 
Q 1175 2209 1959 2209 
L 2766 2209 
L 2766 2266 
Q 2766 2663 2505 2880 
Q 2244 3097 1772 3097 
Q 1472 3097 1187 3025 
Q 903 2953 641 2809 
L 641 3341 
Q 956 3463 1253 3523 
Q 1550 3584 1831 3584 
Q 2591 3584 2966 3190 
Q 3341 2797 3341 1997 
z
" transform="scale(0.015625)"/>
       <path id="DejaVuSans-74" d="M 1172 4494 
L 1172 3500 
L 2356 3500 
L 2356 3053 
L 1172 3053 
L 1172 1153 
Q 1172 725 1289 603 
Q 1406 481 1766 481 
L 2356 481 
L 2356 0 
L 1766 0 
Q 1100 0 847 248 
Q 594 497 594 1153 
L 594 3053 
L 172 3053 
L 172 3500 
L 594 3500 
L 594 4494 
L 1172 4494 
z
" transform="scale(0.015625)"/>
       <path id="DejaVuSans-75" d="M 544 1381 
L 544 3500 
L 1119 3500 
L 1119 1403 
Q 1119 906 1312 657 
Q 1506 409 1894 409 
Q 2359 409 2629 706 
Q 2900 1003 2900 1516 
L 2900 3500 
L 3475 3500 
L 3475 0 
L 2900 0 
L 2900 538 
Q 2691 219 2414 64 
Q 2138 -91 1772 -91 
Q 1169 -91 856 284 
Q 544 659 544 1381 
z
M 1991 3584 
L 1991 3584 
z
" transform="scale(0.015625)"/>
       <path id="DejaVuSans-b0" d="M 1600 4347 
Q 1350 4347 1178 4173 
Q 1006 4000 1006 3750 
Q 1006 3503 1178 3333 
Q 1350 3163 1600 3163 
Q 1850 3163 2022 3333 
Q 2194 3503 2194 3750 
Q 2194 3997 2020 4172 
Q 1847 4347 1600 4347 
z
M 1600 4750 
Q 1800 4750 1984 4673 
Q 2169 4597 2303 4453 
Q 2447 4313 2519 4134 
Q 2591 3956 2591 3750 
Q 2591 3338 2302 3052 
Q 2013 2766 1594 2766 
Q 1172 2766 890 3047 
Q 609 3328 609 3750 
Q 609 4169 896 4459 
Q 1184 4750 1600 4750 
z
" transform="scale(0.015625)"/>
       <path id="DejaVuSans-43" d="M 4122 4306 
L 4122 3641 
Q 3803 3938 3442 4084 
Q 3081 4231 2675 4231 
Q 1875 4231 1450 3742 
Q 1025 3253 1025 2328 
Q 1025 1406 1450 917 
Q 1875 428 2675 428 
Q 3081 428 3442 575 
Q 3803 722 4122 1019 
L 4122 359 
Q 3791 134 3420 21 
Q 3050 -91 2638 -91 
Q 1578 -91 968 557 
Q 359 1206 359 2328 
Q 359 3453 968 4101 
Q 1578 4750 2638 4750 
Q 3056 4750 3426 4639 
Q 3797 4528 4122 4306 
z
" transform="scale(0.015625)"/>
      </defs>
      <use xlink:href="#DejaVuSans-54"/>
      <use xlink:href="#DejaVuSans-65" x="44.083984"/>
      <use xlink:href="#DejaVuSans-6d" x="105.607422"/>
      <use xlink:href="#DejaVuSans-70" x="203.019531"/>
      <use xlink:href="#DejaVuSans-65" x="266.496094"/>
      <use xlink:href="#DejaVuSans-72" x="328.019531"/>
      <use xlink:href="#DejaVuSans-61" x="369.132812"/>
      <use xlink:href="#DejaVuSans-74" x="430.412109"/>
      <use xlink:href="#DejaVuSans-75" x="469.621094"/>
      <use xlink:href="#DejaVuSans-72" x="533"/>
      <use xlink:href="#DejaVuSans-65" x="571.863281"/>
      <use xlink:href="#DejaVuSans-20" x="633.386719"/>
      <use xlink:href="#DejaVuSans-28" x="665.173828"/>
      <use xlink:href="#DejaVuSans-b0" x="704.1875"/>
      <use xlink:href="#DejaVuSans-43" x="754.1875"/>
      <use xlink:href="#DejaVuSans-29" x="824.011719"/>
     </g>
    </g>
   </g>
   <g id="line2d_25">
    <path d="M 61.329545 104.313653 
L 62.093827 111.009741 
L 63.622375 120.861895 
L 65.150938 129.094233 
L 66.679486 135.889709 
L 68.208049 141.408622 
L 69.736612 145.858961 
L 71.26516 149.437274 
L 72.793723 152.311186 
L 74.322271 154.618335 
L 75.850834 156.47012 
L 77.379396 157.956297 
L 78.907944 159.122371 
L 79.672226 108.996414 
L 80.436507 115.997501 
L 81.965055 123.052324 
L 83.493618 129.430158 
L 85.022181 135.072513 
L 86.550729 139.894161 
L 88.079292 143.964204 
L 89.60784 147.38577 
L 91.136403 150.258397 
L 92.664966 152.669202 
L 94.193514 154.692197 
L 95.722077 156.389688 
L 97.250625 157.813974 
L 98.014906 158.432847 
L 98.779188 143.537349 
L 99.543469 120.798644 
L 100.30775 123.648199 
L 101.836299 130.060586 
L 103.364861 135.192104 
L 104.89341 139.530518 
L 106.421972 143.242734 
L 107.950535 146.431878 
L 109.479083 149.176871 
L 111.007646 151.541834 
L 112.536194 153.580311 
L 114.064757 155.337616 
L 115.59332 156.852681 
L 117.121868 158.157792 
L 117.88615 155.8156 
L 118.650431 131.868227 
L 119.414712 129.505342 
L 120.178979 131.271294 
L 122.471823 137.846961 
L 124.000371 141.516733 
L 125.528934 144.686694 
L 127.057497 147.450342 
L 128.586045 149.870361 
L 130.114593 151.993272 
L 132.407452 154.701713 
L 134.700282 156.930318 
L 136.228845 158.191929 
L 136.993111 158.221156 
L 137.757378 141.269849 
L 138.521674 136.256109 
L 139.285941 136.035846 
L 140.050237 137.226238 
L 143.871629 144.828073 
L 146.164459 148.573103 
L 148.457288 151.714555 
L 150.750118 154.351135 
L 153.042948 156.564259 
L 155.335806 158.421821 
L 156.100073 158.856153 
L 156.86434 147.654254 
L 157.628636 142.262069 
L 158.392903 140.732616 
L 159.157199 140.875845 
L 159.921465 141.708372 
L 161.450028 144.021904 
L 163.742858 147.575521 
L 166.035687 150.709873 
L 168.328517 153.395128 
L 170.621376 155.685285 
L 172.914205 157.636949 
L 175.207035 159.274965 
L 175.971302 152.507054 
L 176.735598 147.490143 
L 177.499865 145.046334 
L 178.26416 144.278191 
L 179.028427 144.438488 
L 179.792694 145.080131 
L 181.321257 146.931084 
L 184.378382 150.838413 
L 186.671212 153.406872 
L 188.964042 155.630682 
L 191.256871 157.549002 
L 193.54973 159.202614 
L 194.313997 159.696194 
L 195.078264 156.632418 
L 195.84256 152.055012 
L 196.606826 148.903969 
L 197.371122 147.390188 
L 198.135389 146.979645 
L 198.899656 147.208744 
L 199.663952 147.784455 
L 201.192515 149.368662 
L 205.013907 153.511207 
L 207.306737 155.66108 
L 209.599566 157.538165 
L 212.442695 159.534198 
L 212.442695 159.534198 
" clip-path="url(#p4214e943a5)" style="fill: none; stroke: #1f77b4; stroke-width: 1.5; stroke-linecap: square"/>
   </g>
   <g id="line2d_26">
    <path d="M 61.329545 128.3674 
L 62.093827 134.295987 
L 63.622375 143.408507 
L 64.386656 147.016425 
L 65.150938 150.061207 
L 65.915219 152.612258 
L 66.679486 154.740947 
L 67.443767 156.513243 
L 68.208049 157.986922 
L 69.736612 160.228782 
L 71.26516 161.775076 
L 72.793723 162.841082 
L 74.322271 163.575731 
L 75.850834 164.081848 
L 78.143663 164.561267 
L 78.907944 164.603787 
L 79.672226 131.448546 
L 80.436507 135.383139 
L 82.729337 145.21139 
L 84.2579 150.467785 
L 85.786448 154.461134 
L 87.315011 157.454863 
L 88.843573 159.693211 
L 90.372122 161.365817 
L 91.900684 162.615457 
L 93.429233 163.54892 
L 94.957795 164.246072 
L 97.250625 164.974755 
L 98.014906 165.137318 
L 98.779188 153.354006 
L 99.543469 137.727975 
L 101.072017 144.380638 
L 102.60058 149.449471 
L 104.129143 153.322438 
L 105.657691 156.337048 
L 107.186254 158.697479 
L 108.714802 160.549566 
L 110.243365 162.003684 
L 111.771928 163.145326 
L 113.300476 164.041594 
L 115.59332 165.037855 
L 117.121868 165.521466 
L 117.88615 162.649103 
L 118.650431 144.255043 
L 119.414712 144.549696 
L 120.94326 149.1106 
L 122.471823 152.811676 
L 124.000371 155.732714 
L 125.528934 158.08529 
L 127.057497 159.992848 
L 128.586045 161.542163 
L 130.114593 162.800828 
L 131.643156 163.823257 
L 133.935986 165.008439 
L 136.228845 165.873856 
L 136.993111 165.322916 
L 137.757378 150.760927 
L 138.521674 148.622949 
L 139.285941 149.638732 
L 141.57877 154.154738 
L 143.107333 156.654886 
L 144.635896 158.737544 
L 146.164459 160.47257 
L 147.693022 161.917776 
L 149.221555 163.12131 
L 151.514414 164.559568 
L 153.807244 165.651743 
L 155.335806 166.228738 
L 156.100073 166.255246 
L 156.86434 155.782068 
L 157.628636 152.57393 
L 158.392903 152.425565 
L 159.157199 153.242119 
L 162.978591 158.572866 
L 164.507125 160.286142 
L 166.035687 161.743205 
L 167.56425 162.980082 
L 169.85708 164.492806 
L 172.149909 165.674286 
L 174.442768 166.596346 
L 175.207035 166.791686 
L 175.971302 159.952557 
L 176.735598 156.171011 
L 177.499865 155.003125 
L 178.26416 155.142125 
L 179.028427 155.831951 
L 182.84982 160.212809 
L 185.142649 162.306417 
L 187.435479 163.981478 
L 189.728338 165.319064 
L 192.021167 166.386656 
L 194.313997 167.219259 
L 195.078264 163.682181 
L 195.84256 159.385266 
L 196.606826 157.335084 
L 197.371122 156.893652 
L 198.135389 157.232712 
L 199.663952 158.668705 
L 201.956781 160.954973 
L 204.249611 162.884998 
L 206.542441 164.459462 
L 208.835299 165.739123 
L 211.128129 166.778394 
L 212.442695 167.285455 
L 212.442695 167.285455 
" clip-path="url(#p4214e943a5)" style="fill: none; stroke: #ff7f0e; stroke-width: 1.5; stroke-linecap: square"/>
   </g>
   <g id="line2d_27">
    <path d="M 61.329545 107.677104 
L 62.093827 111.657803 
L 63.622375 118.084841 
L 65.150938 123.551228 
L 66.679486 128.032305 
L 68.208049 131.642376 
L 69.736612 134.534073 
L 71.26516 136.846169 
L 72.793723 138.693724 
L 74.322271 140.169706 
L 75.850834 141.348694 
L 77.379396 142.290201 
L 78.907944 142.997549 
L 79.672226 112.145908 
L 80.436507 115.301029 
L 85.022181 127.461993 
L 86.550729 130.64536 
L 88.079292 133.330049 
L 89.60784 135.589052 
L 91.136403 137.489058 
L 92.664966 139.086934 
L 94.193514 140.430638 
L 95.722077 141.560498 
L 98.014906 142.916701 
L 98.779188 132.6929 
L 99.543469 118.132534 
L 101.836299 124.358983 
L 103.364861 127.690752 
L 104.89341 130.52796 
L 106.421972 132.972599 
L 107.950535 135.088335 
L 109.479083 136.922636 
L 111.007646 138.513942 
L 113.300476 140.515072 
L 115.59332 142.132396 
L 117.121868 143.031421 
L 117.88615 140.955069 
L 118.650431 124.658356 
L 119.414712 123.868047 
L 123.236105 130.870532 
L 124.764653 133.096796 
L 127.057497 135.947371 
L 129.350327 138.321623 
L 131.643156 140.302853 
L 133.935986 141.956276 
L 136.228845 143.33506 
L 136.993111 143.168835 
L 137.757378 130.803203 
L 138.521674 128.083849 
L 139.285941 128.354486 
L 140.814504 130.406821 
L 143.107333 133.486683 
L 145.400163 136.126549 
L 147.693022 138.380757 
L 149.985851 140.306252 
L 152.278681 141.950688 
L 154.57151 143.35481 
L 155.335806 143.775359 
L 156.100073 144.024811 
L 156.86434 135.410101 
L 157.628636 132.076217 
L 158.392903 131.417242 
L 159.157199 131.743728 
L 160.685732 133.236438 
L 163.742858 136.484339 
L 166.035687 138.613934 
L 168.328517 140.46855 
L 170.621376 142.080663 
L 173.678472 143.90624 
L 175.207035 144.658939 
L 175.971302 139.203693 
L 176.735598 135.71578 
L 177.499865 134.283601 
L 178.26416 134.015683 
L 179.028427 134.319361 
L 180.55699 135.554614 
L 184.378382 138.965984 
L 186.671212 140.74504 
L 189.728338 142.793939 
L 192.785434 144.523716 
L 194.313997 145.274111 
L 195.078264 142.610003 
L 195.84256 139.01009 
L 196.606826 136.919615 
L 197.371122 136.142069 
L 198.135389 136.111105 
L 198.899656 136.454394 
L 200.428219 137.564543 
L 204.249611 140.551777 
L 207.306737 142.618877 
L 210.363833 144.391551 
L 212.442695 145.450608 
L 212.442695 145.450608 
" clip-path="url(#p4214e943a5)" style="fill: none; stroke: #2ca02c; stroke-width: 1.5; stroke-linecap: square"/>
   </g>
   <g id="line2d_28">
    <path d="M 61.329545 107.485427 
L 62.093827 111.325238 
L 65.150938 123.341161 
L 66.679486 128.694527 
L 68.208049 133.482983 
L 69.736612 137.733563 
L 71.26516 141.49755 
L 72.793723 144.828262 
L 74.322271 147.775204 
L 75.850834 150.382519 
L 77.379396 152.689367 
L 78.907944 154.681888 
L 79.672226 114.37576 
L 80.436507 118.401585 
L 82.729337 124.71953 
L 85.022181 131.176248 
L 87.315011 136.90689 
L 89.60784 141.857228 
L 91.900684 146.118609 
L 94.193514 149.786077 
L 96.486358 152.94252 
L 98.014906 154.788413 
L 98.779188 142.117631 
L 99.543469 123.14129 
L 103.364861 133.618886 
L 105.657691 138.599547 
L 107.950535 142.935809 
L 110.243365 146.735971 
L 112.536194 150.072271 
L 114.829039 153.00256 
L 117.121868 155.573889 
L 117.88615 153.387916 
L 118.650431 132.704341 
L 119.414712 131.083355 
L 120.178979 132.517384 
L 122.471823 137.514056 
L 124.764653 141.763164 
L 127.057497 145.483461 
L 129.350327 148.785814 
L 131.643156 151.725355 
L 133.935986 154.343092 
L 136.228845 156.673692 
L 136.993111 156.750196 
L 137.757378 141.440795 
L 138.521674 137.513414 
L 139.285941 137.489926 
L 140.050237 138.485356 
L 144.635896 145.726418 
L 146.928726 148.864509 
L 149.221555 151.686498 
L 151.514414 154.224823 
L 153.807244 156.507843 
L 155.335806 157.900524 
L 156.100073 158.403317 
L 156.86434 147.937691 
L 157.628636 143.444418 
L 158.392903 142.306854 
L 159.157199 142.498606 
L 159.921465 143.214941 
L 162.214295 146.158107 
L 165.271421 150.044177 
L 168.328517 153.487606 
L 171.385643 156.509543 
L 174.442768 159.159302 
L 175.207035 159.730482 
L 175.971302 153.228638 
L 176.735598 148.768255 
L 177.499865 146.741031 
L 178.26416 146.181595 
L 179.028427 146.392757 
L 179.792694 146.986556 
L 181.321257 148.611016 
L 185.142649 152.875795 
L 188.199775 155.911816 
L 191.256871 158.597072 
L 194.313997 160.960184 
L 195.078264 157.904828 
L 195.84256 153.524348 
L 196.606826 150.752242 
L 197.371122 149.550823 
L 198.135389 149.316022 
L 198.899656 149.60603 
L 200.428219 150.858427 
L 206.542441 156.7724 
L 209.599566 159.329228 
L 212.442695 161.45433 
L 212.442695 161.45433 
" clip-path="url(#p4214e943a5)" style="fill: none; stroke: #d62728; stroke-width: 1.5; stroke-linecap: square"/>
   </g>
   <g id="line2d_29">
    <path d="M 63.622381 32.194545 
L 64.386659 39.686087 
L 65.150938 42.939786 
L 65.915216 52.137314 
L 66.679495 55.320841 
L 68.208052 83.060299 
L 68.97233 90.224188 
L 69.736609 96.288122 
L 70.500887 96.474698 
L 71.265166 96.201064 
L 72.029444 102.834723 
L 72.793723 107.877348 
L 73.558001 108.658661 
L 74.322279 114.404407 
L 75.086558 114.313496 
L 75.850836 117.041391 
L 77.379393 120.787303 
L 78.143672 124.431949 
L 78.90795 125.605752 
L 79.672229 123.939829 
L 80.436507 124.836787 
L 81.200786 87.392474 
L 81.965064 79.993186 
L 82.729343 75.410397 
L 84.2579 82.380552 
L 86.550735 102.055911 
L 87.315014 102.494327 
L 88.079292 107.134732 
L 88.84357 105.107558 
L 89.607849 110.562657 
L 90.372127 114.30439 
L 91.136406 115.157932 
L 91.900684 117.84976 
L 92.664963 118.918397 
L 93.429241 120.255879 
L 94.19352 119.704946 
L 94.957798 122.347947 
L 95.722077 127.074482 
L 96.486355 128.138742 
L 97.250634 128.744338 
L 98.014912 126.154474 
L 98.779191 120.153511 
L 99.543469 119.794798 
L 100.307748 114.813581 
L 101.072026 112.789392 
L 101.836304 109.764966 
L 102.600583 114.012711 
L 103.364861 113.177858 
L 104.12914 114.588287 
L 104.893418 119.586964 
L 105.657697 118.718286 
L 106.421975 116.732313 
L 107.186254 119.568173 
L 107.950532 120.824994 
L 108.714811 121.563563 
L 109.479089 121.673982 
L 110.243368 120.248589 
L 111.007646 125.935574 
L 111.771925 126.143554 
L 112.536203 127.914407 
L 113.300482 128.955301 
L 114.06476 132.356474 
L 114.829039 132.994469 
L 115.593317 130.191575 
L 116.357595 132.202891 
L 117.121874 133.492364 
L 117.886152 132.41663 
L 118.650431 129.787593 
L 119.414709 129.048422 
L 120.178988 127.850399 
L 120.943266 127.601914 
L 121.707545 128.584876 
L 122.471823 130.097858 
L 123.236102 128.095371 
L 124.00038 129.106277 
L 124.764659 127.394954 
L 127.057494 129.023102 
L 127.821773 128.67009 
L 128.586051 130.781069 
L 129.35033 128.814798 
L 130.114608 129.357914 
L 130.878886 132.585315 
L 132.407443 133.758031 
L 133.171722 132.004164 
L 133.936 132.769105 
L 134.700279 137.059462 
L 135.464557 138.126799 
L 136.228836 137.117525 
L 136.993114 135.035737 
L 137.757393 137.608075 
L 138.521671 135.211205 
L 139.28595 137.855686 
L 140.050228 135.758205 
L 140.814507 135.658542 
L 141.578785 135.037154 
L 142.343064 133.440188 
L 143.107342 134.023415 
L 143.87162 133.778838 
L 144.635899 134.332313 
L 145.400177 133.700265 
L 146.164456 132.889203 
L 146.928734 134.522024 
L 147.693013 134.222682 
L 148.457291 135.591237 
L 149.22157 136.360668 
L 149.985848 135.369407 
L 150.750127 133.821599 
L 151.514405 133.376223 
L 152.278684 138.808586 
L 153.042962 141.038447 
L 153.807241 139.733996 
L 154.571519 140.34715 
L 155.335798 139.209264 
L 156.100076 139.770886 
L 156.864355 140.643084 
L 157.628633 142.071684 
L 158.392911 139.905847 
L 159.15719 138.760663 
L 159.921468 139.143012 
L 160.685747 140.018876 
L 161.450025 138.853334 
L 162.214304 138.026959 
L 162.978582 138.178273 
L 163.742861 137.831553 
L 164.507139 140.187443 
L 165.271418 139.382792 
L 166.035696 137.966334 
L 166.799975 140.049613 
L 167.564253 140.227827 
L 168.328532 136.770188 
L 169.09281 135.754484 
L 169.857089 141.716939 
L 170.621367 144.880127 
L 171.385645 142.790902 
L 172.149924 144.934866 
L 173.678481 143.847385 
L 174.442759 144.598257 
L 175.207038 143.596686 
L 175.971316 143.510099 
L 176.735595 142.943315 
L 177.499873 140.876669 
L 179.02843 140.835908 
L 179.792709 142.147445 
L 180.556987 142.284545 
L 181.321266 140.262369 
L 182.085544 140.734556 
L 182.849823 140.388867 
L 183.614101 140.371866 
L 184.37838 140.56607 
L 185.142658 143.172512 
L 185.906936 139.526464 
L 186.671215 138.242832 
L 187.435493 142.140292 
L 188.96405 143.216121 
L 189.728329 145.12075 
L 190.492607 144.472416 
L 191.256886 144.804136 
L 192.021164 146.418591 
L 192.785443 143.388641 
L 193.549721 145.387073 
L 194.314 145.262813 
L 195.078278 144.233027 
L 195.842557 144.332878 
L 196.606835 144.223439 
L 198.135392 144.295058 
L 198.89967 144.122616 
L 199.663949 144.743123 
L 200.428227 144.188198 
L 201.192506 142.876246 
L 201.956784 144.727022 
L 202.721063 144.685567 
L 204.24962 139.727062 
L 205.013898 144.614333 
L 205.778177 145.329594 
L 206.542455 145.074555 
L 207.306734 143.982338 
L 208.071012 145.426322 
L 208.835291 144.99175 
L 209.599569 145.231657 
L 210.363848 146.173075 
L 211.128126 145.674468 
L 211.892405 144.875813 
L 212.656683 143.805976 
L 213.420961 143.6383 
L 214.18524 145.005452 
L 214.949518 144.369168 
L 215.713797 144.288075 
L 216.478075 144.61261 
L 217.242354 145.764618 
L 218.006632 144.583534 
L 219.535189 144.264629 
L 220.299468 144.487604 
L 221.063746 145.039132 
L 221.828025 142.581049 
L 222.592303 144.600992 
L 223.356582 145.512773 
L 224.12086 146.830122 
L 224.885139 145.56535 
L 226.413696 145.649013 
L 227.177974 145.826423 
L 227.942252 147.674241 
L 228.706531 146.807145 
L 229.470809 146.57558 
L 230.235088 145.888257 
L 232.527923 145.903454 
L 233.292202 145.848419 
L 234.05648 146.620909 
L 234.820759 145.706655 
L 235.585037 145.077631 
L 236.349316 145.597087 
L 237.877873 145.520502 
L 238.642151 145.172305 
L 239.40643 143.052431 
L 240.934986 146.106273 
L 241.699265 146.168007 
L 243.227822 145.663535 
L 243.9921 145.396661 
L 244.756379 145.451843 
L 245.520657 146.330991 
L 246.284936 148.532175 
L 247.049214 147.994341 
L 247.813493 145.896635 
L 248.577771 145.312534 
L 249.34205 145.150539 
L 250.106328 145.124189 
L 250.870607 146.692166 
L 251.634885 146.157987 
L 252.399164 145.145195 
L 253.163442 145.149498 
L 253.927721 143.770188 
L 254.691999 146.130717 
L 255.456277 146.722243 
L 256.220556 145.478202 
L 256.984834 142.833055 
L 257.749113 146.800395 
L 258.513391 147.591825 
L 259.27767 145.835375 
L 260.041948 145.944543 
L 260.806227 146.199152 
L 261.570505 147.746714 
L 262.334784 147.448485 
L 263.099062 149.629842 
L 263.863341 149.397508 
L 264.627619 149.397508 
L 265.391898 146.583475 
L 266.156176 145.425399 
L 266.920455 145.778715 
L 266.920455 145.778715 
" clip-path="url(#p4214e943a5)" style="fill: none; stroke-dasharray: 5.55,2.4; stroke-dashoffset: 0; stroke: #9467bd; stroke-width: 1.5"/>
   </g>
   <g id="patch_3">
    <path d="M 51.05 174.04 
L 51.05 25.44 
" style="fill: none; stroke: #000000; stroke-width: 0.8; stroke-linejoin: miter; stroke-linecap: square"/>
   </g>
   <g id="patch_4">
    <path d="M 277.2 174.04 
L 277.2 25.44 
" style="fill: none; stroke: #000000; stroke-width: 0.8; stroke-linejoin: miter; stroke-linecap: square"/>
   </g>
   <g id="patch_5">
    <path d="M 51.05 174.04 
L 277.2 174.04 
" style="fill: none; stroke: #000000; stroke-width: 0.8; stroke-linejoin: miter; stroke-linecap: square"/>
   </g>
   <g id="patch_6">
    <path d="M 51.05 25.44 
L 277.2 25.44 
" style="fill: none; stroke: #000000; stroke-width: 0.8; stroke-linejoin: miter; stroke-linecap: square"/>
   </g>
   <g id="text_15">
    <!-- Temperature vs. Time for All Datasets -->
    <g transform="translate(51.01375 19.44) scale(0.12 -0.12)">
     <defs>
      <path id="DejaVuSans-76" d="M 191 3500 
L 800 3500 
L 1894 563 
L 2988 3500 
L 3597 3500 
L 2284 0 
L 1503 0 
L 191 3500 
z
" transform="scale(0.015625)"/>
      <path id="DejaVuSans-2e" d="M 684 794 
L 1344 794 
L 1344 0 
L 684 0 
L 684 794 
z
" transform="scale(0.015625)"/>
      <path id="DejaVuSans-66" d="M 2375 4863 
L 2375 4384 
L 1825 4384 
Q 1516 4384 1395 4259 
Q 1275 4134 1275 3809 
L 1275 3500 
L 2222 3500 
L 2222 3053 
L 1275 3053 
L 1275 0 
L 697 0 
L 697 3053 
L 147 3053 
L 147 3500 
L 697 3500 
L 697 3744 
Q 697 4328 969 4595 
Q 1241 4863 1831 4863 
L 2375 4863 
z
" transform="scale(0.015625)"/>
      <path id="DejaVuSans-41" d="M 2188 4044 
L 1331 1722 
L 3047 1722 
L 2188 4044 
z
M 1831 4666 
L 2547 4666 
L 4325 0 
L 3669 0 
L 3244 1197 
L 1141 1197 
L 716 0 
L 50 0 
L 1831 4666 
z
" transform="scale(0.015625)"/>
      <path id="DejaVuSans-6c" d="M 603 4863 
L 1178 4863 
L 1178 0 
L 603 0 
L 603 4863 
z
" transform="scale(0.015625)"/>
      <path id="DejaVuSans-44" d="M 1259 4147 
L 1259 519 
L 2022 519 
Q 2988 519 3436 956 
Q 3884 1394 3884 2338 
Q 3884 3275 3436 3711 
Q 2988 4147 2022 4147 
L 1259 4147 
z
M 628 4666 
L 1925 4666 
Q 3281 4666 3915 4102 
Q 4550 3538 4550 2338 
Q 4550 1131 3912 565 
Q 3275 0 1925 0 
L 628 0 
L 628 4666 
z
" transform="scale(0.015625)"/>
     </defs>
     <use xlink:href="#DejaVuSans-54"/>
     <use xlink:href="#DejaVuSans-65" x="44.083984"/>
     <use xlink:href="#DejaVuSans-6d" x="105.607422"/>
     <use xlink:href="#DejaVuSans-70" x="203.019531"/>
     <use xlink:href="#DejaVuSans-65" x="266.496094"/>
     <use xlink:href="#DejaVuSans-72" x="328.019531"/>
     <use xlink:href="#DejaVuSans-61" x="369.132812"/>
     <use xlink:href="#DejaVuSans-74" x="430.412109"/>
     <use xlink:href="#DejaVuSans-75" x="469.621094"/>
     <use xlink:href="#DejaVuSans-72" x="533"/>
     <use xlink:href="#DejaVuSans-65" x="571.863281"/>
     <use xlink:href="#DejaVuSans-20" x="633.386719"/>
     <use xlink:href="#DejaVuSans-76" x="665.173828"/>
     <use xlink:href="#DejaVuSans-73" x="724.353516"/>
     <use xlink:href="#DejaVuSans-2e" x="776.453125"/>
     <use xlink:href="#DejaVuSans-20" x="808.240234"/>
     <use xlink:href="#DejaVuSans-54" x="840.027344"/>
     <use xlink:href="#DejaVuSans-69" x="897.986328"/>
     <use xlink:href="#DejaVuSans-6d" x="925.769531"/>
     <use xlink:href="#DejaVuSans-65" x="1023.181641"/>
     <use xlink:href="#DejaVuSans-20" x="1084.705078"/>
     <use xlink:href="#DejaVuSans-66" x="1116.492188"/>
     <use xlink:href="#DejaVuSans-6f" x="1151.697266"/>
     <use xlink:href="#DejaVuSans-72" x="1212.878906"/>
     <use xlink:href="#DejaVuSans-20" x="1253.992188"/>
     <use xlink:href="#DejaVuSans-41" x="1285.779297"/>
     <use xlink:href="#DejaVuSans-6c" x="1354.1875"/>
     <use xlink:href="#DejaVuSans-6c" x="1381.970703"/>
     <use xlink:href="#DejaVuSans-20" x="1409.753906"/>
     <use xlink:href="#DejaVuSans-44" x="1441.541016"/>
     <use xlink:href="#DejaVuSans-61" x="1518.542969"/>
     <use xlink:href="#DejaVuSans-74" x="1579.822266"/>
     <use xlink:href="#DejaVuSans-61" x="1619.03125"/>
     <use xlink:href="#DejaVuSans-73" x="1680.310547"/>
     <use xlink:href="#DejaVuSans-65" x="1732.410156"/>
     <use xlink:href="#DejaVuSans-74" x="1793.933594"/>
     <use xlink:href="#DejaVuSans-73" x="1833.142578"/>
    </g>
   </g>
   <g id="legend_1">
    <g id="patch_7">
     <path d="M 167.982813 107.10875 
L 270.2 107.10875 
Q 272.2 107.10875 272.2 105.10875 
L 272.2 32.44 
Q 272.2 30.44 270.2 30.44 
L 167.982813 30.44 
Q 165.982813 30.44 165.982813 32.44 
L 165.982813 105.10875 
Q 165.982813 107.10875 167.982813 107.10875 
z
" style="fill: #ffffff; opacity: 0.8; stroke: #cccccc; stroke-linejoin: miter"/>
    </g>
    <g id="line2d_30">
     <path d="M 169.982813 38.538438 
L 179.982813 38.538438 
L 189.982813 38.538438 
" style="fill: none; stroke: #1f77b4; stroke-width: 1.5; stroke-linecap: square"/>
    </g>
    <g id="text_16">
     <!-- Trial 1.xlsx -->
     <g transform="translate(197.982813 42.038438) scale(0.1 -0.1)">
      <defs>
       <path id="DejaVuSans-78" d="M 3513 3500 
L 2247 1797 
L 3578 0 
L 2900 0 
L 1881 1375 
L 863 0 
L 184 0 
L 1544 1831 
L 300 3500 
L 978 3500 
L 1906 2253 
L 2834 3500 
L 3513 3500 
z
" transform="scale(0.015625)"/>
      </defs>
      <use xlink:href="#DejaVuSans-54"/>
      <use xlink:href="#DejaVuSans-72" x="46.333984"/>
      <use xlink:href="#DejaVuSans-69" x="87.447266"/>
      <use xlink:href="#DejaVuSans-61" x="115.230469"/>
      <use xlink:href="#DejaVuSans-6c" x="176.509766"/>
      <use xlink:href="#DejaVuSans-20" x="204.292969"/>
      <use xlink:href="#DejaVuSans-31" x="236.080078"/>
      <use xlink:href="#DejaVuSans-2e" x="299.703125"/>
      <use xlink:href="#DejaVuSans-78" x="331.490234"/>
      <use xlink:href="#DejaVuSans-6c" x="390.669922"/>
      <use xlink:href="#DejaVuSans-73" x="418.453125"/>
      <use xlink:href="#DejaVuSans-78" x="470.552734"/>
     </g>
    </g>
    <g id="line2d_31">
     <path d="M 169.982813 53.216563 
L 179.982813 53.216563 
L 189.982813 53.216563 
" style="fill: none; stroke: #ff7f0e; stroke-width: 1.5; stroke-linecap: square"/>
    </g>
    <g id="text_17">
     <!-- Trial 2.xlsx -->
     <g transform="translate(197.982813 56.716563) scale(0.1 -0.1)">
      <use xlink:href="#DejaVuSans-54"/>
      <use xlink:href="#DejaVuSans-72" x="46.333984"/>
      <use xlink:href="#DejaVuSans-69" x="87.447266"/>
      <use xlink:href="#DejaVuSans-61" x="115.230469"/>
      <use xlink:href="#DejaVuSans-6c" x="176.509766"/>
      <use xlink:href="#DejaVuSans-20" x="204.292969"/>
      <use xlink:href="#DejaVuSans-32" x="236.080078"/>
      <use xlink:href="#DejaVuSans-2e" x="299.703125"/>
      <use xlink:href="#DejaVuSans-78" x="331.490234"/>
      <use xlink:href="#DejaVuSans-6c" x="390.669922"/>
      <use xlink:href="#DejaVuSans-73" x="418.453125"/>
      <use xlink:href="#DejaVuSans-78" x="470.552734"/>
     </g>
    </g>
    <g id="line2d_32">
     <path d="M 169.982813 67.894688 
L 179.982813 67.894688 
L 189.982813 67.894688 
" style="fill: none; stroke: #2ca02c; stroke-width: 1.5; stroke-linecap: square"/>
    </g>
    <g id="text_18">
     <!-- Trial 3.xlsx -->
     <g transform="translate(197.982813 71.394688) scale(0.1 -0.1)">
      <defs>
       <path id="DejaVuSans-33" d="M 2597 2516 
Q 3050 2419 3304 2112 
Q 3559 1806 3559 1356 
Q 3559 666 3084 287 
Q 2609 -91 1734 -91 
Q 1441 -91 1130 -33 
Q 819 25 488 141 
L 488 750 
Q 750 597 1062 519 
Q 1375 441 1716 441 
Q 2309 441 2620 675 
Q 2931 909 2931 1356 
Q 2931 1769 2642 2001 
Q 2353 2234 1838 2234 
L 1294 2234 
L 1294 2753 
L 1863 2753 
Q 2328 2753 2575 2939 
Q 2822 3125 2822 3475 
Q 2822 3834 2567 4026 
Q 2313 4219 1838 4219 
Q 1578 4219 1281 4162 
Q 984 4106 628 3988 
L 628 4550 
Q 988 4650 1302 4700 
Q 1616 4750 1894 4750 
Q 2613 4750 3031 4423 
Q 3450 4097 3450 3541 
Q 3450 3153 3228 2886 
Q 3006 2619 2597 2516 
z
" transform="scale(0.015625)"/>
      </defs>
      <use xlink:href="#DejaVuSans-54"/>
      <use xlink:href="#DejaVuSans-72" x="46.333984"/>
      <use xlink:href="#DejaVuSans-69" x="87.447266"/>
      <use xlink:href="#DejaVuSans-61" x="115.230469"/>
      <use xlink:href="#DejaVuSans-6c" x="176.509766"/>
      <use xlink:href="#DejaVuSans-20" x="204.292969"/>
      <use xlink:href="#DejaVuSans-33" x="236.080078"/>
      <use xlink:href="#DejaVuSans-2e" x="299.703125"/>
      <use xlink:href="#DejaVuSans-78" x="331.490234"/>
      <use xlink:href="#DejaVuSans-6c" x="390.669922"/>
      <use xlink:href="#DejaVuSans-73" x="418.453125"/>
      <use xlink:href="#DejaVuSans-78" x="470.552734"/>
     </g>
    </g>
    <g id="line2d_33">
     <path d="M 169.982813 82.572813 
L 179.982813 82.572813 
L 189.982813 82.572813 
" style="fill: none; stroke: #d62728; stroke-width: 1.5; stroke-linecap: square"/>
    </g>
    <g id="text_19">
     <!-- Trial 4.xlsx -->
     <g transform="translate(197.982813 86.072813) scale(0.1 -0.1)">
      <use xlink:href="#DejaVuSans-54"/>
      <use xlink:href="#DejaVuSans-72" x="46.333984"/>
      <use xlink:href="#DejaVuSans-69" x="87.447266"/>
      <use xlink:href="#DejaVuSans-61" x="115.230469"/>
      <use xlink:href="#DejaVuSans-6c" x="176.509766"/>
      <use xlink:href="#DejaVuSans-20" x="204.292969"/>
      <use xlink:href="#DejaVuSans-34" x="236.080078"/>
      <use xlink:href="#DejaVuSans-2e" x="299.703125"/>
      <use xlink:href="#DejaVuSans-78" x="331.490234"/>
      <use xlink:href="#DejaVuSans-6c" x="390.669922"/>
      <use xlink:href="#DejaVuSans-73" x="418.453125"/>
      <use xlink:href="#DejaVuSans-78" x="470.552734"/>
     </g>
    </g>
    <g id="line2d_34">
     <path d="M 169.982813 97.250938 
L 179.982813 97.250938 
L 189.982813 97.250938 
" style="fill: none; stroke-dasharray: 5.55,2.4; stroke-dashoffset: 0; stroke: #9467bd; stroke-width: 1.5"/>
    </g>
    <g id="text_20">
     <!-- small_fast.csv -->
     <g transform="translate(197.982813 100.750938) scale(0.1 -0.1)">
      <defs>
       <path id="DejaVuSans-5f" d="M 3263 -1063 
L 3263 -1509 
L -63 -1509 
L -63 -1063 
L 3263 -1063 
z
" transform="scale(0.015625)"/>
      </defs>
      <use xlink:href="#DejaVuSans-73"/>
      <use xlink:href="#DejaVuSans-6d" x="52.099609"/>
      <use xlink:href="#DejaVuSans-61" x="149.511719"/>
      <use xlink:href="#DejaVuSans-6c" x="210.791016"/>
      <use xlink:href="#DejaVuSans-6c" x="238.574219"/>
      <use xlink:href="#DejaVuSans-5f" x="266.357422"/>
      <use xlink:href="#DejaVuSans-66" x="316.357422"/>
      <use xlink:href="#DejaVuSans-61" x="351.5625"/>
      <use xlink:href="#DejaVuSans-73" x="412.841797"/>
      <use xlink:href="#DejaVuSans-74" x="464.941406"/>
      <use xlink:href="#DejaVuSans-2e" x="504.150391"/>
      <use xlink:href="#DejaVuSans-63" x="535.9375"/>
      <use xlink:href="#DejaVuSans-73" x="590.917969"/>
      <use xlink:href="#DejaVuSans-76" x="643.017578"/>
     </g>
    </g>
   </g>
  </g>
 </g>
 <defs>
  <clipPath id="p4214e943a5">
   <rect x="51.05" y="25.44" width="226.15" height="148.6"/>
  </clipPath>
 </defs>
</svg>
