<svg id="Layer_1" data-name="Layer 1" xmlns="http://www.w3.org/2000/svg" viewBox="0 0 334.02 206.88"><defs><style>.cls-1,.cls-11,.cls-14,.cls-15,.cls-16,.cls-17,.cls-19,.cls-2,.cls-21,.cls-23,.cls-25,.cls-27,.cls-29,.cls-3,.cls-31,.cls-33,.cls-5,.cls-7,.cls-9{fill:none;stroke-linecap:round;}.cls-1,.cls-15,.cls-3{stroke:#000;}.cls-1,.cls-14,.cls-15,.cls-16,.cls-17,.cls-2,.cls-9{stroke-linejoin:round;}.cls-1,.cls-16,.cls-2,.cls-9{stroke-width:0.42px;}.cls-2,.cls-7{stroke:#f0f;}.cls-11,.cls-19,.cls-21,.cls-23,.cls-25,.cls-27,.cls-29,.cls-3,.cls-31,.cls-33,.cls-5,.cls-7{stroke-miterlimit:10;stroke-width:0;}.cls-4{fill:#991b1e;}.cls-5{stroke:#991b1e;}.cls-6,.cls-8{fill:#f0f;}.cls-35,.cls-8{font-size:6.28px;}.cls-12,.cls-13,.cls-34,.cls-35,.cls-8{font-family:TimesNewRomanPSMT, Times New Roman;}.cls-11,.cls-14,.cls-9{stroke:blue;}.cls-10,.cls-13{fill:blue;}.cls-12,.cls-13{font-size:5.29px;}.cls-14,.cls-15,.cls-17{stroke-width:0.72px;}.cls-16,.cls-17,.cls-19{stroke:red;}.cls-18{fill:red;}.cls-20{fill:#cd2027;}.cls-21{stroke:#cd2027;}.cls-22{fill:#f26722;}.cls-23{stroke:#f26722;}.cls-24{fill:#f8991e;}.cls-25{stroke:#f8991e;}.cls-26{fill:#fecc66;}.cls-27{stroke:#fecc66;}.cls-28{fill:#e5e878;}.cls-29{stroke:#e5e878;}.cls-30{fill:#58ba48;}.cls-31{stroke:#58ba48;}.cls-32{fill:#139b48;}.cls-33{stroke:#139b48;}.cls-34{font-size:15.88px;}</style></defs><path class="cls-1" d="M123.87,311.64a1.77,1.77,0,1,0-1.77,1.77,1.77,1.77,0,0,0,1.77-1.77" transform="translate(-51.93 -237.57)"/><path class="cls-1" d="M136.65,311.64a1.77,1.77,0,1,0-1.77,1.77,1.77,1.77,0,0,0,1.77-1.77" transform="translate(-51.93 -237.57)"/><path class="cls-1" d="M136.65,330.78a1.77,1.77,0,1,0-1.77,1.77,1.77,1.77,0,0,0,1.77-1.77" transform="translate(-51.93 -237.57)"/><path class="cls-1" d="M123.87,330.78a1.77,1.77,0,1,0-1.77,1.77,1.77,1.77,0,0,0,1.77-1.77" transform="translate(-51.93 -237.57)"/><path class="cls-1" d="M123.87,378.12a1.77,1.77,0,1,0-1.77,1.77,1.77,1.77,0,0,0,1.77-1.77" transform="translate(-51.93 -237.57)"/><path class="cls-1" d="M129,378.12a1.77,1.77,0,1,0-1.77,1.77,1.77,1.77,0,0,0,1.77-1.77" transform="translate(-51.93 -237.57)"/><path class="cls-1" d="M131.55,362a1.77,1.77,0,1,0-1.77,1.77,1.77,1.77,0,0,0,1.77-1.77" transform="translate(-51.93 -237.57)"/><path class="cls-1" d="M131.55,346.14a1.77,1.77,0,1,0-1.77,1.77,1.77,1.77,0,0,0,1.77-1.77" transform="translate(-51.93 -237.57)"/><path class="cls-1" d="M123.87,343.62a1.77,1.77,0,1,0-1.77,1.77,1.77,1.77,0,0,0,1.77-1.77" transform="translate(-51.93 -237.57)"/><path class="cls-1" d="M132.69,338.46a1.77,1.77,0,1,0-1.77,1.77,1.77,1.77,0,0,0,1.77-1.77" transform="translate(-51.93 -237.57)"/><path class="cls-1" d="M123.87,358.92a1.77,1.77,0,1,0-1.77,1.77,1.77,1.77,0,0,0,1.77-1.77" transform="translate(-51.93 -237.57)"/><path class="cls-1" d="M129,369.18A1.77,1.77,0,1,0,127.2,371a1.77,1.77,0,0,0,1.77-1.77" transform="translate(-51.93 -237.57)"/><line class="cls-1" x1="72" y1="74.1" x2="81.18" y2="74.1"/><polyline class="cls-1" points="82.98 75.9 82.98 91.5 70.2 75.9 70.2 91.5"/><line class="cls-1" x1="72" y1="93.24" x2="81.18" y2="93.24"/><polyline class="cls-1" points="70.2 104.28 70.2 95.04 77.52 99.96"/><line class="cls-1" x1="72" y1="106.08" x2="76.2" y2="107.88"/><line class="cls-1" x1="77.88" y1="110.4" x2="77.88" y2="122.64"/><line class="cls-1" x1="72" y1="121.38" x2="76.26" y2="123.6"/><polyline class="cls-1" points="70.2 107.82 70.2 119.58 76.86 110.1"/><line class="cls-1" x1="77.88" y1="106.8" x2="78.66" y2="102.72"/><line class="cls-1" x1="79.02" y1="99.12" x2="82.98" y2="95.04"/><line class="cls-1" x1="77.88" y1="126.24" x2="75.3" y2="129.84"/><line class="cls-1" x1="75.3" y1="133.44" x2="75.3" y2="138.78"/><polyline class="cls-1" points="73.5 131.64 70.2 138.78 70.2 123.18 74.4 130.08"/><line class="cls-1" x1="72" y1="140.58" x2="73.5" y2="140.58"/><line class="cls-1" x1="122.04" y1="0.54" x2="172.08" y2="0.36"/><line class="cls-1" x1="174.6" y1="2.94" x2="174.6" y2="196.56"/><line class="cls-1" x1="172.08" y1="199.14" x2="122.04" y2="199.32"/><line class="cls-1" x1="119.46" y1="196.74" x2="119.46" y2="3.12"/><path class="cls-1" d="M191.43,249.84a1.35,1.35,0,1,0-1.35,1.35,1.35,1.35,0,0,0,1.35-1.35" transform="translate(-51.93 -237.57)"/><path class="cls-1" d="M201,249.84a1.35,1.35,0,1,0-1.35,1.35,1.35,1.35,0,0,0,1.35-1.35" transform="translate(-51.93 -237.57)"/><path class="cls-1" d="M201,264.24a1.35,1.35,0,1,0-1.35,1.35,1.35,1.35,0,0,0,1.35-1.35" transform="translate(-51.93 -237.57)"/><path class="cls-1" d="M191.43,264.24a1.35,1.35,0,1,0-1.35,1.35,1.35,1.35,0,0,0,1.35-1.35" transform="translate(-51.93 -237.57)"/><path class="cls-1" d="M191.43,299.76a1.35,1.35,0,1,0-1.35,1.35,1.35,1.35,0,0,0,1.35-1.35" transform="translate(-51.93 -237.57)"/><path class="cls-1" d="M195.27,299.76a1.35,1.35,0,1,0-1.35,1.35,1.35,1.35,0,0,0,1.35-1.35" transform="translate(-51.93 -237.57)"/><path class="cls-1" d="M197.19,287.64a1.35,1.35,0,1,0-1.35,1.35,1.35,1.35,0,0,0,1.35-1.35" transform="translate(-51.93 -237.57)"/><line class="cls-2" x1="142.8" y1="37.56" x2="143.22" y2="37.08"/><line class="cls-2" x1="142.62" y1="37.92" x2="143.64" y2="36.9"/><line class="cls-2" x1="142.62" y1="38.16" x2="143.88" y2="36.9"/><line class="cls-2" x1="142.62" y1="38.4" x2="144.12" y2="36.9"/><line class="cls-2" x1="142.62" y1="38.58" x2="144.3" y2="36.9"/><line class="cls-2" x1="142.68" y1="38.76" x2="144.48" y2="36.96"/><line class="cls-2" x1="142.8" y1="38.88" x2="144.6" y2="37.08"/><line class="cls-2" x1="142.86" y1="39.06" x2="144.78" y2="37.14"/><line class="cls-2" x1="142.98" y1="39.18" x2="144.9" y2="37.26"/><line class="cls-2" x1="143.1" y1="39.24" x2="144.96" y2="37.38"/><line class="cls-2" x1="143.22" y1="39.36" x2="145.08" y2="37.5"/><line class="cls-2" x1="143.34" y1="39.42" x2="145.14" y2="37.68"/><line class="cls-2" x1="143.52" y1="39.48" x2="145.2" y2="37.8"/><line class="cls-2" x1="143.7" y1="39.54" x2="145.26" y2="37.98"/><line class="cls-2" x1="143.94" y1="39.54" x2="145.26" y2="38.22"/><line class="cls-2" x1="144.18" y1="39.54" x2="145.26" y2="38.46"/><line class="cls-2" x1="144.48" y1="39.48" x2="145.14" y2="38.76"/><path class="cls-1" d="M197.19,275.76a1.35,1.35,0,1,0-1.35,1.35,1.35,1.35,0,0,0,1.35-1.35" transform="translate(-51.93 -237.57)"/><path class="cls-1" d="M191.43,273.84a1.35,1.35,0,1,0-1.35,1.35,1.35,1.35,0,0,0,1.35-1.35" transform="translate(-51.93 -237.57)"/><path class="cls-1" d="M198.09,270a1.35,1.35,0,1,0-1.35,1.35,1.35,1.35,0,0,0,1.35-1.35" transform="translate(-51.93 -237.57)"/><path class="cls-1" d="M191.43,285.36a1.35,1.35,0,1,0-1.35,1.35,1.35,1.35,0,0,0,1.35-1.35" transform="translate(-51.93 -237.57)"/><path class="cls-1" d="M195.27,293a1.35,1.35,0,1,0-1.35,1.35,1.35,1.35,0,0,0,1.35-1.35" transform="translate(-51.93 -237.57)"/><line class="cls-1" x1="139.5" y1="12.3" x2="146.46" y2="12.3"/><polyline class="cls-1" points="147.78 13.68 147.78 25.38 138.18 13.68 138.18 25.38"/><line class="cls-1" x1="139.5" y1="26.7" x2="146.46" y2="26.7"/><polyline class="cls-1" points="138.18 34.98 138.18 28.08 143.7 31.74"/><line class="cls-2" x1="139.5" y1="36.3" x2="142.74" y2="37.68"/><line class="cls-2" x1="143.94" y1="39.54" x2="143.94" y2="48.72"/><line class="cls-1" x1="139.5" y1="47.82" x2="142.74" y2="49.5"/><line class="cls-2" x1="138.18" y1="46.5" x2="143.16" y2="39.3"/><line class="cls-1" x1="138.18" y1="46.5" x2="138.18" y2="37.62"/><line class="cls-2" x1="143.94" y1="36.9" x2="144.54" y2="33.78"/><line class="cls-1" x1="144.84" y1="31.14" x2="147.78" y2="28.08"/><line class="cls-1" x1="143.94" y1="51.42" x2="142.02" y2="54.12"/><line class="cls-1" x1="142.02" y1="56.82" x2="142.02" y2="60.84"/><polyline class="cls-1" points="140.7 55.5 138.18 60.84 138.18 49.14 141.3 54.36"/><line class="cls-1" x1="139.5" y1="62.22" x2="140.7" y2="62.22"/><path class="cls-1" d="M191.43,312.36a1.35,1.35,0,1,0-1.35,1.35,1.35,1.35,0,0,0,1.35-1.35" transform="translate(-51.93 -237.57)"/><path class="cls-1" d="M201,312.36a1.35,1.35,0,1,0-1.35,1.35,1.35,1.35,0,0,0,1.35-1.35" transform="translate(-51.93 -237.57)"/><path class="cls-1" d="M201,326.76a1.35,1.35,0,1,0-1.35,1.35,1.35,1.35,0,0,0,1.35-1.35" transform="translate(-51.93 -237.57)"/><line class="cls-2" x1="137.04" y1="88.5" x2="137.46" y2="88.08"/><line class="cls-2" x1="136.86" y1="88.86" x2="137.88" y2="87.9"/><line class="cls-2" x1="136.86" y1="89.16" x2="138.12" y2="87.84"/><line class="cls-2" x1="136.86" y1="89.34" x2="138.36" y2="87.84"/><line class="cls-2" x1="136.92" y1="89.52" x2="138.54" y2="87.9"/><line class="cls-2" x1="136.92" y1="89.7" x2="138.72" y2="87.96"/><line class="cls-2" x1="137.04" y1="89.88" x2="138.84" y2="88.02"/><line class="cls-2" x1="137.1" y1="90" x2="139.02" y2="88.14"/><line class="cls-2" x1="137.22" y1="90.12" x2="139.14" y2="88.2"/><line class="cls-2" x1="137.34" y1="90.24" x2="139.2" y2="88.32"/><line class="cls-2" x1="137.46" y1="90.3" x2="139.32" y2="88.5"/><line class="cls-2" x1="137.64" y1="90.42" x2="139.38" y2="88.62"/><line class="cls-2" x1="137.76" y1="90.48" x2="139.44" y2="88.8"/><line class="cls-2" x1="137.94" y1="90.54" x2="139.5" y2="88.98"/><line class="cls-2" x1="138.18" y1="90.54" x2="139.5" y2="89.16"/><line class="cls-2" x1="138.42" y1="90.54" x2="139.5" y2="89.4"/><line class="cls-2" x1="138.72" y1="90.42" x2="139.44" y2="89.76"/><path class="cls-1" d="M191.43,326.76a1.35,1.35,0,1,0-1.35,1.35,1.35,1.35,0,0,0,1.35-1.35" transform="translate(-51.93 -237.57)"/><path class="cls-1" d="M191.43,362.22a1.35,1.35,0,1,0-1.35,1.35,1.35,1.35,0,0,0,1.35-1.35" transform="translate(-51.93 -237.57)"/><path class="cls-1" d="M195.27,362.22a1.35,1.35,0,1,0-1.35,1.35,1.35,1.35,0,0,0,1.35-1.35" transform="translate(-51.93 -237.57)"/><path class="cls-1" d="M197.19,350.1a1.35,1.35,0,1,0-1.35,1.35,1.35,1.35,0,0,0,1.35-1.35" transform="translate(-51.93 -237.57)"/><path class="cls-1" d="M197.19,338.22a1.35,1.35,0,1,0-1.35,1.35,1.35,1.35,0,0,0,1.35-1.35" transform="translate(-51.93 -237.57)"/><path class="cls-1" d="M191.43,336.3a1.35,1.35,0,1,0-1.35,1.35,1.35,1.35,0,0,0,1.35-1.35" transform="translate(-51.93 -237.57)"/><path class="cls-1" d="M198.09,332.52a1.35,1.35,0,1,0-1.35,1.35,1.35,1.35,0,0,0,1.35-1.35" transform="translate(-51.93 -237.57)"/><path class="cls-1" d="M191.43,347.82a1.35,1.35,0,1,0-1.35,1.35,1.35,1.35,0,0,0,1.35-1.35" transform="translate(-51.93 -237.57)"/><path class="cls-1" d="M195.27,355.5a1.35,1.35,0,1,0-1.35,1.35,1.35,1.35,0,0,0,1.35-1.35" transform="translate(-51.93 -237.57)"/><line class="cls-1" x1="139.5" y1="74.82" x2="146.46" y2="74.82"/><polyline class="cls-1" points="147.78 76.14 147.78 87.84 138.18 76.14"/><line class="cls-2" x1="138.18" y1="76.14" x2="138.18" y2="87.84"/><line class="cls-2" x1="139.5" y1="89.22" x2="146.46" y2="89.22"/><polyline class="cls-2" points="138.18 97.44 138.18 90.54 143.7 94.2"/><line class="cls-1" x1="139.5" y1="98.76" x2="142.74" y2="100.14"/><line class="cls-1" x1="143.94" y1="102.06" x2="143.94" y2="111.24"/><line class="cls-1" x1="139.5" y1="110.28" x2="142.74" y2="111.96"/><polyline class="cls-1" points="138.18 100.14 138.18 108.96 143.16 101.82"/><line class="cls-1" x1="143.94" y1="99.36" x2="144.54" y2="96.24"/><line class="cls-1" x1="144.84" y1="93.6" x2="147.78" y2="90.54"/><line class="cls-1" x1="143.94" y1="113.88" x2="142.02" y2="116.64"/><line class="cls-1" x1="142.02" y1="119.34" x2="142.02" y2="123.36"/><polyline class="cls-1" points="140.7 117.96 138.18 123.36 138.18 111.66 141.3 116.82"/><line class="cls-1" x1="139.5" y1="124.68" x2="140.7" y2="124.68"/><path class="cls-1" d="M191.43,374.82a1.35,1.35,0,1,0-1.35,1.35,1.35,1.35,0,0,0,1.35-1.35" transform="translate(-51.93 -237.57)"/><path class="cls-1" d="M201,374.82a1.35,1.35,0,1,0-1.35,1.35,1.35,1.35,0,0,0,1.35-1.35" transform="translate(-51.93 -237.57)"/><path class="cls-1" d="M201,389.22a1.35,1.35,0,1,0-1.35,1.35,1.35,1.35,0,0,0,1.35-1.35" transform="translate(-51.93 -237.57)"/><path class="cls-1" d="M191.43,389.22a1.35,1.35,0,1,0-1.35,1.35,1.35,1.35,0,0,0,1.35-1.35" transform="translate(-51.93 -237.57)"/><path class="cls-1" d="M191.43,424.68a1.35,1.35,0,1,0-1.35,1.35,1.35,1.35,0,0,0,1.35-1.35" transform="translate(-51.93 -237.57)"/><path class="cls-1" d="M195.27,424.68a1.35,1.35,0,1,0-1.35,1.35,1.35,1.35,0,0,0,1.35-1.35" transform="translate(-51.93 -237.57)"/><line class="cls-2" x1="142.98" y1="174.12" x2="143.04" y2="174.06"/><line class="cls-2" x1="142.68" y1="174.66" x2="143.58" y2="173.76"/><line class="cls-2" x1="142.62" y1="174.96" x2="143.82" y2="173.7"/><line class="cls-2" x1="142.62" y1="175.14" x2="144.06" y2="173.7"/><line class="cls-2" x1="142.62" y1="175.38" x2="144.24" y2="173.76"/><line class="cls-2" x1="142.68" y1="175.5" x2="144.42" y2="173.82"/><line class="cls-2" x1="142.74" y1="175.68" x2="144.6" y2="173.88"/><line class="cls-2" x1="142.86" y1="175.8" x2="144.72" y2="173.94"/><line class="cls-2" x1="142.92" y1="175.92" x2="144.84" y2="174.06"/><line class="cls-2" x1="143.04" y1="176.04" x2="144.96" y2="174.18"/><line class="cls-2" x1="143.22" y1="176.16" x2="145.08" y2="174.3"/><line class="cls-2" x1="143.34" y1="176.22" x2="145.14" y2="174.42"/><line class="cls-2" x1="143.52" y1="176.34" x2="145.2" y2="174.6"/><line class="cls-2" x1="143.64" y1="176.34" x2="145.26" y2="174.78"/><line class="cls-2" x1="143.88" y1="176.4" x2="145.26" y2="174.96"/><line class="cls-2" x1="144.12" y1="176.4" x2="145.26" y2="175.2"/><line class="cls-2" x1="144.42" y1="176.28" x2="145.2" y2="175.5"/><path class="cls-1" d="M197.19,412.56a1.35,1.35,0,1,0-1.35,1.35,1.35,1.35,0,0,0,1.35-1.35" transform="translate(-51.93 -237.57)"/><path class="cls-1" d="M197.19,400.74a1.35,1.35,0,1,0-1.35,1.35,1.35,1.35,0,0,0,1.35-1.35" transform="translate(-51.93 -237.57)"/><path class="cls-1" d="M191.43,398.82a1.35,1.35,0,1,0-1.35,1.35,1.35,1.35,0,0,0,1.35-1.35" transform="translate(-51.93 -237.57)"/><path class="cls-1" d="M198.09,395a1.35,1.35,0,1,0-1.35,1.35,1.35,1.35,0,0,0,1.35-1.35" transform="translate(-51.93 -237.57)"/><path class="cls-1" d="M191.43,410.34a1.35,1.35,0,1,0-1.35,1.35,1.35,1.35,0,0,0,1.35-1.35" transform="translate(-51.93 -237.57)"/><path class="cls-1" d="M195.27,418a1.35,1.35,0,1,0-1.35,1.35,1.35,1.35,0,0,0,1.35-1.35" transform="translate(-51.93 -237.57)"/><line class="cls-1" x1="139.5" y1="137.28" x2="146.46" y2="137.28"/><polyline class="cls-1" points="147.78 138.66 147.78 150.36 138.18 138.66 138.18 150.36"/><line class="cls-1" x1="139.5" y1="151.68" x2="146.46" y2="151.68"/><polyline class="cls-1" points="138.18 159.9 138.18 153 143.7 156.66"/><line class="cls-1" x1="139.5" y1="161.28" x2="142.74" y2="162.66"/><line class="cls-2" x1="143.94" y1="164.52" x2="143.94" y2="173.7"/><line class="cls-2" x1="139.5" y1="172.8" x2="142.74" y2="174.42"/><polyline class="cls-1" points="138.18 162.6 138.18 171.42 143.16 164.28"/><line class="cls-1" x1="143.94" y1="161.82" x2="144.54" y2="158.76"/><line class="cls-1" x1="144.84" y1="156.06" x2="147.78" y2="153"/><line class="cls-2" x1="143.94" y1="176.4" x2="142.02" y2="179.1"/><line class="cls-1" x1="142.02" y1="181.8" x2="142.02" y2="185.82"/><polyline class="cls-1" points="140.7 180.42 138.18 185.82 138.18 174.12 141.3 179.28"/><line class="cls-1" x1="139.5" y1="187.14" x2="140.7" y2="187.14"/><path class="cls-1" d="M277.77,249.84a1.35,1.35,0,1,0-1.35,1.35,1.35,1.35,0,0,0,1.35-1.35" transform="translate(-51.93 -237.57)"/><path class="cls-1" d="M287.37,249.84a1.35,1.35,0,1,0-1.35,1.35,1.35,1.35,0,0,0,1.35-1.35" transform="translate(-51.93 -237.57)"/><path class="cls-1" d="M287.37,264.24a1.35,1.35,0,1,0-1.35,1.35,1.35,1.35,0,0,0,1.35-1.35" transform="translate(-51.93 -237.57)"/><path class="cls-1" d="M277.77,264.24a1.35,1.35,0,1,0-1.35,1.35,1.35,1.35,0,0,0,1.35-1.35" transform="translate(-51.93 -237.57)"/><path class="cls-1" d="M277.77,299.76a1.35,1.35,0,1,0-1.35,1.35,1.35,1.35,0,0,0,1.35-1.35" transform="translate(-51.93 -237.57)"/><path class="cls-1" d="M281.61,299.76a1.35,1.35,0,1,0-1.35,1.35,1.35,1.35,0,0,0,1.35-1.35" transform="translate(-51.93 -237.57)"/><path class="cls-1" d="M283.53,287.64a1.35,1.35,0,1,0-1.35,1.35,1.35,1.35,0,0,0,1.35-1.35" transform="translate(-51.93 -237.57)"/><line class="cls-2" x1="229.14" y1="37.56" x2="229.62" y2="37.08"/><line class="cls-2" x1="228.96" y1="37.92" x2="229.98" y2="36.9"/><line class="cls-2" x1="228.96" y1="38.16" x2="230.22" y2="36.9"/><line class="cls-2" x1="228.96" y1="38.4" x2="230.46" y2="36.9"/><line class="cls-2" x1="228.96" y1="38.58" x2="230.64" y2="36.9"/><line class="cls-2" x1="229.02" y1="38.76" x2="230.82" y2="36.96"/><line class="cls-2" x1="229.14" y1="38.88" x2="230.94" y2="37.08"/><line class="cls-2" x1="229.2" y1="39.06" x2="231.12" y2="37.14"/><line class="cls-2" x1="229.32" y1="39.18" x2="231.24" y2="37.26"/><line class="cls-2" x1="229.44" y1="39.24" x2="231.3" y2="37.38"/><line class="cls-2" x1="229.56" y1="39.36" x2="231.42" y2="37.5"/><line class="cls-2" x1="229.74" y1="39.42" x2="231.48" y2="37.68"/><line class="cls-2" x1="229.86" y1="39.48" x2="231.54" y2="37.8"/><line class="cls-2" x1="230.04" y1="39.54" x2="231.6" y2="37.98"/><line class="cls-2" x1="230.28" y1="39.54" x2="231.6" y2="38.22"/><line class="cls-2" x1="230.52" y1="39.54" x2="231.6" y2="38.46"/><line class="cls-2" x1="230.82" y1="39.48" x2="231.54" y2="38.76"/><path class="cls-1" d="M283.53,275.76a1.35,1.35,0,1,0-1.35,1.35,1.35,1.35,0,0,0,1.35-1.35" transform="translate(-51.93 -237.57)"/><path class="cls-1" d="M277.77,273.84a1.35,1.35,0,1,0-1.35,1.35,1.35,1.35,0,0,0,1.35-1.35" transform="translate(-51.93 -237.57)"/><path class="cls-1" d="M284.43,270a1.35,1.35,0,1,0-1.35,1.35,1.35,1.35,0,0,0,1.35-1.35" transform="translate(-51.93 -237.57)"/><path class="cls-1" d="M277.77,285.36a1.35,1.35,0,1,0-1.35,1.35,1.35,1.35,0,0,0,1.35-1.35" transform="translate(-51.93 -237.57)"/><path class="cls-1" d="M281.61,293a1.35,1.35,0,1,0-1.35,1.35,1.35,1.35,0,0,0,1.35-1.35" transform="translate(-51.93 -237.57)"/><line class="cls-1" x1="225.9" y1="12.3" x2="232.8" y2="12.3"/><polyline class="cls-1" points="234.12 13.68 234.12 25.38 224.52 13.68 224.52 25.38"/><line class="cls-1" x1="225.9" y1="26.7" x2="232.8" y2="26.7"/><polyline class="cls-1" points="224.52 34.98 224.52 28.08 230.04 31.74"/><line class="cls-2" x1="225.9" y1="36.3" x2="229.08" y2="37.68"/><line class="cls-2" x1="230.28" y1="39.54" x2="230.28" y2="48.72"/><line class="cls-1" x1="225.9" y1="47.82" x2="229.08" y2="49.5"/><line class="cls-2" x1="224.52" y1="46.5" x2="229.5" y2="39.3"/><line class="cls-1" x1="224.52" y1="46.5" x2="224.52" y2="37.62"/><line class="cls-2" x1="230.28" y1="36.9" x2="230.88" y2="33.78"/><line class="cls-1" x1="231.18" y1="31.14" x2="234.12" y2="28.08"/><line class="cls-1" x1="230.28" y1="51.42" x2="228.36" y2="54.12"/><line class="cls-1" x1="228.36" y1="56.82" x2="228.36" y2="60.84"/><polyline class="cls-1" points="227.04 55.5 224.52 60.84 224.52 49.14 227.7 54.36"/><line class="cls-1" x1="225.9" y1="62.22" x2="227.04" y2="62.22"/><path class="cls-1" d="M277.77,312.36a1.35,1.35,0,1,0-1.35,1.35,1.35,1.35,0,0,0,1.35-1.35" transform="translate(-51.93 -237.57)"/><path class="cls-1" d="M287.37,312.36a1.35,1.35,0,1,0-1.35,1.35,1.35,1.35,0,0,0,1.35-1.35" transform="translate(-51.93 -237.57)"/><path class="cls-1" d="M287.37,326.76a1.35,1.35,0,1,0-1.35,1.35,1.35,1.35,0,0,0,1.35-1.35" transform="translate(-51.93 -237.57)"/><line class="cls-2" x1="223.38" y1="88.5" x2="223.8" y2="88.08"/><line class="cls-2" x1="223.2" y1="88.86" x2="224.22" y2="87.9"/><line class="cls-2" x1="223.2" y1="89.16" x2="224.46" y2="87.84"/><line class="cls-2" x1="223.2" y1="89.34" x2="224.7" y2="87.84"/><line class="cls-2" x1="223.26" y1="89.52" x2="224.88" y2="87.9"/><line class="cls-2" x1="223.32" y1="89.7" x2="225.06" y2="87.96"/><line class="cls-2" x1="223.38" y1="89.88" x2="225.18" y2="88.02"/><line class="cls-2" x1="223.44" y1="90" x2="225.36" y2="88.14"/><line class="cls-2" x1="223.56" y1="90.12" x2="225.48" y2="88.2"/><line class="cls-2" x1="223.68" y1="90.24" x2="225.54" y2="88.32"/><line class="cls-2" x1="223.8" y1="90.3" x2="225.66" y2="88.5"/><line class="cls-2" x1="223.98" y1="90.42" x2="225.72" y2="88.62"/><line class="cls-2" x1="224.1" y1="90.48" x2="225.78" y2="88.8"/><line class="cls-2" x1="224.28" y1="90.54" x2="225.84" y2="88.98"/><line class="cls-2" x1="224.52" y1="90.54" x2="225.9" y2="89.16"/><line class="cls-2" x1="224.76" y1="90.54" x2="225.84" y2="89.4"/><line class="cls-2" x1="225.06" y1="90.42" x2="225.78" y2="89.76"/><path class="cls-1" d="M277.77,326.76a1.35,1.35,0,1,0-1.35,1.35,1.35,1.35,0,0,0,1.35-1.35" transform="translate(-51.93 -237.57)"/><path class="cls-1" d="M277.77,362.22a1.35,1.35,0,1,0-1.35,1.35,1.35,1.35,0,0,0,1.35-1.35" transform="translate(-51.93 -237.57)"/><path class="cls-1" d="M281.61,362.22a1.35,1.35,0,1,0-1.35,1.35,1.35,1.35,0,0,0,1.35-1.35" transform="translate(-51.93 -237.57)"/><path class="cls-1" d="M283.53,350.1a1.35,1.35,0,1,0-1.35,1.35,1.35,1.35,0,0,0,1.35-1.35" transform="translate(-51.93 -237.57)"/><path class="cls-1" d="M283.53,338.22a1.35,1.35,0,1,0-1.35,1.35,1.35,1.35,0,0,0,1.35-1.35" transform="translate(-51.93 -237.57)"/><path class="cls-1" d="M277.77,336.3a1.35,1.35,0,1,0-1.35,1.35,1.35,1.35,0,0,0,1.35-1.35" transform="translate(-51.93 -237.57)"/><path class="cls-1" d="M284.43,332.52a1.35,1.35,0,1,0-1.35,1.35,1.35,1.35,0,0,0,1.35-1.35" transform="translate(-51.93 -237.57)"/><path class="cls-1" d="M277.77,347.82a1.35,1.35,0,1,0-1.35,1.35,1.35,1.35,0,0,0,1.35-1.35" transform="translate(-51.93 -237.57)"/><path class="cls-1" d="M281.61,355.5a1.35,1.35,0,1,0-1.35,1.35,1.35,1.35,0,0,0,1.35-1.35" transform="translate(-51.93 -237.57)"/><line class="cls-1" x1="225.9" y1="74.82" x2="232.8" y2="74.82"/><polyline class="cls-1" points="234.12 76.14 234.12 87.84 224.52 76.14"/><line class="cls-2" x1="224.52" y1="76.14" x2="224.52" y2="87.84"/><line class="cls-2" x1="225.9" y1="89.22" x2="232.8" y2="89.22"/><polyline class="cls-2" points="224.52 97.44 224.52 90.54 230.04 94.2"/><line class="cls-1" x1="225.9" y1="98.76" x2="229.08" y2="100.14"/><line class="cls-1" x1="230.28" y1="102.06" x2="230.28" y2="111.24"/><line class="cls-1" x1="225.9" y1="110.28" x2="229.08" y2="111.96"/><polyline class="cls-1" points="224.52 100.14 224.52 108.96 229.5 101.82"/><line class="cls-1" x1="230.28" y1="99.36" x2="230.88" y2="96.24"/><line class="cls-1" x1="231.18" y1="93.6" x2="234.12" y2="90.54"/><line class="cls-1" x1="230.28" y1="113.88" x2="228.36" y2="116.64"/><line class="cls-1" x1="228.36" y1="119.34" x2="228.36" y2="123.36"/><polyline class="cls-1" points="227.04 117.96 224.52 123.36 224.52 111.66 227.7 116.82"/><line class="cls-1" x1="225.9" y1="124.68" x2="227.04" y2="124.68"/><path class="cls-1" d="M277.77,374.82a1.35,1.35,0,1,0-1.35,1.35,1.35,1.35,0,0,0,1.35-1.35" transform="translate(-51.93 -237.57)"/><path class="cls-1" d="M287.37,374.82a1.35,1.35,0,1,0-1.35,1.35,1.35,1.35,0,0,0,1.35-1.35" transform="translate(-51.93 -237.57)"/><path class="cls-1" d="M287.37,389.22a1.35,1.35,0,1,0-1.35,1.35,1.35,1.35,0,0,0,1.35-1.35" transform="translate(-51.93 -237.57)"/><path class="cls-1" d="M277.77,389.22a1.35,1.35,0,1,0-1.35,1.35,1.35,1.35,0,0,0,1.35-1.35" transform="translate(-51.93 -237.57)"/><path class="cls-1" d="M277.77,424.68a1.35,1.35,0,1,0-1.35,1.35,1.35,1.35,0,0,0,1.35-1.35" transform="translate(-51.93 -237.57)"/><path class="cls-1" d="M281.61,424.68a1.35,1.35,0,1,0-1.35,1.35,1.35,1.35,0,0,0,1.35-1.35" transform="translate(-51.93 -237.57)"/><line class="cls-2" x1="229.32" y1="174.12" x2="229.38" y2="174.06"/><line class="cls-2" x1="229.02" y1="174.66" x2="229.92" y2="173.76"/><line class="cls-2" x1="228.96" y1="174.96" x2="230.16" y2="173.7"/><line class="cls-2" x1="228.96" y1="175.14" x2="230.4" y2="173.7"/><line class="cls-2" x1="228.96" y1="175.38" x2="230.58" y2="173.76"/><line class="cls-2" x1="229.02" y1="175.5" x2="230.76" y2="173.82"/><line class="cls-2" x1="229.08" y1="175.68" x2="230.94" y2="173.88"/><line class="cls-2" x1="229.2" y1="175.8" x2="231.06" y2="173.94"/><line class="cls-2" x1="229.32" y1="175.92" x2="231.18" y2="174.06"/><line class="cls-2" x1="229.38" y1="176.04" x2="231.3" y2="174.18"/><line class="cls-2" x1="229.56" y1="176.16" x2="231.42" y2="174.3"/><line class="cls-2" x1="229.68" y1="176.22" x2="231.48" y2="174.42"/><line class="cls-2" x1="229.86" y1="176.34" x2="231.54" y2="174.6"/><line class="cls-2" x1="230.04" y1="176.34" x2="231.6" y2="174.78"/><line class="cls-2" x1="230.22" y1="176.4" x2="231.6" y2="174.96"/><line class="cls-2" x1="230.46" y1="176.4" x2="231.6" y2="175.2"/><line class="cls-2" x1="230.76" y1="176.28" x2="231.54" y2="175.5"/><path class="cls-1" d="M283.53,412.56a1.35,1.35,0,1,0-1.35,1.35,1.35,1.35,0,0,0,1.35-1.35" transform="translate(-51.93 -237.57)"/><path class="cls-1" d="M283.53,400.74a1.35,1.35,0,1,0-1.35,1.35,1.35,1.35,0,0,0,1.35-1.35" transform="translate(-51.93 -237.57)"/><path class="cls-1" d="M277.77,398.82a1.35,1.35,0,1,0-1.35,1.35,1.35,1.35,0,0,0,1.35-1.35" transform="translate(-51.93 -237.57)"/><path class="cls-1" d="M284.43,395a1.35,1.35,0,1,0-1.35,1.35,1.35,1.35,0,0,0,1.35-1.35" transform="translate(-51.93 -237.57)"/><path class="cls-1" d="M277.77,410.34a1.35,1.35,0,1,0-1.35,1.35,1.35,1.35,0,0,0,1.35-1.35" transform="translate(-51.93 -237.57)"/><path class="cls-1" d="M281.61,418a1.35,1.35,0,1,0-1.35,1.35,1.35,1.35,0,0,0,1.35-1.35" transform="translate(-51.93 -237.57)"/><line class="cls-1" x1="225.9" y1="137.28" x2="232.8" y2="137.28"/><polyline class="cls-1" points="234.12 138.66 234.12 150.36 224.52 138.66 224.52 150.36"/><line class="cls-1" x1="225.9" y1="151.68" x2="232.8" y2="151.68"/><polyline class="cls-1" points="224.52 159.9 224.52 153 230.04 156.66"/><line class="cls-1" x1="225.9" y1="161.28" x2="229.08" y2="162.66"/><line class="cls-2" x1="230.28" y1="164.52" x2="230.28" y2="173.7"/><line class="cls-2" x1="225.9" y1="172.8" x2="229.08" y2="174.42"/><polyline class="cls-1" points="224.52 162.6 224.52 171.42 229.5 164.28"/><line class="cls-1" x1="230.28" y1="161.82" x2="230.88" y2="158.76"/><line class="cls-1" x1="231.18" y1="156.06" x2="234.12" y2="153"/><line class="cls-2" x1="230.28" y1="176.4" x2="228.36" y2="179.1"/><line class="cls-1" x1="228.36" y1="181.8" x2="228.36" y2="185.82"/><polyline class="cls-1" points="227.04 180.42 224.52 185.82 224.52 174.12 227.7 179.28"/><line class="cls-1" x1="225.9" y1="187.14" x2="227.04" y2="187.14"/><line class="cls-1" x1="114.84" y1="99.78" x2="101.58" y2="99.78"/><polygon points="114.84 99.06 119.46 99.78 114.84 100.56 114.84 99.06"/><polygon class="cls-3" points="114.84 99.06 119.46 99.78 114.84 100.56 114.84 99.06"/><path class="cls-1" d="M353.49,299.1a1.77,1.77,0,1,0-1.77,1.77,1.77,1.77,0,0,0,1.77-1.77" transform="translate(-51.93 -237.57)"/><path class="cls-1" d="M363.33,299.1a1.77,1.77,0,1,0-1.77,1.77,1.77,1.77,0,0,0,1.77-1.77" transform="translate(-51.93 -237.57)"/><path class="cls-1" d="M363.33,332.76a1.77,1.77,0,1,0-1.77,1.77,1.77,1.77,0,0,0,1.77-1.77" transform="translate(-51.93 -237.57)"/><path class="cls-1" d="M353.49,331.38a1.77,1.77,0,1,0-1.77,1.77,1.77,1.77,0,0,0,1.77-1.77" transform="translate(-51.93 -237.57)"/><path class="cls-1" d="M353.49,389.1a1.77,1.77,0,1,0-1.77,1.77,1.77,1.77,0,0,0,1.77-1.77" transform="translate(-51.93 -237.57)"/><path class="cls-4" d="M356.73,387.33l.66.06h-1Zm.3,0h-.3l.66.06Z" transform="translate(-51.93 -237.57)"/><path class="cls-5" d="M356.73,387.33l.66.06h-1Zm.3,0h-.3l.66.06Z" transform="translate(-51.93 -237.57)"/><path class="cls-4" d="M356.43,387.39l1.26.12h-1.62Zm1,0h-1l1.26.12Z" transform="translate(-51.93 -237.57)"/><path class="cls-5" d="M356.43,387.39l1.26.12h-1.62Zm1,0h-1l1.26.12Z" transform="translate(-51.93 -237.57)"/><path class="cls-4" d="M356.07,387.51l1.92.18h-2.16Zm1.62,0h-1.62l1.92.18Z" transform="translate(-51.93 -237.57)"/><path class="cls-5" d="M356.07,387.51l1.92.18h-2.16Zm1.62,0h-1.62l1.92.18Z" transform="translate(-51.93 -237.57)"/><path class="cls-4" d="M355.83,387.69l2.4.24h-2.64Zm2.16,0h-2.16l2.4.24Z" transform="translate(-51.93 -237.57)"/><path class="cls-5" d="M355.83,387.69l2.4.24h-2.64Zm2.16,0h-2.16l2.4.24Z" transform="translate(-51.93 -237.57)"/><path class="cls-4" d="M355.59,387.93l2.82.24h-3.06Zm2.64,0h-2.64l2.82.24Z" transform="translate(-51.93 -237.57)"/><path class="cls-5" d="M355.59,387.93l2.82.24h-3.06Zm2.64,0h-2.64l2.82.24Z" transform="translate(-51.93 -237.57)"/><path class="cls-4" d="M355.35,388.17l3.18.3h-3.3Zm3.06,0h-3.06l3.18.3Z" transform="translate(-51.93 -237.57)"/><path class="cls-5" d="M355.35,388.17l3.18.3h-3.3Zm3.06,0h-3.06l3.18.3Z" transform="translate(-51.93 -237.57)"/><path class="cls-4" d="M355.23,388.47l3.42.3h-3.54Zm3.3,0h-3.3l3.42.3Z" transform="translate(-51.93 -237.57)"/><path class="cls-5" d="M355.23,388.47l3.42.3h-3.54Zm3.3,0h-3.3l3.42.3Z" transform="translate(-51.93 -237.57)"/><path class="cls-4" d="M355.11,388.77l3.6.36h-3.6Zm3.54,0h-3.54l3.6.36Z" transform="translate(-51.93 -237.57)"/><path class="cls-5" d="M355.11,388.77l3.6.36h-3.6Zm3.54,0h-3.54l3.6.36Z" transform="translate(-51.93 -237.57)"/><path class="cls-4" d="M355.11,389.13l3.54.3h-3.54Zm3.6,0h-3.6l3.54.3Z" transform="translate(-51.93 -237.57)"/><path class="cls-5" d="M355.11,389.13l3.54.3h-3.54Zm3.6,0h-3.6l3.54.3Z" transform="translate(-51.93 -237.57)"/><path class="cls-4" d="M355.11,389.43l3.42.3h-3.3Zm3.54,0h-3.54l3.42.3Z" transform="translate(-51.93 -237.57)"/><path class="cls-5" d="M355.11,389.43l3.42.3h-3.3Zm3.54,0h-3.54l3.42.3Z" transform="translate(-51.93 -237.57)"/><path class="cls-4" d="M355.23,389.73l3.18.3h-3.06Zm3.3,0h-3.3l3.18.3Z" transform="translate(-51.93 -237.57)"/><path class="cls-5" d="M355.23,389.73l3.18.3h-3.06Zm3.3,0h-3.3l3.18.3Z" transform="translate(-51.93 -237.57)"/><path class="cls-4" d="M355.35,390l2.88.3h-2.64Zm3.06,0h-3.06l2.88.3Z" transform="translate(-51.93 -237.57)"/><path class="cls-5" d="M355.35,390l2.88.3h-2.64Zm3.06,0h-3.06l2.88.3Z" transform="translate(-51.93 -237.57)"/><path class="cls-4" d="M355.59,390.33l2.4.18h-2.16Zm2.64,0h-2.64l2.4.18Z" transform="translate(-51.93 -237.57)"/><path class="cls-5" d="M355.59,390.33l2.4.18h-2.16Zm2.64,0h-2.64l2.4.18Z" transform="translate(-51.93 -237.57)"/><path class="cls-4" d="M355.83,390.51l1.86.18h-1.62Zm2.16,0h-2.16l1.86.18Z" transform="translate(-51.93 -237.57)"/><path class="cls-5" d="M355.83,390.51l1.86.18h-1.62Zm2.16,0h-2.16l1.86.18Z" transform="translate(-51.93 -237.57)"/><path class="cls-4" d="M356.07,390.69l1.32.12h-1Zm1.62,0h-1.62l1.32.12Z" transform="translate(-51.93 -237.57)"/><path class="cls-5" d="M356.07,390.69l1.32.12h-1Zm1.62,0h-1.62l1.32.12Z" transform="translate(-51.93 -237.57)"/><path class="cls-4" d="M356.43,390.81l.6.06h-.3Zm1,0h-1l.6.06Z" transform="translate(-51.93 -237.57)"/><path class="cls-5" d="M356.43,390.81l.6.06h-.3Zm1,0h-1l.6.06Z" transform="translate(-51.93 -237.57)"/><path class="cls-1" d="M358.65,389.1a1.77,1.77,0,1,0-1.77,1.77,1.77,1.77,0,0,0,1.77-1.77" transform="translate(-51.93 -237.57)"/><path class="cls-1" d="M361.17,372.9a1.77,1.77,0,1,0-1.77,1.77,1.77,1.77,0,0,0,1.77-1.77" transform="translate(-51.93 -237.57)"/><path class="cls-1" d="M361.17,357.12a1.77,1.77,0,1,0-1.77,1.77,1.77,1.77,0,0,0,1.77-1.77" transform="translate(-51.93 -237.57)"/><path class="cls-1" d="M353.49,354.54a1.77,1.77,0,1,0-1.77,1.77,1.77,1.77,0,0,0,1.77-1.77" transform="translate(-51.93 -237.57)"/><path class="cls-1" d="M362.37,349.44a1.77,1.77,0,1,0-1.77,1.77,1.77,1.77,0,0,0,1.77-1.77" transform="translate(-51.93 -237.57)"/><path class="cls-1" d="M353.49,369.9a1.77,1.77,0,1,0-1.77,1.77,1.77,1.77,0,0,0,1.77-1.77" transform="translate(-51.93 -237.57)"/><path class="cls-1" d="M358.65,380.1a1.77,1.77,0,1,0-1.77,1.77,1.77,1.77,0,0,0,1.77-1.77" transform="translate(-51.93 -237.57)"/><line class="cls-1" x1="301.62" y1="61.56" x2="307.86" y2="61.56"/><line class="cls-1" x1="309.78" y1="63.36" x2="309.9" y2="93.42"/><polyline class="cls-1" points="299.82 92.04 299.82 63.36 309.12 93.48"/><polyline class="cls-1" points="307.2 110.88 301.14 95.04 310.86 95.22"/><line class="cls-1" x1="299.82" y1="95.64" x2="299.82" y2="115.2"/><line class="cls-1" x1="301.62" y1="117" x2="305.88" y2="118.86"/><line class="cls-1" x1="307.5" y1="121.38" x2="307.5" y2="133.62"/><line class="cls-1" x1="301.62" y1="132.36" x2="305.94" y2="134.58"/><polyline class="cls-1" points="299.82 118.8 299.82 130.56 306.48 121.02"/><line class="cls-1" x1="307.5" y1="117.78" x2="308.34" y2="113.64"/><line class="cls-1" x1="308.7" y1="110.1" x2="309.66" y2="97.02"/><line class="cls-1" x1="307.5" y1="137.16" x2="304.98" y2="140.82"/><line class="cls-1" x1="304.98" y1="144.36" x2="304.98" y2="149.76"/><polyline class="cls-1" points="303.18 142.56 299.82 149.76 299.82 134.16 304.02 141.06"/><line class="cls-1" x1="301.62" y1="151.56" x2="303.18" y2="151.56"/><line class="cls-1" x1="281.46" y1="54.48" x2="331.14" y2="54.48"/><line class="cls-1" x1="333.66" y1="57.06" x2="333.66" y2="158.4"/><line class="cls-1" x1="331.14" y1="160.98" x2="281.46" y2="160.98"/><line class="cls-1" x1="278.88" y1="158.4" x2="278.88" y2="57.06"/><line class="cls-2" x1="157.62" y1="29.16" x2="146.22" y2="36"/><polygon class="cls-6" points="157.26 28.5 161.58 26.82 158.04 29.82 157.26 28.5"/><polygon class="cls-7" points="157.26 28.5 161.58 26.82 158.04 29.82 157.26 28.5"/><text class="cls-8" transform="translate(151.8 16.38)">Message</text><text class="cls-8" transform="translate(151.8 23.58)">Passing</text><line class="cls-9" x1="58.68" y1="51.18" x2="70.2" y2="74.1"/><polygon class="cls-10" points="58.02 51.54 56.58 47.1 59.34 50.88 58.02 51.54"/><polygon class="cls-11" points="58.02 51.54 56.58 47.1 59.34 50.88 58.02 51.54"/><line class="cls-9" x1="87.78" y1="52.44" x2="76.56" y2="74.1"/><polygon class="cls-10" points="87.12 52.08 89.94 48.36 88.5 52.8 87.12 52.08"/><polygon class="cls-11" points="87.12 52.08 89.94 48.36 88.5 52.8 87.12 52.08"/><text class="cls-12" transform="translate(126.66 205.26)">Hidden Layer 1</text><text class="cls-12" transform="translate(213 205.26)">Hidden Layer N</text><text class="cls-12" transform="translate(290.58 166.8)">Output Layer</text><text class="cls-12" transform="translate(59.1 166.5)">Input Layer</text><line class="cls-9" x1="305.82" y1="45.12" x2="309.66" y2="61.56"/><polygon class="cls-10" points="305.1 45.3 304.8 40.62 306.6 44.94 305.1 45.3"/><polygon class="cls-11" points="305.1 45.3 304.8 40.62 306.6 44.94 305.1 45.3"/><text class="cls-13" transform="translate(16.26 40.44)">[X, Y, ε, p1, p2, p3, p4]</text><text class="cls-13" transform="translate(16.5 46.5)">(node features)</text><text class="cls-13" transform="translate(75.54 38.64)">[ΔX, ΔY, L2 Norm]</text><text class="cls-13" transform="translate(75.78 44.7)">(edge features)</text><polyline class="cls-14" points="38.22 36.24 38.22 34.68 62.7 34.68 62.7 36.24"/><text class="cls-13" transform="translate(31.08 32.7)">Material Parameters</text><text class="cls-13" transform="translate(282.06 39.36)">[u1, u2, σ11, σ22, σ12]</text><line class="cls-15" x1="0.84" y1="163.62" x2="0.84" y2="140.64"/><line class="cls-15" x1="12.96" y1="163.62" x2="12.96" y2="140.64"/><line class="cls-15" x1="9.3" y1="118.26" x2="9.3" y2="121.86"/><line class="cls-15" x1="4.5" y1="118.26" x2="4.5" y2="121.86"/><path class="cls-15" d="M61.17,359.4a7.33,7.33,0,0,0,1.21,4" transform="translate(-51.93 -237.57)"/><line class="cls-15" x1="10.5" y1="133.38" x2="10.5" y2="125.88"/><line class="cls-15" x1="3.24" y1="133.38" x2="3.24" y2="125.88"/><path class="cls-15" d="M55.21,363.43a7.26,7.26,0,0,0,1.22-4" transform="translate(-51.93 -237.57)"/><path class="cls-15" d="M62.43,370.92a12.08,12.08,0,0,0,2.42,7.25" transform="translate(-51.93 -237.57)"/><path class="cls-15" d="M52.75,378.17a12.08,12.08,0,0,0,2.42-7.25" transform="translate(-51.93 -237.57)"/><line class="cls-15" x1="0.84" y1="163.62" x2="12.96" y2="163.62"/><line class="cls-15" x1="0.84" y1="72.84" x2="0.84" y2="95.88"/><line class="cls-15" x1="12.96" y1="72.84" x2="12.96" y2="95.88"/><line class="cls-15" x1="9.3" y1="118.26" x2="9.3" y2="114.6"/><line class="cls-15" x1="4.5" y1="118.26" x2="4.5" y2="114.6"/><path class="cls-15" d="M62.38,348.11a7.28,7.28,0,0,0-1.21,4" transform="translate(-51.93 -237.57)"/><line class="cls-15" x1="10.5" y1="103.14" x2="10.5" y2="110.64"/><line class="cls-15" x1="3.24" y1="103.14" x2="3.24" y2="110.64"/><path class="cls-15" d="M56.43,352.14a7.21,7.21,0,0,0-1.22-4" transform="translate(-51.93 -237.57)"/><path class="cls-15" d="M64.85,333.42a12.11,12.11,0,0,0-2.42,7.26" transform="translate(-51.93 -237.57)"/><path class="cls-15" d="M55.17,340.68a12.11,12.11,0,0,0-2.42-7.26" transform="translate(-51.93 -237.57)"/><line class="cls-15" x1="0.84" y1="72.84" x2="12.96" y2="72.84"/><path class="cls-16" d="M59.67,324.3a.87.87,0,1,0-.87.87.87.87,0,0,0,.87-.87" transform="translate(-51.93 -237.57)"/><path class="cls-16" d="M65.73,324.3a.87.87,0,1,0-.87.87.87.87,0,0,0,.87-.87" transform="translate(-51.93 -237.57)"/><path class="cls-16" d="M65.73,333.42a.87.87,0,1,0-.87.87.87.87,0,0,0,.87-.87" transform="translate(-51.93 -237.57)"/><path class="cls-16" d="M59.67,333.42a.87.87,0,1,0-.87.87.87.87,0,0,0,.87-.87" transform="translate(-51.93 -237.57)"/><path class="cls-16" d="M59.67,355.8a.87.87,0,1,0-.87.87.87.87,0,0,0,.87-.87" transform="translate(-51.93 -237.57)"/><path class="cls-16" d="M62.07,355.8a.87.87,0,1,0-.87.87.87.87,0,0,0,.87-.87" transform="translate(-51.93 -237.57)"/><path class="cls-16" d="M63.27,348.18a.87.87,0,1,0-.87.87.87.87,0,0,0,.87-.87" transform="translate(-51.93 -237.57)"/><path class="cls-16" d="M63.27,340.68a.87.87,0,1,0-.87.87.87.87,0,0,0,.87-.87" transform="translate(-51.93 -237.57)"/><path class="cls-16" d="M59.67,339.48a.87.87,0,1,0-.87.87.87.87,0,0,0,.87-.87" transform="translate(-51.93 -237.57)"/><path class="cls-16" d="M63.87,337a.87.87,0,1,0-.87.87.87.87,0,0,0,.87-.87" transform="translate(-51.93 -237.57)"/><path class="cls-16" d="M59.67,346.74a.87.87,0,1,0-.87.87.87.87,0,0,0,.87-.87" transform="translate(-51.93 -237.57)"/><path class="cls-16" d="M62.07,351.54a.87.87,0,1,0-.87.87.87.87,0,0,0,.87-.87" transform="translate(-51.93 -237.57)"/><line class="cls-16" x1="7.74" y1="86.76" x2="12.12" y2="86.76"/><polyline class="cls-16" points="12.96 87.66 12.96 95.04 6.9 87.66 6.9 95.04"/><line class="cls-16" x1="7.74" y1="95.88" x2="12.12" y2="95.88"/><polyline class="cls-16" points="6.9 101.04 6.9 96.72 10.38 99"/><line class="cls-16" x1="7.74" y1="101.94" x2="9.72" y2="102.78"/><line class="cls-16" x1="10.5" y1="103.98" x2="10.5" y2="109.74"/><line class="cls-16" x1="7.74" y1="109.2" x2="9.78" y2="110.22"/><polyline class="cls-16" points="6.9 102.78 6.9 108.36 10.02 103.8"/><line class="cls-16" x1="10.5" y1="102.3" x2="10.92" y2="100.32"/><line class="cls-16" x1="11.1" y1="98.64" x2="12.96" y2="96.72"/><line class="cls-16" x1="10.5" y1="111.48" x2="9.3" y2="113.16"/><line class="cls-16" x1="9.3" y1="114.84" x2="9.3" y2="117.42"/><polyline class="cls-16" points="8.46 114 6.9 117.42 6.9 110.04 8.88 113.28"/><line class="cls-16" x1="7.74" y1="118.26" x2="8.46" y2="118.26"/><line class="cls-17" x1="15.12" y1="104.28" x2="52.14" y2="108.66"/><polygon class="cls-18" points="52.26 107.46 59.52 109.14 52.08 109.92 52.26 107.46"/><polygon class="cls-19" points="52.26 107.46 59.52 109.14 52.08 109.92 52.26 107.46"/><path class="cls-20" d="M351.63,387.33l.66.06h-1Zm.3,0h-.3l.66.06Z" transform="translate(-51.93 -237.57)"/><path class="cls-21" d="M351.63,387.33l.66.06h-1Zm.3,0h-.3l.66.06Z" transform="translate(-51.93 -237.57)"/><path class="cls-20" d="M351.27,387.39l1.32.12H351Zm1,0h-1l1.32.12Z" transform="translate(-51.93 -237.57)"/><path class="cls-21" d="M351.27,387.39l1.32.12H351Zm1,0h-1l1.32.12Z" transform="translate(-51.93 -237.57)"/><path class="cls-20" d="M351,387.51l1.86.18h-2.16Zm1.62,0H351l1.86.18Z" transform="translate(-51.93 -237.57)"/><path class="cls-21" d="M351,387.51l1.86.18h-2.16Zm1.62,0H351l1.86.18Z" transform="translate(-51.93 -237.57)"/><path class="cls-20" d="M350.67,387.69l2.4.24h-2.64Zm2.16,0h-2.16l2.4.24Z" transform="translate(-51.93 -237.57)"/><path class="cls-21" d="M350.67,387.69l2.4.24h-2.64Zm2.16,0h-2.16l2.4.24Z" transform="translate(-51.93 -237.57)"/><path class="cls-20" d="M350.43,387.93l2.88.24h-3.06Zm2.64,0h-2.64l2.88.24Z" transform="translate(-51.93 -237.57)"/><path class="cls-21" d="M350.43,387.93l2.88.24h-3.06Zm2.64,0h-2.64l2.88.24Z" transform="translate(-51.93 -237.57)"/><path class="cls-20" d="M350.25,388.17l3.18.3h-3.3Zm3.06,0h-3.06l3.18.3Z" transform="translate(-51.93 -237.57)"/><path class="cls-21" d="M350.25,388.17l3.18.3h-3.3Zm3.06,0h-3.06l3.18.3Z" transform="translate(-51.93 -237.57)"/><path class="cls-20" d="M350.13,388.47l3.42.3H350Zm3.3,0h-3.3l3.42.3Z" transform="translate(-51.93 -237.57)"/><path class="cls-21" d="M350.13,388.47l3.42.3H350Zm3.3,0h-3.3l3.42.3Z" transform="translate(-51.93 -237.57)"/><path class="cls-20" d="M350,388.77l3.54.36H350Zm3.54,0H350l3.54.36Z" transform="translate(-51.93 -237.57)"/><path class="cls-21" d="M350,388.77l3.54.36H350Zm3.54,0H350l3.54.36Z" transform="translate(-51.93 -237.57)"/><path class="cls-20" d="M350,389.13l3.54.3H350Zm3.54,0H350l3.54.3Z" transform="translate(-51.93 -237.57)"/><path class="cls-21" d="M350,389.13l3.54.3H350Zm3.54,0H350l3.54.3Z" transform="translate(-51.93 -237.57)"/><path class="cls-20" d="M350,389.43l3.42.3h-3.3Zm3.54,0H350l3.42.3Z" transform="translate(-51.93 -237.57)"/><path class="cls-21" d="M350,389.43l3.42.3h-3.3Zm3.54,0H350l3.42.3Z" transform="translate(-51.93 -237.57)"/><path class="cls-20" d="M350.13,389.73l3.18.3h-3.06Zm3.3,0h-3.3l3.18.3Z" transform="translate(-51.93 -237.57)"/><path class="cls-21" d="M350.13,389.73l3.18.3h-3.06Zm3.3,0h-3.3l3.18.3Z" transform="translate(-51.93 -237.57)"/><path class="cls-20" d="M350.25,390l2.82.3h-2.64Zm3.06,0h-3.06l2.82.3Z" transform="translate(-51.93 -237.57)"/><path class="cls-21" d="M350.25,390l2.82.3h-2.64Zm3.06,0h-3.06l2.82.3Z" transform="translate(-51.93 -237.57)"/><path class="cls-20" d="M350.43,390.33l2.4.18h-2.16Zm2.64,0h-2.64l2.4.18Z" transform="translate(-51.93 -237.57)"/><path class="cls-21" d="M350.43,390.33l2.4.18h-2.16Zm2.64,0h-2.64l2.4.18Z" transform="translate(-51.93 -237.57)"/><path class="cls-20" d="M350.67,390.51l1.92.18H351Zm2.16,0h-2.16l1.92.18Z" transform="translate(-51.93 -237.57)"/><path class="cls-21" d="M350.67,390.51l1.92.18H351Zm2.16,0h-2.16l1.92.18Z" transform="translate(-51.93 -237.57)"/><path class="cls-20" d="M351,390.69l1.32.12h-1Zm1.62,0H351l1.32.12Z" transform="translate(-51.93 -237.57)"/><path class="cls-21" d="M351,390.69l1.32.12h-1Zm1.62,0H351l1.32.12Z" transform="translate(-51.93 -237.57)"/><path class="cls-20" d="M351.27,390.81l.66.06h-.3Zm1,0h-1l.66.06Z" transform="translate(-51.93 -237.57)"/><path class="cls-21" d="M351.27,390.81l.66.06h-.3Zm1,0h-1l.66.06Z" transform="translate(-51.93 -237.57)"/><path class="cls-18" d="M356.73,378.39l.66.06h-1Zm.3,0h-.3l.66.06Z" transform="translate(-51.93 -237.57)"/><path class="cls-19" d="M356.73,378.39l.66.06h-1Zm.3,0h-.3l.66.06Z" transform="translate(-51.93 -237.57)"/><path class="cls-18" d="M356.43,378.45l1.26.12h-1.62Zm1,0h-1l1.26.12Z" transform="translate(-51.93 -237.57)"/><path class="cls-19" d="M356.43,378.45l1.26.12h-1.62Zm1,0h-1l1.26.12Z" transform="translate(-51.93 -237.57)"/><path class="cls-18" d="M356.07,378.57l1.92.18h-2.16Zm1.62,0h-1.62l1.92.18Z" transform="translate(-51.93 -237.57)"/><path class="cls-19" d="M356.07,378.57l1.92.18h-2.16Zm1.62,0h-1.62l1.92.18Z" transform="translate(-51.93 -237.57)"/><path class="cls-18" d="M355.83,378.75l2.4.18h-2.64Zm2.16,0h-2.16l2.4.18Z" transform="translate(-51.93 -237.57)"/><path class="cls-19" d="M355.83,378.75l2.4.18h-2.64Zm2.16,0h-2.16l2.4.18Z" transform="translate(-51.93 -237.57)"/><path class="cls-18" d="M355.59,378.93l2.82.3h-3.06Zm2.64,0h-2.64l2.82.3Z" transform="translate(-51.93 -237.57)"/><path class="cls-19" d="M355.59,378.93l2.82.3h-3.06Zm2.64,0h-2.64l2.82.3Z" transform="translate(-51.93 -237.57)"/><path class="cls-18" d="M355.35,379.23l3.18.3h-3.3Zm3.06,0h-3.06l3.18.3Z" transform="translate(-51.93 -237.57)"/><path class="cls-19" d="M355.35,379.23l3.18.3h-3.3Zm3.06,0h-3.06l3.18.3Z" transform="translate(-51.93 -237.57)"/><path class="cls-18" d="M355.23,379.53l3.42.3h-3.54Zm3.3,0h-3.3l3.42.3Z" transform="translate(-51.93 -237.57)"/><path class="cls-19" d="M355.23,379.53l3.42.3h-3.54Zm3.3,0h-3.3l3.42.3Z" transform="translate(-51.93 -237.57)"/><path class="cls-18" d="M355.11,379.83l3.6.3h-3.6Zm3.54,0h-3.54l3.6.3Z" transform="translate(-51.93 -237.57)"/><path class="cls-19" d="M355.11,379.83l3.6.3h-3.6Zm3.54,0h-3.54l3.6.3Z" transform="translate(-51.93 -237.57)"/><path class="cls-18" d="M355.11,380.13l3.54.36h-3.54Zm3.6,0h-3.6l3.54.36Z" transform="translate(-51.93 -237.57)"/><path class="cls-19" d="M355.11,380.13l3.54.36h-3.54Zm3.6,0h-3.6l3.54.36Z" transform="translate(-51.93 -237.57)"/><path class="cls-18" d="M355.11,380.49l3.42.3h-3.3Zm3.54,0h-3.54l3.42.3Z" transform="translate(-51.93 -237.57)"/><path class="cls-19" d="M355.11,380.49l3.42.3h-3.3Zm3.54,0h-3.54l3.42.3Z" transform="translate(-51.93 -237.57)"/><path class="cls-18" d="M355.23,380.79l3.18.3h-3.06Zm3.3,0h-3.3l3.18.3Z" transform="translate(-51.93 -237.57)"/><path class="cls-19" d="M355.23,380.79l3.18.3h-3.06Zm3.3,0h-3.3l3.18.3Z" transform="translate(-51.93 -237.57)"/><path class="cls-18" d="M355.35,381.09l2.88.3h-2.64Zm3.06,0h-3.06l2.88.3Z" transform="translate(-51.93 -237.57)"/><path class="cls-19" d="M355.35,381.09l2.88.3h-2.64Zm3.06,0h-3.06l2.88.3Z" transform="translate(-51.93 -237.57)"/><path class="cls-18" d="M355.59,381.39l2.4.18h-2.16Zm2.64,0h-2.64l2.4.18Z" transform="translate(-51.93 -237.57)"/><path class="cls-19" d="M355.59,381.39l2.4.18h-2.16Zm2.64,0h-2.64l2.4.18Z" transform="translate(-51.93 -237.57)"/><path class="cls-18" d="M355.83,381.57l1.86.18h-1.62Zm2.16,0h-2.16l1.86.18Z" transform="translate(-51.93 -237.57)"/><path class="cls-19" d="M355.83,381.57l1.86.18h-1.62Zm2.16,0h-2.16l1.86.18Z" transform="translate(-51.93 -237.57)"/><path class="cls-18" d="M356.07,381.75l1.32.12h-1Zm1.62,0h-1.62l1.32.12Z" transform="translate(-51.93 -237.57)"/><path class="cls-19" d="M356.07,381.75l1.32.12h-1Zm1.62,0h-1.62l1.32.12Z" transform="translate(-51.93 -237.57)"/><path class="cls-18" d="M356.43,381.87l.6.06h-.3Zm1,0h-1l.6.06Z" transform="translate(-51.93 -237.57)"/><path class="cls-19" d="M356.43,381.87l.6.06h-.3Zm1,0h-1l.6.06Z" transform="translate(-51.93 -237.57)"/><path class="cls-18" d="M359.31,371.19l.6.06h-1Zm.3,0h-.3l.6.06Z" transform="translate(-51.93 -237.57)"/><path class="cls-19" d="M359.31,371.19l.6.06h-1Zm.3,0h-.3l.6.06Z" transform="translate(-51.93 -237.57)"/><path class="cls-18" d="M359,371.25l1.32.12h-1.62Zm1,0h-1l1.32.12Z" transform="translate(-51.93 -237.57)"/><path class="cls-19" d="M359,371.25l1.32.12h-1.62Zm1,0h-1l1.32.12Z" transform="translate(-51.93 -237.57)"/><path class="cls-18" d="M358.65,371.37l1.86.18h-2.16Zm1.62,0h-1.62l1.86.18Z" transform="translate(-51.93 -237.57)"/><path class="cls-19" d="M358.65,371.37l1.86.18h-2.16Zm1.62,0h-1.62l1.86.18Z" transform="translate(-51.93 -237.57)"/><path class="cls-18" d="M358.35,371.55l2.4.18h-2.64Zm2.16,0h-2.16l2.4.18Z" transform="translate(-51.93 -237.57)"/><path class="cls-19" d="M358.35,371.55l2.4.18h-2.64Zm2.16,0h-2.16l2.4.18Z" transform="translate(-51.93 -237.57)"/><path class="cls-18" d="M358.11,371.73l2.88.3h-3.06Zm2.64,0h-2.64l2.88.3Z" transform="translate(-51.93 -237.57)"/><path class="cls-19" d="M358.11,371.73l2.88.3h-3.06Zm2.64,0h-2.64l2.88.3Z" transform="translate(-51.93 -237.57)"/><path class="cls-18" d="M357.93,372l3.18.3h-3.36Zm3.06,0h-3.06l3.18.3Z" transform="translate(-51.93 -237.57)"/><path class="cls-19" d="M357.93,372l3.18.3h-3.36Zm3.06,0h-3.06l3.18.3Z" transform="translate(-51.93 -237.57)"/><path class="cls-18" d="M357.75,372.33l3.48.3h-3.54Zm3.36,0h-3.36l3.48.3Z" transform="translate(-51.93 -237.57)"/><path class="cls-19" d="M357.75,372.33l3.48.3h-3.54Zm3.36,0h-3.36l3.48.3Z" transform="translate(-51.93 -237.57)"/><path class="cls-18" d="M357.69,372.63l3.54.3h-3.6Zm3.54,0h-3.54l3.54.3Z" transform="translate(-51.93 -237.57)"/><path class="cls-19" d="M357.69,372.63l3.54.3h-3.6Zm3.54,0h-3.54l3.54.3Z" transform="translate(-51.93 -237.57)"/><path class="cls-18" d="M357.63,372.93l3.6.36h-3.54Zm3.6,0h-3.6l3.6.36Z" transform="translate(-51.93 -237.57)"/><path class="cls-19" d="M357.63,372.93l3.6.36h-3.54Zm3.6,0h-3.6l3.6.36Z" transform="translate(-51.93 -237.57)"/><path class="cls-18" d="M357.69,373.29l3.42.3h-3.36Zm3.54,0h-3.54l3.42.3Z" transform="translate(-51.93 -237.57)"/><path class="cls-19" d="M357.69,373.29l3.42.3h-3.36Zm3.54,0h-3.54l3.42.3Z" transform="translate(-51.93 -237.57)"/><path class="cls-18" d="M357.75,373.59l3.24.3h-3.06Zm3.36,0h-3.36l3.24.3Z" transform="translate(-51.93 -237.57)"/><path class="cls-19" d="M357.75,373.59l3.24.3h-3.06Zm3.36,0h-3.36l3.24.3Z" transform="translate(-51.93 -237.57)"/><path class="cls-18" d="M357.93,373.89l2.82.3h-2.64Zm3.06,0h-3.06l2.82.3Z" transform="translate(-51.93 -237.57)"/><path class="cls-19" d="M357.93,373.89l2.82.3h-2.64Zm3.06,0h-3.06l2.82.3Z" transform="translate(-51.93 -237.57)"/><path class="cls-18" d="M358.11,374.19l2.4.18h-2.16Zm2.64,0h-2.64l2.4.18Z" transform="translate(-51.93 -237.57)"/><path class="cls-19" d="M358.11,374.19l2.4.18h-2.16Zm2.64,0h-2.64l2.4.18Z" transform="translate(-51.93 -237.57)"/><path class="cls-18" d="M358.35,374.37l1.92.18h-1.62Zm2.16,0h-2.16l1.92.18Z" transform="translate(-51.93 -237.57)"/><path class="cls-19" d="M358.35,374.37l1.92.18h-1.62Zm2.16,0h-2.16l1.92.18Z" transform="translate(-51.93 -237.57)"/><path class="cls-18" d="M358.65,374.55l1.26.12h-1Zm1.62,0h-1.62l1.26.12Z" transform="translate(-51.93 -237.57)"/><path class="cls-19" d="M358.65,374.55l1.26.12h-1Zm1.62,0h-1.62l1.26.12Z" transform="translate(-51.93 -237.57)"/><path class="cls-18" d="M359,374.67l.66.06h-.3Zm1,0h-1l.66.06Z" transform="translate(-51.93 -237.57)"/><path class="cls-19" d="M359,374.67l.66.06h-.3Zm1,0h-1l.66.06Z" transform="translate(-51.93 -237.57)"/><path class="cls-22" d="M351.63,368.13l.66.06h-1Zm.3,0h-.3l.66.06Z" transform="translate(-51.93 -237.57)"/><path class="cls-23" d="M351.63,368.13l.66.06h-1Zm.3,0h-.3l.66.06Z" transform="translate(-51.93 -237.57)"/><path class="cls-22" d="M351.27,368.19l1.32.12H351Zm1,0h-1l1.32.12Z" transform="translate(-51.93 -237.57)"/><path class="cls-23" d="M351.27,368.19l1.32.12H351Zm1,0h-1l1.32.12Z" transform="translate(-51.93 -237.57)"/><path class="cls-22" d="M351,368.31l1.86.18h-2.16Zm1.62,0H351l1.86.18Z" transform="translate(-51.93 -237.57)"/><path class="cls-23" d="M351,368.31l1.86.18h-2.16Zm1.62,0H351l1.86.18Z" transform="translate(-51.93 -237.57)"/><path class="cls-22" d="M350.67,368.49l2.4.24h-2.64Zm2.16,0h-2.16l2.4.24Z" transform="translate(-51.93 -237.57)"/><path class="cls-23" d="M350.67,368.49l2.4.24h-2.64Zm2.16,0h-2.16l2.4.24Z" transform="translate(-51.93 -237.57)"/><path class="cls-22" d="M350.43,368.73l2.88.24h-3.06Zm2.64,0h-2.64l2.88.24Z" transform="translate(-51.93 -237.57)"/><path class="cls-23" d="M350.43,368.73l2.88.24h-3.06Zm2.64,0h-2.64l2.88.24Z" transform="translate(-51.93 -237.57)"/><path class="cls-22" d="M350.25,369l3.18.3h-3.3Zm3.06,0h-3.06l3.18.3Z" transform="translate(-51.93 -237.57)"/><path class="cls-23" d="M350.25,369l3.18.3h-3.3Zm3.06,0h-3.06l3.18.3Z" transform="translate(-51.93 -237.57)"/><path class="cls-22" d="M350.13,369.27l3.42.3H350Zm3.3,0h-3.3l3.42.3Z" transform="translate(-51.93 -237.57)"/><path class="cls-23" d="M350.13,369.27l3.42.3H350Zm3.3,0h-3.3l3.42.3Z" transform="translate(-51.93 -237.57)"/><path class="cls-22" d="M350,369.57l3.54.36H350Zm3.54,0H350l3.54.36Z" transform="translate(-51.93 -237.57)"/><path class="cls-23" d="M350,369.57l3.54.36H350Zm3.54,0H350l3.54.36Z" transform="translate(-51.93 -237.57)"/><path class="cls-22" d="M350,369.93l3.54.3H350Zm3.54,0H350l3.54.3Z" transform="translate(-51.93 -237.57)"/><path class="cls-23" d="M350,369.93l3.54.3H350Zm3.54,0H350l3.54.3Z" transform="translate(-51.93 -237.57)"/><path class="cls-22" d="M350,370.23l3.42.36h-3.3Zm3.54,0H350l3.42.36Z" transform="translate(-51.93 -237.57)"/><path class="cls-23" d="M350,370.23l3.42.36h-3.3Zm3.54,0H350l3.42.36Z" transform="translate(-51.93 -237.57)"/><path class="cls-22" d="M350.13,370.59l3.18.3h-3.06Zm3.3,0h-3.3l3.18.3Z" transform="translate(-51.93 -237.57)"/><path class="cls-23" d="M350.13,370.59l3.18.3h-3.06Zm3.3,0h-3.3l3.18.3Z" transform="translate(-51.93 -237.57)"/><path class="cls-22" d="M350.25,370.89l2.82.24h-2.64Zm3.06,0h-3.06l2.82.24Z" transform="translate(-51.93 -237.57)"/><path class="cls-23" d="M350.25,370.89l2.82.24h-2.64Zm3.06,0h-3.06l2.82.24Z" transform="translate(-51.93 -237.57)"/><path class="cls-22" d="M350.43,371.13l2.4.24h-2.16Zm2.64,0h-2.64l2.4.24Z" transform="translate(-51.93 -237.57)"/><path class="cls-23" d="M350.43,371.13l2.4.24h-2.16Zm2.64,0h-2.64l2.4.24Z" transform="translate(-51.93 -237.57)"/><path class="cls-22" d="M350.67,371.37l1.92.18H351Zm2.16,0h-2.16l1.92.18Z" transform="translate(-51.93 -237.57)"/><path class="cls-23" d="M350.67,371.37l1.92.18H351Zm2.16,0h-2.16l1.92.18Z" transform="translate(-51.93 -237.57)"/><path class="cls-22" d="M351,371.55l1.32.12h-1Zm1.62,0H351l1.32.12Z" transform="translate(-51.93 -237.57)"/><path class="cls-23" d="M351,371.55l1.32.12h-1Zm1.62,0H351l1.32.12Z" transform="translate(-51.93 -237.57)"/><path class="cls-22" d="M351.27,371.67l.66.06h-.3Zm1,0h-1l.66.06Z" transform="translate(-51.93 -237.57)"/><path class="cls-23" d="M351.27,371.67l.66.06h-.3Zm1,0h-1l.66.06Z" transform="translate(-51.93 -237.57)"/><path class="cls-24" d="M359.31,355.35l.6.06h-1Zm.3,0h-.3l.6.06Z" transform="translate(-51.93 -237.57)"/><path class="cls-25" d="M359.31,355.35l.6.06h-1Zm.3,0h-.3l.6.06Z" transform="translate(-51.93 -237.57)"/><path class="cls-24" d="M359,355.41l1.32.12h-1.62Zm1,0h-1l1.32.12Z" transform="translate(-51.93 -237.57)"/><path class="cls-25" d="M359,355.41l1.32.12h-1.62Zm1,0h-1l1.32.12Z" transform="translate(-51.93 -237.57)"/><path class="cls-24" d="M358.65,355.53l1.86.18h-2.16Zm1.62,0h-1.62l1.86.18Z" transform="translate(-51.93 -237.57)"/><path class="cls-25" d="M358.65,355.53l1.86.18h-2.16Zm1.62,0h-1.62l1.86.18Z" transform="translate(-51.93 -237.57)"/><path class="cls-24" d="M358.35,355.71l2.4.24h-2.64Zm2.16,0h-2.16l2.4.24Z" transform="translate(-51.93 -237.57)"/><path class="cls-25" d="M358.35,355.71l2.4.24h-2.64Zm2.16,0h-2.16l2.4.24Z" transform="translate(-51.93 -237.57)"/><path class="cls-24" d="M358.11,356l2.88.24h-3.06Zm2.64,0h-2.64l2.88.24Z" transform="translate(-51.93 -237.57)"/><path class="cls-25" d="M358.11,356l2.88.24h-3.06Zm2.64,0h-2.64l2.88.24Z" transform="translate(-51.93 -237.57)"/><path class="cls-24" d="M357.93,356.19l3.18.3h-3.36Zm3.06,0h-3.06l3.18.3Z" transform="translate(-51.93 -237.57)"/><path class="cls-25" d="M357.93,356.19l3.18.3h-3.36Zm3.06,0h-3.06l3.18.3Z" transform="translate(-51.93 -237.57)"/><path class="cls-24" d="M357.75,356.49l3.48.3h-3.54Zm3.36,0h-3.36l3.48.3Z" transform="translate(-51.93 -237.57)"/><path class="cls-25" d="M357.75,356.49l3.48.3h-3.54Zm3.36,0h-3.36l3.48.3Z" transform="translate(-51.93 -237.57)"/><path class="cls-24" d="M357.69,356.79l3.54.36h-3.6Zm3.54,0h-3.54l3.54.36Z" transform="translate(-51.93 -237.57)"/><path class="cls-25" d="M357.69,356.79l3.54.36h-3.6Zm3.54,0h-3.54l3.54.36Z" transform="translate(-51.93 -237.57)"/><path class="cls-24" d="M357.63,357.15l3.6.3h-3.54Zm3.6,0h-3.6l3.6.3Z" transform="translate(-51.93 -237.57)"/><path class="cls-25" d="M357.63,357.15l3.6.3h-3.54Zm3.6,0h-3.6l3.6.3Z" transform="translate(-51.93 -237.57)"/><path class="cls-24" d="M357.69,357.45l3.42.36h-3.36Zm3.54,0h-3.54l3.42.36Z" transform="translate(-51.93 -237.57)"/><path class="cls-25" d="M357.69,357.45l3.42.36h-3.36Zm3.54,0h-3.54l3.42.36Z" transform="translate(-51.93 -237.57)"/><path class="cls-24" d="M357.75,357.81l3.24.3h-3.06Zm3.36,0h-3.36l3.24.3Z" transform="translate(-51.93 -237.57)"/><path class="cls-25" d="M357.75,357.81l3.24.3h-3.06Zm3.36,0h-3.36l3.24.3Z" transform="translate(-51.93 -237.57)"/><path class="cls-24" d="M357.93,358.11l2.82.24h-2.64Zm3.06,0h-3.06l2.82.24Z" transform="translate(-51.93 -237.57)"/><path class="cls-25" d="M357.93,358.11l2.82.24h-2.64Zm3.06,0h-3.06l2.82.24Z" transform="translate(-51.93 -237.57)"/><path class="cls-24" d="M358.11,358.35l2.4.24h-2.16Zm2.64,0h-2.64l2.4.24Z" transform="translate(-51.93 -237.57)"/><path class="cls-25" d="M358.11,358.35l2.4.24h-2.16Zm2.64,0h-2.64l2.4.24Z" transform="translate(-51.93 -237.57)"/><path class="cls-24" d="M358.35,358.59l1.92.18h-1.62Zm2.16,0h-2.16l1.92.18Z" transform="translate(-51.93 -237.57)"/><path class="cls-25" d="M358.35,358.59l1.92.18h-1.62Zm2.16,0h-2.16l1.92.18Z" transform="translate(-51.93 -237.57)"/><path class="cls-24" d="M358.65,358.77l1.26.12h-1Zm1.62,0h-1.62l1.26.12Z" transform="translate(-51.93 -237.57)"/><path class="cls-25" d="M358.65,358.77l1.26.12h-1Zm1.62,0h-1.62l1.26.12Z" transform="translate(-51.93 -237.57)"/><path class="cls-24" d="M359,358.89l.66.06h-.3Zm1,0h-1l.66.06Z" transform="translate(-51.93 -237.57)"/><path class="cls-25" d="M359,358.89l.66.06h-.3Zm1,0h-1l.66.06Z" transform="translate(-51.93 -237.57)"/><path class="cls-26" d="M351.63,352.77l.66.12h-1Zm.3,0h-.3l.66.12Z" transform="translate(-51.93 -237.57)"/><path class="cls-27" d="M351.63,352.77l.66.12h-1Zm.3,0h-.3l.66.12Z" transform="translate(-51.93 -237.57)"/><path class="cls-26" d="M351.27,352.89l1.32.06H351Zm1,0h-1l1.32.06Z" transform="translate(-51.93 -237.57)"/><path class="cls-27" d="M351.27,352.89l1.32.06H351Zm1,0h-1l1.32.06Z" transform="translate(-51.93 -237.57)"/><path class="cls-26" d="M351,353l1.86.18h-2.16Zm1.62,0H351l1.86.18Z" transform="translate(-51.93 -237.57)"/><path class="cls-27" d="M351,353l1.86.18h-2.16Zm1.62,0H351l1.86.18Z" transform="translate(-51.93 -237.57)"/><path class="cls-26" d="M350.67,353.13l2.4.24h-2.64Zm2.16,0h-2.16l2.4.24Z" transform="translate(-51.93 -237.57)"/><path class="cls-27" d="M350.67,353.13l2.4.24h-2.64Zm2.16,0h-2.16l2.4.24Z" transform="translate(-51.93 -237.57)"/><path class="cls-26" d="M350.43,353.37l2.88.24h-3.06Zm2.64,0h-2.64l2.88.24Z" transform="translate(-51.93 -237.57)"/><path class="cls-27" d="M350.43,353.37l2.88.24h-3.06Zm2.64,0h-2.64l2.88.24Z" transform="translate(-51.93 -237.57)"/><path class="cls-26" d="M350.25,353.61l3.18.3h-3.3Zm3.06,0h-3.06l3.18.3Z" transform="translate(-51.93 -237.57)"/><path class="cls-27" d="M350.25,353.61l3.18.3h-3.3Zm3.06,0h-3.06l3.18.3Z" transform="translate(-51.93 -237.57)"/><path class="cls-26" d="M350.13,353.91l3.42.36H350Zm3.3,0h-3.3l3.42.36Z" transform="translate(-51.93 -237.57)"/><path class="cls-27" d="M350.13,353.91l3.42.36H350Zm3.3,0h-3.3l3.42.36Z" transform="translate(-51.93 -237.57)"/><path class="cls-26" d="M350,354.27l3.54.3H350Zm3.54,0H350l3.54.3Z" transform="translate(-51.93 -237.57)"/><path class="cls-27" d="M350,354.27l3.54.3H350Zm3.54,0H350l3.54.3Z" transform="translate(-51.93 -237.57)"/><path class="cls-26" d="M350,354.57l3.54.36H350Zm3.54,0H350l3.54.36Z" transform="translate(-51.93 -237.57)"/><path class="cls-27" d="M350,354.57l3.54.36H350Zm3.54,0H350l3.54.36Z" transform="translate(-51.93 -237.57)"/><path class="cls-26" d="M350,354.93l3.42.3h-3.3Zm3.54,0H350l3.42.3Z" transform="translate(-51.93 -237.57)"/><path class="cls-27" d="M350,354.93l3.42.3h-3.3Zm3.54,0H350l3.42.3Z" transform="translate(-51.93 -237.57)"/><path class="cls-26" d="M350.13,355.23l3.18.3h-3.06Zm3.3,0h-3.3l3.18.3Z" transform="translate(-51.93 -237.57)"/><path class="cls-27" d="M350.13,355.23l3.18.3h-3.06Zm3.3,0h-3.3l3.18.3Z" transform="translate(-51.93 -237.57)"/><path class="cls-26" d="M350.25,355.53l2.82.24h-2.64Zm3.06,0h-3.06l2.82.24Z" transform="translate(-51.93 -237.57)"/><path class="cls-27" d="M350.25,355.53l2.82.24h-2.64Zm3.06,0h-3.06l2.82.24Z" transform="translate(-51.93 -237.57)"/><path class="cls-26" d="M350.43,355.77l2.4.24h-2.16Zm2.64,0h-2.64l2.4.24Z" transform="translate(-51.93 -237.57)"/><path class="cls-27" d="M350.43,355.77l2.4.24h-2.16Zm2.64,0h-2.64l2.4.24Z" transform="translate(-51.93 -237.57)"/><path class="cls-26" d="M350.67,356l1.92.18H351Zm2.16,0h-2.16l1.92.18Z" transform="translate(-51.93 -237.57)"/><path class="cls-27" d="M350.67,356l1.92.18H351Zm2.16,0h-2.16l1.92.18Z" transform="translate(-51.93 -237.57)"/><path class="cls-26" d="M351,356.19l1.32.12h-1Zm1.62,0H351l1.32.12Z" transform="translate(-51.93 -237.57)"/><path class="cls-27" d="M351,356.19l1.32.12h-1Zm1.62,0H351l1.32.12Z" transform="translate(-51.93 -237.57)"/><path class="cls-26" d="M351.27,356.31l.66.06h-.3Zm1,0h-1l.66.06Z" transform="translate(-51.93 -237.57)"/><path class="cls-27" d="M351.27,356.31l.66.06h-.3Zm1,0h-1l.66.06Z" transform="translate(-51.93 -237.57)"/><path class="cls-28" d="M360.45,347.67l.66.06h-1Zm.36,0h-.36l.66.06Z" transform="translate(-51.93 -237.57)"/><path class="cls-29" d="M360.45,347.67l.66.06h-1Zm.36,0h-.36l.66.06Z" transform="translate(-51.93 -237.57)"/><path class="cls-28" d="M360.15,347.73l1.26.12h-1.56Zm1,0h-1l1.26.12Z" transform="translate(-51.93 -237.57)"/><path class="cls-29" d="M360.15,347.73l1.26.12h-1.56Zm1,0h-1l1.26.12Z" transform="translate(-51.93 -237.57)"/><path class="cls-28" d="M359.85,347.85l1.86.18h-2.16Zm1.56,0h-1.56l1.86.18Z" transform="translate(-51.93 -237.57)"/><path class="cls-29" d="M359.85,347.85l1.86.18h-2.16Zm1.56,0h-1.56l1.86.18Z" transform="translate(-51.93 -237.57)"/><path class="cls-28" d="M359.55,348l2.4.24h-2.64Zm2.16,0h-2.16l2.4.24Z" transform="translate(-51.93 -237.57)"/><path class="cls-29" d="M359.55,348l2.4.24h-2.64Zm2.16,0h-2.16l2.4.24Z" transform="translate(-51.93 -237.57)"/><path class="cls-28" d="M359.31,348.27l2.82.24h-3Zm2.64,0h-2.64l2.82.24Z" transform="translate(-51.93 -237.57)"/><path class="cls-29" d="M359.31,348.27l2.82.24h-3Zm2.64,0h-2.64l2.82.24Z" transform="translate(-51.93 -237.57)"/><path class="cls-28" d="M359.13,348.51l3.18.3H359Zm3,0h-3l3.18.3Z" transform="translate(-51.93 -237.57)"/><path class="cls-29" d="M359.13,348.51l3.18.3H359Zm3,0h-3l3.18.3Z" transform="translate(-51.93 -237.57)"/><path class="cls-28" d="M359,348.81l3.42.3h-3.48Zm3.36,0H359l3.42.3Z" transform="translate(-51.93 -237.57)"/><path class="cls-29" d="M359,348.81l3.42.3h-3.48Zm3.36,0H359l3.42.3Z" transform="translate(-51.93 -237.57)"/><path class="cls-28" d="M358.89,349.11l3.54.36h-3.6Zm3.48,0h-3.48l3.54.36Z" transform="translate(-51.93 -237.57)"/><path class="cls-29" d="M358.89,349.11l3.54.36h-3.6Zm3.48,0h-3.48l3.54.36Z" transform="translate(-51.93 -237.57)"/><path class="cls-28" d="M358.83,349.47l3.54.3h-3.48Zm3.6,0h-3.6l3.54.3Z" transform="translate(-51.93 -237.57)"/><path class="cls-29" d="M358.83,349.47l3.54.3h-3.48Zm3.6,0h-3.6l3.54.3Z" transform="translate(-51.93 -237.57)"/><path class="cls-28" d="M358.89,349.77l3.42.36H359Zm3.48,0h-3.48l3.42.36Z" transform="translate(-51.93 -237.57)"/><path class="cls-29" d="M358.89,349.77l3.42.36H359Zm3.48,0h-3.48l3.42.36Z" transform="translate(-51.93 -237.57)"/><path class="cls-28" d="M359,350.13l3.18.3h-3Zm3.36,0H359l3.18.3Z" transform="translate(-51.93 -237.57)"/><path class="cls-29" d="M359,350.13l3.18.3h-3Zm3.36,0H359l3.18.3Z" transform="translate(-51.93 -237.57)"/><path class="cls-28" d="M359.13,350.43l2.82.24h-2.64Zm3,0h-3l2.82.24Z" transform="translate(-51.93 -237.57)"/><path class="cls-29" d="M359.13,350.43l2.82.24h-2.64Zm3,0h-3l2.82.24Z" transform="translate(-51.93 -237.57)"/><path class="cls-28" d="M359.31,350.67l2.4.24h-2.16Zm2.64,0h-2.64l2.4.24Z" transform="translate(-51.93 -237.57)"/><path class="cls-29" d="M359.31,350.67l2.4.24h-2.16Zm2.64,0h-2.64l2.4.24Z" transform="translate(-51.93 -237.57)"/><path class="cls-28" d="M359.55,350.91l1.86.18h-1.56Zm2.16,0h-2.16l1.86.18Z" transform="translate(-51.93 -237.57)"/><path class="cls-29" d="M359.55,350.91l1.86.18h-1.56Zm2.16,0h-2.16l1.86.18Z" transform="translate(-51.93 -237.57)"/><path class="cls-28" d="M359.85,351.09l1.26.12h-1Zm1.56,0h-1.56l1.26.12Z" transform="translate(-51.93 -237.57)"/><path class="cls-29" d="M359.85,351.09l1.26.12h-1Zm1.56,0h-1.56l1.26.12Z" transform="translate(-51.93 -237.57)"/><path class="cls-28" d="M360.15,351.21l.66.06h-.36Zm1,0h-1l.66.06Z" transform="translate(-51.93 -237.57)"/><path class="cls-29" d="M360.15,351.21l.66.06h-.36Zm1,0h-1l.66.06Z" transform="translate(-51.93 -237.57)"/><path class="cls-30" d="M361.41,331l.66.06h-1Zm.3,0h-.3l.66.06Z" transform="translate(-51.93 -237.57)"/><path class="cls-31" d="M361.41,331l.66.06h-1Zm.3,0h-.3l.66.06Z" transform="translate(-51.93 -237.57)"/><path class="cls-30" d="M361.05,331.05l1.32.12h-1.62Zm1,0h-1l1.32.12Z" transform="translate(-51.93 -237.57)"/><path class="cls-31" d="M361.05,331.05l1.32.12h-1.62Zm1,0h-1l1.32.12Z" transform="translate(-51.93 -237.57)"/><path class="cls-30" d="M360.75,331.17l1.92.18h-2.16Zm1.62,0h-1.62l1.92.18Z" transform="translate(-51.93 -237.57)"/><path class="cls-31" d="M360.75,331.17l1.92.18h-2.16Zm1.62,0h-1.62l1.92.18Z" transform="translate(-51.93 -237.57)"/><path class="cls-30" d="M360.51,331.35l2.4.18h-2.64Zm2.16,0h-2.16l2.4.18Z" transform="translate(-51.93 -237.57)"/><path class="cls-31" d="M360.51,331.35l2.4.18h-2.64Zm2.16,0h-2.16l2.4.18Z" transform="translate(-51.93 -237.57)"/><path class="cls-30" d="M360.27,331.53l2.82.3H360Zm2.64,0h-2.64l2.82.3Z" transform="translate(-51.93 -237.57)"/><path class="cls-31" d="M360.27,331.53l2.82.3H360Zm2.64,0h-2.64l2.82.3Z" transform="translate(-51.93 -237.57)"/><path class="cls-30" d="M360,331.83l3.18.3h-3.3Zm3.06,0H360l3.18.3Z" transform="translate(-51.93 -237.57)"/><path class="cls-31" d="M360,331.83l3.18.3h-3.3Zm3.06,0H360l3.18.3Z" transform="translate(-51.93 -237.57)"/><path class="cls-30" d="M359.91,332.13l3.42.3h-3.54Zm3.3,0h-3.3l3.42.3Z" transform="translate(-51.93 -237.57)"/><path class="cls-31" d="M359.91,332.13l3.42.3h-3.54Zm3.3,0h-3.3l3.42.3Z" transform="translate(-51.93 -237.57)"/><path class="cls-30" d="M359.79,332.43l3.54.36h-3.54Zm3.54,0h-3.54l3.54.36Z" transform="translate(-51.93 -237.57)"/><path class="cls-31" d="M359.79,332.43l3.54.36h-3.54Zm3.54,0h-3.54l3.54.36Z" transform="translate(-51.93 -237.57)"/><path class="cls-30" d="M359.79,332.79l3.54.3h-3.54Zm3.54,0h-3.54l3.54.3Z" transform="translate(-51.93 -237.57)"/><path class="cls-31" d="M359.79,332.79l3.54.3h-3.54Zm3.54,0h-3.54l3.54.3Z" transform="translate(-51.93 -237.57)"/><path class="cls-30" d="M359.79,333.09l3.42.3h-3.3Zm3.54,0h-3.54l3.42.3Z" transform="translate(-51.93 -237.57)"/><path class="cls-31" d="M359.79,333.09l3.42.3h-3.3Zm3.54,0h-3.54l3.42.3Z" transform="translate(-51.93 -237.57)"/><path class="cls-30" d="M359.91,333.39l3.18.3H360Zm3.3,0h-3.3l3.18.3Z" transform="translate(-51.93 -237.57)"/><path class="cls-31" d="M359.91,333.39l3.18.3H360Zm3.3,0h-3.3l3.18.3Z" transform="translate(-51.93 -237.57)"/><path class="cls-30" d="M360,333.69l2.88.3h-2.64Zm3.06,0H360l2.88.3Z" transform="translate(-51.93 -237.57)"/><path class="cls-31" d="M360,333.69l2.88.3h-2.64Zm3.06,0H360l2.88.3Z" transform="translate(-51.93 -237.57)"/><path class="cls-30" d="M360.27,334l2.4.18h-2.16Zm2.64,0h-2.64l2.4.18Z" transform="translate(-51.93 -237.57)"/><path class="cls-31" d="M360.27,334l2.4.18h-2.16Zm2.64,0h-2.64l2.4.18Z" transform="translate(-51.93 -237.57)"/><path class="cls-30" d="M360.51,334.17l1.86.18h-1.62Zm2.16,0h-2.16l1.86.18Z" transform="translate(-51.93 -237.57)"/><path class="cls-31" d="M360.51,334.17l1.86.18h-1.62Zm2.16,0h-2.16l1.86.18Z" transform="translate(-51.93 -237.57)"/><path class="cls-30" d="M360.75,334.35l1.32.12h-1Zm1.62,0h-1.62l1.32.12Z" transform="translate(-51.93 -237.57)"/><path class="cls-31" d="M360.75,334.35l1.32.12h-1Zm1.62,0h-1.62l1.32.12Z" transform="translate(-51.93 -237.57)"/><path class="cls-30" d="M361.05,334.47l.66.06h-.3Zm1,0h-1l.66.06Z" transform="translate(-51.93 -237.57)"/><path class="cls-31" d="M361.05,334.47l.66.06h-.3Zm1,0h-1l.66.06Z" transform="translate(-51.93 -237.57)"/><path class="cls-32" d="M351.63,329.61l.66.06h-1Zm.3,0h-.3l.66.06Z" transform="translate(-51.93 -237.57)"/><path class="cls-33" d="M351.63,329.61l.66.06h-1Zm.3,0h-.3l.66.06Z" transform="translate(-51.93 -237.57)"/><path class="cls-32" d="M351.27,329.67l1.32.12H351Zm1,0h-1l1.32.12Z" transform="translate(-51.93 -237.57)"/><path class="cls-33" d="M351.27,329.67l1.32.12H351Zm1,0h-1l1.32.12Z" transform="translate(-51.93 -237.57)"/><path class="cls-32" d="M351,329.79l1.86.18h-2.16Zm1.62,0H351l1.86.18Z" transform="translate(-51.93 -237.57)"/><path class="cls-33" d="M351,329.79l1.86.18h-2.16Zm1.62,0H351l1.86.18Z" transform="translate(-51.93 -237.57)"/><path class="cls-32" d="M350.67,330l2.4.24h-2.64Zm2.16,0h-2.16l2.4.24Z" transform="translate(-51.93 -237.57)"/><path class="cls-33" d="M350.67,330l2.4.24h-2.64Zm2.16,0h-2.16l2.4.24Z" transform="translate(-51.93 -237.57)"/><path class="cls-32" d="M350.43,330.21l2.88.24h-3.06Zm2.64,0h-2.64l2.88.24Z" transform="translate(-51.93 -237.57)"/><path class="cls-33" d="M350.43,330.21l2.88.24h-3.06Zm2.64,0h-2.64l2.88.24Z" transform="translate(-51.93 -237.57)"/><path class="cls-32" d="M350.25,330.45l3.18.3h-3.3Zm3.06,0h-3.06l3.18.3Z" transform="translate(-51.93 -237.57)"/><path class="cls-33" d="M350.25,330.45l3.18.3h-3.3Zm3.06,0h-3.06l3.18.3Z" transform="translate(-51.93 -237.57)"/><path class="cls-32" d="M350.13,330.75l3.42.3H350Zm3.3,0h-3.3l3.42.3Z" transform="translate(-51.93 -237.57)"/><path class="cls-33" d="M350.13,330.75l3.42.3H350Zm3.3,0h-3.3l3.42.3Z" transform="translate(-51.93 -237.57)"/><path class="cls-32" d="M350,331.05l3.54.36H350Zm3.54,0H350l3.54.36Z" transform="translate(-51.93 -237.57)"/><path class="cls-33" d="M350,331.05l3.54.36H350Zm3.54,0H350l3.54.36Z" transform="translate(-51.93 -237.57)"/><path class="cls-32" d="M350,331.41l3.54.3H350Zm3.54,0H350l3.54.3Z" transform="translate(-51.93 -237.57)"/><path class="cls-33" d="M350,331.41l3.54.3H350Zm3.54,0H350l3.54.3Z" transform="translate(-51.93 -237.57)"/><path class="cls-32" d="M350,331.71l3.42.36h-3.3Zm3.54,0H350l3.42.36Z" transform="translate(-51.93 -237.57)"/><path class="cls-33" d="M350,331.71l3.42.36h-3.3Zm3.54,0H350l3.42.36Z" transform="translate(-51.93 -237.57)"/><path class="cls-32" d="M350.13,332.07l3.18.3h-3.06Zm3.3,0h-3.3l3.18.3Z" transform="translate(-51.93 -237.57)"/><path class="cls-33" d="M350.13,332.07l3.18.3h-3.06Zm3.3,0h-3.3l3.18.3Z" transform="translate(-51.93 -237.57)"/><path class="cls-32" d="M350.25,332.37l2.82.24h-2.64Zm3.06,0h-3.06l2.82.24Z" transform="translate(-51.93 -237.57)"/><path class="cls-33" d="M350.25,332.37l2.82.24h-2.64Zm3.06,0h-3.06l2.82.24Z" transform="translate(-51.93 -237.57)"/><path class="cls-32" d="M350.43,332.61l2.4.24h-2.16Zm2.64,0h-2.64l2.4.24Z" transform="translate(-51.93 -237.57)"/><path class="cls-33" d="M350.43,332.61l2.4.24h-2.16Zm2.64,0h-2.64l2.4.24Z" transform="translate(-51.93 -237.57)"/><path class="cls-32" d="M350.67,332.85l1.92.18H351Zm2.16,0h-2.16l1.92.18Z" transform="translate(-51.93 -237.57)"/><path class="cls-33" d="M350.67,332.85l1.92.18H351Zm2.16,0h-2.16l1.92.18Z" transform="translate(-51.93 -237.57)"/><path class="cls-32" d="M351,333l1.32.12h-1Zm1.62,0H351l1.32.12Z" transform="translate(-51.93 -237.57)"/><path class="cls-33" d="M351,333l1.32.12h-1Zm1.62,0H351l1.32.12Z" transform="translate(-51.93 -237.57)"/><path class="cls-32" d="M351.27,333.15l.66.06h-.3Zm1,0h-1l.66.06Z" transform="translate(-51.93 -237.57)"/><path class="cls-33" d="M351.27,333.15l.66.06h-.3Zm1,0h-1l.66.06Z" transform="translate(-51.93 -237.57)"/><path class="cls-30" d="M361.41,297.39l.66.06h-1Zm.3,0h-.3l.66.06Z" transform="translate(-51.93 -237.57)"/><path class="cls-31" d="M361.41,297.39l.66.06h-1Zm.3,0h-.3l.66.06Z" transform="translate(-51.93 -237.57)"/><path class="cls-30" d="M361.05,297.45l1.32.12h-1.62Zm1,0h-1l1.32.12Z" transform="translate(-51.93 -237.57)"/><path class="cls-31" d="M361.05,297.45l1.32.12h-1.62Zm1,0h-1l1.32.12Z" transform="translate(-51.93 -237.57)"/><path class="cls-30" d="M360.75,297.57l1.92.18h-2.16Zm1.62,0h-1.62l1.92.18Z" transform="translate(-51.93 -237.57)"/><path class="cls-31" d="M360.75,297.57l1.92.18h-2.16Zm1.62,0h-1.62l1.92.18Z" transform="translate(-51.93 -237.57)"/><path class="cls-30" d="M360.51,297.75l2.4.18h-2.64Zm2.16,0h-2.16l2.4.18Z" transform="translate(-51.93 -237.57)"/><path class="cls-31" d="M360.51,297.75l2.4.18h-2.64Zm2.16,0h-2.16l2.4.18Z" transform="translate(-51.93 -237.57)"/><path class="cls-30" d="M360.27,297.93l2.82.3H360Zm2.64,0h-2.64l2.82.3Z" transform="translate(-51.93 -237.57)"/><path class="cls-31" d="M360.27,297.93l2.82.3H360Zm2.64,0h-2.64l2.82.3Z" transform="translate(-51.93 -237.57)"/><path class="cls-30" d="M360,298.23l3.18.3h-3.3Zm3.06,0H360l3.18.3Z" transform="translate(-51.93 -237.57)"/><path class="cls-31" d="M360,298.23l3.18.3h-3.3Zm3.06,0H360l3.18.3Z" transform="translate(-51.93 -237.57)"/><path class="cls-30" d="M359.91,298.53l3.42.3h-3.54Zm3.3,0h-3.3l3.42.3Z" transform="translate(-51.93 -237.57)"/><path class="cls-31" d="M359.91,298.53l3.42.3h-3.54Zm3.3,0h-3.3l3.42.3Z" transform="translate(-51.93 -237.57)"/><path class="cls-30" d="M359.79,298.83l3.54.3h-3.54Zm3.54,0h-3.54l3.54.3Z" transform="translate(-51.93 -237.57)"/><path class="cls-31" d="M359.79,298.83l3.54.3h-3.54Zm3.54,0h-3.54l3.54.3Z" transform="translate(-51.93 -237.57)"/><path class="cls-30" d="M359.79,299.13l3.54.36h-3.54Zm3.54,0h-3.54l3.54.36Z" transform="translate(-51.93 -237.57)"/><path class="cls-31" d="M359.79,299.13l3.54.36h-3.54Zm3.54,0h-3.54l3.54.36Z" transform="translate(-51.93 -237.57)"/><path class="cls-30" d="M359.79,299.49l3.42.3h-3.3Zm3.54,0h-3.54l3.42.3Z" transform="translate(-51.93 -237.57)"/><path class="cls-31" d="M359.79,299.49l3.42.3h-3.3Zm3.54,0h-3.54l3.42.3Z" transform="translate(-51.93 -237.57)"/><path class="cls-30" d="M359.91,299.79l3.18.3H360Zm3.3,0h-3.3l3.18.3Z" transform="translate(-51.93 -237.57)"/><path class="cls-31" d="M359.91,299.79l3.18.3H360Zm3.3,0h-3.3l3.18.3Z" transform="translate(-51.93 -237.57)"/><path class="cls-30" d="M360,300.09l2.88.3h-2.64Zm3.06,0H360l2.88.3Z" transform="translate(-51.93 -237.57)"/><path class="cls-31" d="M360,300.09l2.88.3h-2.64Zm3.06,0H360l2.88.3Z" transform="translate(-51.93 -237.57)"/><path class="cls-30" d="M360.27,300.39l2.4.18h-2.16Zm2.64,0h-2.64l2.4.18Z" transform="translate(-51.93 -237.57)"/><path class="cls-31" d="M360.27,300.39l2.4.18h-2.16Zm2.64,0h-2.64l2.4.18Z" transform="translate(-51.93 -237.57)"/><path class="cls-30" d="M360.51,300.57l1.86.18h-1.62Zm2.16,0h-2.16l1.86.18Z" transform="translate(-51.93 -237.57)"/><path class="cls-31" d="M360.51,300.57l1.86.18h-1.62Zm2.16,0h-2.16l1.86.18Z" transform="translate(-51.93 -237.57)"/><path class="cls-30" d="M360.75,300.75l1.32.12h-1Zm1.62,0h-1.62l1.32.12Z" transform="translate(-51.93 -237.57)"/><path class="cls-31" d="M360.75,300.75l1.32.12h-1Zm1.62,0h-1.62l1.32.12Z" transform="translate(-51.93 -237.57)"/><path class="cls-30" d="M361.05,300.87l.66.06h-.3Zm1,0h-1l.66.06Z" transform="translate(-51.93 -237.57)"/><path class="cls-31" d="M361.05,300.87l.66.06h-.3Zm1,0h-1l.66.06Z" transform="translate(-51.93 -237.57)"/><path class="cls-30" d="M351.63,297.39l.66.06h-1Zm.3,0h-.3l.66.06Z" transform="translate(-51.93 -237.57)"/><path class="cls-31" d="M351.63,297.39l.66.06h-1Zm.3,0h-.3l.66.06Z" transform="translate(-51.93 -237.57)"/><path class="cls-30" d="M351.27,297.45l1.32.12H351Zm1,0h-1l1.32.12Z" transform="translate(-51.93 -237.57)"/><path class="cls-31" d="M351.27,297.45l1.32.12H351Zm1,0h-1l1.32.12Z" transform="translate(-51.93 -237.57)"/><path class="cls-30" d="M351,297.57l1.86.18h-2.16Zm1.62,0H351l1.86.18Z" transform="translate(-51.93 -237.57)"/><path class="cls-31" d="M351,297.57l1.86.18h-2.16Zm1.62,0H351l1.86.18Z" transform="translate(-51.93 -237.57)"/><path class="cls-30" d="M350.67,297.75l2.4.18h-2.64Zm2.16,0h-2.16l2.4.18Z" transform="translate(-51.93 -237.57)"/><path class="cls-31" d="M350.67,297.75l2.4.18h-2.64Zm2.16,0h-2.16l2.4.18Z" transform="translate(-51.93 -237.57)"/><path class="cls-30" d="M350.43,297.93l2.88.3h-3.06Zm2.64,0h-2.64l2.88.3Z" transform="translate(-51.93 -237.57)"/><path class="cls-31" d="M350.43,297.93l2.88.3h-3.06Zm2.64,0h-2.64l2.88.3Z" transform="translate(-51.93 -237.57)"/><path class="cls-30" d="M350.25,298.23l3.18.3h-3.3Zm3.06,0h-3.06l3.18.3Z" transform="translate(-51.93 -237.57)"/><path class="cls-31" d="M350.25,298.23l3.18.3h-3.3Zm3.06,0h-3.06l3.18.3Z" transform="translate(-51.93 -237.57)"/><path class="cls-30" d="M350.13,298.53l3.42.3H350Zm3.3,0h-3.3l3.42.3Z" transform="translate(-51.93 -237.57)"/><path class="cls-31" d="M350.13,298.53l3.42.3H350Zm3.3,0h-3.3l3.42.3Z" transform="translate(-51.93 -237.57)"/><path class="cls-30" d="M350,298.83l3.54.3H350Zm3.54,0H350l3.54.3Z" transform="translate(-51.93 -237.57)"/><path class="cls-31" d="M350,298.83l3.54.3H350Zm3.54,0H350l3.54.3Z" transform="translate(-51.93 -237.57)"/><path class="cls-30" d="M350,299.13l3.54.36H350Zm3.54,0H350l3.54.36Z" transform="translate(-51.93 -237.57)"/><path class="cls-31" d="M350,299.13l3.54.36H350Zm3.54,0H350l3.54.36Z" transform="translate(-51.93 -237.57)"/><path class="cls-30" d="M350,299.49l3.42.3h-3.3Zm3.54,0H350l3.42.3Z" transform="translate(-51.93 -237.57)"/><path class="cls-31" d="M350,299.49l3.42.3h-3.3Zm3.54,0H350l3.42.3Z" transform="translate(-51.93 -237.57)"/><path class="cls-30" d="M350.13,299.79l3.18.3h-3.06Zm3.3,0h-3.3l3.18.3Z" transform="translate(-51.93 -237.57)"/><path class="cls-31" d="M350.13,299.79l3.18.3h-3.06Zm3.3,0h-3.3l3.18.3Z" transform="translate(-51.93 -237.57)"/><path class="cls-30" d="M350.25,300.09l2.82.3h-2.64Zm3.06,0h-3.06l2.82.3Z" transform="translate(-51.93 -237.57)"/><path class="cls-31" d="M350.25,300.09l2.82.3h-2.64Zm3.06,0h-3.06l2.82.3Z" transform="translate(-51.93 -237.57)"/><path class="cls-30" d="M350.43,300.39l2.4.18h-2.16Zm2.64,0h-2.64l2.4.18Z" transform="translate(-51.93 -237.57)"/><path class="cls-31" d="M350.43,300.39l2.4.18h-2.16Zm2.64,0h-2.64l2.4.18Z" transform="translate(-51.93 -237.57)"/><path class="cls-30" d="M350.67,300.57l1.92.18H351Zm2.16,0h-2.16l1.92.18Z" transform="translate(-51.93 -237.57)"/><path class="cls-31" d="M350.67,300.57l1.92.18H351Zm2.16,0h-2.16l1.92.18Z" transform="translate(-51.93 -237.57)"/><path class="cls-30" d="M351,300.75l1.32.12h-1Zm1.62,0H351l1.32.12Z" transform="translate(-51.93 -237.57)"/><path class="cls-31" d="M351,300.75l1.32.12h-1Zm1.62,0H351l1.32.12Z" transform="translate(-51.93 -237.57)"/><path class="cls-30" d="M351.27,300.87l.66.06h-.3Zm1,0h-1l.66.06Z" transform="translate(-51.93 -237.57)"/><path class="cls-31" d="M351.27,300.87l.66.06h-.3Zm1,0h-1l.66.06Z" transform="translate(-51.93 -237.57)"/><polyline class="cls-14" points="284.16 34.74 284.16 33.18 296.4 33.18 296.4 34.74"/><text class="cls-13" transform="translate(285 31.98)">Disp.</text><polyline class="cls-14" points="302.82 34.74 302.82 33.18 326.4 33.18 326.4 34.74"/><text class="cls-13" transform="translate(305.88 32.28)">Stresses</text><line class="cls-1" x1="201.18" y1="99.96" x2="187.92" y2="99.96"/><polygon points="201.18 99.18 205.8 99.96 201.18 100.68 201.18 99.18"/><polygon class="cls-3" points="201.18 99.18 205.8 99.96 201.18 100.68 201.18 99.18"/><text class="cls-12" transform="translate(189.48 97.26)">RELU</text><text class="cls-34" transform="translate(174.3 100.44)">...</text><line class="cls-1" x1="274.26" y1="99.96" x2="261" y2="99.96"/><polygon points="274.26 99.18 278.88 99.96 274.26 100.68 274.26 99.18"/><polygon class="cls-3" points="274.26 99.18 278.88 99.96 274.26 100.68 274.26 99.18"/><text class="cls-12" transform="translate(262.56 97.26)">RELU</text><line class="cls-15" x1="6.9" y1="72.84" x2="6.9" y2="60.78"/><polygon points="6.06 60.78 6.9 55.62 7.74 60.78 6.06 60.78"/><polygon class="cls-3" points="6.06 60.78 6.9 55.62 7.74 60.78 6.06 60.78"/><line class="cls-15" x1="0.84" y1="72.84" x2="0.84" y2="60.78"/><polygon points="0 60.78 0.84 55.62 1.68 60.78 0 60.78"/><polygon class="cls-3" points="0 60.78 0.84 55.62 1.68 60.78 0 60.78"/><line class="cls-15" x1="12.96" y1="72.84" x2="12.96" y2="60.78"/><polygon points="12.06 60.78 12.96 55.62 13.8 60.78 12.06 60.78"/><polygon class="cls-3" points="12.06 60.78 12.96 55.62 13.8 60.78 12.06 60.78"/><line class="cls-15" x1="10.14" y1="72.84" x2="10.14" y2="60.78"/><polygon points="9.3 60.78 10.14 55.62 10.98 60.78 9.3 60.78"/><polygon class="cls-3" points="9.3 60.78 10.14 55.62 10.98 60.78 9.3 60.78"/><line class="cls-15" x1="3.96" y1="72.84" x2="3.96" y2="60.78"/><polygon points="3.12 60.78 3.96 55.62 4.86 60.78 3.12 60.78"/><polygon class="cls-3" points="3.12 60.78 3.96 55.62 4.86 60.78 3.12 60.78"/><text class="cls-35" transform="translate(15.12 77.76)">Uniaxial</text><text class="cls-35" transform="translate(15 84.96)">Tensile</text><text class="cls-35" transform="translate(15 92.04)">Test</text><path class="cls-15" d="M333.36,292.05a2.55,2.55,0,0,0-2.55,2.55" transform="translate(-51.93 -237.57)"/><path class="cls-15" d="M385.59,294.6a2.55,2.55,0,0,0-2.55-2.55" transform="translate(-51.93 -237.57)"/><path class="cls-15" d="M330.81,395.94a2.55,2.55,0,0,0,2.55,2.55" transform="translate(-51.93 -237.57)"/><path class="cls-15" d="M383,398.49a2.55,2.55,0,0,0,2.55-2.55" transform="translate(-51.93 -237.57)"/><line class="cls-1" x1="49.32" y1="54.36" x2="99" y2="54.36"/><line class="cls-1" x1="101.58" y1="56.94" x2="101.58" y2="158.28"/><line class="cls-1" x1="99" y1="160.8" x2="49.32" y2="160.8"/><line class="cls-1" x1="46.74" y1="158.28" x2="46.74" y2="56.94"/><path class="cls-15" d="M101.22,291.93a2.55,2.55,0,0,0-2.55,2.55" transform="translate(-51.93 -237.57)"/><path class="cls-15" d="M153.45,294.48a2.55,2.55,0,0,0-2.55-2.55" transform="translate(-51.93 -237.57)"/><path class="cls-15" d="M98.67,395.82a2.55,2.55,0,0,0,2.55,2.55" transform="translate(-51.93 -237.57)"/><path class="cls-15" d="M150.9,398.37a2.55,2.55,0,0,0,2.55-2.55" transform="translate(-51.93 -237.57)"/><path class="cls-15" d="M173.93,238.11a2.54,2.54,0,0,0-2.54,2.55" transform="translate(-51.93 -237.57)"/><path class="cls-15" d="M226.53,240.48a2.54,2.54,0,0,0-2.56-2.55" transform="translate(-51.93 -237.57)"/><path class="cls-15" d="M224,436.65a2.56,2.56,0,0,0,2.54-2.55" transform="translate(-51.93 -237.57)"/><path class="cls-15" d="M171.39,434.28a2.52,2.52,0,0,0,.75,1.8,2.56,2.56,0,0,0,1.81.75" transform="translate(-51.93 -237.57)"/><line class="cls-1" x1="208.38" y1="0.54" x2="258.42" y2="0.36"/><line class="cls-1" x1="261" y1="2.94" x2="261" y2="196.56"/><line class="cls-1" x1="258.42" y1="199.14" x2="208.38" y2="199.32"/><line class="cls-1" x1="205.8" y1="196.74" x2="205.8" y2="3.12"/><path class="cls-15" d="M260.27,238.11a2.54,2.54,0,0,0-2.54,2.55" transform="translate(-51.93 -237.57)"/><path class="cls-15" d="M312.87,240.48a2.54,2.54,0,0,0-2.56-2.55" transform="translate(-51.93 -237.57)"/><path class="cls-15" d="M310.33,436.65a2.56,2.56,0,0,0,2.54-2.55" transform="translate(-51.93 -237.57)"/><path class="cls-15" d="M257.73,434.28a2.52,2.52,0,0,0,.75,1.8,2.56,2.56,0,0,0,1.81.75" transform="translate(-51.93 -237.57)"/></svg>