<?xml version="1.0" encoding="UTF-8"?>
<svg id="Layer_1" xmlns="http://www.w3.org/2000/svg" version="1.1" xmlns:xlink="http://www.w3.org/1999/xlink" viewBox="0 0 288 216">
  <!-- Generator: Adobe Illustrator 29.0.0, SVG Export Plug-In . SVG Version: 2.1.0 Build 186)  -->
  <defs>
    <style>
      .st0 {
        stroke: #d62728;
      }

      .st0, .st1, .st2, .st3, .st4, .st5, .st6, .st7 {
        fill: none;
      }

      .st0, .st1, .st2, .st3, .st5, .st6 {
        stroke-linecap: square;
      }

      .st0, .st1, .st2, .st3, .st6, .st8, .st7 {
        stroke-linejoin: round;
      }

      .st0, .st1, .st2, .st3, .st7 {
        stroke-width: 1.5px;
      }

      .st9 {
        clip-path: url(#clippath-6);
      }

      .st10 {
        clip-path: url(#clippath-7);
      }

      .st11 {
        clip-path: url(#clippath-15);
      }

      .st1 {
        stroke: #1f77b4;
      }

      .st12 {
        clip-path: url(#clippath-4);
      }

      .st13 {
        isolation: isolate;
        opacity: .8;
        stroke: #ccc;
      }

      .st13, .st14 {
        fill: #fff;
      }

      .st15 {
        clip-path: url(#clippath-9);
      }

      .st16 {
        clip-path: url(#clippath-10);
      }

      .st2 {
        stroke: #ff7f0e;
      }

      .st3 {
        stroke: #2ca02c;
      }

      .st17 {
        clip-path: url(#clippath-11);
      }

      .st18 {
        clip-path: url(#clippath-1);
      }

      .st19 {
        clip-path: url(#clippath-5);
      }

      .st20 {
        clip-path: url(#clippath-8);
      }

      .st5, .st6, .st8 {
        stroke-width: .8px;
      }

      .st5, .st8 {
        stroke: #000;
      }

      .st21 {
        clip-path: url(#clippath-3);
      }

      .st22 {
        clip-path: url(#clippath-12);
      }

      .st23 {
        clip-path: url(#clippath-14);
      }

      .st6 {
        stroke: #b0b0b0;
      }

      .st24 {
        font-family: MyriadPro-Regular, 'Myriad Pro';
        font-size: 12px;
      }

      .st25 {
        clip-path: url(#clippath-16);
      }

      .st26 {
        clip-path: url(#clippath-2);
      }

      .st27 {
        clip-path: url(#clippath-13);
      }

      .st7 {
        stroke: #9467bd;
        stroke-dasharray: 5.6 2.4;
      }

      .st28 {
        clip-path: url(#clippath);
      }
    </style>
    <clipPath id="clippath">
      <rect class="st4" x="51" y="25.4" width="226.1" height="148.6"/>
    </clipPath>
    <clipPath id="clippath-1">
      <rect class="st4" x="51" y="25.4" width="226.1" height="148.6"/>
    </clipPath>
    <clipPath id="clippath-2">
      <rect class="st4" x="51" y="25.4" width="226.1" height="148.6"/>
    </clipPath>
    <clipPath id="clippath-3">
      <rect class="st4" x="51" y="25.4" width="226.1" height="148.6"/>
    </clipPath>
    <clipPath id="clippath-4">
      <rect class="st4" x="51" y="25.4" width="226.1" height="148.6"/>
    </clipPath>
    <clipPath id="clippath-5">
      <rect class="st4" x="51" y="25.4" width="226.1" height="148.6"/>
    </clipPath>
    <clipPath id="clippath-6">
      <rect class="st4" x="51" y="25.4" width="226.1" height="148.6"/>
    </clipPath>
    <clipPath id="clippath-7">
      <rect class="st4" x="51" y="25.4" width="226.1" height="148.6"/>
    </clipPath>
    <clipPath id="clippath-8">
      <rect class="st4" x="51" y="25.4" width="226.1" height="148.6"/>
    </clipPath>
    <clipPath id="clippath-9">
      <rect class="st4" x="51" y="25.4" width="226.1" height="148.6"/>
    </clipPath>
    <clipPath id="clippath-10">
      <rect class="st4" x="51" y="25.4" width="226.1" height="148.6"/>
    </clipPath>
    <clipPath id="clippath-11">
      <rect class="st4" x="51" y="25.4" width="226.1" height="148.6"/>
    </clipPath>
    <clipPath id="clippath-12">
      <rect class="st4" x="51" y="25.4" width="226.1" height="148.6"/>
    </clipPath>
    <clipPath id="clippath-13">
      <rect class="st4" x="51" y="25.4" width="226.1" height="148.6"/>
    </clipPath>
    <clipPath id="clippath-14">
      <rect class="st4" x="51" y="25.4" width="226.1" height="148.6"/>
    </clipPath>
    <clipPath id="clippath-15">
      <rect class="st4" x="51" y="25.4" width="226.1" height="148.6"/>
    </clipPath>
    <clipPath id="clippath-16">
      <rect class="st4" x="51" y="25.4" width="226.1" height="148.6"/>
    </clipPath>
  </defs>
  <path class="st14" d="M0,216h288V0H0v216Z"/>
  <path class="st14" d="M51,174h226.2V25.4H51v148.6Z"/>
  <g class="st28">
    <path class="st6" d="M61.3,174V25.4"/>
  </g>
  <path id="mbce3cc3bec" class="st8" d="M61.3,174v3.5"/>
  <path id="DejaVuSans-30" d="M61.3,182c-.5,0-.9.3-1.1.8-.3.5-.4,1.3-.4,2.3s.1,1.7.4,2.2c.3.5.6.8,1.1.8s.9-.3,1.2-.8c.3-.5.4-1.2.4-2.2s-.1-1.8-.4-2.3c-.3-.5-.6-.8-1.2-.8ZM61.3,181.2c.8,0,1.4.3,1.9,1,.4.6.6,1.6.6,2.8s-.2,2.2-.6,2.8c-.4.6-1.1,1-1.9,1s-1.4-.3-1.9-1c-.4-.6-.6-1.6-.6-2.8s.2-2.2.6-2.8c.4-.6,1.1-1,1.9-1Z"/>
  <g class="st18">
    <path class="st6" d="M99.5,174V25.4"/>
  </g>
  <path id="mbce3cc3bec1" data-name="mbce3cc3bec" class="st8" d="M99.5,174v3.5"/>
  <path id="DejaVuSans-35" d="M97.4,181.3h3.9v.8h-3v1.8c.1,0,.3,0,.4-.1.1,0,.3,0,.4,0,.8,0,1.5.2,1.9.7.5.4.7,1,.7,1.8s-.2,1.4-.7,1.8c-.5.4-1.2.7-2.1.7s-.6,0-.9,0c-.3,0-.6-.1-1-.2v-1c.3.2.6.3.9.4s.6.1,1,.1c.6,0,1-.1,1.3-.4.3-.3.5-.7.5-1.2s-.2-.9-.5-1.2c-.3-.3-.8-.4-1.3-.4s-.5,0-.8,0c-.3,0-.5.1-.8.3v-3.7Z"/>
  <g class="st26">
    <path class="st6" d="M137.8,174V25.4"/>
  </g>
  <path id="mbce3cc3bec2" data-name="mbce3cc3bec" class="st8" d="M137.8,174v3.5"/>
  <path id="DejaVuSans-31" d="M132.6,187.8h1.6v-5.6l-1.8.4v-.9l1.7-.4h1v6.5h1.6v.8h-4.2v-.8Z"/>
  <path id="DejaVuSans-301" data-name="DejaVuSans-30" d="M140.9,182c-.5,0-.9.3-1.1.8-.3.5-.4,1.3-.4,2.3s.1,1.7.4,2.2c.3.5.6.8,1.1.8s.9-.3,1.2-.8c.3-.5.4-1.2.4-2.2s-.1-1.8-.4-2.3c-.3-.5-.6-.8-1.2-.8ZM140.9,181.2c.8,0,1.4.3,1.9,1,.4.6.6,1.6.6,2.8s-.2,2.2-.6,2.8c-.4.6-1.1,1-1.9,1s-1.4-.3-1.9-1c-.4-.6-.6-1.6-.6-2.8s.2-2.2.6-2.8c.4-.6,1.1-1,1.9-1Z"/>
  <g class="st21">
    <path class="st6" d="M176,174V25.4"/>
  </g>
  <path id="mbce3cc3bec3" data-name="mbce3cc3bec" class="st8" d="M176,174v3.5"/>
  <path id="DejaVuSans-311" data-name="DejaVuSans-31" d="M170.8,187.8h1.6v-5.6l-1.8.4v-.9l1.7-.4h1v6.5h1.6v.8h-4.2v-.8Z"/>
  <path id="DejaVuSans-351" data-name="DejaVuSans-35" d="M177.1,181.3h3.9v.8h-3v1.8c.1,0,.3,0,.4-.1.1,0,.3,0,.4,0,.8,0,1.5.2,1.9.7.5.4.7,1,.7,1.8s-.2,1.4-.7,1.8c-.5.4-1.2.7-2.1.7s-.6,0-.9,0c-.3,0-.6-.1-1-.2v-1c.3.2.6.3.9.4s.6.1,1,.1c.6,0,1-.1,1.3-.4.3-.3.5-.7.5-1.2s-.2-.9-.5-1.2c-.3-.3-.8-.4-1.3-.4s-.5,0-.8,0c-.3,0-.5.1-.8.3v-3.7Z"/>
  <g class="st12">
    <path class="st6" d="M214.2,174V25.4"/>
  </g>
  <path id="mbce3cc3bec4" data-name="mbce3cc3bec" class="st8" d="M214.2,174v3.5"/>
  <path id="DejaVuSans-32" d="M209.7,187.8h3.4v.8h-4.6v-.8c.4-.4.9-.9,1.5-1.6.6-.7,1.1-1.1,1.2-1.3.3-.4.5-.7.7-.9.1-.2.2-.5.2-.7,0-.4-.1-.7-.4-.9-.3-.2-.6-.4-1.1-.4s-.6,0-1,.2c-.3.1-.7.3-1.1.5v-1c.4-.2.8-.3,1.1-.4.3,0,.7-.1.9-.1.8,0,1.4.2,1.8.6.4.4.7.9.7,1.5s0,.6-.2.9c-.1.3-.3.6-.6.9,0,0-.3.4-.8.8-.4.5-1.1,1.1-1.8,1.9Z"/>
  <path id="DejaVuSans-302" data-name="DejaVuSans-30" d="M217.4,182c-.5,0-.9.3-1.1.8-.3.5-.4,1.3-.4,2.3s.1,1.7.4,2.2c.3.5.6.8,1.1.8s.9-.3,1.2-.8c.3-.5.4-1.2.4-2.2s-.1-1.8-.4-2.3c-.3-.5-.6-.8-1.2-.8ZM217.4,181.2c.8,0,1.4.3,1.9,1,.4.6.6,1.6.6,2.8s-.2,2.2-.6,2.8c-.4.6-1.1,1-1.9,1s-1.4-.3-1.9-1c-.4-.6-.6-1.6-.6-2.8s.2-2.2.6-2.8c.4-.6,1.1-1,1.9-1Z"/>
  <g class="st19">
    <path class="st6" d="M252.4,174V25.4"/>
  </g>
  <path id="mbce3cc3bec5" data-name="mbce3cc3bec" class="st8" d="M252.4,174v3.5"/>
  <path id="DejaVuSans-321" data-name="DejaVuSans-32" d="M248,187.8h3.4v.8h-4.6v-.8c.4-.4.9-.9,1.5-1.6.6-.7,1.1-1.1,1.2-1.3.3-.4.5-.7.7-.9.1-.2.2-.5.2-.7,0-.4-.1-.7-.4-.9-.3-.2-.6-.4-1.1-.4s-.6,0-1,.2c-.3.1-.7.3-1.1.5v-1c.4-.2.8-.3,1.1-.4.3,0,.7-.1.9-.1.8,0,1.4.2,1.8.6.4.4.7.9.7,1.5s0,.6-.2.9c-.1.3-.3.6-.6.9,0,0-.3.4-.8.8-.4.5-1.1,1.1-1.8,1.9Z"/>
  <path id="DejaVuSans-352" data-name="DejaVuSans-35" d="M253.5,181.3h3.9v.8h-3v1.8c.1,0,.3,0,.4-.1.1,0,.3,0,.4,0,.8,0,1.5.2,1.9.7.5.4.7,1,.7,1.8s-.2,1.4-.7,1.8c-.5.4-1.2.7-2.1.7s-.6,0-.9,0c-.3,0-.6-.1-1-.2v-1c.3.2.6.3.9.4s.6.1,1,.1c.6,0,1-.1,1.3-.4.3-.3.5-.7.5-1.2s-.2-.9-.5-1.2c-.3-.3-.8-.4-1.3-.4s-.5,0-.8,0c-.3,0-.5.1-.8.3v-3.7Z"/>
  <path id="DejaVuSans-54" d="M125.9,195h6.2v.8h-2.6v6.5h-1v-6.5h-2.6v-.8Z"/>
  <path id="DejaVuSans-69" d="M132.7,196.8h.9v5.5h-.9v-5.5ZM132.7,194.7h.9v1.1h-.9v-1.1Z"/>
  <path id="DejaVuSans-6d" d="M139.7,197.9c.2-.4.5-.7.8-.9s.7-.3,1.1-.3,1,.2,1.3.6c.3.4.5,1,.5,1.7v3.3h-.9v-3.3c0-.5,0-.9-.3-1.2-.2-.3-.5-.4-.8-.4s-.8.2-1.1.5c-.3.3-.4.7-.4,1.3v3.1h-.9v-3.3c0-.5,0-.9-.3-1.2s-.5-.4-.9-.4-.8.2-1.1.5c-.3.3-.4.7-.4,1.3v3.1h-.9v-5.5h.9v.9c.2-.3.5-.6.7-.7s.6-.2,1-.2.7.1,1,.3c.3.2.5.5.6.9Z"/>
  <path id="DejaVuSans-65" d="M149.9,199.4v.4h-4.1c0,.6.2,1.1.6,1.4.3.3.8.5,1.4.5s.7,0,1-.1.6-.2,1-.4v.9c-.3.1-.7.2-1,.3s-.7.1-1,.1c-.9,0-1.6-.3-2.1-.8-.5-.5-.8-1.2-.8-2.1s.2-1.6.7-2.1c.5-.5,1.1-.8,2-.8s1.3.2,1.7.7c.4.5.6,1.1.6,1.9ZM149,199.1c0-.5-.1-.9-.4-1.2-.3-.3-.6-.4-1.1-.4s-.9.1-1.2.4-.5.7-.5,1.2h3.2Z"/>
  <path id="DejaVuSans-20" d="M150.4,202.3"/>
  <path id="DejaVuSans-28" d="M156.7,194.7c-.4.7-.8,1.5-1,2.2-.2.7-.3,1.5-.3,2.2s.1,1.5.3,2.2.5,1.5,1,2.2h-.8c-.5-.8-.9-1.5-1.1-2.3-.2-.7-.4-1.5-.4-2.2s.1-1.5.4-2.2c.2-.7.6-1.5,1.1-2.3h.8Z"/>
  <path id="DejaVuSans-73" d="M161.9,197v.9c-.3-.1-.5-.2-.8-.3-.3,0-.6,0-.9,0-.4,0-.8,0-1,.2-.2.1-.3.3-.3.6s0,.4.2.5.5.2,1,.3h.3c.6.2,1.1.4,1.4.6s.4.6.4,1-.2.9-.6,1.2c-.4.3-1,.4-1.7.4s-.6,0-.9,0c-.3,0-.7-.1-1-.3v-.9c.3.2.7.3,1,.4.3,0,.6.1,1,.1s.7,0,1-.2c.2-.1.3-.3.3-.6s0-.4-.2-.6c-.2-.1-.5-.3-1.1-.4h-.3c-.6-.2-1-.4-1.2-.6-.2-.2-.4-.6-.4-1s.2-.9.5-1.2c.4-.3.9-.4,1.6-.4s.6,0,.9,0c.3,0,.6.1.8.2Z"/>
  <path id="DejaVuSans-651" data-name="DejaVuSans-65" d="M168.3,199.4v.4h-4.1c0,.6.2,1.1.6,1.4.3.3.8.5,1.4.5s.7,0,1-.1.6-.2,1-.4v.9c-.3.1-.7.2-1,.3s-.7.1-1,.1c-.9,0-1.6-.3-2.1-.8-.5-.5-.8-1.2-.8-2.1s.2-1.6.7-2.1c.5-.5,1.1-.8,2-.8s1.3.2,1.7.7c.4.5.6,1.1.6,1.9ZM167.4,199.1c0-.5-.1-.9-.4-1.2-.3-.3-.6-.4-1.1-.4s-.9.1-1.2.4-.5.7-.5,1.2h3.2Z"/>
  <path id="DejaVuSans-63" d="M173.8,197.1v.8c-.3-.1-.5-.2-.8-.3s-.5-.1-.8-.1c-.6,0-1,.2-1.4.6-.3.4-.5.9-.5,1.6s.2,1.2.5,1.6c.3.4.8.6,1.4.6s.5,0,.8-.1.5-.2.8-.3v.8c-.3.1-.5.2-.8.3-.3,0-.6,0-.9,0-.8,0-1.5-.3-2-.8-.5-.5-.7-1.2-.7-2.1s.2-1.6.7-2.1c.5-.5,1.2-.8,2-.8s.5,0,.8,0c.3,0,.5.1.8.3Z"/>
  <path id="DejaVuSans-6f" d="M177.4,197.5c-.5,0-.9.2-1.1.6s-.4.9-.4,1.5.1,1.2.4,1.5c.3.4.7.6,1.1.6s.9-.2,1.1-.6c.3-.4.4-.9.4-1.5s-.1-1.2-.4-1.5c-.3-.4-.7-.6-1.1-.6ZM177.4,196.7c.8,0,1.4.3,1.8.8.4.5.7,1.2.7,2.1s-.2,1.6-.7,2.1c-.4.5-1.1.8-1.8.8s-1.4-.3-1.8-.8c-.4-.5-.7-1.2-.7-2.1s.2-1.6.7-2.1c.4-.5,1.1-.8,1.8-.8Z"/>
  <path id="DejaVuSans-6e" d="M186,199v3.3h-.9v-3.3c0-.5-.1-.9-.3-1.2-.2-.3-.5-.4-.9-.4s-.9.2-1.1.5c-.3.3-.4.7-.4,1.3v3.1h-.9v-5.5h.9v.9c.2-.3.5-.6.8-.7.3-.2.6-.2,1-.2.6,0,1.1.2,1.4.6.3.4.5,1,.5,1.7Z"/>
  <path id="DejaVuSans-64" d="M191.4,197.7v-3h.9v7.6h-.9v-.8c-.2.3-.4.6-.7.7-.3.2-.6.2-1,.2-.7,0-1.2-.3-1.6-.8-.4-.5-.6-1.2-.6-2.1s.2-1.6.6-2.1c.4-.5,1-.8,1.6-.8s.8,0,1,.2c.3.2.5.4.7.7ZM188.3,199.6c0,.7.1,1.2.4,1.6.3.4.6.6,1.1.6s.8-.2,1.1-.6c.3-.4.4-.9.4-1.6s-.1-1.2-.4-1.6c-.3-.4-.6-.6-1.1-.6s-.8.2-1.1.6-.4.9-.4,1.6Z"/>
  <path id="DejaVuSans-731" data-name="DejaVuSans-73" d="M197.6,197v.9c-.3-.1-.5-.2-.8-.3-.3,0-.6,0-.9,0-.4,0-.8,0-1,.2-.2.1-.3.3-.3.6s0,.4.2.5.5.2,1,.3h.3c.6.2,1.1.4,1.4.6s.4.6.4,1-.2.9-.6,1.2c-.4.3-1,.4-1.7.4s-.6,0-.9,0c-.3,0-.7-.1-1-.3v-.9c.3.2.7.3,1,.4.3,0,.6.1,1,.1s.7,0,1-.2c.2-.1.3-.3.3-.6s0-.4-.2-.6c-.2-.1-.5-.3-1.1-.4h-.3c-.6-.2-1-.4-1.2-.6-.2-.2-.4-.6-.4-1s.2-.9.5-1.2c.4-.3.9-.4,1.6-.4s.6,0,.9,0c.3,0,.6.1.8.2Z"/>
  <path id="DejaVuSans-29" d="M199.2,194.7h.8c.5.8.9,1.5,1.1,2.3.2.7.4,1.5.4,2.2s-.1,1.5-.4,2.2c-.2.7-.6,1.5-1.1,2.3h-.8c.4-.7.8-1.5,1-2.2.2-.7.3-1.5.3-2.2s-.1-1.5-.3-2.2c-.2-.7-.5-1.5-1-2.2Z"/>
  <g class="st9">
    <path class="st6" d="M51,155.9h226.2"/>
  </g>
  <path id="m10abeb62cf" class="st8" d="M51,155.9h-3.5"/>
  <path id="DejaVuSans-36" d="M34.6,155.7c-.4,0-.8.2-1.1.5-.3.3-.4.7-.4,1.2s.1.9.4,1.2c.3.3.6.5,1.1.5s.8-.2,1.1-.5c.3-.3.4-.7.4-1.2s-.1-.9-.4-1.2c-.3-.3-.6-.5-1.1-.5ZM36.6,152.6v.9c-.2-.1-.5-.2-.8-.3-.3,0-.5,0-.8,0-.7,0-1.1.2-1.5.7-.3.4-.5,1.1-.6,2,.2-.3.4-.5.7-.7.3-.2.6-.2,1-.2.7,0,1.3.2,1.7.7.4.4.6,1,.6,1.8s-.2,1.4-.7,1.8c-.4.5-1,.7-1.8.7s-1.5-.3-1.9-1c-.4-.6-.7-1.6-.7-2.8s.3-2.1.8-2.8c.5-.7,1.3-1,2.2-1s.5,0,.8,0,.5.1.8.2Z"/>
  <path id="DejaVuSans-303" data-name="DejaVuSans-30" d="M40.9,153.1c-.5,0-.9.3-1.1.8-.3.5-.4,1.3-.4,2.3s.1,1.7.4,2.2c.3.5.6.8,1.1.8s.9-.3,1.2-.8c.3-.5.4-1.2.4-2.2s-.1-1.8-.4-2.3c-.3-.5-.6-.8-1.2-.8ZM40.9,152.3c.8,0,1.4.3,1.9,1,.4.6.6,1.6.6,2.8s-.2,2.2-.6,2.8c-.4.6-1.1,1-1.9,1s-1.4-.3-1.9-1c-.4-.6-.6-1.6-.6-2.8s.2-2.2.6-2.8c.4-.6,1.1-1,1.9-1Z"/>
  <g class="st10">
    <path class="st6" d="M51,131.2h226.2"/>
  </g>
  <path id="m10abeb62cf1" data-name="m10abeb62cf" class="st8" d="M51,131.2h-3.5"/>
  <path id="DejaVuSans-38" d="M34.5,131.5c-.5,0-.8.1-1.1.4-.3.3-.4.6-.4,1s.1.8.4,1c.3.3.6.4,1.1.4s.8-.1,1.1-.4c.3-.3.4-.6.4-1s-.1-.8-.4-1c-.3-.3-.6-.4-1.1-.4ZM33.5,131.1c-.4-.1-.8-.3-1-.6-.2-.3-.4-.6-.4-1.1s.2-1,.6-1.4c.4-.3,1-.5,1.7-.5s1.3.2,1.7.5.6.8.6,1.4-.1.8-.4,1.1c-.2.3-.6.5-1,.6.5.1.8.3,1.1.7.3.3.4.7.4,1.2,0,.7-.2,1.3-.6,1.6-.4.4-1,.6-1.9.6s-1.4-.2-1.9-.6c-.4-.4-.6-.9-.6-1.6s.1-.9.4-1.2c.3-.3.6-.5,1.1-.7ZM33.2,129.5c0,.4.1.7.4.9.2.2.6.3,1,.3s.8-.1,1-.3c.2-.2.4-.5.4-.9s-.1-.7-.4-.9c-.2-.2-.6-.3-1-.3s-.8.1-1,.3c-.2.2-.4.5-.4.9Z"/>
  <path id="DejaVuSans-304" data-name="DejaVuSans-30" d="M40.9,128.3c-.5,0-.9.3-1.1.8-.3.5-.4,1.3-.4,2.3s.1,1.7.4,2.2c.3.5.6.8,1.1.8s.9-.3,1.2-.8c.3-.5.4-1.2.4-2.2s-.1-1.8-.4-2.3c-.3-.5-.6-.8-1.2-.8ZM40.9,127.6c.8,0,1.4.3,1.9,1,.4.6.6,1.6.6,2.8s-.2,2.2-.6,2.8c-.4.6-1.1,1-1.9,1s-1.4-.3-1.9-1c-.4-.6-.6-1.6-.6-2.8s.2-2.2.6-2.8c.4-.6,1.1-1,1.9-1Z"/>
  <g class="st20">
    <path class="st6" d="M51,106.4h226.2"/>
  </g>
  <path id="m10abeb62cf2" data-name="m10abeb62cf" class="st8" d="M51,106.4h-3.5"/>
  <path id="DejaVuSans-312" data-name="DejaVuSans-31" d="M26.2,109.4h1.6v-5.6l-1.8.4v-.9l1.7-.4h1v6.5h1.6v.8h-4.2v-.8Z"/>
  <path id="DejaVuSans-305" data-name="DejaVuSans-30" d="M34.5,103.6c-.5,0-.9.3-1.1.8-.3.5-.4,1.3-.4,2.3s.1,1.7.4,2.2c.3.5.6.8,1.1.8s.9-.3,1.2-.8c.3-.5.4-1.2.4-2.2s-.1-1.8-.4-2.3c-.3-.5-.6-.8-1.2-.8ZM34.5,102.8c.8,0,1.4.3,1.9,1,.4.6.6,1.6.6,2.8s-.2,2.2-.6,2.8c-.4.6-1.1,1-1.9,1s-1.4-.3-1.9-1c-.4-.6-.6-1.6-.6-2.8s.2-2.2.6-2.8c.4-.6,1.1-1,1.9-1Z"/>
  <path id="DejaVuSans-306" data-name="DejaVuSans-30" d="M40.9,103.6c-.5,0-.9.3-1.1.8-.3.5-.4,1.3-.4,2.3s.1,1.7.4,2.2c.3.5.6.8,1.1.8s.9-.3,1.2-.8c.3-.5.4-1.2.4-2.2s-.1-1.8-.4-2.3c-.3-.5-.6-.8-1.2-.8ZM40.9,102.8c.8,0,1.4.3,1.9,1,.4.6.6,1.6.6,2.8s-.2,2.2-.6,2.8c-.4.6-1.1,1-1.9,1s-1.4-.3-1.9-1c-.4-.6-.6-1.6-.6-2.8s.2-2.2.6-2.8c.4-.6,1.1-1,1.9-1Z"/>
  <g class="st15">
    <path class="st6" d="M51,81.7h226.2"/>
  </g>
  <path id="m10abeb62cf3" data-name="m10abeb62cf" class="st8" d="M51,81.7h-3.5"/>
  <path id="DejaVuSans-313" data-name="DejaVuSans-31" d="M26.2,84.7h1.6v-5.6l-1.8.4v-.9l1.7-.4h1v6.5h1.6v.8h-4.2v-.8Z"/>
  <path id="DejaVuSans-322" data-name="DejaVuSans-32" d="M33.2,84.7h3.4v.8h-4.6v-.8c.4-.4.9-.9,1.5-1.6.6-.7,1.1-1.1,1.2-1.3.3-.4.5-.7.7-.9.1-.2.2-.5.2-.7,0-.4-.1-.7-.4-.9-.3-.2-.6-.4-1.1-.4s-.6,0-1,.2c-.3.1-.7.3-1.1.5v-1c.4-.2.8-.3,1.1-.4.3,0,.7-.1.9-.1.8,0,1.4.2,1.8.6.4.4.7.9.7,1.5s0,.6-.2.9c-.1.3-.3.6-.6.9,0,0-.3.4-.8.8-.4.5-1.1,1.1-1.8,1.9Z"/>
  <path id="DejaVuSans-307" data-name="DejaVuSans-30" d="M40.9,78.8c-.5,0-.9.3-1.1.8-.3.5-.4,1.3-.4,2.3s.1,1.7.4,2.2c.3.5.6.8,1.1.8s.9-.3,1.2-.8c.3-.5.4-1.2.4-2.2s-.1-1.8-.4-2.3c-.3-.5-.6-.8-1.2-.8ZM40.9,78.1c.8,0,1.4.3,1.9,1,.4.6.6,1.6.6,2.8s-.2,2.2-.6,2.8c-.4.6-1.1,1-1.9,1s-1.4-.3-1.9-1c-.4-.6-.6-1.6-.6-2.8s.2-2.2.6-2.8c.4-.6,1.1-1,1.9-1Z"/>
  <g class="st16">
    <path class="st6" d="M51,56.9h226.2"/>
  </g>
  <path id="m10abeb62cf4" data-name="m10abeb62cf" class="st8" d="M51,56.9h-3.5"/>
  <path id="DejaVuSans-314" data-name="DejaVuSans-31" d="M26.2,59.9h1.6v-5.6l-1.8.4v-.9l1.7-.4h1v6.5h1.6v.8h-4.2v-.8Z"/>
  <path id="DejaVuSans-34" d="M35.1,54.3l-2.5,3.9h2.5v-3.9ZM34.8,53.5h1.2v4.8h1v.8h-1v1.7h-1v-1.7h-3.3v-1l3-4.6Z"/>
  <path id="DejaVuSans-308" data-name="DejaVuSans-30" d="M40.9,54.1c-.5,0-.9.3-1.1.8-.3.5-.4,1.3-.4,2.3s.1,1.7.4,2.2c.3.5.6.8,1.1.8s.9-.3,1.2-.8c.3-.5.4-1.2.4-2.2s-.1-1.8-.4-2.3c-.3-.5-.6-.8-1.2-.8ZM40.9,53.3c.8,0,1.4.3,1.9,1,.4.6.6,1.6.6,2.8s-.2,2.2-.6,2.8c-.4.6-1.1,1-1.9,1s-1.4-.3-1.9-1c-.4-.6-.6-1.6-.6-2.8s.2-2.2.6-2.8c.4-.6,1.1-1,1.9-1Z"/>
  <g class="st17">
    <path class="st6" d="M51,32.2h226.2"/>
  </g>
  <path id="m10abeb62cf5" data-name="m10abeb62cf" class="st8" d="M51,32.2h-3.5"/>
  <path id="DejaVuSans-315" data-name="DejaVuSans-31" d="M26.2,35.2h1.6v-5.6l-1.8.4v-.9l1.7-.4h1v6.5h1.6v.8h-4.2v-.8Z"/>
  <path id="DejaVuSans-361" data-name="DejaVuSans-36" d="M34.6,32c-.4,0-.8.2-1.1.5-.3.3-.4.7-.4,1.2s.1.9.4,1.2c.3.3.6.5,1.1.5s.8-.2,1.1-.5c.3-.3.4-.7.4-1.2s-.1-.9-.4-1.2c-.3-.3-.6-.5-1.1-.5ZM36.6,28.9v.9c-.2-.1-.5-.2-.8-.3-.3,0-.5,0-.8,0-.7,0-1.1.2-1.5.7-.3.4-.5,1.1-.6,2,.2-.3.4-.5.7-.7.3-.2.6-.2,1-.2.7,0,1.3.2,1.7.7.4.4.6,1,.6,1.8s-.2,1.4-.7,1.8c-.4.5-1,.7-1.8.7s-1.5-.3-1.9-1c-.4-.6-.7-1.6-.7-2.8s.3-2.1.8-2.8c.5-.7,1.3-1,2.2-1s.5,0,.8,0,.5.1.8.2Z"/>
  <path id="DejaVuSans-309" data-name="DejaVuSans-30" d="M40.9,29.4c-.5,0-.9.3-1.1.8-.3.5-.4,1.3-.4,2.3s.1,1.7.4,2.2c.3.5.6.8,1.1.8s.9-.3,1.2-.8c.3-.5.4-1.2.4-2.2s-.1-1.8-.4-2.3c-.3-.5-.6-.8-1.2-.8ZM40.9,28.6c.8,0,1.4.3,1.9,1,.4.6.6,1.6.6,2.8s-.2,2.2-.6,2.8c-.4.6-1.1,1-1.9,1s-1.4-.3-1.9-1c-.4-.6-.6-1.6-.6-2.8s.2-2.2.6-2.8c.4-.6,1.1-1,1.9-1Z"/>
  <path id="DejaVuSans-541" data-name="DejaVuSans-54" d="M11.6,142.9v-6.2h.8v2.6h6.5v1h-6.5v2.6h-.8Z"/>
  <path id="DejaVuSans-652" data-name="DejaVuSans-65" d="M15.9,132.9h.4v4.1c.6,0,1.1-.2,1.4-.6.3-.3.5-.8.5-1.4s0-.7-.1-1-.2-.6-.4-1h.9c.1.3.2.7.3,1s.1.7.1,1c0,.9-.3,1.6-.8,2.1-.5.5-1.2.8-2.1.8s-1.6-.2-2.1-.7c-.5-.5-.8-1.1-.8-2s.2-1.3.7-1.7c.5-.4,1.1-.6,1.9-.6ZM15.7,133.8c-.5,0-.9.1-1.2.4-.3.3-.4.6-.4,1.1s.1.9.4,1.2.7.5,1.2.5v-3.2Z"/>
  <path id="DejaVuSans-6d1" data-name="DejaVuSans-6d" d="M14.5,127.1c-.4-.2-.7-.5-.9-.8s-.3-.7-.3-1.1.2-1,.6-1.3c.4-.3,1-.5,1.7-.5h3.3v.9h-3.3c-.5,0-.9,0-1.2.3-.3.2-.4.5-.4.8s.2.8.5,1.1c.3.3.7.4,1.3.4h3.1v.9h-3.3c-.5,0-.9,0-1.2.3s-.4.5-.4.9.2.8.5,1.1c.3.3.7.4,1.3.4h3.1v.9h-5.5v-.9h.9c-.3-.2-.6-.5-.7-.7s-.2-.6-.2-1,.1-.7.3-1c.2-.3.5-.5.9-.6Z"/>
  <path id="DejaVuSans-70" d="M18.1,120.8h2.9v.9h-7.5v-.9h.8c-.3-.2-.6-.4-.7-.7-.2-.3-.2-.6-.2-1,0-.7.3-1.2.8-1.6.5-.4,1.2-.6,2.1-.6s1.6.2,2.1.6c.5.4.8,1,.8,1.6s0,.7-.2,1c-.2.3-.4.5-.7.7ZM16.2,117.7c-.7,0-1.2.1-1.6.4s-.6.6-.6,1.1.2.9.6,1.1.9.4,1.6.4,1.2-.1,1.6-.4c.4-.3.6-.6.6-1.1s-.2-.8-.6-1.1c-.4-.3-.9-.4-1.6-.4Z"/>
  <path id="DejaVuSans-653" data-name="DejaVuSans-65" d="M15.9,110.6h.4v4.1c.6,0,1.1-.2,1.4-.6.3-.3.5-.8.5-1.4s0-.7-.1-1-.2-.6-.4-1h.9c.1.3.2.7.3,1s.1.7.1,1c0,.9-.3,1.6-.8,2.1-.5.5-1.2.8-2.1.8s-1.6-.2-2.1-.7c-.5-.5-.8-1.1-.8-2s.2-1.3.7-1.7c.5-.4,1.1-.6,1.9-.6ZM15.7,111.5c-.5,0-.9.1-1.2.4-.3.3-.4.6-.4,1.1s.1.9.4,1.2.7.5,1.2.5v-3.2Z"/>
  <path id="DejaVuSans-72" d="M14.3,106c0,.1-.1.2-.1.3,0,.1,0,.2,0,.4,0,.5.2.9.5,1.2s.8.4,1.4.4h2.9v.9h-5.5v-.9h.9c-.3-.2-.6-.4-.7-.7-.2-.3-.2-.7-.2-1.1s0-.1,0-.2c0,0,0-.2,0-.2h.9Z"/>
  <path id="DejaVuSans-61" d="M16.1,102.6c0,.7,0,1.2.2,1.5s.4.4.9.4.6-.1.8-.3c.2-.2.3-.5.3-.9s-.2-.9-.5-1.2-.8-.5-1.4-.5h-.2v.9ZM15.8,100.8h3.1v.9h-.8c.3.2.6.5.7.8.2.3.2.7.2,1.1s-.2,1-.5,1.3c-.3.3-.7.5-1.3.5s-1.1-.2-1.4-.6c-.3-.4-.5-1-.5-1.8v-1.3h0c-.4,0-.7.1-1,.4s-.3.7-.3,1.1,0,.6.1.9c0,.3.2.6.3.9h-.8c-.1-.3-.2-.6-.3-1,0-.3,0-.6,0-.9,0-.8.2-1.4.6-1.8.4-.4,1-.6,1.9-.6Z"/>
  <path id="DejaVuSans-74" d="M11.9,98h1.6v-1.9h.7v1.9h3c.4,0,.7,0,.9-.2s.2-.4.2-.7v-.9h.8v.9c0,.7-.1,1.2-.4,1.4-.3.3-.7.4-1.4.4h-3v.7h-.7v-.7h-1.6v-.9Z"/>
  <path id="DejaVuSans-75" d="M16.7,95.1h-3.3v-.9h3.3c.5,0,.9-.1,1.2-.3.3-.2.4-.5.4-.9s-.2-.9-.5-1.1c-.3-.3-.7-.4-1.3-.4h-3.1v-.9h5.5v.9h-.8c.3.2.6.5.7.8.2.3.2.6.2,1,0,.6-.2,1.1-.6,1.4-.4.3-1,.5-1.7.5ZM13.3,92.8h0Z"/>
  <path id="DejaVuSans-721" data-name="DejaVuSans-72" d="M14.3,85.5c0,.1-.1.2-.1.3,0,.1,0,.2,0,.4,0,.5.2.9.5,1.2s.8.4,1.4.4h2.9v.9h-5.5v-.9h.9c-.3-.2-.6-.4-.7-.7-.2-.3-.2-.7-.2-1.1s0-.1,0-.2c0,0,0-.2,0-.2h.9Z"/>
  <path id="DejaVuSans-654" data-name="DejaVuSans-65" d="M15.9,80.1h.4v4.1c.6,0,1.1-.2,1.4-.6.3-.3.5-.8.5-1.4s0-.7-.1-1-.2-.6-.4-1h.9c.1.3.2.7.3,1s.1.7.1,1c0,.9-.3,1.6-.8,2.1-.5.5-1.2.8-2.1.8s-1.6-.2-2.1-.7c-.5-.5-.8-1.1-.8-2s.2-1.3.7-1.7c.5-.4,1.1-.6,1.9-.6ZM15.7,81c-.5,0-.9.1-1.2.4-.3.3-.4.6-.4,1.1s.1.9.4,1.2.7.5,1.2.5v-3.2Z"/>
  <path id="DejaVuSans-201" data-name="DejaVuSans-20" d="M18.9,79.6"/>
  <path id="DejaVuSans-281" data-name="DejaVuSans-28" d="M11.3,73.3c.7.4,1.5.8,2.2,1,.7.2,1.5.3,2.2.3s1.5-.1,2.2-.3,1.5-.5,2.2-1v.8c-.8.5-1.5.9-2.3,1.1-.7.2-1.5.4-2.2.4s-1.5-.1-2.2-.4c-.7-.2-1.5-.6-2.3-1.1v-.8Z"/>
  <path id="DejaVuSans-b0" d="M12.1,70c0,.3,0,.5.3.7.2.2.4.3.7.3s.5,0,.7-.3.3-.4.3-.7,0-.5-.3-.7c-.2-.2-.4-.3-.7-.3s-.5,0-.7.3c-.2.2-.3.4-.3.7ZM11.5,70c0-.2,0-.4.1-.6,0-.2.2-.4.3-.5.1-.2.3-.3.5-.3.2,0,.4-.1.6-.1.4,0,.8.2,1.1.5s.4.7.4,1.1-.1.8-.4,1.1c-.3.3-.7.4-1.1.4s-.8-.1-1.1-.4c-.3-.3-.5-.7-.5-1.1Z"/>
  <path id="DejaVuSans-43" d="M12.2,61h1c-.3.3-.5.7-.7,1.1-.2.4-.2.8-.2,1.2,0,.8.3,1.5.8,1.9s1.2.7,2.2.7,1.7-.2,2.2-.7.8-1.1.8-1.9,0-.8-.2-1.2-.4-.7-.7-1.1h1c.2.3.4.7.5,1.1.1.4.2.8.2,1.2,0,1.1-.3,2-1,2.6-.7.6-1.6,1-2.8,1s-2.1-.3-2.8-1c-.7-.6-1-1.5-1-2.6s0-.8.2-1.2c.1-.4.3-.7.5-1.1Z"/>
  <path id="DejaVuSans-291" data-name="DejaVuSans-29" d="M11.3,59.7v-.8c.8-.5,1.5-.9,2.3-1.1.7-.2,1.5-.4,2.2-.4s1.5.1,2.2.4c.7.2,1.5.6,2.3,1.1v.8c-.7-.4-1.5-.8-2.2-1-.7-.2-1.5-.3-2.2-.3s-1.5.1-2.2.3c-.7.2-1.5.5-2.2,1Z"/>
  <g class="st22">
    <path class="st1" d="M61.3,104.3l.8,6.7,1.5,9.9,1.5,8.2,1.5,6.8,1.5,5.5,1.5,4.5,1.5,3.6,1.5,2.9,1.5,2.3,1.5,1.9,1.5,1.5,1.5,1.2.8-50.1.8,7,1.5,7.1,1.5,6.4,1.5,5.6,1.5,4.8,1.5,4.1,1.5,3.4,1.5,2.9,1.5,2.4,1.5,2,1.5,1.7,1.5,1.4.8.6.8-14.9.8-22.7.8,2.8,1.5,6.4,1.5,5.1,1.5,4.3,1.5,3.7,1.5,3.2,1.5,2.7,1.5,2.4,1.5,2,1.5,1.8,1.5,1.5,1.5,1.3.8-2.3.8-23.9.8-2.4.8,1.8,2.3,6.6,1.5,3.7,1.5,3.2,1.5,2.8,1.5,2.4,1.5,2.1,2.3,2.7,2.3,2.2,1.5,1.3h.8s.8-16.9.8-16.9l.8-5,.8-.2.8,1.2,3.8,7.6,2.3,3.7,2.3,3.1,2.3,2.6,2.3,2.2,2.3,1.9.8.4.8-11.2.8-5.4.8-1.5h.8c0,.1.8,1,.8,1l1.5,2.3,2.3,3.6,2.3,3.1,2.3,2.7,2.3,2.3,2.3,2,2.3,1.6.8-6.8.8-5,.8-2.4.8-.8.8.2.8.6,1.5,1.9,3.1,3.9,2.3,2.6,2.3,2.2,2.3,1.9,2.3,1.7.8.5.8-3.1.8-4.6.8-3.2.8-1.5.8-.4.8.2.8.6,1.5,1.6,3.8,4.1,2.3,2.1,2.3,1.9,2.8,2h0"/>
  </g>
  <g class="st27">
    <path class="st2" d="M61.3,128.4l.8,5.9,1.5,9.1.8,3.6.8,3,.8,2.6.8,2.1.8,1.8.8,1.5,1.5,2.2,1.5,1.5,1.5,1.1,1.5.7,1.5.5,2.3.5h.8s.8-33.1.8-33.1l.8,3.9,2.3,9.8,1.5,5.3,1.5,4,1.5,3,1.5,2.2,1.5,1.7,1.5,1.2,1.5.9,1.5.7,2.3.7.8.2.8-11.8.8-15.6,1.5,6.7,1.5,5.1,1.5,3.9,1.5,3,1.5,2.4,1.5,1.9,1.5,1.5,1.5,1.1,1.5.9,2.3,1,1.5.5.8-2.9.8-18.4.8.3,1.5,4.6,1.5,3.7,1.5,2.9,1.5,2.4,1.5,1.9,1.5,1.5,1.5,1.3,1.5,1,2.3,1.2,2.3.9.8-.6.8-14.6.8-2.1.8,1,2.3,4.5,1.5,2.5,1.5,2.1,1.5,1.7,1.5,1.4,1.5,1.2,2.3,1.4,2.3,1.1,1.5.6h.8s.8-10.4.8-10.4l.8-3.2h.8c0-.1.8.7.8.7l3.8,5.3,1.5,1.7,1.5,1.5,1.5,1.2,2.3,1.5,2.3,1.2,2.3.9.8.2.8-6.8.8-3.8.8-1.2h.8c0,.1.8.8.8.8l3.8,4.4,2.3,2.1,2.3,1.7,2.3,1.3,2.3,1.1,2.3.8.8-3.5.8-4.3.8-2.1.8-.4.8.3,1.5,1.4,2.3,2.3,2.3,1.9,2.3,1.6,2.3,1.3,2.3,1,1.3.5h0"/>
  </g>
  <g class="st23">
    <path class="st3" d="M61.3,107.7l.8,4,1.5,6.4,1.5,5.5,1.5,4.5,1.5,3.6,1.5,2.9,1.5,2.3,1.5,1.8,1.5,1.5,1.5,1.2,1.5.9,1.5.7.8-30.9.8,3.2,4.6,12.2,1.5,3.2,1.5,2.7,1.5,2.3,1.5,1.9,1.5,1.6,1.5,1.3,1.5,1.1,2.3,1.4.8-10.2.8-14.6,2.3,6.2,1.5,3.3,1.5,2.8,1.5,2.4,1.5,2.1,1.5,1.8,1.5,1.6,2.3,2,2.3,1.6,1.5.9.8-2.1.8-16.3.8-.8,3.8,7,1.5,2.2,2.3,2.9,2.3,2.4,2.3,2,2.3,1.7,2.3,1.4.8-.2.8-12.4.8-2.7.8.3,1.5,2.1,2.3,3.1,2.3,2.6,2.3,2.3,2.3,1.9,2.3,1.6,2.3,1.4.8.4.8.2.8-8.6.8-3.3.8-.7.8.3,1.5,1.5,3.1,3.2,2.3,2.1,2.3,1.9,2.3,1.6,3.1,1.8,1.5.8.8-5.5.8-3.5.8-1.4.8-.3.8.3,1.5,1.2,3.8,3.4,2.3,1.8,3.1,2,3.1,1.7,1.5.8.8-2.7.8-3.6.8-2.1.8-.8h.8s.8.3.8.3l1.5,1.1,3.8,3,3.1,2.1,3.1,1.8,2.1,1.1h0"/>
  </g>
  <g class="st11">
    <path class="st0" d="M61.3,107.5l.8,3.8,3.1,12,1.5,5.4,1.5,4.8,1.5,4.3,1.5,3.8,1.5,3.3,1.5,2.9,1.5,2.6,1.5,2.3,1.5,2,.8-40.3.8,4,2.3,6.3,2.3,6.5,2.3,5.7,2.3,5,2.3,4.3,2.3,3.7,2.3,3.2,1.5,1.8.8-12.7.8-19,3.8,10.5,2.3,5,2.3,4.3,2.3,3.8,2.3,3.3,2.3,2.9,2.3,2.6.8-2.2.8-20.7.8-1.6.8,1.4,2.3,5,2.3,4.2,2.3,3.7,2.3,3.3,2.3,2.9,2.3,2.6,2.3,2.3h.8c0,0,.8-15.2.8-15.2l.8-3.9h.8s.8,1,.8,1l4.6,7.2,2.3,3.1,2.3,2.8,2.3,2.5,2.3,2.3,1.5,1.4.8.5.8-10.5.8-4.5.8-1.1.8.2.8.7,2.3,2.9,3.1,3.9,3.1,3.4,3.1,3,3.1,2.6.8.6.8-6.5.8-4.5.8-2,.8-.6.8.2.8.6,1.5,1.6,3.8,4.3,3.1,3,3.1,2.7,3.1,2.4.8-3.1.8-4.4.8-2.8.8-1.2.8-.2.8.3,1.5,1.3,6.1,5.9,3.1,2.6,2.8,2.1h0"/>
  </g>
  <g class="st25">
    <path class="st7" d="M63.6,32.2l.8,7.5.8,3.3.8,9.2.8,3.2,1.5,27.7.8,7.2.8,6.1.8.2.8-.3.8,6.6.8,5,.8.8.8,5.7h.8c0,0,.8,2.6.8,2.6l1.5,3.7.8,3.6.8,1.2.8-1.7.8.9.8-37.4.8-7.4.8-4.6,1.5,7,2.3,19.7.8.4.8,4.6.8-2,.8,5.5.8,3.7.8.9.8,2.7.8,1.1.8,1.3.8-.6.8,2.6.8,4.7.8,1.1.8.6.8-2.6.8-6,.8-.4.8-5,.8-2,.8-3,.8,4.2.8-.8.8,1.4.8,5,.8-.9.8-2,.8,2.8.8,1.3.8.7h.8c0,.1.8-1.3.8-1.3l.8,5.7.8.2.8,1.8.8,1,.8,3.4.8.6.8-2.8.8,2,.8,1.3.8-1.1.8-2.6.8-.7.8-1.2.8-.2.8,1,.8,1.5.8-2,.8,1,.8-1.7,2.3,1.6.8-.4.8,2.1.8-2,.8.5.8,3.2,1.5,1.2.8-1.8.8.8.8,4.3.8,1.1.8-1,.8-2.1.8,2.6.8-2.4.8,2.6.8-2.1h.8c0,0,.8-.7.8-.7l.8-1.6.8.6.8-.2.8.6.8-.6.8-.8.8,1.6.8-.3.8,1.4.8.8.8-1,.8-1.5.8-.4.8,5.4.8,2.2.8-1.3.8.6.8-1.1.8.6.8.9.8,1.4.8-2.2.8-1.1.8.4.8.9.8-1.2.8-.8.8.2.8-.3.8,2.4.8-.8.8-1.4.8,2.1.8.2.8-3.5.8-1,.8,6,.8,3.2.8-2.1.8,2.1,1.5-1.1.8.8.8-1h.8c0,0,.8-.7.8-.7l.8-2.1h1.5s.8,1.3.8,1.3h.8c0,.1.8-1.9.8-1.9l.8.5.8-.3h.8s.8.2.8.2l.8,2.6.8-3.6.8-1.3.8,3.9,1.5,1.1.8,1.9.8-.6.8.3.8,1.6.8-3,.8,2h.8c0-.1.8-1.2.8-1.2h.8c0,0,.8,0,.8,0h1.5c0,0,.8-.1.8-.1l.8.6.8-.6.8-1.3.8,1.9h.8s1.5-5,1.5-5l.8,4.9.8.7.8-.3.8-1.1.8,1.4.8-.4.8.2.8.9.8-.5.8-.8.8-1.1.8-.2.8,1.4.8-.6h.8c0,0,.8.2.8.2l.8,1.2.8-1.2,1.5-.3.8.2.8.6.8-2.5.8,2,.8.9.8,1.3.8-1.3h1.5c0,0,.8.3.8.3l.8,1.8.8-.9.8-.2.8-.7h2.3s.8,0,.8,0l.8.8.8-.9.8-.6.8.5h1.5c0,0,.8-.4.8-.4l.8-2.1,1.5,3.1h.8c0,0,1.5-.4,1.5-.4l.8-.3h.8c0,0,.8.9.8.9l.8,2.2.8-.5.8-2.1.8-.6.8-.2h.8s.8,1.5.8,1.5l.8-.5.8-1h.8s.8-1.4.8-1.4l.8,2.4.8.6.8-1.2.8-2.6.8,4,.8.8.8-1.8h.8c0,.1.8.4.8.4l.8,1.5.8-.3.8,2.2.8-.2h.8l.8-2.8.8-1.2.8.4h0"/>
  </g>
  <path class="st5" d="M51,174V25.4"/>
  <path class="st5" d="M277.2,174V25.4"/>
  <path class="st5" d="M51,174h226.2"/>
  <path class="st5" d="M51,25.4h226.2"/>
  <path id="DejaVuSans-542" data-name="DejaVuSans-54" d="M51,10.7h7.4v1h-3.1v7.8h-1.2v-7.8h-3.1v-1Z"/>
  <path id="DejaVuSans-655" data-name="DejaVuSans-65" d="M63,15.9v.5h-5c0,.7.3,1.3.7,1.7.4.4,1,.6,1.7.6s.8,0,1.2-.2.8-.3,1.2-.5v1c-.4.2-.8.3-1.2.4s-.8.1-1.2.1c-1,0-1.9-.3-2.5-.9-.6-.6-.9-1.4-.9-2.5s.3-1.9.9-2.6c.6-.6,1.4-.9,2.3-.9s1.6.3,2.1.9c.5.6.8,1.3.8,2.3ZM62,15.6c0-.6-.2-1.1-.5-1.4-.3-.4-.7-.5-1.3-.5s-1.1.2-1.4.5-.6.8-.6,1.4h3.8Z"/>
  <path id="DejaVuSans-6d2" data-name="DejaVuSans-6d" d="M69.9,14.1c.3-.5.6-.8,1-1.1s.8-.3,1.3-.3,1.2.2,1.6.7c.4.5.6,1.2.6,2v4h-1.1v-3.9c0-.6-.1-1.1-.3-1.4-.2-.3-.6-.5-1-.5s-1,.2-1.3.6c-.3.4-.5.9-.5,1.5v3.7h-1.1v-3.9c0-.6-.1-1.1-.3-1.4s-.6-.5-1-.5-1,.2-1.3.6c-.3.4-.5.9-.5,1.5v3.7h-1.1v-6.6h1.1v1c.2-.4.5-.7.9-.9s.8-.3,1.2-.3.9.1,1.2.4c.3.2.6.6.7,1.1Z"/>
  <path id="DejaVuSans-701" data-name="DejaVuSans-70" d="M77.5,18.5v3.5h-1.1v-9.1h1.1v1c.2-.4.5-.7.9-.9.3-.2.8-.3,1.2-.3.8,0,1.4.3,1.9.9.5.6.7,1.5.7,2.5s-.2,1.9-.7,2.5c-.5.6-1.1.9-1.9.9s-.9,0-1.2-.3c-.3-.2-.6-.5-.9-.9ZM81.2,16.2c0-.8-.2-1.4-.5-1.9s-.8-.7-1.3-.7-1,.2-1.3.7-.5,1.1-.5,1.9.2,1.4.5,1.9c.3.5.8.7,1.3.7s1-.2,1.3-.7c.3-.5.5-1.1.5-1.9Z"/>
  <path id="DejaVuSans-656" data-name="DejaVuSans-65" d="M89.7,15.9v.5h-5c0,.7.3,1.3.7,1.7.4.4,1,.6,1.7.6s.8,0,1.2-.2.8-.3,1.2-.5v1c-.4.2-.8.3-1.2.4s-.8.1-1.2.1c-1,0-1.9-.3-2.5-.9-.6-.6-.9-1.4-.9-2.5s.3-1.9.9-2.6c.6-.6,1.4-.9,2.3-.9s1.6.3,2.1.9c.5.6.8,1.3.8,2.3ZM88.7,15.6c0-.6-.2-1.1-.5-1.4-.3-.4-.7-.5-1.3-.5s-1.1.2-1.4.5-.6.8-.6,1.4h3.8Z"/>
  <path id="DejaVuSans-722" data-name="DejaVuSans-72" d="M95.3,13.9c-.1,0-.3-.1-.4-.2-.1,0-.3,0-.5,0-.6,0-1.1.2-1.4.6s-.5,1-.5,1.7v3.5h-1.1v-6.6h1.1v1c.2-.4.5-.7.9-.9.4-.2.8-.3,1.3-.3s.2,0,.2,0c0,0,.2,0,.3,0v1.1Z"/>
  <path id="DejaVuSans-611" data-name="DejaVuSans-61" d="M99.4,16.1c-.9,0-1.5,0-1.8.3s-.5.5-.5,1,.1.7.4.9c.3.2.6.3,1,.3s1.1-.2,1.4-.6.5-1,.5-1.7v-.2h-1.1ZM101.6,15.7v3.7h-1.1v-1c-.2.4-.6.7-.9.9-.4.2-.8.3-1.3.3s-1.2-.2-1.6-.6c-.4-.4-.6-.9-.6-1.5s.2-1.3.7-1.7c.5-.4,1.2-.6,2.2-.6h1.5c0-.6-.2-1-.5-1.3s-.8-.4-1.4-.4-.7,0-1.1.1c-.4,0-.7.2-1,.4v-1c.4-.2.8-.3,1.1-.3.4,0,.7-.1,1.1-.1,1,0,1.7.2,2.1.7.5.5.7,1.2.7,2.2Z"/>
  <path id="DejaVuSans-741" data-name="DejaVuSans-74" d="M104.9,11v1.9h2.2v.8h-2.2v3.6c0,.5,0,.9.2,1s.4.2.9.2h1.1v.9h-1.1c-.8,0-1.4-.2-1.7-.5-.3-.3-.5-.9-.5-1.7v-3.6h-.8v-.8h.8v-1.9h1.1Z"/>
  <path id="DejaVuSans-751" data-name="DejaVuSans-75" d="M108.4,16.9v-4h1.1v3.9c0,.6.1,1.1.4,1.4.2.3.6.5,1.1.5s1-.2,1.4-.6c.3-.4.5-.9.5-1.5v-3.7h1.1v6.6h-1.1v-1c-.3.4-.6.7-.9.9-.3.2-.7.3-1.2.3-.8,0-1.3-.2-1.7-.7-.4-.5-.6-1.2-.6-2.1ZM111.1,12.7h0Z"/>
  <path id="DejaVuSans-723" data-name="DejaVuSans-72" d="M119.9,13.9c-.1,0-.3-.1-.4-.2-.1,0-.3,0-.5,0-.6,0-1.1.2-1.4.6s-.5,1-.5,1.7v3.5h-1.1v-6.6h1.1v1c.2-.4.5-.7.9-.9.4-.2.8-.3,1.3-.3s.2,0,.2,0c0,0,.2,0,.3,0v1.1Z"/>
  <path id="DejaVuSans-657" data-name="DejaVuSans-65" d="M126.4,15.9v.5h-5c0,.7.3,1.3.7,1.7.4.4,1,.6,1.7.6s.8,0,1.2-.2.8-.3,1.2-.5v1c-.4.2-.8.3-1.2.4s-.8.1-1.2.1c-1,0-1.9-.3-2.5-.9-.6-.6-.9-1.4-.9-2.5s.3-1.9.9-2.6c.6-.6,1.4-.9,2.3-.9s1.6.3,2.1.9c.5.6.8,1.3.8,2.3ZM125.3,15.6c0-.6-.2-1.1-.5-1.4-.3-.4-.7-.5-1.3-.5s-1.1.2-1.4.5-.6.8-.6,1.4h3.8Z"/>
  <path id="DejaVuSans-202" data-name="DejaVuSans-20" d="M127,19.4"/>
  <path id="DejaVuSans-76" d="M131.2,12.9h1.1l2.1,5.5,2.1-5.5h1.1l-2.5,6.6h-1.5l-2.5-6.6Z"/>
  <path id="DejaVuSans-732" data-name="DejaVuSans-73" d="M143.2,13.1v1c-.3-.2-.6-.3-.9-.4-.3,0-.7-.1-1-.1-.5,0-.9,0-1.2.2-.3.2-.4.4-.4.7s0,.4.3.6.6.3,1.2.4h.4c.8.2,1.3.5,1.6.8s.5.7.5,1.3-.2,1.1-.7,1.4c-.5.4-1.1.5-2,.5s-.7,0-1.1-.1c-.4,0-.8-.2-1.2-.3v-1.1c.4.2.8.4,1.2.5.4.1.8.2,1.1.2s.9,0,1.2-.3c.3-.2.4-.4.4-.7s0-.5-.3-.7c-.2-.2-.6-.3-1.3-.5h-.4c-.7-.2-1.1-.4-1.4-.7-.3-.3-.4-.7-.4-1.2s.2-1.1.7-1.4c.4-.3,1.1-.5,1.9-.5s.8,0,1.1,0c.4,0,.7.1,1,.3Z"/>
  <path id="DejaVuSans-2e" d="M145.5,18h1.2v1.5h-1.2v-1.5Z"/>
  <path id="DejaVuSans-203" data-name="DejaVuSans-20" d="M148,19.4"/>
  <path id="DejaVuSans-543" data-name="DejaVuSans-54" d="M151.8,10.7h7.4v1h-3.1v7.8h-1.2v-7.8h-3.1v-1Z"/>
  <path id="DejaVuSans-691" data-name="DejaVuSans-69" d="M159.9,12.9h1.1v6.6h-1.1v-6.6ZM159.9,10.3h1.1v1.4h-1.1v-1.4Z"/>
  <path id="DejaVuSans-6d3" data-name="DejaVuSans-6d" d="M168.3,14.1c.3-.5.6-.8,1-1.1s.8-.3,1.3-.3,1.2.2,1.6.7c.4.5.6,1.2.6,2v4h-1.1v-3.9c0-.6-.1-1.1-.3-1.4-.2-.3-.6-.5-1-.5s-1,.2-1.3.6c-.3.4-.5.9-.5,1.5v3.7h-1.1v-3.9c0-.6-.1-1.1-.3-1.4s-.6-.5-1-.5-1,.2-1.3.6c-.3.4-.5.9-.5,1.5v3.7h-1.1v-6.6h1.1v1c.2-.4.5-.7.9-.9s.8-.3,1.2-.3.9.1,1.2.4c.3.2.6.6.7,1.1Z"/>
  <path id="DejaVuSans-658" data-name="DejaVuSans-65" d="M180.5,15.9v.5h-5c0,.7.3,1.3.7,1.7.4.4,1,.6,1.7.6s.8,0,1.2-.2.8-.3,1.2-.5v1c-.4.2-.8.3-1.2.4s-.8.1-1.2.1c-1,0-1.9-.3-2.5-.9-.6-.6-.9-1.4-.9-2.5s.3-1.9.9-2.6c.6-.6,1.4-.9,2.3-.9s1.6.3,2.1.9c.5.6.8,1.3.8,2.3ZM179.5,15.6c0-.6-.2-1.1-.5-1.4-.3-.4-.7-.5-1.3-.5s-1.1.2-1.4.5-.6.8-.6,1.4h3.8Z"/>
  <path id="DejaVuSans-204" data-name="DejaVuSans-20" d="M181.2,19.4"/>
  <path id="DejaVuSans-66" d="M189.4,10.3v.9h-1c-.4,0-.7,0-.8.2-.1.2-.2.4-.2.8v.6h1.8v.8h-1.8v5.7h-1.1v-5.7h-1v-.8h1v-.5c0-.7.2-1.3.5-1.6.3-.3.9-.5,1.6-.5h1Z"/>
  <path id="DejaVuSans-6f1" data-name="DejaVuSans-6f" d="M192.9,13.6c-.6,0-1,.2-1.4.7s-.5,1.1-.5,1.9.2,1.4.5,1.9c.3.5.8.7,1.4.7s1-.2,1.4-.7c.3-.5.5-1.1.5-1.9s-.2-1.4-.5-1.8c-.3-.5-.8-.7-1.4-.7ZM192.9,12.7c.9,0,1.7.3,2.2.9.5.6.8,1.5.8,2.5s-.3,1.9-.8,2.5c-.5.6-1.3.9-2.2.9s-1.7-.3-2.2-.9c-.5-.6-.8-1.5-.8-2.5s.3-1.9.8-2.5c.5-.6,1.3-.9,2.2-.9Z"/>
  <path id="DejaVuSans-724" data-name="DejaVuSans-72" d="M201.5,13.9c-.1,0-.3-.1-.4-.2-.1,0-.3,0-.5,0-.6,0-1.1.2-1.4.6s-.5,1-.5,1.7v3.5h-1.1v-6.6h1.1v1c.2-.4.5-.7.9-.9.4-.2.8-.3,1.3-.3s.2,0,.2,0c0,0,.2,0,.3,0v1.1Z"/>
  <path id="DejaVuSans-205" data-name="DejaVuSans-20" d="M201.5,19.4"/>
  <path id="DejaVuSans-41" d="M209.4,11.9l-1.6,4.4h3.2l-1.6-4.4ZM208.7,10.7h1.3l3.3,8.7h-1.2l-.8-2.2h-3.9l-.8,2.2h-1.2l3.3-8.7Z"/>
  <path id="DejaVuSans-6c" d="M214.6,10.3h1.1v9.1h-1.1v-9.1Z"/>
  <path id="DejaVuSans-6c1" data-name="DejaVuSans-6c" d="M218,10.3h1.1v9.1h-1.1v-9.1Z"/>
  <path id="DejaVuSans-206" data-name="DejaVuSans-20" d="M220.2,19.4"/>
  <path id="DejaVuSans-44" d="M226.4,11.7v6.8h1.4c1.2,0,2.1-.3,2.7-.8.6-.5.8-1.4.8-2.6s-.3-2-.8-2.6-1.4-.8-2.7-.8h-1.4ZM225.2,10.7h2.4c1.7,0,2.9.4,3.7,1.1.8.7,1.2,1.8,1.2,3.3s-.4,2.6-1.2,3.3c-.8.7-2,1.1-3.7,1.1h-2.4v-8.7Z"/>
  <path id="DejaVuSans-612" data-name="DejaVuSans-61" d="M237.4,16.1c-.9,0-1.5,0-1.8.3s-.5.5-.5,1,.1.7.4.9c.3.2.6.3,1,.3s1.1-.2,1.4-.6.5-1,.5-1.7v-.2h-1.1ZM239.5,15.7v3.7h-1.1v-1c-.2.4-.6.7-.9.9-.4.2-.8.3-1.3.3s-1.2-.2-1.6-.6c-.4-.4-.6-.9-.6-1.5s.2-1.3.7-1.7c.5-.4,1.2-.6,2.2-.6h1.5c0-.6-.2-1-.5-1.3s-.8-.4-1.4-.4-.7,0-1.1.1c-.4,0-.7.2-1,.4v-1c.4-.2.8-.3,1.1-.3.4,0,.7-.1,1.1-.1,1,0,1.7.2,2.1.7.5.5.7,1.2.7,2.2Z"/>
  <path id="DejaVuSans-742" data-name="DejaVuSans-74" d="M242.8,11v1.9h2.2v.8h-2.2v3.6c0,.5,0,.9.2,1s.4.2.9.2h1.1v.9h-1.1c-.8,0-1.4-.2-1.7-.5-.3-.3-.5-.9-.5-1.7v-3.6h-.8v-.8h.8v-1.9h1.1Z"/>
  <path id="DejaVuSans-613" data-name="DejaVuSans-61" d="M249.4,16.1c-.9,0-1.5,0-1.8.3s-.5.5-.5,1,.1.7.4.9c.3.2.6.3,1,.3s1.1-.2,1.4-.6.5-1,.5-1.7v-.2h-1.1ZM251.6,15.7v3.7h-1.1v-1c-.2.4-.6.7-.9.9-.4.2-.8.3-1.3.3s-1.2-.2-1.6-.6c-.4-.4-.6-.9-.6-1.5s.2-1.3.7-1.7c.5-.4,1.2-.6,2.2-.6h1.5c0-.6-.2-1-.5-1.3s-.8-.4-1.4-.4-.7,0-1.1.1c-.4,0-.7.2-1,.4v-1c.4-.2.8-.3,1.1-.3.4,0,.7-.1,1.1-.1,1,0,1.7.2,2.1.7.5.5.7,1.2.7,2.2Z"/>
  <path id="DejaVuSans-733" data-name="DejaVuSans-73" d="M258,13.1v1c-.3-.2-.6-.3-.9-.4-.3,0-.7-.1-1-.1-.5,0-.9,0-1.2.2-.3.2-.4.4-.4.7s0,.4.3.6.6.3,1.2.4h.4c.8.2,1.3.5,1.6.8s.5.7.5,1.3-.2,1.1-.7,1.4c-.5.4-1.1.5-2,.5s-.7,0-1.1-.1c-.4,0-.8-.2-1.2-.3v-1.1c.4.2.8.4,1.2.5.4.1.8.2,1.1.2s.9,0,1.2-.3c.3-.2.4-.4.4-.7s0-.5-.3-.7c-.2-.2-.6-.3-1.3-.5h-.4c-.7-.2-1.1-.4-1.4-.7-.3-.3-.4-.7-.4-1.2s.2-1.1.7-1.4c.4-.3,1.1-.5,1.9-.5s.8,0,1.1,0c.4,0,.7.1,1,.3Z"/>
  <path id="DejaVuSans-659" data-name="DejaVuSans-65" d="M265.6,15.9v.5h-5c0,.7.3,1.3.7,1.7.4.4,1,.6,1.7.6s.8,0,1.2-.2.8-.3,1.2-.5v1c-.4.2-.8.3-1.2.4s-.8.1-1.2.1c-1,0-1.9-.3-2.5-.9-.6-.6-.9-1.4-.9-2.5s.3-1.9.9-2.6c.6-.6,1.4-.9,2.3-.9s1.6.3,2.1.9c.5.6.8,1.3.8,2.3ZM264.6,15.6c0-.6-.2-1.1-.5-1.4-.3-.4-.7-.5-1.3-.5s-1.1.2-1.4.5-.6.8-.6,1.4h3.8Z"/>
  <path id="DejaVuSans-743" data-name="DejaVuSans-74" d="M268.5,11v1.9h2.2v.8h-2.2v3.6c0,.5,0,.9.2,1s.4.2.9.2h1.1v.9h-1.1c-.8,0-1.4-.2-1.7-.5-.3-.3-.5-.9-.5-1.7v-3.6h-.8v-.8h.8v-1.9h1.1Z"/>
  <path id="DejaVuSans-734" data-name="DejaVuSans-73" d="M276.3,13.1v1c-.3-.2-.6-.3-.9-.4-.3,0-.7-.1-1-.1-.5,0-.9,0-1.2.2-.3.2-.4.4-.4.7s0,.4.3.6.6.3,1.2.4h.4c.8.2,1.3.5,1.6.8s.5.7.5,1.3-.2,1.1-.7,1.4c-.5.4-1.1.5-2,.5s-.7,0-1.1-.1c-.4,0-.8-.2-1.2-.3v-1.1c.4.2.8.4,1.2.5.4.1.8.2,1.1.2s.9,0,1.2-.3c.3-.2.4-.4.4-.7s0-.5-.3-.7c-.2-.2-.6-.3-1.3-.5h-.4c-.7-.2-1.1-.4-1.4-.7-.3-.3-.4-.7-.4-1.2s.2-1.1.7-1.4c.4-.3,1.1-.5,1.9-.5s.8,0,1.1,0c.4,0,.7.1,1,.3Z"/>
  <path class="st13" d="M168,107.1h102.2c1.3,0,2-.7,2-2V32.4c0-1.3-.7-2-2-2h-102.2c-1.3,0-2,.7-2,2v72.7c0,1.3.7,2,2,2Z"/>
  <path class="st1" d="M170,38.5h20"/>
  <path id="DejaVuSans-544" data-name="DejaVuSans-54" d="M198,34.7h6.2v.8h-2.6v6.5h-1v-6.5h-2.6v-.8Z"/>
  <path id="DejaVuSans-725" data-name="DejaVuSans-72" d="M206.7,37.4c-.1,0-.2-.1-.3-.1-.1,0-.2,0-.4,0-.5,0-.9.2-1.2.5s-.4.8-.4,1.4v2.9h-.9v-5.5h.9v.9c.2-.3.4-.6.7-.7.3-.2.7-.2,1.1-.2s.1,0,.2,0c0,0,.2,0,.2,0v.9Z"/>
  <path id="DejaVuSans-692" data-name="DejaVuSans-69" d="M207.7,36.6h.9v5.5h-.9v-5.5ZM207.7,34.4h.9v1.1h-.9v-1.1Z"/>
  <path id="DejaVuSans-614" data-name="DejaVuSans-61" d="M212.9,39.3c-.7,0-1.2,0-1.5.2s-.4.4-.4.9.1.6.3.8c.2.2.5.3.9.3s.9-.2,1.2-.5.5-.8.5-1.4v-.2h-.9ZM214.7,38.9v3.1h-.9v-.8c-.2.3-.5.6-.8.7-.3.2-.7.2-1.1.2s-1-.2-1.3-.5c-.3-.3-.5-.7-.5-1.3s.2-1.1.6-1.4c.4-.3,1-.5,1.8-.5h1.3c0-.5-.1-.8-.4-1s-.7-.3-1.1-.3-.6,0-.9.1c-.3,0-.6.2-.9.3v-.8c.3-.1.6-.2,1-.3.3,0,.6,0,.9,0,.8,0,1.4.2,1.8.6.4.4.6,1,.6,1.9Z"/>
  <path id="DejaVuSans-6c2" data-name="DejaVuSans-6c" d="M216.6,34.4h.9v7.6h-.9v-7.6Z"/>
  <path id="DejaVuSans-207" data-name="DejaVuSans-20" d="M218.4,42"/>
  <path id="DejaVuSans-316" data-name="DejaVuSans-31" d="M222.8,41.2h1.6v-5.6l-1.8.4v-.9l1.7-.4h1v6.5h1.6v.8h-4.2v-.8Z"/>
  <path id="DejaVuSans-2e1" data-name="DejaVuSans-2e" d="M229,40.8h1v1.2h-1v-1.2Z"/>
  <path id="DejaVuSans-78" d="M236.6,36.6l-2,2.7,2.1,2.8h-1.1l-1.6-2.1-1.6,2.1h-1.1l2.1-2.9-1.9-2.6h1.1l1.5,1.9,1.5-1.9h1.1Z"/>
  <path id="DejaVuSans-6c3" data-name="DejaVuSans-6c" d="M238,34.4h.9v7.6h-.9v-7.6Z"/>
  <path id="DejaVuSans-735" data-name="DejaVuSans-73" d="M244.3,36.7v.9c-.3-.1-.5-.2-.8-.3-.3,0-.6,0-.9,0-.4,0-.8,0-1,.2-.2.1-.3.3-.3.6s0,.4.2.5.5.2,1,.3h.3c.6.2,1.1.4,1.4.6s.4.6.4,1-.2.9-.6,1.2c-.4.3-1,.4-1.7.4s-.6,0-.9,0c-.3,0-.7-.1-1-.3v-.9c.3.2.7.3,1,.4.3,0,.6.1,1,.1s.7,0,1-.2c.2-.1.3-.3.3-.6s0-.4-.2-.6c-.2-.1-.5-.3-1.1-.4h-.3c-.6-.2-1-.4-1.2-.6-.2-.2-.4-.6-.4-1s.2-.9.5-1.2c.4-.3.9-.4,1.6-.4s.6,0,.9,0c.3,0,.6.1.8.2Z"/>
  <path id="DejaVuSans-781" data-name="DejaVuSans-78" d="M250.5,36.6l-2,2.7,2.1,2.8h-1.1l-1.6-2.1-1.6,2.1h-1.1l2.1-2.9-1.9-2.6h1.1l1.5,1.9,1.5-1.9h1.1Z"/>
  <path class="st2" d="M170,53.2h20"/>
  <path id="DejaVuSans-545" data-name="DejaVuSans-54" d="M198,49.4h6.2v.8h-2.6v6.5h-1v-6.5h-2.6v-.8Z"/>
  <path id="DejaVuSans-726" data-name="DejaVuSans-72" d="M206.7,52.1c-.1,0-.2-.1-.3-.1-.1,0-.2,0-.4,0-.5,0-.9.2-1.2.5s-.4.8-.4,1.4v2.9h-.9v-5.5h.9v.9c.2-.3.4-.6.7-.7.3-.2.7-.2,1.1-.2s.1,0,.2,0c0,0,.2,0,.2,0v.9Z"/>
  <path id="DejaVuSans-693" data-name="DejaVuSans-69" d="M207.7,51.2h.9v5.5h-.9v-5.5ZM207.7,49.1h.9v1.1h-.9v-1.1Z"/>
  <path id="DejaVuSans-615" data-name="DejaVuSans-61" d="M212.9,54c-.7,0-1.2,0-1.5.2s-.4.4-.4.9.1.6.3.8c.2.2.5.3.9.3s.9-.2,1.2-.5.5-.8.5-1.4v-.2h-.9ZM214.7,53.6v3.1h-.9v-.8c-.2.3-.5.6-.8.7-.3.2-.7.2-1.1.2s-1-.2-1.3-.5c-.3-.3-.5-.7-.5-1.3s.2-1.1.6-1.4c.4-.3,1-.5,1.8-.5h1.3c0-.5-.1-.8-.4-1s-.7-.3-1.1-.3-.6,0-.9.1c-.3,0-.6.2-.9.3v-.8c.3-.1.6-.2,1-.3.3,0,.6,0,.9,0,.8,0,1.4.2,1.8.6.4.4.6,1,.6,1.9Z"/>
  <path id="DejaVuSans-6c4" data-name="DejaVuSans-6c" d="M216.6,49.1h.9v7.6h-.9v-7.6Z"/>
  <path id="DejaVuSans-208" data-name="DejaVuSans-20" d="M218.4,56.7"/>
  <path id="DejaVuSans-323" data-name="DejaVuSans-32" d="M223.5,55.9h3.4v.8h-4.6v-.8c.4-.4.9-.9,1.5-1.6.6-.7,1.1-1.1,1.2-1.3.3-.4.5-.7.7-.9.1-.2.2-.5.2-.7,0-.4-.1-.7-.4-.9-.3-.2-.6-.4-1.1-.4s-.6,0-1,.2c-.3.1-.7.3-1.1.5v-1c.4-.2.8-.3,1.1-.4.3,0,.7-.1.9-.1.8,0,1.4.2,1.8.6.4.4.7.9.7,1.5s0,.6-.2.9c-.1.3-.3.6-.6.9,0,0-.3.4-.8.8-.4.5-1.1,1.1-1.8,1.9Z"/>
  <path id="DejaVuSans-2e2" data-name="DejaVuSans-2e" d="M229,55.5h1v1.2h-1v-1.2Z"/>
  <path id="DejaVuSans-782" data-name="DejaVuSans-78" d="M236.6,51.2l-2,2.7,2.1,2.8h-1.1l-1.6-2.1-1.6,2.1h-1.1l2.1-2.9-1.9-2.6h1.1l1.5,1.9,1.5-1.9h1.1Z"/>
  <path id="DejaVuSans-6c5" data-name="DejaVuSans-6c" d="M238,49.1h.9v7.6h-.9v-7.6Z"/>
  <path id="DejaVuSans-736" data-name="DejaVuSans-73" d="M244.3,51.4v.9c-.3-.1-.5-.2-.8-.3-.3,0-.6,0-.9,0-.4,0-.8,0-1,.2-.2.1-.3.3-.3.6s0,.4.2.5.5.2,1,.3h.3c.6.2,1.1.4,1.4.6s.4.6.4,1-.2.9-.6,1.2c-.4.3-1,.4-1.7.4s-.6,0-.9,0c-.3,0-.7-.1-1-.3v-.9c.3.2.7.3,1,.4.3,0,.6.1,1,.1s.7,0,1-.2c.2-.1.3-.3.3-.6s0-.4-.2-.6c-.2-.1-.5-.3-1.1-.4h-.3c-.6-.2-1-.4-1.2-.6-.2-.2-.4-.6-.4-1s.2-.9.5-1.2c.4-.3.9-.4,1.6-.4s.6,0,.9,0c.3,0,.6.1.8.2Z"/>
  <path id="DejaVuSans-783" data-name="DejaVuSans-78" d="M250.5,51.2l-2,2.7,2.1,2.8h-1.1l-1.6-2.1-1.6,2.1h-1.1l2.1-2.9-1.9-2.6h1.1l1.5,1.9,1.5-1.9h1.1Z"/>
  <path class="st3" d="M170,67.9h20"/>
  <path id="DejaVuSans-546" data-name="DejaVuSans-54" d="M198,64.1h6.2v.8h-2.6v6.5h-1v-6.5h-2.6v-.8Z"/>
  <path id="DejaVuSans-727" data-name="DejaVuSans-72" d="M206.7,66.8c-.1,0-.2-.1-.3-.1-.1,0-.2,0-.4,0-.5,0-.9.2-1.2.5s-.4.8-.4,1.4v2.9h-.9v-5.5h.9v.9c.2-.3.4-.6.7-.7.3-.2.7-.2,1.1-.2s.1,0,.2,0c0,0,.2,0,.2,0v.9Z"/>
  <path id="DejaVuSans-694" data-name="DejaVuSans-69" d="M207.7,65.9h.9v5.5h-.9v-5.5ZM207.7,63.8h.9v1.1h-.9v-1.1Z"/>
  <path id="DejaVuSans-616" data-name="DejaVuSans-61" d="M212.9,68.6c-.7,0-1.2,0-1.5.2s-.4.4-.4.9.1.6.3.8c.2.2.5.3.9.3s.9-.2,1.2-.5.5-.8.5-1.4v-.2h-.9ZM214.7,68.3v3.1h-.9v-.8c-.2.3-.5.6-.8.7-.3.2-.7.2-1.1.2s-1-.2-1.3-.5c-.3-.3-.5-.7-.5-1.3s.2-1.1.6-1.4c.4-.3,1-.5,1.8-.5h1.3c0-.5-.1-.8-.4-1s-.7-.3-1.1-.3-.6,0-.9.1c-.3,0-.6.2-.9.3v-.8c.3-.1.6-.2,1-.3.3,0,.6,0,.9,0,.8,0,1.4.2,1.8.6.4.4.6,1,.6,1.9Z"/>
  <path id="DejaVuSans-6c6" data-name="DejaVuSans-6c" d="M216.6,63.8h.9v7.6h-.9v-7.6Z"/>
  <path id="DejaVuSans-209" data-name="DejaVuSans-20" d="M218.4,71.4"/>
  <path id="DejaVuSans-33" d="M225.6,67.5c.5.1.8.3,1.1.6.3.3.4.7.4,1.2,0,.7-.2,1.3-.7,1.7-.5.4-1.2.6-2.1.6s-.6,0-.9,0c-.3,0-.7-.2-1-.3v-1c.3.2.6.3.9.4.3,0,.7.1,1,.1.6,0,1.1-.1,1.4-.4s.5-.6.5-1.1-.2-.8-.5-1c-.3-.2-.7-.4-1.3-.4h-.9v-.8h.9c.5,0,.9,0,1.1-.3s.4-.5.4-.8-.1-.7-.4-.9c-.3-.2-.6-.3-1.1-.3s-.6,0-.9,0c-.3,0-.6.1-1,.3v-.9c.4-.1.7-.2,1.1-.2s.6,0,.9,0c.7,0,1.3.2,1.8.5.4.3.7.8.7,1.4s-.1.7-.3,1-.6.5-1,.6Z"/>
  <path id="DejaVuSans-2e3" data-name="DejaVuSans-2e" d="M229,70.2h1v1.2h-1v-1.2Z"/>
  <path id="DejaVuSans-784" data-name="DejaVuSans-78" d="M236.6,65.9l-2,2.7,2.1,2.8h-1.1l-1.6-2.1-1.6,2.1h-1.1l2.1-2.9-1.9-2.6h1.1l1.5,1.9,1.5-1.9h1.1Z"/>
  <path id="DejaVuSans-6c7" data-name="DejaVuSans-6c" d="M238,63.8h.9v7.6h-.9v-7.6Z"/>
  <path id="DejaVuSans-737" data-name="DejaVuSans-73" d="M244.3,66.1v.9c-.3-.1-.5-.2-.8-.3-.3,0-.6,0-.9,0-.4,0-.8,0-1,.2-.2.1-.3.3-.3.6s0,.4.2.5.5.2,1,.3h.3c.6.2,1.1.4,1.4.6s.4.6.4,1-.2.9-.6,1.2c-.4.3-1,.4-1.7.4s-.6,0-.9,0c-.3,0-.7-.1-1-.3v-.9c.3.2.7.3,1,.4.3,0,.6.1,1,.1s.7,0,1-.2c.2-.1.3-.3.3-.6s0-.4-.2-.6c-.2-.1-.5-.3-1.1-.4h-.3c-.6-.2-1-.4-1.2-.6-.2-.2-.4-.6-.4-1s.2-.9.5-1.2c.4-.3.9-.4,1.6-.4s.6,0,.9,0c.3,0,.6.1.8.2Z"/>
  <path id="DejaVuSans-785" data-name="DejaVuSans-78" d="M250.5,65.9l-2,2.7,2.1,2.8h-1.1l-1.6-2.1-1.6,2.1h-1.1l2.1-2.9-1.9-2.6h1.1l1.5,1.9,1.5-1.9h1.1Z"/>
  <path class="st0" d="M170,82.6h20"/>
  <path id="DejaVuSans-547" data-name="DejaVuSans-54" d="M198,78.8h6.2v.8h-2.6v6.5h-1v-6.5h-2.6v-.8Z"/>
  <path id="DejaVuSans-728" data-name="DejaVuSans-72" d="M206.7,81.4c-.1,0-.2-.1-.3-.1-.1,0-.2,0-.4,0-.5,0-.9.2-1.2.5s-.4.8-.4,1.4v2.9h-.9v-5.5h.9v.9c.2-.3.4-.6.7-.7.3-.2.7-.2,1.1-.2s.1,0,.2,0c0,0,.2,0,.2,0v.9Z"/>
  <path id="DejaVuSans-695" data-name="DejaVuSans-69" d="M207.7,80.6h.9v5.5h-.9v-5.5ZM207.7,78.5h.9v1.1h-.9v-1.1Z"/>
  <path id="DejaVuSans-617" data-name="DejaVuSans-61" d="M212.9,83.3c-.7,0-1.2,0-1.5.2s-.4.4-.4.9.1.6.3.8c.2.2.5.3.9.3s.9-.2,1.2-.5.5-.8.5-1.4v-.2h-.9ZM214.7,83v3.1h-.9v-.8c-.2.3-.5.6-.8.7-.3.2-.7.2-1.1.2s-1-.2-1.3-.5c-.3-.3-.5-.7-.5-1.3s.2-1.1.6-1.4c.4-.3,1-.5,1.8-.5h1.3c0-.5-.1-.8-.4-1s-.7-.3-1.1-.3-.6,0-.9.1c-.3,0-.6.2-.9.3v-.8c.3-.1.6-.2,1-.3.3,0,.6,0,.9,0,.8,0,1.4.2,1.8.6.4.4.6,1,.6,1.9Z"/>
  <path id="DejaVuSans-6c8" data-name="DejaVuSans-6c" d="M216.6,78.5h.9v7.6h-.9v-7.6Z"/>
  <path id="DejaVuSans-2010" data-name="DejaVuSans-20" d="M218.4,86.1"/>
  <path id="DejaVuSans-341" data-name="DejaVuSans-34" d="M225.4,79.6l-2.5,3.9h2.5v-3.9ZM225.1,78.8h1.2v4.8h1v.8h-1v1.7h-1v-1.7h-3.3v-1l3-4.6Z"/>
  <path id="DejaVuSans-2e4" data-name="DejaVuSans-2e" d="M229,84.8h1v1.2h-1v-1.2Z"/>
  <path id="DejaVuSans-786" data-name="DejaVuSans-78" d="M236.6,80.6l-2,2.7,2.1,2.8h-1.1l-1.6-2.1-1.6,2.1h-1.1l2.1-2.9-1.9-2.6h1.1l1.5,1.9,1.5-1.9h1.1Z"/>
  <path id="DejaVuSans-6c9" data-name="DejaVuSans-6c" d="M238,78.5h.9v7.6h-.9v-7.6Z"/>
  <path id="DejaVuSans-738" data-name="DejaVuSans-73" d="M244.3,80.8v.9c-.3-.1-.5-.2-.8-.3-.3,0-.6,0-.9,0-.4,0-.8,0-1,.2-.2.1-.3.3-.3.6s0,.4.2.5.5.2,1,.3h.3c.6.2,1.1.4,1.4.6s.4.6.4,1-.2.9-.6,1.2c-.4.3-1,.4-1.7.4s-.6,0-.9,0c-.3,0-.7-.1-1-.3v-.9c.3.2.7.3,1,.4.3,0,.6.1,1,.1s.7,0,1-.2c.2-.1.3-.3.3-.6s0-.4-.2-.6c-.2-.1-.5-.3-1.1-.4h-.3c-.6-.2-1-.4-1.2-.6-.2-.2-.4-.6-.4-1s.2-.9.5-1.2c.4-.3.9-.4,1.6-.4s.6,0,.9,0c.3,0,.6.1.8.2Z"/>
  <path id="DejaVuSans-787" data-name="DejaVuSans-78" d="M250.5,80.6l-2,2.7,2.1,2.8h-1.1l-1.6-2.1-1.6,2.1h-1.1l2.1-2.9-1.9-2.6h1.1l1.5,1.9,1.5-1.9h1.1Z"/>
  <path class="st7" d="M170,97.3h20"/>
  <text class="st24" transform="translate(198 99.7)"><tspan x="0" y="0">Experiment</tspan></text>
</svg>