<?xml version="1.0" encoding="UTF-8"?>
<svg id="Layer_1" data-name="Layer 1" xmlns="http://www.w3.org/2000/svg" viewBox="0 0 770.51 769.86">
  <path d="M360.92,553c.5.1,2.72,1.54,3,2v123s-2.2,1.79-2.2,1.79l-345.39-.44c-.74-1.52-.84-3.15-.95-4.81-1.55-22.34,6.54-53.34,9.94-76.15,8.42-56.52,16.89-113.94,25.18-170.82,2.01-13.79,5.94-28.06,6.91-42.09,2.1-30.14-1.72-62.41.22-92.78l3.25-3.3c7.57.81,15.48.86,23.09.63,29.79-.9,67.73-3.72,97-1.1,3.09.28,6.73.89,7.43,4.57,1.63,31.08-2.09,64.18-.01,95.01.74,10.93,5.04,21.3,4.17,32.33,21.24,5.58,44.34-.92,65.38,3.12,2.98,4.69.52,8.98.45,13.47-.59,37,.6,74.1.04,111.05l1.13,4.36,11.86.13v-135.5c0-.35,2.15-5.55,2.6-6.4,3.73-7.17,9.53-8.68,15.92-12.08.51-11-.48-17.75,7.44-26.29,1.5-1.62,3.89-.34,4.82-4.45l.08-18.64-1.5-1.5c-9.28,1.78-15.49-7.81-3.88-9.16,10.05-1.17,33.79-.96,44.07-.02,3.76.34,9.49,2.11,6.52,6.6-2.56,3.87-6.28,1.35-9.63,3.38-.65.93-.79,16.42-.48,18.61.59,4.27,2.19,2.96,3.71,4.79,5.04,6.07,7.54,8.77,8.33,17.18,2.93,31.39-2.14,67.11,0,98.97-.69,8.47-5.38,17.03-13.28,20.72-2.43,1.13-12.01,2.77-12.57,4.43-1.31,4.5.92,9.95.87,13.87-.02,1.94-1.05,3.84-1.05,5.96,0,2.73-.78,19.54,1.55,19.54,10.32,1.48,26.45-1.99,36,0ZM68.06,298.12c-2.9.97-1.6,11.19-1.21,13.94l2.06.94,108.49-.51c2.96-1.37.45-8.37,1.87-11.78l-3.39-2.69c-30.98.45-62.04-.68-93.01-.07-2.38.05-4.49,1.01-6.91,1.08s-5.08-1.86-7.9-.92ZM177.92,321h-110l-1.5,1.5v54l1.5,1.5h109c.37,0,1.61-1.03,2.34-1.16l.26-1.34-.05-51.97c-.03-.9-.78-2.29-1.55-2.53ZM310.42,348v14.5c0,.56-1.38,4.5,1.5,4.5h16l1.5-1.5v-16l-1.5-1.5h-17.5ZM316.25,375.24c-8.83,1.03-13.59,3.8-16.77,12.32l-.1,102.99c2.17,15.84,38.09,18.66,40.96-2.13l.11-98.94c-2.13-12.33-13.17-15.52-24.19-14.24ZM29.92,651c62.99.45,126-.34,189,0l-38.96-263.04-113.08-1.03-1.32.21c-3.17,20.43-6.89,40.99-10.03,61.48-9.66,63.06-20.91,126.95-29,190-.28,2.19-1.37,9.22-.96,10.65,1.1,3.86,3.38,1.72,4.34,1.73ZM315.42,512c-8.32-.4-16.66-4.08-21.44-11.06-.71-1.05-3.56-6.76-3.56-7.44v-83c0-5.56-11,4.44-11,8v133l1.5,1.5h32c.25,0,.59.81,1,.78l1.5-1.28v-40.5ZM357.42,560h-102.5c-.18,0-2.5-2.32-2.5-2.5v-127c0-.27-1.91-2.12-2.62-2.26h-51.77s-2.63,3.32-2.63,3.32c10.07,73.79,22.81,146.19,33.11,219.85.27,1.92,1.64,3.36,1.86,5.14.63,5.2-.34,11.15.05,16.45h126.5c2.85,0,.5-15,.45-17.46-.58-27.54-.58-56.55.01-84.09.09-3.94,2.16-7.26.04-11.46ZM25.54,671.88l192.35.12,3.07-2.02.38-7.36-193.4-2.69-2.04,1.05c-1.16,3.65-2.28,7.25-.35,10.89Z"/>
  <path d="M741.06,444.36c15.47,14.65,9.53,36.26-8.41,45.38-2.65,1.35-6.61.6-6.29,4.71v102.9c11.59,3.77,21.64,11.14,23.06,24.15,2.38,21.73-18.07,36.71-38.25,28.25-3.96-1.66-9.16-8.59-12.68-7.26l-87.76,51.99c9.13,24.37-17.36,46.15-40,33.71-9.01-4.95-14.11-14.48-14.31-24.69-.07-3.42,3.01-8.32-.47-11.53-20.62-12.17-41.65-23.66-62.4-35.6-6.65-3.82-15.65-10.86-22.18-13.84-4.28-1.96-9.45,6.36-14.75,8.18-36.66,12.53-53.66-43.65-15.15-52.15l.96-2.04v-105.5c-14.63-1.87-25.14-16.44-22.76-31.26,2.01-12.54,15.56-23.48,28.11-22.64,8.33.56,14.89,4.84,21.12,9.89l88.05-49.96c1.44-6.95-1.36-12.31.59-19.42,8.23-30.09,56.05-26.74,54.88,10.88-.09,2.9-2.56,6.12.46,8.57l87.8,49.77c11.38-10.55,28.28-13.95,40.39-2.47ZM597.05,369.41c-17.26-11.68-38.19,4.32-30.8,23.26,8.56,21.95,41.04,13.24,38.08-10.09-.46-3.6-4.26-11.13-7.28-13.18ZM580.28,458.86l-.03-44.2c-.64-1.86-8.59-4.28-11.17-5.83-2.87-1.73-4.11-5.65-8.09-4.85l-88.43,50.16c-1.35,2.14,2.16,9.21,1.94,12.37-.18,2.6-2.54,4.01-2.16,6.94s35.49,21.39,40.44,24.4c16.16-22.87,39.5-36.3,67.49-39ZM696.3,475.89c.83-3.9-.93-7.56-.97-11.39-.04-3.22,2.54-8.91.07-10.99l-85.7-49.31c-5.73-1.75-7.41,3.42-11.75,5.83-2.97,1.65-6.4,1.8-9.05,3.95l.45,45.58c21.39,1.01,43.64,11.12,58.04,26.96,2.26,2.49,7.32,11.12,9.7,11.29l39.21-21.93ZM446.21,443.19c-18.05,1.51-27.68,22.96-13.83,36.35,15.44,14.91,41.55-1.25,33.73-22.73-2.31-6.34-13.07-14.18-19.9-13.61ZM736.11,480.69c6.17-5.04,8.23-15.47,6-22.88-4.01-13.3-21.35-18.15-32.19-9.8-14.72,11.35-8,35.51,10.01,36.98,4.96.4,12.29-1.12,16.18-4.3ZM581.24,468.27c-59.11,2.67-92.74,69.96-59.79,119.2,31.59,47.2,102.36,43.31,129.99-5.94,28.62-51-11.97-115.89-70.2-113.26ZM468.15,482.13c-3.42,1.12-5.03,4.32-8.02,6.08-3.59,2.11-9.77,1.81-9.76,6.24l.12,99.99c.88,5.63,4.18,3.94,7.98,6.02,3.56,1.94,6.05,4.68,9.48,6.59l3.18-.81c10.41-7.41,23.86-12.66,34.16-19.84,5.63-3.93-.12-9.11-1.93-14.84-5.38-17.07-5.13-33.51-.66-50.76,1.01-3.91,5.53-13.26,4.59-16.11l-39.15-22.54ZM719.35,492.07c-4.46-.92-9.06-3.14-12.88-5.63-2.2-1.44-3.36-4.82-6.33-4.31l-38.79,22.53c-.77,3.27,4.47,13.08,5.6,17.31,4.5,16.89,3.19,34.7-1.83,51.24-1.02,3.36-4.61,8.09-3.58,11.13l38.52,23.59c1.17.21,6.55-5.26,8.48-6.31,5.3-2.88,10.24-1.05,10.63-8.38.12-2.17-.81-4.3-.8-6.69.13-31.47-.73-63.14.99-94.47ZM519.79,600.64c-1.97-2.18-4.92-9.43-8.63-8.49l-37.29,21.81c-3.41,3.14.6,7.69.56,11.57-.04,3.35-3.24,6.2-1.1,9.03l86.81,51.31c4.35,1.2,12.89-10.69,19.32-9.31l.96-46.55c-23.81-1.45-44.82-11.88-60.63-29.36ZM659.14,592.32c-4.72-1.88-7.35,5.6-10.21,8.69-16.73,18.06-35.74,26.45-60.08,29.92l.73,45.91c6.71-1.38,12.08,6.89,15.85,8.67,4.12,1.94,7.11-2.87,9.81-4.41,27.04-15.34,54.17-30.57,80.98-46.3l-.28-20.85-36.8-21.64ZM432.73,609.32c-10.74,9.65-8.83,27.2,4.02,33.86,20.86,10.8,40.54-14.63,25.67-31.67-7.45-8.53-21.2-9.82-29.68-2.19ZM736,609.45c-17.73-15.23-42.01,4.42-31.98,25.45,2.26,4.74,7.22,8.29,12.13,9.87,21.68,6.98,36.59-20.95,19.86-35.32ZM581.2,684.29c-25.01,2.83-19.91,42.68,5.62,39.64s23.01-42.88-5.62-39.64Z"/>
  <path d="M612.62,51.78c3.23,1.87,7.58-1.31,10.36-1.71,36.35-5.2,62.18,18.72,61.44,54.93,9.58.99,20.63,7.27,28.01,13.49,40.91,34.46,23.76,105.07-28.57,115.46-2.35.47-11.71,1.33-13.88,1-3.23-.5-6.5-3.2-4.86-6.66s11.44-2.51,15.7-3.38c50.51-10.3,62.06-78.74,17.26-105.07-8.02-4.72-14.28-4.68-21.23-7.77s-1.27-7.98-1.41-13.52c-.68-25.97-26.14-45.01-51.25-39.26-4.12.94-10.38,4.86-14.11,3.57-.97-.34-10.94-12.92-13.66-15.36-46.4-41.67-119.81-12.33-127,49.03-.48,4.07,1.07,9.65-.95,13.05-2.39,4.02-8.59,1.89-12.48,2.52-58.87,9.46-67.52,93.25-5.79,108.63,4.27,1.06,14.47,1.51,17.2,2.79,3.86,1.81,1.18,7.75-2.52,8.48-4.9.96-21.49-3.26-26.76-5.2-33.25-12.25-48.32-51.07-34.9-83.46,9.96-24.05,31.29-37.73,56.75-41.25.98-2.74.11-5.66.54-8.46,10.56-69.22,89.75-98.75,142.91-52.12,2.09,1.83,8.59,9.95,9.19,10.29Z"/>
  <path d="M549.42,333h-33.5c-5.51,9.4-14.54,17.56-25.82,11.82-18.78-9.56-9.12-37.05,13.59-31.59,7.1,1.71,7.78,8.19,12.23,12.77h25.5c.46-1.83.9-3.53,1.05-5.45,3.16-40.16-2.42-84.5-.1-125.1l3.09-4.99,3.98,1.03-.02,141.51ZM494.13,319.21c-10.46,2.39-9.96,20.42,2.83,20.83,16.39.52,14.25-24.73-2.83-20.83Z"/>
  <path d="M620.92,311c2.99-2.58,2.79-6.88,5.85-9.65,15.35-13.92,40.09,5.71,28.03,23.53-8.25,12.2-28.57,9.95-31.58-4.66-1.75-2.64-27.25-.49-32.34-1.17-6.41-.86-5.3-8.57-5.5-13.5-1.06-26.61.94-53.47,0-80.1-.33-1.68,2.34-5.16,3.7-5.37.47-.07,4.98,2.87,5.13,3.13,1.38,2.36-.74,6.21-.67,8.4.62,21.74,2.13,44.03,0,65.78,2.06,4.4-.76,10.15,2.4,13.61h25ZM638.2,305.25c-12.82,1.58-10.08,19.29.69,19.57,14.37.39,14.35-21.43-.69-19.57Z"/>
  <path d="M514.17,187.25l.12,95.13c-.83,1.47-1.69,2.27-3.4,2.6-8.67,1.65-21.61-1.35-30.79.21-2.85.86-4.48,7.72-7.16,9.84-11.3,8.91-28.83.99-29.61-13.5-1.17-21.76,29.94-26.03,35.32-5.77,1.41,1.66,20.99,1.72,24.31,1.29,1.7-.22,3.03-.37,3.96-2.04l.52-85.48,2.68-3.38,4.05,1.11ZM460.18,270.17c-11.52,1.88-11.77,19.96.73,20.29,15.5.42,12.08-22.39-.73-20.29Z"/>
  <path d="M647.92,264c5.95-10.37,8.58-15.91,22.04-14.04,18.16,2.52,18.31,33.09-4.21,33.98-8.7.34-12.45-7.26-17.84-11.94h-29.5c-.41-2.07-1.76-3.17-2.05-5.45-2.93-22.71,2.31-51.68.03-75.07.33-6.27,4.83-7.12,9.02-2.98v74l1.5,1.5h21ZM663.16,256.23c-12.36,2.1-9.65,23.68,5.53,20.53,12.65-2.62,10.9-23.33-5.53-20.53Z"/>
  <path d="M107.42,228.5c.06-.39,2.19-6.32,2.6-7.4,7.61-20.39,23.25-25.26,43.91-23.1,7.16.75,16.05,5.1,23.07,5.93,26.76,3.14,38.43-12,42.29-36.55.63-4.01-.48-20.58,6.09-17.92,4.19,2.67,3.32,8.41,2.91,12.92-1.75,19.11-9.74,41.8-29.88,48.12-24.29,7.62-44.2-11.4-65.87-2.87-17.12,6.74-17.79,26.46-18.56,42.43-1.34,1.92-6.56.9-6.56-.56,0-5.99-.87-15.59,0-21Z"/>
  <path d="M352.99,204.44c16.77,18.04,29.48,52.36,26.47,77.11-.63,5.16-6.36,4.63-7.04.94-1.35-7.37-.98-16.28-2.26-23.74-6.85-39.91-36.07-70.41-76.49-76.51-3.87-.58-21.39.09-22.6-3.48-1.52-4.5,2.03-5.72,5.82-5.82,26.96-.73,57.81,11.85,76.09,31.51Z"/>
  <path d="M316.99,208.44c25.7,14.83,39.35,46.61,36.85,75.66-2.29,1.02-5.6,1.63-6.92-1.11-1.06-2.2-1.12-13.41-1.77-17.22-5.06-29.35-24.93-53.59-55.3-58.7-4.03-.68-18.4.02-19.95-3.07-3.53-7.05,7.78-6.3,12.01-5.99,10.72.78,25.77,5.05,35.08,10.43Z"/>
  <path d="M213.06,224.64c-19.31,21.4-44.14-3.29-62.87,5.63-4.96,2.36-9.14,8.41-10.28,13.72-.91,4.24,1.34,19.39-4.81,18.86s-5.17-10.08-4.62-14.3c.83-6.35,5.35-16.43,9.9-21.1,5.62-5.75,13.64-7.6,21.49-7.49,13.65.18,28.49,10.57,41.9,1.89,4.24-2.75,8.67-12.07,12.7-3.29.16,1.85-2.11,4.65-3.41,6.09Z"/>
  <path d="M481.56,109.86c-5.57-25.59,13.82-54.99,37.15-65.06,5.22-2.26,25.14-8.12,29.3-4.88,2.07,1.61,2.05,4.51-.17,6.02-2.5,1.69-18.83,3.42-24.34,5.66-22.49,9.1-35.85,33.77-35.52,57.48l-6.42.79Z"/>
  <path d="M272.12,222.21c4.82-1.45,21.48,2,26.59,4,16.34,6.37,26.52,19.9,30.24,36.76.89,4.02,4.15,19.37.48,21.55-9.59,3.33-6.64-13.74-8.29-20.73-3.61-15.25-15.11-27.73-30.33-31.67-4.38-1.13-17.19-1.54-19.39-2.61-3.09-1.5-2.55-6.31.7-7.29Z"/>
  <path d="M701.06,202.65c-2.78,2.55-8.98,6.49-12.44,8.06-4.16,1.88-21.21,7.55-23.1,1.63-.58-7.92,7.55-5.48,12.16-6.57,11.78-2.77,22.42-12.03,26.74-23.26,1.43-3.73,2.94-15.99,4.99-17.04l3.3-.33c2.5,1,2.72,2.91,2.81,5.35.39,10.38-6.87,25.22-14.45,32.16Z"/>
  <path d="M275.76,252.34c9.74-7.46,25.95-1,27.56,11.24,2.58,19.62-20.7,29.19-31.34,13.35-4.86-7.23-3.17-19.27,3.78-24.59ZM286.17,255.19c-14.49,1.22-13.85,24.27,1.75,22.85,13.62-1.24,10.24-23.87-1.75-22.85Z"/>
  <path d="M421.12,165.18c8.02-2.38,5.82,9.97,7.81,15.8,3.02,8.87,10.83,16.25,19.7,19.3,4.35,1.49,16.68,2.47,18.78,4.21,2.51,2.08.65,5.86-2.53,6.48-14.11,2.72-34.39-8.41-41.03-20.91-2.31-4.35-9.23-22.96-2.74-24.88Z"/>
  <path d="M215.26,42.15c3.19,2.02-.26,6.09-2.51,7.68-8.59,6.05-22.79,12.52-32.48,18.3-4.68,2.79-7.73,7.56-13.71,5.74-1.09-2.04-1.12-5.19.58-6.93,11.4-6.18,21.82-14.5,33.42-20.31,3.3-1.65,11.42-6.57,14.71-4.48Z"/>
  <path d="M308.17,9.25c7.73,7.69-17.03,9.95-20.96,11.04-9.29,2.58-18.62,5.85-27.55,9.48-3.52.56-7.61-1.92-5.79-5.75,1.13-2.37,17.11-7.17,20.77-8.3,7.47-2.32,21.3-6.79,28.57-7.51,1.61-.16,3.76-.14,4.96,1.05Z"/>
  <path d="M763.62,376.78c-2.76-1.6-1.28-5.7-1.43-7.27-1.14-11.77-1.3-23.3-2.88-34.91-.57-4.21-5.31-14.47,2.62-14.6,5.78-.1,4.05,9.34,4.49,12.49,1.45,10.3,3.6,22.66,4.03,32.97.16,3.94.36,15.5-6.83,11.33Z"/>
  <path d="M4.13,359.14c7.97-2.24,4.33,9.59,4.24,13.31-.28,13.11.95,26.03,1.1,39.1l-3.7,5.36-4.14-3.62c-.2-14.79-3.01-32.01-.76-46.6.39-2.52.32-6.73,3.26-7.56Z"/>
  <path d="M537.28,733.13c3.31,5.31-6.43,8.13-9.72,9.51-9.83,4.11-28.87,11.45-38.9,13.19-2.34.41-4.26-.16-5.04-2.55-1.42-4.34.48-4.45,3.82-5.73,8.43-3.23,17.76-4.96,26.18-7.84,3.82-1.31,20.87-11.04,23.66-6.57Z"/>
  <path d="M737.1,227.31c.38.52,3.16,6.48,3.73,7.77,2.79,6.23,13.22,34.16,13.5,39.53.19,3.66-3.4,6.36-5.98,4.91-1.5-.84-8.85-24.68-10.3-28.66s-9.07-19.72-8.49-22.15c.84-3.53,5.23-4.52,7.53-1.39Z"/>
  <path d="M247.28,740.87c-.7,1.11-4.43,1.02-5.9.74-4.18-.78-16.6-6.74-21.18-8.9-8.34-3.92-16.18-9.14-24.63-12.86-1.67-14.56,16.58-.04,22.62,2.86,8.89,4.27,18.09,7.97,27.16,11.84,1.98.72,2.84,4.85,1.92,6.31Z"/>
  <path d="M70.28,174.13l-.42,4.83c-9.79,13.05-16.5,28.2-24.55,42.44-1.25,2.13-3.94,2.04-5.96,1.17-1.22-.85-1.05-2.67-.92-3.97.47-4.46,15.24-30.11,18.61-35.46s6.13-13.13,13.24-9Z"/>
  <path d="M291.08,749.21c16.35,5.27,33.68,7.12,50.64,9.99,6.67,8.38-6,7.28-11.7,6.7-12.87-1.3-27.02-5.9-39.86-8.14-4.77-2.48-4.2-6.97.92-8.55Z"/>
  <path d="M15.25,458.18c1.88,1.15,3.62,15.8,4.44,19.05,2.26,9.01,6.9,19.78,8.63,28.41s-3.91,10.47-7.41,3.36c-3.93-7.99-11.03-35.35-12.45-44.57-.24-1.58-.48-5.06.89-6,1.48-.48,4.7-.99,5.9-.26Z"/>
  <path d="M133.28,98.13c1.1.7,1.78,5.98-.3,6.93-7.05,5.57-13.34,12.01-19.6,18.42-3.06,3.14-13.67,16.97-16.56,17.21-1.32.11-2.93-.63-4.29-.8l.41-5.88c6.56-6.59,12.38-14.01,18.93-20.6,2.63-2.65,13.03-13.17,15.18-14.29,1.53-.79,4.85-1.88,6.24-1Z"/>
  <path d="M437.22,758.24c3.91-.09,7.39,3.11,4.22,6.28-1.01,1.01-13.13,3.04-15.64,3.36-11.89,1.49-24.05.32-35.93,1.98-3.62.04-6-3.87-3.99-6.9,2.19-3.3,23.88-1.65,29.02-1.97,6.91-.44,14.81-2.57,22.31-2.74Z"/>
  <path d="M22.12,262.13c3.28-.93,5.99,1.78,5.12,5.1-4.62,13.59-8.08,27.6-11.59,41.51-.96,3.8.66,8.87-5.6,9.2-3.99-1.15-1.93-11.06-1.39-14.2,1.5-8.76,6.81-29.89,10.26-37.74.71-1.62,1.44-3.14,3.2-3.87Z"/>
  <path d="M404.92,0c2.25.64,3.31,4.47,1.59,6.6-3.11,3.85-21.22-1.06-26.63.36l-28.29,1.88-1.69-4.85c.78-1.9,6.23-3.98,8.03-3.98h47Z"/>
  <path d="M478.19,11.24c1.62,1.52.55,4.72.12,6.65-1.01.88-23.34-3.31-25.89-4.4-1.61-.69-4.04-1.94-4.04-3.99,2.52-7.11,9.65-2.24,13.59-1.56,3.39.58,13.85,1.08,16.21,3.3Z"/>
  <path d="M759.56,435.85c-.57-4.28-.94-18.43,6.15-16.71,5.04,1.75,2.51,16.8-1.01,17.73l-5.14-1.02Z"/>
  <path d="M627.41,530c4.91.34,13.76-2.01,14.98,4.52.51,2.71.37,21.49-.5,23.45-2.58,5.84-13.06.76-14.37,4.66-1.3,7.03,8.02,7.37,5.46,15.41-.9,2.81-14.72,15.75-17.53,16.54-6.09,1.71-10.03-9.68-14.05-7.12-5.76,3.67,1.8,13.35-6.71,15.32-2.8.65-19.97.65-22.26-.31-7.1-2.95-1.35-13.85-6.73-15.34-5.95-1.64-6.8,9.92-14.66,5.73-2.05-1.09-15.94-14.7-16.42-16.63-1.99-7.98,9.27-9.52,7.34-14.21-2.42-5.87-13.39.01-15.33-6.74-.67-2.34-.56-21.29.31-23.27,2.26-5.11,12.18-2.84,14.33-4.16,5.99-3.69-9.81-10.05-4.9-18.17,5.1-2.35,13.03-14.51,17.8-15.52,5.5-1.16,8.76,10.14,14.25,7.35,4.52-2.29-2.6-13.24,6.71-15.31,3.4-.75,18.03-.65,21.02.54,7.77,3.1,1.81,13.76,5.89,15.13,7.41,1.04,9.68-9.66,17.92-4.94.86.49,13,13.64,13.49,14.49,4.91,8.5-8.64,9.82-6.05,18.56ZM617.21,506.24c-4.35-2.48-6.89,6.8-12.99,5.54-1.03-.21-9.73-4.19-10.26-4.82-2.81-3.37-.6-6.75-.59-9.56.01-3.83-15.02-3.2-15.82-.76.96,9.14-1.22,12.07-10.08,13.92-9.15,1.92-7.3-3.64-10.24-5.37-2.71-1.6-12.87,5.86-11.68,10.09,1.07,3.81,7.4,2.26,5.45,10.78-.34,1.51-4.96,10.22-5.81,10.71-2.13,1.23-8.79-1.09-10.35,1.16-.44,2.66-1.63,12.04,1.2,12.93s9.06-.61,11.43,2.82c1.23,1.78,3.2,9.48,2.92,11.72-.54,4.34-6.02,6.67-6.02,9.09,1.25,2.56,7.79,10.06,10.33,9.39,5.78-6.89,10.26-7.53,18.05-2.74,6.72,4.14,1.8,11.48,4.59,13.41,2.71.39,13.01,1.69,13.93-1.2,1.09-3.43-1.53-8.34,2.75-11.25,1.14-.78,9.45-4.12,10.64-3.95l10.1,6.76c1.95-2.2,9.28-7.38,8.53-10.23s-6.87-4.36-5.51-10.74c.36-1.71,3.79-9.22,5.05-10.03l11.13-1.87c.4-2.79,1.68-13-1.2-13.93-7.94,1.41-13.08-3.05-14.32-10.71-1.37-8.48,7.22-9.3,5.99-13.75-2.82-.85-5.65-6.53-7.25-7.44Z"/>
  <path d="M604.02,559.61c-1.75,2.55-5.87,5.48-8.72,6.78-30.23,13.79-48.96-30.63-21.43-43.43,23.1-10.73,44.69,15.48,30.15,36.65ZM595.04,532.39c-7.1-5.62-17.64-4.68-23.06,2.65-10.24,13.86,5.75,32.35,20.62,23.64,9.2-5.39,10.76-19.69,2.43-26.29Z"/>
</svg>