<?xml version="1.0" encoding="UTF-8" standalone="no"?>
<!-- Created with Inkscape (http://www.inkscape.org/) -->

<svg
   width="150mm"
   height="40mm"
   viewBox="0 0 150 40"
   version="1.1"
   id="svg5"
   sodipodi:docname="Block_diagram_robot_gripper.svg"
   inkscape:version="1.2.2 (732a01da63, 2022-12-09)"
   xmlns:inkscape="http://www.inkscape.org/namespaces/inkscape"
   xmlns:sodipodi="http://sodipodi.sourceforge.net/DTD/sodipodi-0.dtd"
   xmlns="http://www.w3.org/2000/svg"
   xmlns:svg="http://www.w3.org/2000/svg">
  <sodipodi:namedview
     id="namedview7"
     pagecolor="#ffffff"
     bordercolor="#666666"
     borderopacity="1.0"
     inkscape:showpageshadow="2"
     inkscape:pageopacity="0.0"
     inkscape:pagecheckerboard="0"
     inkscape:deskcolor="#d1d1d1"
     inkscape:document-units="mm"
     showgrid="false"
     inkscape:zoom="1.993118"
     inkscape:cx="230.29244"
     inkscape:cy="126.43506"
     inkscape:window-width="2400"
     inkscape:window-height="1494"
     inkscape:window-x="-11"
     inkscape:window-y="-11"
     inkscape:window-maximized="1"
     inkscape:current-layer="layer1" />
  <defs
     id="defs2">
    <rect
       x="141.65058"
       y="13.641108"
       width="71.312207"
       height="84.97044"
       id="rect6785" />
    <marker
       style="overflow:visible"
       id="Arrow2"
       refX="5"
       refY="0"
       orient="auto-start-reverse"
       inkscape:stockid="Arrow2"
       markerWidth="7.6999998"
       markerHeight="5.5999999"
       viewBox="0 0 7.7 5.6"
       inkscape:isstock="true"
       inkscape:collect="always"
       preserveAspectRatio="xMidYMid">
      <path
         transform="scale(0.7)"
         d="M -2,-4 9,0 -2,4 c 2,-2.33 2,-5.66 0,-8 z"
         style="fill:context-stroke;fill-rule:evenodd;stroke:none"
         id="arrow2L" />
    </marker>
    <clipPath
       id="clipPath6666">
      <path
         clip-rule="nonzero"
         d="m 10,6 h 7.949219 V 9.964844 H 10 Z m 0,0"
         id="path1882" />
    </clipPath>
    <clipPath
       id="clipPath6666-4">
      <path
         clip-rule="nonzero"
         d="m 10,6 h 7.949219 V 9.964844 H 10 Z m 0,0"
         id="path1882-0" />
    </clipPath>
    <clipPath
       id="clipPath9072">
      <path
         clip-rule="nonzero"
         d="M 0,0 H 10.816406 V 8.167969 H 0 Z m 0,0"
         id="path7323" />
    </clipPath>
    <clipPath
       id="clipPath771">
      <path
         clip-rule="nonzero"
         d="m 5,5 h 25 v 7.308594 H 5 Z m 0,0"
         id="path6748" />
    </clipPath>
    <clipPath
       id="clipPath5181">
      <path
         clip-rule="nonzero"
         d="m 5,5 h 20 v 7.308594 H 5 Z m 0,0"
         id="path7563" />
    </clipPath>
    <clipPath
       id="clipPath6581">
      <path
         clip-rule="nonzero"
         d="m 9,6 h 5.71875 v 5.511719 H 9 Z m 0,0"
         id="path355" />
    </clipPath>
    <clipPath
       id="clipPath4098">
      <path
         clip-rule="nonzero"
         d="m 1,8 h 8 v 5.964844 H 1 Z m 0,0"
         id="path8795" />
    </clipPath>
    <clipPath
       id="clipPath2449">
      <path
         clip-rule="nonzero"
         d="m 9,10 h 4 v 3.964844 H 9 Z m 0,0"
         id="path5892" />
    </clipPath>
    <clipPath
       id="clipPath461">
      <path
         clip-rule="nonzero"
         d="m 32,21 h 6 v 4.414063 h -6 z m 0,0"
         id="path8403" />
    </clipPath>
    <clipPath
       id="clipPath8605">
      <path
         clip-rule="nonzero"
         d="m 32,21 h 6 v 4.414063 h -6 z m 0,0"
         id="path8027" />
    </clipPath>
    <clipPath
       id="clipPath6229">
      <path
         clip-rule="nonzero"
         d="m 32,21 h 6 v 4.414063 h -6 z m 0,0"
         id="path4668" />
    </clipPath>
    <clipPath
       id="clipPath7021">
      <path
         clip-rule="nonzero"
         d="M 0,0 H 9 V 7.804688 H 0 Z m 0,0"
         id="path8286" />
    </clipPath>
    <rect
       x="141.65058"
       y="13.641108"
       width="71.312207"
       height="84.97044"
       id="rect7516" />
    <rect
       x="141.65058"
       y="13.641108"
       width="71.312207"
       height="84.97044"
       id="rect7528" />
    <rect
       x="141.65058"
       y="13.641108"
       width="71.312207"
       height="84.97044"
       id="rect7540" />
    <clipPath
       id="clipPath6677">
      <path
         clip-rule="nonzero"
         d="M 7,2 H 32 V 8.488281 H 7 Z m 0,0"
         id="path5434" />
    </clipPath>
    <clipPath
       id="clipPath9567">
      <path
         clip-rule="nonzero"
         d="M 7,6 H 25 V 9.964844 H 7 Z m 0,0"
         id="path3000" />
    </clipPath>
    <clipPath
       id="clipPath2079">
      <path
         clip-rule="nonzero"
         d="m 7,4 h 24 v 7.511719 H 7 Z m 0,0"
         id="path371" />
    </clipPath>
    <rect
       x="141.65058"
       y="13.641108"
       width="149.4208"
       height="33.528184"
       id="rect9662" />
    <rect
       x="141.65058"
       y="13.641108"
       width="149.4208"
       height="33.528184"
       id="rect10050" />
  </defs>
  <g
     inkscape:label="Layer 1"
     inkscape:groupmode="layer"
     id="layer1">
    <g
       id="g2727"
       transform="translate(11.674848,3.1750001)">
      <ellipse
         style="opacity:1;fill:none;stroke:#000000;stroke-width:0.264999;stop-color:#000000"
         id="path2608"
         cx="12.196639"
         cy="15.092875"
         rx="3.9825761"
         ry="4.1401529" />
      <path
         style="fill:none;stroke:#000000;stroke-width:0.264583px;stroke-linecap:butt;stroke-linejoin:miter;stroke-opacity:1"
         d="m 15.124169,12.165344 -5.8550603,5.85506"
         id="path2720" />
      <path
         style="fill:none;stroke:#000000;stroke-width:0.264583px;stroke-linecap:butt;stroke-linejoin:miter;stroke-opacity:1"
         d="M 15.012745,17.908981 9.3805323,12.276767"
         id="path2722" />
    </g>
    <g
       inkscape:label=""
       transform="translate(58.759372,16.141087)"
       id="g440">
      <g
         clip-path="url(#clipPath9072)"
         id="g17"
         transform="matrix(0.352778,0,0,0.352778,-0.192925,-0.0044978)">
        <g
           fill="#000000"
           fill-opacity="1"
           id="g15">
          <g
             id="use13"
             transform="translate(0,8.1689997)">
            <path
               d="m 5.96875,-4.828125 c 0,-0.03125 -0.046875,-0.125 -0.046875,-0.171875 0,-0.015625 0,-0.015625 0.203125,-0.171875 l 1.171875,-0.90625 c 1.59375,-1.25 2.125,-1.671875 2.953125,-1.734375 0.07813,-0.015625 0.203125,-0.015625 0.203125,-0.21875 0,-0.078125 -0.04687,-0.125 -0.140625,-0.125 -0.125,0 -0.265625,0.015625 -0.40625,0.015625 H 9.453125 c -0.375,0 -0.765625,-0.015625 -1.125,-0.015625 -0.078125,0 -0.21875,0 -0.21875,0.203125 0,0.125 0.078125,0.140625 0.15625,0.140625 0.125,0 0.28125,0.0625 0.28125,0.21875 0,0.25 -0.359375,0.53125 -0.453125,0.59375 l -4.6875,3.65625 1,-3.953125 C 4.5,-7.703125 4.53125,-7.8125 5.375,-7.8125 c 0.234375,0 0.34375,0 0.34375,-0.234375 0,-0.109375 -0.125,-0.109375 -0.1875,-0.109375 -0.21875,0 -0.46875,0.015625 -0.6875,0.015625 H 3.4375 c -0.21875,0 -0.484375,-0.015625 -0.703125,-0.015625 -0.09375,0 -0.21875,0 -0.21875,0.21875 0,0.125 0.109375,0.125 0.28125,0.125 0.734375,0 0.734375,0.09375 0.734375,0.21875 0,0.03125 0,0.09375 -0.046875,0.28125 l -1.625,6.421875 C 1.75,-0.46875 1.734375,-0.34375 0.890625,-0.34375 c -0.21875,0 -0.34375,0 -0.34375,0.21875 C 0.546875,0 0.65625,0 0.734375,0 0.953125,0 1.1875,-0.03125 1.421875,-0.03125 h 1.40625 C 3.046875,-0.03125 3.296875,0 3.53125,0 3.625,0 3.75,0 3.75,-0.234375 3.75,-0.34375 3.640625,-0.34375 3.46875,-0.34375 c -0.734375,0 -0.734375,-0.09375 -0.734375,-0.21875 0,-0.078125 0.078125,-0.375 0.125,-0.578125 l 0.46875,-1.84375 1.8125,-1.421875 c 0.34375,0.765625 0.984375,2.296875 1.46875,3.46875 0.03125,0.0625 0.0625,0.140625 0.0625,0.21875 0,0.359375 -0.484375,0.375 -0.59375,0.375 -0.109375,0 -0.21875,0 -0.21875,0.21875 C 5.859375,0 5.984375,0 6.03125,0 6.4375,0 6.890625,-0.03125 7.296875,-0.03125 H 7.875 C 8.0625,-0.03125 8.265625,0 8.4375,0 8.515625,0 8.640625,0 8.640625,-0.234375 8.640625,-0.34375 8.53125,-0.34375 8.421875,-0.34375 7.96875,-0.359375 7.8125,-0.453125 7.640625,-0.890625 Z m 0,0"
               id="path23" />
          </g>
        </g>
      </g>
    </g>
    <g
       inkscape:label=""
       transform="translate(134.53436,12.094928)"
       id="g523">
      <g
         fill="#000000"
         fill-opacity="1"
         id="g38"
         transform="matrix(0.352778,0,0,0.352778,-0.170877,9.7028e-4)">
        <g
           id="use36"
           transform="translate(0,8.9659996)">
          <path
             d="m 5.296875,-6.015625 c 0,-1.21875 -0.390625,-2.40625 -1.359375,-2.40625 -1.671875,0 -3.453125,3.515625 -3.453125,6.140625 0,0.546875 0.109375,2.40625 1.375,2.40625 1.625,0 3.4375,-3.421875 3.4375,-6.140625 z m -3.625,1.6875 c 0.1875,-0.703125 0.4375,-1.703125 0.90625,-2.5625 0.390625,-0.71875 0.8125,-1.28125 1.34375,-1.28125 0.390625,0 0.65625,0.328125 0.65625,1.484375 0,0.421875 -0.03125,1.015625 -0.375,2.359375 z m 2.4375,0.359375 C 3.8125,-2.796875 3.5625,-2.046875 3.125,-1.296875 2.78125,-0.6875 2.359375,-0.125 1.859375,-0.125 1.5,-0.125 1.1875,-0.40625 1.1875,-1.59375 c 0,-0.765625 0.203125,-1.578125 0.390625,-2.375 z m 0,0"
             id="path72" />
        </g>
      </g>
      <g
         clip-path="url(#clipPath771)"
         id="g54"
         transform="matrix(0.352778,0,0,0.352778,-0.170877,9.7028e-4)">
        <g
           fill="#000000"
           fill-opacity="1"
           id="g52">
          <g
             id="use40"
             transform="translate(5.4549999,10.759)">
            <path
               d="m 3.984375,-1.703125 c 0,-0.984375 -0.828125,-1.84375 -1.875,-1.84375 -1.046875,0 -1.875,0.859375 -1.875,1.84375 0,1 0.859375,1.78125 1.875,1.78125 1.03125,0 1.875,-0.78125 1.875,-1.78125 z m -1.875,1.53125 C 1.6875,-0.171875 1.34375,-0.375 1.171875,-0.65625 0.96875,-0.984375 0.953125,-1.375 0.953125,-1.765625 c 0,-0.3125 0,-0.78125 0.234375,-1.125 0.21875,-0.28125 0.546875,-0.4375 0.921875,-0.4375 0.421875,0 0.765625,0.203125 0.9375,0.46875 0.21875,0.34375 0.234375,0.765625 0.234375,1.09375 0,0.359375 -0.015625,0.796875 -0.25,1.140625 -0.203125,0.3125 -0.5625,0.453125 -0.921875,0.453125 z m 0,0"
               id="path76" />
          </g>
          <g
             id="use42"
             transform="translate(9.6895142,10.759)">
            <path
               d="m 2.65625,-3.421875 v 0.265625 c 0.546875,0 0.609375,0.046875 0.609375,0.4375 v 1.390625 c 0,0.6875 -0.40625,1.1875 -1.015625,1.1875 -0.6875,0 -0.71875,-0.34375 -0.71875,-0.75 v -2.625 l -1.203125,0.09375 v 0.265625 c 0.609375,0 0.609375,0.015625 0.609375,0.71875 v 1.203125 c 0,0.578125 0,1.3125 1.265625,1.3125 0.75,0 1.046875,-0.578125 1.078125,-0.640625 H 3.296875 V 0.078125 L 4.484375,0 V -0.265625 C 3.9375,-0.265625 3.875,-0.3125 3.875,-0.703125 v -2.8125 z m 0,0"
               id="path80" />
          </g>
          <g
             id="use44"
             transform="translate(14.394264,10.759)">
            <path
               d="m 1.484375,-3.171875 h 1.1875 V -3.4375 h -1.1875 v -1.46875 h -0.25 c 0,0.734375 -0.328125,1.484375 -1.078125,1.515625 v 0.21875 H 0.875 V -1 c 0,0.9375 0.71875,1.078125 1.078125,1.078125 C 2.5,0.078125 2.8125,-0.390625 2.8125,-1 v -0.4375 h -0.25 v 0.421875 c 0,0.546875 -0.25,0.84375 -0.546875,0.84375 -0.53125,0 -0.53125,-0.6875 -0.53125,-0.8125 z m 0,0"
               id="path84" />
          </g>
          <g
             id="use46"
             transform="translate(17.68751,10.759)">
            <path
               d="m 2.09375,1.28125 c -0.515625,0 -0.609375,0 -0.609375,-0.359375 v -1.3125 c 0.375,0.40625 0.78125,0.46875 1.046875,0.46875 1,0 1.890625,-0.78125 1.890625,-1.796875 0,-1 -0.8125,-1.796875 -1.78125,-1.796875 -0.3125,0 -0.765625,0.078125 -1.171875,0.5 v -0.5 l -1.1875,0.09375 v 0.265625 c 0.5625,0 0.609375,0.046875 0.609375,0.375 v 3.703125 c 0,0.359375 -0.109375,0.359375 -0.609375,0.359375 v 0.265625 c 0.34375,-0.03125 0.6875,-0.03125 0.90625,-0.03125 0.234375,0 0.5625,0 0.90625,0.03125 z m -0.609375,-3.9375 c 0.1875,-0.3125 0.59375,-0.609375 1.09375,-0.609375 0.609375,0 1.125,0.671875 1.125,1.546875 0,0.90625 -0.578125,1.578125 -1.21875,1.578125 -0.28125,0 -0.640625,-0.125 -0.90625,-0.515625 -0.09375,-0.140625 -0.09375,-0.15625 -0.09375,-0.296875 z m 0,0"
               id="path88" />
          </g>
          <g
             id="use48"
             transform="translate(22.39226,10.759)">
            <path
               d="m 2.65625,-3.421875 v 0.265625 c 0.546875,0 0.609375,0.046875 0.609375,0.4375 v 1.390625 c 0,0.6875 -0.40625,1.1875 -1.015625,1.1875 -0.6875,0 -0.71875,-0.34375 -0.71875,-0.75 v -2.625 l -1.203125,0.09375 v 0.265625 c 0.609375,0 0.609375,0.015625 0.609375,0.71875 v 1.203125 c 0,0.578125 0,1.3125 1.265625,1.3125 0.75,0 1.046875,-0.578125 1.078125,-0.640625 H 3.296875 V 0.078125 L 4.484375,0 V -0.265625 C 3.9375,-0.265625 3.875,-0.3125 3.875,-0.703125 v -2.8125 z m 0,0"
               id="path92" />
          </g>
          <g
             id="use50"
             transform="translate(27.09701,10.759)">
            <path
               d="m 1.484375,-3.171875 h 1.1875 V -3.4375 h -1.1875 v -1.46875 h -0.25 c 0,0.734375 -0.328125,1.484375 -1.078125,1.515625 v 0.21875 H 0.875 V -1 c 0,0.9375 0.71875,1.078125 1.078125,1.078125 C 2.5,0.078125 2.8125,-0.390625 2.8125,-1 v -0.4375 h -0.25 v 0.421875 c 0,0.546875 -0.25,0.84375 -0.546875,0.84375 -0.53125,0 -0.53125,-0.6875 -0.53125,-0.8125 z m 0,0"
               id="path96" />
          </g>
        </g>
      </g>
      <g
         fill="#000000"
         fill-opacity="1"
         id="g58"
         transform="matrix(0.352778,0,0,0.352778,-0.170877,9.7028e-4)">
        <g
           id="use56"
           transform="translate(30.888,8.9659996)">
          <path
             d="m 3.890625,2.90625 c 0,-0.03125 0,-0.0625 -0.203125,-0.265625 C 2.484375,1.4375 1.8125,-0.53125 1.8125,-2.96875 c 0,-2.328125 0.5625,-4.328125 1.953125,-5.734375 0.125,-0.109375 0.125,-0.125 0.125,-0.171875 0,-0.0625 -0.0625,-0.09375 -0.109375,-0.09375 -0.15625,0 -1.140625,0.859375 -1.71875,2.03125 -0.609375,1.21875 -0.890625,2.484375 -0.890625,3.96875 0,1.0625 0.171875,2.484375 0.78125,3.75 C 2.671875,2.21875 3.640625,3 3.78125,3 3.828125,3 3.890625,2.96875 3.890625,2.90625 Z m 0,0"
             id="path100" />
        </g>
      </g>
      <g
         fill="#000000"
         fill-opacity="1"
         id="g62"
         transform="matrix(0.352778,0,0,0.352778,-0.170877,9.7028e-4)">
        <g
           id="use60"
           transform="translate(35.439999,8.9659996)">
          <path
             d="M 2.40625,-4.8125 H 3.5 c 0.234375,0 0.34375,0 0.34375,-0.203125 0,-0.140625 -0.0625,-0.140625 -0.3125,-0.140625 H 2.484375 l 0.4375,-1.734375 C 2.96875,-7.0625 2.96875,-7.09375 2.96875,-7.171875 c 0,-0.1875 -0.140625,-0.296875 -0.296875,-0.296875 -0.109375,0 -0.375,0.03125 -0.46875,0.421875 l -0.46875,1.890625 h -1.125 c -0.234375,0 -0.34375,0 -0.34375,0.234375 0,0.109375 0.078125,0.109375 0.3125,0.109375 h 1.0625 L 0.84375,-1.65625 c -0.09375,0.421875 -0.125,0.546875 -0.125,0.703125 0,0.5625 0.390625,1.078125 1.0625,1.078125 1.203125,0 1.859375,-1.75 1.859375,-1.828125 0,-0.078125 -0.0625,-0.109375 -0.125,-0.109375 -0.03125,0 -0.078125,0 -0.09375,0.046875 C 3.40625,-1.75 3.390625,-1.75 3.3125,-1.546875 c -0.25,0.59375 -0.796875,1.421875 -1.5,1.421875 -0.359375,0 -0.375,-0.296875 -0.375,-0.5625 0,0 0,-0.234375 0.03125,-0.375 z m 0,0"
             id="path104" />
        </g>
      </g>
      <g
         fill="#000000"
         fill-opacity="1"
         id="g66"
         transform="matrix(0.352778,0,0,0.352778,-0.170877,9.7028e-4)">
        <g
           id="use64"
           transform="translate(39.667,8.9659996)">
          <path
             d="M 3.375,-2.96875 C 3.375,-3.890625 3.25,-5.359375 2.578125,-6.75 1.875,-8.1875 0.890625,-8.96875 0.765625,-8.96875 c -0.046875,0 -0.109375,0.03125 -0.109375,0.09375 0,0.046875 0,0.0625 0.203125,0.265625 1.203125,1.203125 1.859375,3.1875 1.859375,5.625 0,2.3125 -0.5625,4.3125 -1.9375,5.71875 C 0.65625,2.84375 0.65625,2.875 0.65625,2.90625 0.65625,2.96875 0.71875,3 0.765625,3 0.921875,3 1.90625,2.140625 2.484375,0.96875 3.09375,-0.25 3.375,-1.546875 3.375,-2.96875 Z m 0,0"
             id="path108" />
        </g>
      </g>
    </g>
    <g
       inkscape:label=""
       transform="translate(2.6824082,12.094928)"
       id="g684">
      <g
         fill="#000000"
         fill-opacity="1"
         id="g41"
         transform="matrix(0.352778,0,0,0.352778,-0.170877,9.7028e-4)">
        <g
           id="use39"
           transform="translate(0,8.9659996)">
          <path
             d="m 5.296875,-6.015625 c 0,-1.21875 -0.390625,-2.40625 -1.359375,-2.40625 -1.671875,0 -3.453125,3.515625 -3.453125,6.140625 0,0.546875 0.109375,2.40625 1.375,2.40625 1.625,0 3.4375,-3.421875 3.4375,-6.140625 z m -3.625,1.6875 c 0.1875,-0.703125 0.4375,-1.703125 0.90625,-2.5625 0.390625,-0.71875 0.8125,-1.28125 1.34375,-1.28125 0.390625,0 0.65625,0.328125 0.65625,1.484375 0,0.421875 -0.03125,1.015625 -0.375,2.359375 z m 2.4375,0.359375 C 3.8125,-2.796875 3.5625,-2.046875 3.125,-1.296875 2.78125,-0.6875 2.359375,-0.125 1.859375,-0.125 1.5,-0.125 1.1875,-0.40625 1.1875,-1.59375 c 0,-0.765625 0.203125,-1.578125 0.390625,-2.375 z m 0,0"
             id="path73" />
        </g>
      </g>
      <g
         clip-path="url(#clipPath5181)"
         id="g55"
         transform="matrix(0.352778,0,0,0.352778,-0.170877,9.7028e-4)">
        <g
           fill="#000000"
           fill-opacity="1"
           id="g53">
          <g
             id="use43"
             transform="translate(5.4549999,10.759)">
            <path
               d="m 1.546875,-4.90625 c 0,-0.234375 -0.171875,-0.453125 -0.4375,-0.453125 -0.234375,0 -0.4375,0.1875 -0.4375,0.4375 0,0.28125 0.234375,0.453125 0.4375,0.453125 0.28125,0 0.4375,-0.234375 0.4375,-0.4375 z m -1.1875,1.484375 v 0.265625 c 0.515625,0 0.578125,0.046875 0.578125,0.4375 V -0.625 c 0,0.359375 -0.09375,0.359375 -0.609375,0.359375 V 0 c 0.3125,-0.03125 0.765625,-0.03125 0.890625,-0.03125 0.09375,0 0.578125,0 0.859375,0.03125 v -0.265625 c -0.53125,0 -0.5625,-0.03125 -0.5625,-0.34375 v -2.90625 z m 0,0"
               id="path77" />
          </g>
          <g
             id="use45"
             transform="translate(7.8069768,10.759)">
            <path
               d="m 3.875,-2.421875 c 0,-0.65625 -0.3125,-1.09375 -1.140625,-1.09375 -0.796875,0 -1.15625,0.578125 -1.25,0.765625 v -0.765625 l -1.15625,0.09375 v 0.265625 c 0.546875,0 0.609375,0.046875 0.609375,0.4375 V -0.625 c 0,0.359375 -0.09375,0.359375 -0.609375,0.359375 V 0 c 0.34375,-0.03125 0.6875,-0.03125 0.90625,-0.03125 0.234375,0 0.5625,0 0.90625,0.03125 v -0.265625 c -0.5,0 -0.609375,0 -0.609375,-0.359375 v -1.4375 c 0,-0.84375 0.640625,-1.234375 1.125,-1.234375 0.484375,0 0.609375,0.34375 0.609375,0.84375 V -0.625 c 0,0.359375 -0.09375,0.359375 -0.609375,0.359375 V 0 C 3,-0.03125 3.359375,-0.03125 3.5625,-0.03125 c 0.234375,0 0.578125,0 0.921875,0.03125 v -0.265625 c -0.515625,0 -0.609375,0 -0.609375,-0.359375 z m 0,0"
               id="path81" />
          </g>
          <g
             id="use47"
             transform="translate(12.511727,10.759)">
            <path
               d="m 2.09375,1.28125 c -0.515625,0 -0.609375,0 -0.609375,-0.359375 v -1.3125 c 0.375,0.40625 0.78125,0.46875 1.046875,0.46875 1,0 1.890625,-0.78125 1.890625,-1.796875 0,-1 -0.8125,-1.796875 -1.78125,-1.796875 -0.3125,0 -0.765625,0.078125 -1.171875,0.5 v -0.5 l -1.1875,0.09375 v 0.265625 c 0.5625,0 0.609375,0.046875 0.609375,0.375 v 3.703125 c 0,0.359375 -0.109375,0.359375 -0.609375,0.359375 v 0.265625 c 0.34375,-0.03125 0.6875,-0.03125 0.90625,-0.03125 0.234375,0 0.5625,0 0.90625,0.03125 z m -0.609375,-3.9375 c 0.1875,-0.3125 0.59375,-0.609375 1.09375,-0.609375 0.609375,0 1.125,0.671875 1.125,1.546875 0,0.90625 -0.578125,1.578125 -1.21875,1.578125 -0.28125,0 -0.640625,-0.125 -0.90625,-0.515625 -0.09375,-0.140625 -0.09375,-0.15625 -0.09375,-0.296875 z m 0,0"
               id="path85" />
          </g>
          <g
             id="use49"
             transform="translate(17.216476,10.759)">
            <path
               d="m 2.65625,-3.421875 v 0.265625 c 0.546875,0 0.609375,0.046875 0.609375,0.4375 v 1.390625 c 0,0.6875 -0.40625,1.1875 -1.015625,1.1875 -0.6875,0 -0.71875,-0.34375 -0.71875,-0.75 v -2.625 l -1.203125,0.09375 v 0.265625 c 0.609375,0 0.609375,0.015625 0.609375,0.71875 v 1.203125 c 0,0.578125 0,1.3125 1.265625,1.3125 0.75,0 1.046875,-0.578125 1.078125,-0.640625 H 3.296875 V 0.078125 L 4.484375,0 V -0.265625 C 3.9375,-0.265625 3.875,-0.3125 3.875,-0.703125 v -2.8125 z m 0,0"
               id="path89" />
          </g>
          <g
             id="use51"
             transform="translate(21.921227,10.759)">
            <path
               d="m 1.484375,-3.171875 h 1.1875 V -3.4375 h -1.1875 v -1.46875 h -0.25 c 0,0.734375 -0.328125,1.484375 -1.078125,1.515625 v 0.21875 H 0.875 V -1 c 0,0.9375 0.71875,1.078125 1.078125,1.078125 C 2.5,0.078125 2.8125,-0.390625 2.8125,-1 v -0.4375 h -0.25 v 0.421875 c 0,0.546875 -0.25,0.84375 -0.546875,0.84375 -0.53125,0 -0.53125,-0.6875 -0.53125,-0.8125 z m 0,0"
               id="path93" />
          </g>
        </g>
      </g>
      <g
         fill="#000000"
         fill-opacity="1"
         id="g59"
         transform="matrix(0.352778,0,0,0.352778,-0.170877,9.7028e-4)">
        <g
           id="use57"
           transform="translate(25.712999,8.9659996)">
          <path
             d="m 3.890625,2.90625 c 0,-0.03125 0,-0.0625 -0.203125,-0.265625 C 2.484375,1.4375 1.8125,-0.53125 1.8125,-2.96875 c 0,-2.328125 0.5625,-4.328125 1.953125,-5.734375 0.125,-0.109375 0.125,-0.125 0.125,-0.171875 0,-0.0625 -0.0625,-0.09375 -0.109375,-0.09375 -0.15625,0 -1.140625,0.859375 -1.71875,2.03125 -0.609375,1.21875 -0.890625,2.484375 -0.890625,3.96875 0,1.0625 0.171875,2.484375 0.78125,3.75 C 2.671875,2.21875 3.640625,3 3.78125,3 3.828125,3 3.890625,2.96875 3.890625,2.90625 Z m 0,0"
             id="path97" />
        </g>
      </g>
      <g
         fill="#000000"
         fill-opacity="1"
         id="g63"
         transform="matrix(0.352778,0,0,0.352778,-0.170877,9.7028e-4)">
        <g
           id="use61"
           transform="translate(30.264999,8.9659996)">
          <path
             d="M 2.40625,-4.8125 H 3.5 c 0.234375,0 0.34375,0 0.34375,-0.203125 0,-0.140625 -0.0625,-0.140625 -0.3125,-0.140625 H 2.484375 l 0.4375,-1.734375 C 2.96875,-7.0625 2.96875,-7.09375 2.96875,-7.171875 c 0,-0.1875 -0.140625,-0.296875 -0.296875,-0.296875 -0.109375,0 -0.375,0.03125 -0.46875,0.421875 l -0.46875,1.890625 h -1.125 c -0.234375,0 -0.34375,0 -0.34375,0.234375 0,0.109375 0.078125,0.109375 0.3125,0.109375 h 1.0625 L 0.84375,-1.65625 c -0.09375,0.421875 -0.125,0.546875 -0.125,0.703125 0,0.5625 0.390625,1.078125 1.0625,1.078125 1.203125,0 1.859375,-1.75 1.859375,-1.828125 0,-0.078125 -0.0625,-0.109375 -0.125,-0.109375 -0.03125,0 -0.078125,0 -0.09375,0.046875 C 3.40625,-1.75 3.390625,-1.75 3.3125,-1.546875 c -0.25,0.59375 -0.796875,1.421875 -1.5,1.421875 -0.359375,0 -0.375,-0.296875 -0.375,-0.5625 0,0 0,-0.234375 0.03125,-0.375 z m 0,0"
             id="path101" />
        </g>
      </g>
      <g
         fill="#000000"
         fill-opacity="1"
         id="g67"
         transform="matrix(0.352778,0,0,0.352778,-0.170877,9.7028e-4)">
        <g
           id="use65"
           transform="translate(34.492001,8.9659996)">
          <path
             d="M 3.375,-2.96875 C 3.375,-3.890625 3.25,-5.359375 2.578125,-6.75 1.875,-8.1875 0.890625,-8.96875 0.765625,-8.96875 c -0.046875,0 -0.109375,0.03125 -0.109375,0.09375 0,0.046875 0,0.0625 0.203125,0.265625 1.203125,1.203125 1.859375,3.1875 1.859375,5.625 0,2.3125 -0.5625,4.3125 -1.9375,5.71875 C 0.65625,2.84375 0.65625,2.875 0.65625,2.90625 0.65625,2.96875 0.71875,3 0.765625,3 0.921875,3 1.90625,2.140625 2.484375,0.96875 3.09375,-0.25 3.375,-1.546875 3.375,-2.96875 Z m 0,0"
             id="path105" />
        </g>
      </g>
    </g>
    <g
       inkscape:label=""
       transform="translate(35.395183,16.240086)"
       id="g887">
      <g
         fill="#000000"
         fill-opacity="1"
         id="g877"
         transform="matrix(0.352778,0,0,0.352778,-0.192925,-0.0044978)">
        <g
           id="g875"
           transform="translate(0,8.1689997)">
          <path
             d="m 5.96875,-4.828125 c 0,-0.03125 -0.046875,-0.125 -0.046875,-0.171875 0,-0.015625 0,-0.015625 0.203125,-0.171875 l 1.171875,-0.90625 c 1.59375,-1.25 2.125,-1.671875 2.953125,-1.734375 0.07813,-0.015625 0.203125,-0.015625 0.203125,-0.21875 0,-0.078125 -0.04687,-0.125 -0.140625,-0.125 -0.125,0 -0.265625,0.015625 -0.40625,0.015625 H 9.453125 c -0.375,0 -0.765625,-0.015625 -1.125,-0.015625 -0.078125,0 -0.21875,0 -0.21875,0.203125 0,0.125 0.078125,0.140625 0.15625,0.140625 0.125,0 0.28125,0.0625 0.28125,0.21875 0,0.25 -0.359375,0.53125 -0.453125,0.59375 l -4.6875,3.65625 1,-3.953125 C 4.5,-7.703125 4.53125,-7.8125 5.375,-7.8125 c 0.234375,0 0.34375,0 0.34375,-0.234375 0,-0.109375 -0.125,-0.109375 -0.1875,-0.109375 -0.21875,0 -0.46875,0.015625 -0.6875,0.015625 H 3.4375 c -0.21875,0 -0.484375,-0.015625 -0.703125,-0.015625 -0.09375,0 -0.21875,0 -0.21875,0.21875 0,0.125 0.109375,0.125 0.28125,0.125 0.734375,0 0.734375,0.09375 0.734375,0.21875 0,0.03125 0,0.09375 -0.046875,0.28125 l -1.625,6.421875 C 1.75,-0.46875 1.734375,-0.34375 0.890625,-0.34375 c -0.21875,0 -0.34375,0 -0.34375,0.21875 C 0.546875,0 0.65625,0 0.734375,0 0.953125,0 1.1875,-0.03125 1.421875,-0.03125 h 1.40625 C 3.046875,-0.03125 3.296875,0 3.53125,0 3.625,0 3.75,0 3.75,-0.234375 3.75,-0.34375 3.640625,-0.34375 3.46875,-0.34375 c -0.734375,0 -0.734375,-0.09375 -0.734375,-0.21875 0,-0.078125 0.078125,-0.375 0.125,-0.578125 l 0.46875,-1.84375 1.8125,-1.421875 c 0.34375,0.765625 0.984375,2.296875 1.46875,3.46875 0.03125,0.0625 0.0625,0.140625 0.0625,0.21875 0,0.359375 -0.484375,0.375 -0.59375,0.375 -0.109375,0 -0.21875,0 -0.21875,0.21875 C 5.859375,0 5.984375,0 6.03125,0 6.4375,0 6.890625,-0.03125 7.296875,-0.03125 H 7.875 C 8.0625,-0.03125 8.265625,0 8.4375,0 8.515625,0 8.640625,0 8.640625,-0.234375 8.640625,-0.34375 8.53125,-0.34375 8.421875,-0.34375 7.96875,-0.359375 7.8125,-0.453125 7.640625,-0.890625 Z m 0,0"
             id="path873" />
        </g>
      </g>
      <g
         clip-path="url(#clipPath6581)"
         id="g885"
         transform="matrix(0.352778,0,0,0.352778,-0.192925,-0.0044978)">
        <g
           fill="#000000"
           fill-opacity="1"
           id="g883">
          <g
             id="g881"
             transform="translate(9.9589996,9.9619999)">
            <path
               d="m 0.421875,0.96875 c -0.078125,0.25 -0.09375,0.3125 -0.40625,0.3125 -0.109375,0 -0.203125,0 -0.203125,0.15625 0,0.0625 0.0625,0.109375 0.109375,0.109375 0.078125,0 0.109375,-0.03125 0.703125,-0.03125 0.5625,0 0.734375,0.03125 0.796875,0.03125 0.03125,0 0.140625,0 0.140625,-0.15625 0,-0.109375 -0.109375,-0.109375 -0.203125,-0.109375 -0.375,0 -0.375,-0.046875 -0.375,-0.125 0,-0.046875 0.140625,-0.609375 0.375,-1.546875 0.109375,0.1875 0.359375,0.46875 0.78125,0.46875 0.984375,0 2,-1.125 2,-2.28125 0,-0.796875 -0.5,-1.3125 -1.140625,-1.3125 -0.484375,0 -0.859375,0.328125 -1.09375,0.5625 -0.171875,-0.5625 -0.703125,-0.5625 -0.78125,-0.5625 -0.28125,0 -0.484375,0.1875 -0.609375,0.4375 -0.1875,0.359375 -0.28125,0.765625 -0.28125,0.78125 0,0.078125 0.0625,0.109375 0.125,0.109375 0.109375,0 0.109375,-0.03125 0.171875,-0.25 0.09375,-0.40625 0.234375,-0.859375 0.5625,-0.859375 0.203125,0 0.265625,0.1875 0.265625,0.375 0,0.078125 -0.03125,0.28125 -0.046875,0.34375 z M 1.875,-2.453125 C 1.921875,-2.59375 1.921875,-2.609375 2.046875,-2.75 2.34375,-3.109375 2.6875,-3.296875 2.96875,-3.296875 c 0.40625,0 0.546875,0.390625 0.546875,0.75 0,0.296875 -0.171875,1.15625 -0.40625,1.625 -0.203125,0.421875 -0.59375,0.78125 -0.96875,0.78125 -0.53125,0 -0.671875,-0.625 -0.671875,-0.6875 0,-0.015625 0.015625,-0.09375 0.03125,-0.125 z m 0,0"
               id="path879" />
          </g>
        </g>
      </g>
    </g>
    <g
       inkscape:label=""
       transform="matrix(1.4047078,0,0,1.4047078,123.59811,14.56432)"
       id="g1094"
       style="stroke-width:0.711892">
      <g
         fill="#000000"
         fill-opacity="1"
         id="g1083"
         transform="matrix(0.352778,0,0,0.352778,-0.42168,0.0567531)"
         style="stroke-width:0.709506">
        <g
           id="use23"
           transform="translate(4.822,5.1360002)"
           style="stroke-width:0.711892">
          <path
             d="m 2.5,-5.078125 c 0,-0.21875 -0.015625,-0.21875 -0.234375,-0.21875 -0.328125,0.3125 -0.75,0.5 -1.5,0.5 v 0.265625 c 0.21875,0 0.640625,0 1.109375,-0.203125 v 4.078125 c 0,0.296875 -0.03125,0.390625 -0.78125,0.390625 H 0.8125 V 0 c 0.328125,-0.03125 1.015625,-0.03125 1.375,-0.03125 0.359375,0 1.046875,0 1.375,0.03125 V -0.265625 H 3.28125 c -0.75,0 -0.78125,-0.09375 -0.78125,-0.390625 z m 0,0"
             id="path45"
             style="stroke-width:0.711892" />
        </g>
      </g>
      <path
         fill="none"
         stroke-width="0.340284"
         stroke-linecap="butt"
         stroke-linejoin="miter"
         stroke="#000000"
         stroke-opacity="1"
         stroke-miterlimit="10"
         d="M 0,7.0163436 H 11.488281"
         id="path27"
         transform="scale(0.352778)" />
      <g
         clip-path="url(#clipPath4098)"
         id="g33"
         transform="matrix(0.352778,0,0,0.352778,-0.42168,0.0567531)"
         style="stroke-width:0.711892">
        <g
           fill="#000000"
           fill-opacity="1"
           id="g31"
           style="stroke-width:0.709506">
          <g
             id="use29"
             transform="translate(1.196,13.966)"
             style="stroke-width:0.711892">
            <path
               d="m 6.3125,-4.578125 c 0.09375,-0.390625 0.265625,-0.578125 0.84375,-0.59375 0.078125,0 0.140625,-0.0625 0.140625,-0.15625 0,-0.046875 -0.03125,-0.109375 -0.109375,-0.109375 -0.0625,0 -0.21875,0.015625 -0.796875,0.015625 -0.640625,0 -0.75,-0.015625 -0.828125,-0.015625 -0.125,0 -0.140625,0.078125 -0.140625,0.140625 0,0.109375 0.09375,0.125 0.171875,0.125 0.484375,0.015625 0.484375,0.21875 0.484375,0.328125 0,0.046875 0,0.09375 -0.03125,0.21875 l -0.875,3.484375 L 3.25,-5.296875 C 3.1875,-5.4375 3.171875,-5.4375 2.984375,-5.4375 H 1.9375 c -0.140625,0 -0.234375,0 -0.234375,0.140625 0,0.125 0.09375,0.125 0.25,0.125 0.078125,0 0.3125,0 0.5,0.046875 L 1.375,-0.859375 C 1.28125,-0.453125 1.078125,-0.28125 0.546875,-0.265625 0.5,-0.265625 0.390625,-0.25 0.390625,-0.109375 0.390625,-0.0625 0.4375,0 0.515625,0 0.546875,0 0.734375,-0.03125 1.3125,-0.03125 1.9375,-0.03125 2.0625,0 2.125,0 c 0.03125,0 0.15625,0 0.15625,-0.15625 0,-0.09375 -0.09375,-0.109375 -0.140625,-0.109375 -0.296875,0 -0.53125,-0.046875 -0.53125,-0.328125 0,-0.046875 0.03125,-0.15625 0.03125,-0.15625 l 1.03125,-4.171875 H 2.6875 l 2.21875,4.78125 C 4.953125,-0.015625 4.96875,0 5.046875,0 c 0.109375,0 0.125,-0.03125 0.15625,-0.171875 z m 0,0"
               id="path49"
               style="stroke-width:0.711892" />
          </g>
        </g>
      </g>
      <g
         clip-path="url(#clipPath2449)"
         id="g39"
         transform="matrix(0.352778,0,0,0.352778,-0.42168,0.0567531)"
         style="stroke-width:0.711892">
        <g
           fill="#000000"
           fill-opacity="1"
           id="g37"
           style="stroke-width:0.709506">
          <g
             id="use35"
             transform="translate(8.7620163,13.966)"
             style="stroke-width:0.711892">
            <path
               d="m 3.21875,-3 c -0.1875,0.03125 -0.359375,0.171875 -0.359375,0.375 0,0.140625 0.09375,0.25 0.265625,0.25 0.125,0 0.375,-0.09375 0.375,-0.453125 0,-0.484375 -0.515625,-0.6875 -1.015625,-0.6875 -1.0625,0 -1.40625,0.765625 -1.40625,1.171875 0,0.078125 0,0.359375 0.296875,0.578125 0.1875,0.140625 0.328125,0.171875 0.734375,0.25 0.28125,0.0625 0.734375,0.140625 0.734375,0.546875 0,0.21875 -0.15625,0.46875 -0.375,0.625 -0.296875,0.1875 -0.6875,0.203125 -0.8125,0.203125 -0.1875,0 -0.734375,-0.03125 -0.9375,-0.359375 0.40625,-0.015625 0.46875,-0.34375 0.46875,-0.4375 0,-0.234375 -0.21875,-0.296875 -0.3125,-0.296875 -0.125,0 -0.453125,0.109375 -0.453125,0.546875 0,0.46875 0.5,0.765625 1.234375,0.765625 1.390625,0 1.6875,-0.984375 1.6875,-1.3125 0,-0.71875 -0.78125,-0.875 -1.078125,-0.921875 C 1.875,-2.234375 1.5625,-2.28125 1.5625,-2.625 c 0,-0.140625 0.140625,-0.671875 0.921875,-0.671875 0.296875,0 0.609375,0.09375 0.734375,0.296875 z m 0,0"
               id="path53"
               style="stroke-width:0.711892" />
          </g>
        </g>
      </g>
    </g>
    <g
       inkscape:label=""
       transform="matrix(1.2929541,0,0,1.2929541,82.11294,12.920578)"
       id="g2509"
       style="stroke-width:0.773424">
      <g
         fill="#000000"
         fill-opacity="1"
         id="g2458"
         transform="matrix(0.352778,0,0,0.352778,-0.42168,0.00308679)"
         style="stroke-width:0.578043">
        <g
           id="use37"
           transform="translate(15.457,4.085)"
           style="stroke-width:0.773424">
          <path
             d="m 3.625,-2.40625 c 0,0 -0.03125,-0.0625 -0.03125,-0.078125 0,0 0.015625,0 0.109375,-0.078125 0.609375,-0.40625 1.40625,-0.96875 1.75,-1.125 0.203125,-0.09375 0.375,-0.15625 0.5625,-0.15625 C 6.078125,-3.859375 6.15625,-3.859375 6.15625,-4 6.15625,-4.046875 6.125,-4.078125 6.078125,-4.078125 5.9375,-4.078125 5.78125,-4.0625 5.625,-4.0625 c -0.078125,0 -0.28125,0 -0.375,0 -0.078125,-0.015625 -0.296875,-0.03125 -0.359375,-0.03125 -0.03125,0 -0.140625,0 -0.140625,0.15625 0,0.078125 0.09375,0.09375 0.109375,0.09375 C 5,-3.84375 5,-3.796875 5,-3.765625 5,-3.6875 4.875,-3.59375 4.84375,-3.578125 4.828125,-3.5625 4.828125,-3.5625 4.8125,-3.546875 c 0,0 -0.0625,0.03125 -0.078125,0.046875 l -2.59375,1.765625 0.46875,-1.875 c 0.046875,-0.1875 0.046875,-0.234375 0.53125,-0.234375 0.109375,0 0.1875,0 0.1875,-0.15625 0,-0.03125 -0.015625,-0.09375 -0.09375,-0.09375 -0.125,0 -0.265625,0.03125 -0.40625,0.03125 -0.125,0 -0.265625,0 -0.40625,0 -0.125,0 -0.265625,0 -0.40625,0 -0.125,0 -0.28125,-0.03125 -0.40625,-0.03125 -0.046875,0 -0.140625,0 -0.140625,0.15625 0,0.09375 0.078125,0.09375 0.1875,0.09375 0.109375,0 0.265625,0 0.390625,0.03125 0,0.0625 0,0.109375 -0.03125,0.203125 L 1.234375,-0.5 c -0.046875,0.21875 -0.0625,0.265625 -0.515625,0.265625 -0.125,0 -0.203125,0 -0.203125,0.140625 0,0.046875 0.03125,0.09375 0.09375,0.09375 0.125,0 0.265625,-0.015625 0.40625,-0.015625 0.140625,0 0.265625,-0.015625 0.390625,-0.015625 0.140625,0 0.28125,0.015625 0.421875,0.015625 C 1.953125,-0.015625 2.109375,0 2.234375,0 2.28125,0 2.375,0 2.375,-0.15625 c 0,-0.078125 -0.078125,-0.078125 -0.203125,-0.078125 -0.015625,0 -0.125,0 -0.234375,-0.015625 C 1.828125,-0.265625 1.796875,-0.265625 1.796875,-0.328125 1.796875,-0.359375 1.828125,-0.5 1.84375,-0.59375 1.875,-0.6875 1.875,-0.703125 1.921875,-0.84375 2,-1.15625 2,-1.171875 2.0625,-1.453125 l 1.046875,-0.703125 0.984375,1.75 c 0,0.078125 0,0.15625 -0.28125,0.171875 -0.0625,0 -0.15625,0 -0.15625,0.140625 C 3.65625,-0.046875 3.6875,0 3.765625,0 3.9375,0 4.375,-0.03125 4.546875,-0.03125 c 0.109375,0 0.203125,0.015625 0.3125,0.015625 C 4.953125,-0.015625 5.0625,0 5.171875,0 c 0.0625,0 0.125,-0.03125 0.125,-0.15625 0,-0.078125 -0.09375,-0.078125 -0.140625,-0.078125 C 4.84375,-0.25 4.796875,-0.328125 4.71875,-0.453125 Z m 0,0"
             id="path2455"
             style="stroke-width:0.773424" />
        </g>
      </g>
      <g
         fill="#000000"
         fill-opacity="1"
         id="g43"
         transform="matrix(0.352778,0,0,0.352778,-0.42168,0.00308679)"
         style="stroke-width:0.578043">
        <g
           id="use41"
           transform="translate(21.587999,5.0809999)"
           style="stroke-width:0.773424">
          <path
             d="M 2.828125,-0.515625 C 2.796875,-0.390625 2.75,-0.171875 2.75,-0.140625 2.75,0 2.84375,0.0625 2.953125,0.0625 c 0.109375,0 0.21875,-0.078125 0.265625,-0.171875 0,-0.03125 0.0625,-0.234375 0.09375,-0.359375 L 3.4375,-1 C 3.484375,-1.15625 3.5,-1.265625 3.546875,-1.40625 3.59375,-1.609375 3.8125,-1.921875 4.03125,-2.140625 c 0.109375,-0.125 0.375,-0.296875 0.703125,-0.296875 0.375,0 0.375,0.296875 0.375,0.421875 0,0.34375 -0.25,0.984375 -0.359375,1.25 -0.046875,0.109375 -0.078125,0.203125 -0.078125,0.3125 0,0.296875 0.265625,0.515625 0.59375,0.515625 0.609375,0 0.90625,-0.796875 0.90625,-0.921875 0,-0.015625 0,-0.09375 -0.109375,-0.09375 -0.078125,0 -0.09375,0.03125 -0.125,0.15625 -0.109375,0.34375 -0.359375,0.65625 -0.640625,0.65625 -0.078125,0 -0.171875,-0.03125 -0.171875,-0.21875 0,-0.109375 0.046875,-0.21875 0.09375,-0.34375 C 5.296875,-0.875 5.578125,-1.59375 5.578125,-1.9375 c 0,-0.5 -0.359375,-0.703125 -0.828125,-0.703125 -0.328125,0 -0.71875,0.125 -1.109375,0.625 -0.03125,-0.4375 -0.390625,-0.625 -0.828125,-0.625 -0.296875,0 -0.671875,0.09375 -1.0625,0.5625 -0.03125,-0.453125 -0.453125,-0.5625 -0.671875,-0.5625 -0.234375,0 -0.390625,0.140625 -0.484375,0.328125 -0.15625,0.25 -0.234375,0.578125 -0.234375,0.59375 0,0.0625 0.0625,0.078125 0.109375,0.078125 0.09375,0 0.109375,-0.03125 0.140625,-0.125 C 0.71875,-2.25 0.875,-2.4375 1.0625,-2.4375 c 0.203125,0 0.21875,0.203125 0.21875,0.296875 0,0.09375 -0.0625,0.34375 -0.109375,0.5 C 1.125,-1.46875 1.078125,-1.234375 1.046875,-1.09375 1,-0.953125 0.96875,-0.796875 0.921875,-0.640625 0.875,-0.46875 0.8125,-0.171875 0.8125,-0.140625 0.8125,0 0.90625,0.0625 1.015625,0.0625 c 0.109375,0 0.21875,-0.078125 0.265625,-0.171875 0,-0.03125 0.0625,-0.234375 0.09375,-0.359375 L 1.5,-1 c 0.046875,-0.15625 0.0625,-0.265625 0.109375,-0.40625 0.046875,-0.203125 0.25,-0.515625 0.484375,-0.734375 0.109375,-0.125 0.375,-0.296875 0.6875,-0.296875 0.390625,0 0.390625,0.296875 0.390625,0.421875 0,0.140625 -0.0625,0.375 -0.109375,0.5625 z m 0,0"
             id="path2460"
             style="stroke-width:0.773424" />
        </g>
      </g>
      <path
         fill="none"
         stroke-width="0.277658"
         stroke-linecap="butt"
         stroke-linejoin="miter"
         stroke="#000000"
         stroke-opacity="1"
         stroke-miterlimit="10"
         d="M 14.261719,5.6259375 H 27.429687"
         id="path2464"
         transform="scale(0.352778)" />
      <g
         fill="#000000"
         fill-opacity="1"
         id="g49"
         transform="matrix(0.352778,0,0,0.352778,-0.42168,0.00308679)"
         style="stroke-width:0.578043">
        <g
           id="g2468"
           transform="translate(19.273001,10.737)"
           style="stroke-width:0.773424">
          <path
             d="M 2.609375,-3.640625 C 2.65625,-3.84375 2.65625,-3.84375 2.90625,-3.84375 H 3.5 c 0.59375,0 1.03125,0.140625 1.03125,0.625 0,0.203125 -0.09375,0.640625 -0.5,0.859375 -0.234375,0.140625 -0.5625,0.21875 -0.96875,0.21875 H 2.21875 Z m 1.21875,1.609375 c 0.578125,-0.140625 1.34375,-0.546875 1.34375,-1.125 0,-0.5 -0.625,-0.9375 -1.5625,-0.9375 H 1.6875 c -0.125,0 -0.203125,0 -0.203125,0.15625 0,0.09375 0.078125,0.09375 0.1875,0.09375 0.109375,0 0.265625,0 0.390625,0.03125 0,0.0625 0,0.109375 -0.03125,0.203125 L 1.25,-0.5 c -0.046875,0.21875 -0.0625,0.265625 -0.515625,0.265625 -0.125,0 -0.140625,0 -0.171875,0.015625 C 0.53125,-0.203125 0.515625,-0.125 0.515625,-0.078125 0.515625,-0.0625 0.53125,0 0.609375,0 c 0.1875,0 0.625,-0.03125 0.796875,-0.03125 0.375,0 -0.015625,0 0.421875,0.015625 C 1.953125,-0.015625 2.09375,0 2.21875,0 2.265625,0 2.296875,0 2.328125,-0.046875 2.34375,-0.0625 2.359375,-0.125 2.359375,-0.15625 2.34375,-0.234375 2.296875,-0.234375 2.15625,-0.234375 2.078125,-0.234375 2,-0.25 1.921875,-0.25 1.8125,-0.265625 1.78125,-0.265625 1.78125,-0.328125 c 0,-0.03125 0,-0.046875 0.015625,-0.109375 l 0.375,-1.5 h 0.875 c 0.515625,0 0.78125,0.234375 0.78125,0.515625 0,0.078125 -0.046875,0.28125 -0.09375,0.421875 -0.0625,0.265625 -0.078125,0.359375 -0.078125,0.46875 0,0.4375 0.40625,0.65625 0.921875,0.65625 0.5625,0 0.828125,-0.5625 0.828125,-0.703125 0,-0.03125 -0.03125,-0.09375 -0.109375,-0.09375 -0.078125,0 -0.109375,0.046875 -0.109375,0.09375 -0.140625,0.40625 -0.4375,0.5 -0.578125,0.5 -0.15625,0 -0.296875,-0.046875 -0.296875,-0.40625 0,-0.140625 0.046875,-0.46875 0.0625,-0.625 0,-0.0625 0.03125,-0.1875 0.03125,-0.234375 0,-0.390625 -0.3125,-0.59375 -0.578125,-0.6875 z m 0,0"
             id="path2466"
             style="stroke-width:0.773424" />
        </g>
      </g>
      <path
         fill="none"
         stroke-width="0.369696"
         stroke-linecap="butt"
         stroke-linejoin="miter"
         stroke="#000000"
         stroke-opacity="1"
         stroke-miterlimit="10"
         d="M 0,11.461875 H 41.691406"
         id="path51"
         transform="scale(0.352778)" />
      <g
         fill="#000000"
         fill-opacity="1"
         id="g2474"
         transform="matrix(0.352778,0,0,0.352778,-0.42168,0.00308679)"
         style="stroke-width:0.578043">
        <g
           id="use53"
           transform="translate(1.196,22.289)"
           style="stroke-width:0.773424">
          <path
             d="m 4.5,-4.84375 c 0.0625,-0.265625 0.078125,-0.328125 0.5,-0.328125 0.109375,0 0.21875,0 0.21875,-0.15625 0,-0.015625 -0.015625,-0.109375 -0.125,-0.109375 -0.046875,0 -0.15625,0.015625 -0.921875,0.015625 -0.171875,0 -0.5,0 -0.546875,0 C 3.53125,-5.4375 3.140625,-5.4375 3.046875,-5.4375 c -0.046875,0 -0.15625,0 -0.15625,0.140625 0,0.125 0.078125,0.125 0.265625,0.125 0.015625,0 0.21875,0 0.421875,0.015625 0.21875,0.015625 0.265625,0.046875 0.265625,0.140625 0,0.03125 -0.015625,0.03125 -0.03125,0.140625 l -0.921875,3.703125 c -0.171875,0.65625 -0.6875,1.109375 -1.15625,1.109375 -0.171875,0 -0.625,-0.046875 -0.78125,-0.421875 0.546875,0 0.578125,-0.46875 0.578125,-0.5 0,-0.234375 -0.171875,-0.34375 -0.359375,-0.34375 -0.1875,0 -0.53125,0.15625 -0.53125,0.625 0,0.484375 0.4375,0.875 1.109375,0.875 0.765625,0 1.625,-0.515625 1.8125,-1.3125 z m 0,0"
             id="path109"
             style="stroke-width:0.773424" />
        </g>
      </g>
      <g
         fill="#000000"
         fill-opacity="1"
         id="g2479"
         transform="matrix(0.352778,0,0,0.352778,-0.42168,0.00308679)"
         style="stroke-width:0.578043">
        <g
           id="g2477"
           transform="translate(6.5710349,22.289)"
           style="stroke-width:0.773424">
          <path
             d="m 3.21875,-3 c -0.1875,0.03125 -0.359375,0.171875 -0.359375,0.375 0,0.140625 0.09375,0.25 0.265625,0.25 0.125,0 0.375,-0.09375 0.375,-0.453125 0,-0.484375 -0.515625,-0.6875 -1.015625,-0.6875 -1.0625,0 -1.40625,0.765625 -1.40625,1.171875 0,0.078125 0,0.359375 0.296875,0.578125 0.1875,0.140625 0.328125,0.171875 0.734375,0.25 0.28125,0.0625 0.734375,0.140625 0.734375,0.546875 0,0.21875 -0.15625,0.46875 -0.375,0.625 -0.296875,0.1875 -0.6875,0.203125 -0.8125,0.203125 -0.1875,0 -0.734375,-0.03125 -0.9375,-0.359375 0.40625,-0.015625 0.46875,-0.34375 0.46875,-0.4375 0,-0.234375 -0.21875,-0.296875 -0.3125,-0.296875 -0.125,0 -0.453125,0.109375 -0.453125,0.546875 0,0.46875 0.5,0.765625 1.234375,0.765625 1.390625,0 1.6875,-0.984375 1.6875,-1.3125 0,-0.71875 -0.78125,-0.875 -1.078125,-0.921875 C 1.875,-2.234375 1.5625,-2.28125 1.5625,-2.625 c 0,-0.140625 0.140625,-0.671875 0.921875,-0.671875 0.296875,0 0.609375,0.09375 0.734375,0.296875 z m 0,0"
             id="path113"
             style="stroke-width:0.773424" />
        </g>
      </g>
      <g
         fill="#000000"
         fill-opacity="1"
         id="g2484"
         transform="matrix(0.352778,0,0,0.352778,-0.42168,0.00308679)"
         style="stroke-width:0.578043">
        <g
           id="g2482"
           transform="translate(10.486,22.289)"
           style="stroke-width:0.773424">
          <path
             d="M 3.46875,-1.8125 H 5.8125 c 0.109375,0 0.296875,0 0.296875,-0.171875 0,-0.1875 -0.1875,-0.1875 -0.296875,-0.1875 H 3.46875 V -4.53125 c 0,-0.109375 0,-0.28125 -0.171875,-0.28125 -0.1875,0 -0.1875,0.171875 -0.1875,0.28125 v 2.359375 H 0.75 c -0.109375,0 -0.28125,0 -0.28125,0.1875 0,0.171875 0.171875,0.171875 0.28125,0.171875 h 2.359375 v 2.359375 c 0,0.109375 0,0.28125 0.1875,0.28125 0.171875,0 0.171875,-0.171875 0.171875,-0.28125 z m 0,0"
             id="path117"
             style="stroke-width:0.773424" />
        </g>
      </g>
      <g
         fill="#000000"
         fill-opacity="1"
         id="g2489"
         transform="matrix(0.352778,0,0,0.352778,-0.42168,0.00308679)"
         style="stroke-width:0.578043">
        <g
           id="g2487"
           transform="translate(17.072001,22.289)"
           style="stroke-width:0.773424">
          <path
             d="m 3.265625,-3.046875 c -0.328125,0.03125 -0.4375,0.28125 -0.4375,0.4375 0,0.234375 0.203125,0.296875 0.3125,0.296875 0.03125,0 0.4375,-0.03125 0.4375,-0.515625 0,-0.484375 -0.515625,-0.6875 -1,-0.6875 -1.125,0 -2.234375,1.09375 -2.234375,2.21875 0,0.75 0.53125,1.375 1.40625,1.375 1.265625,0 1.921875,-0.796875 1.921875,-0.90625 0,-0.078125 -0.078125,-0.125 -0.125,-0.125 -0.046875,0 -0.078125,0.015625 -0.109375,0.0625 -0.625,0.75 -1.53125,0.75 -1.671875,0.75 C 1.34375,-0.140625 1,-0.40625 1,-1.015625 c 0,-0.34375 0.15625,-1.1875 0.53125,-1.6875 0.34375,-0.4375 0.75,-0.59375 1.0625,-0.59375 0.09375,0 0.453125,0.015625 0.671875,0.25 z m 0,0"
             id="path121"
             style="stroke-width:0.773424" />
        </g>
      </g>
      <g
         fill="#000000"
         fill-opacity="1"
         id="g71"
         transform="matrix(0.352778,0,0,0.352778,-0.42168,0.00308679)"
         style="stroke-width:0.578043">
        <g
           id="use69"
           transform="translate(20.74,22.289)"
           style="stroke-width:0.773424">
          <path
             d="M 3.46875,-1.8125 H 5.8125 c 0.109375,0 0.296875,0 0.296875,-0.171875 0,-0.1875 -0.1875,-0.1875 -0.296875,-0.1875 H 3.46875 V -4.53125 c 0,-0.109375 0,-0.28125 -0.171875,-0.28125 -0.1875,0 -0.1875,0.171875 -0.1875,0.28125 v 2.359375 H 0.75 c -0.109375,0 -0.28125,0 -0.28125,0.1875 0,0.171875 0.171875,0.171875 0.28125,0.171875 h 2.359375 v 2.359375 c 0,0.109375 0,0.28125 0.1875,0.28125 0.171875,0 0.171875,-0.171875 0.171875,-0.28125 z m 0,0"
             id="path125"
             style="stroke-width:0.773424" />
        </g>
      </g>
      <g
         fill="#000000"
         fill-opacity="1"
         id="g75"
         transform="matrix(0.352778,0,0,0.352778,-0.42168,0.00308679)"
         style="stroke-width:0.578043">
        <g
           id="use73"
           transform="translate(28.521999,18.083)"
           style="stroke-width:0.773424">
          <path
             d="m 3.625,-2.40625 c 0,0 -0.03125,-0.0625 -0.03125,-0.078125 0,0 0.015625,0 0.109375,-0.078125 0.609375,-0.40625 1.40625,-0.96875 1.75,-1.125 0.203125,-0.09375 0.375,-0.15625 0.5625,-0.15625 C 6.078125,-3.859375 6.15625,-3.859375 6.15625,-4 6.15625,-4.046875 6.125,-4.078125 6.078125,-4.078125 5.9375,-4.078125 5.78125,-4.0625 5.625,-4.0625 c -0.078125,0 -0.28125,0 -0.375,0 -0.078125,-0.015625 -0.296875,-0.03125 -0.359375,-0.03125 -0.03125,0 -0.140625,0 -0.140625,0.15625 0,0.078125 0.09375,0.09375 0.109375,0.09375 C 5,-3.84375 5,-3.796875 5,-3.765625 5,-3.6875 4.875,-3.59375 4.84375,-3.578125 4.828125,-3.5625 4.828125,-3.5625 4.8125,-3.546875 c 0,0 -0.0625,0.03125 -0.078125,0.046875 l -2.59375,1.765625 0.46875,-1.875 c 0.046875,-0.1875 0.046875,-0.234375 0.53125,-0.234375 0.109375,0 0.1875,0 0.1875,-0.15625 0,-0.03125 -0.015625,-0.09375 -0.09375,-0.09375 -0.125,0 -0.265625,0.03125 -0.40625,0.03125 -0.125,0 -0.265625,0 -0.40625,0 -0.125,0 -0.265625,0 -0.40625,0 -0.125,0 -0.28125,-0.03125 -0.40625,-0.03125 -0.046875,0 -0.140625,0 -0.140625,0.15625 0,0.09375 0.078125,0.09375 0.1875,0.09375 0.109375,0 0.265625,0 0.390625,0.03125 0,0.0625 0,0.109375 -0.03125,0.203125 L 1.234375,-0.5 c -0.046875,0.21875 -0.0625,0.265625 -0.515625,0.265625 -0.125,0 -0.203125,0 -0.203125,0.140625 0,0.046875 0.03125,0.09375 0.09375,0.09375 0.125,0 0.265625,-0.015625 0.40625,-0.015625 0.140625,0 0.265625,-0.015625 0.390625,-0.015625 0.140625,0 0.28125,0.015625 0.421875,0.015625 C 1.953125,-0.015625 2.109375,0 2.234375,0 2.28125,0 2.375,0 2.375,-0.15625 c 0,-0.078125 -0.078125,-0.078125 -0.203125,-0.078125 -0.015625,0 -0.125,0 -0.234375,-0.015625 C 1.828125,-0.265625 1.796875,-0.265625 1.796875,-0.328125 1.796875,-0.359375 1.828125,-0.5 1.84375,-0.59375 1.875,-0.6875 1.875,-0.703125 1.921875,-0.84375 2,-1.15625 2,-1.171875 2.0625,-1.453125 l 1.046875,-0.703125 0.984375,1.75 c 0,0.078125 0,0.15625 -0.28125,0.171875 -0.0625,0 -0.15625,0 -0.15625,0.140625 C 3.65625,-0.046875 3.6875,0 3.765625,0 3.9375,0 4.375,-0.03125 4.546875,-0.03125 c 0.109375,0 0.203125,0.015625 0.3125,0.015625 C 4.953125,-0.015625 5.0625,0 5.171875,0 c 0.0625,0 0.125,-0.03125 0.125,-0.15625 0,-0.078125 -0.09375,-0.078125 -0.140625,-0.078125 C 4.84375,-0.25 4.796875,-0.328125 4.71875,-0.453125 Z m 0,0"
             id="path129"
             style="stroke-width:0.773424" />
        </g>
      </g>
      <g
         fill="#000000"
         fill-opacity="1"
         id="g79"
         transform="matrix(0.352778,0,0,0.352778,-0.42168,0.00308679)"
         style="stroke-width:0.578043">
        <g
           id="use77"
           transform="translate(35.067001,16.024)"
           style="stroke-width:0.773424">
          <path
             d="M 3.21875,-1.125 H 3 C 2.984375,-1.03125 2.921875,-0.640625 2.84375,-0.578125 2.796875,-0.53125 2.3125,-0.53125 2.21875,-0.53125 H 1.109375 L 1.875,-1.15625 C 2.078125,-1.328125 2.609375,-1.703125 2.796875,-1.890625 2.96875,-2.0625 3.21875,-2.375 3.21875,-2.796875 c 0,-0.75 -0.671875,-1.1875 -1.484375,-1.1875 -0.765625,0 -1.296875,0.515625 -1.296875,1.078125 0,0.296875 0.25,0.34375 0.3125,0.34375 0.15625,0 0.328125,-0.109375 0.328125,-0.328125 C 1.078125,-3.015625 1,-3.21875 0.734375,-3.21875 0.875,-3.515625 1.234375,-3.75 1.65625,-3.75 c 0.625,0 0.953125,0.46875 0.953125,0.953125 0,0.421875 -0.28125,0.859375 -0.6875,1.25 L 0.5,-0.25 C 0.4375,-0.1875 0.4375,-0.1875 0.4375,0 h 2.59375 z m 0,0"
             id="path133"
             style="stroke-width:0.773424" />
        </g>
      </g>
      <g
         fill="#000000"
         fill-opacity="1"
         id="g83"
         transform="matrix(0.352778,0,0,0.352778,-0.42168,0.00308679)"
         style="stroke-width:0.578043">
        <g
           id="use81"
           transform="translate(34.653,19.759001)"
           style="stroke-width:0.773424">
          <path
             d="M 2.828125,-0.515625 C 2.796875,-0.390625 2.75,-0.171875 2.75,-0.140625 2.75,0 2.84375,0.0625 2.953125,0.0625 c 0.109375,0 0.21875,-0.078125 0.265625,-0.171875 0,-0.03125 0.0625,-0.234375 0.09375,-0.359375 L 3.4375,-1 C 3.484375,-1.15625 3.5,-1.265625 3.546875,-1.40625 3.59375,-1.609375 3.8125,-1.921875 4.03125,-2.140625 c 0.109375,-0.125 0.375,-0.296875 0.703125,-0.296875 0.375,0 0.375,0.296875 0.375,0.421875 0,0.34375 -0.25,0.984375 -0.359375,1.25 -0.046875,0.109375 -0.078125,0.203125 -0.078125,0.3125 0,0.296875 0.265625,0.515625 0.59375,0.515625 0.609375,0 0.90625,-0.796875 0.90625,-0.921875 0,-0.015625 0,-0.09375 -0.109375,-0.09375 -0.078125,0 -0.09375,0.03125 -0.125,0.15625 -0.109375,0.34375 -0.359375,0.65625 -0.640625,0.65625 -0.078125,0 -0.171875,-0.03125 -0.171875,-0.21875 0,-0.109375 0.046875,-0.21875 0.09375,-0.34375 C 5.296875,-0.875 5.578125,-1.59375 5.578125,-1.9375 c 0,-0.5 -0.359375,-0.703125 -0.828125,-0.703125 -0.328125,0 -0.71875,0.125 -1.109375,0.625 -0.03125,-0.4375 -0.390625,-0.625 -0.828125,-0.625 -0.296875,0 -0.671875,0.09375 -1.0625,0.5625 -0.03125,-0.453125 -0.453125,-0.5625 -0.671875,-0.5625 -0.234375,0 -0.390625,0.140625 -0.484375,0.328125 -0.15625,0.25 -0.234375,0.578125 -0.234375,0.59375 0,0.0625 0.0625,0.078125 0.109375,0.078125 0.09375,0 0.109375,-0.03125 0.140625,-0.125 C 0.71875,-2.25 0.875,-2.4375 1.0625,-2.4375 c 0.203125,0 0.21875,0.203125 0.21875,0.296875 0,0.09375 -0.0625,0.34375 -0.109375,0.5 C 1.125,-1.46875 1.078125,-1.234375 1.046875,-1.09375 1,-0.953125 0.96875,-0.796875 0.921875,-0.640625 0.875,-0.46875 0.8125,-0.171875 0.8125,-0.140625 0.8125,0 0.90625,0.0625 1.015625,0.0625 c 0.109375,0 0.21875,-0.078125 0.265625,-0.171875 0,-0.03125 0.0625,-0.234375 0.09375,-0.359375 L 1.5,-1 c 0.046875,-0.15625 0.0625,-0.265625 0.109375,-0.40625 0.046875,-0.203125 0.25,-0.515625 0.484375,-0.734375 0.109375,-0.125 0.375,-0.296875 0.6875,-0.296875 0.390625,0 0.390625,0.296875 0.390625,0.421875 0,0.140625 -0.0625,0.375 -0.109375,0.5625 z m 0,0"
             id="path137"
             style="stroke-width:0.773424" />
        </g>
      </g>
      <path
         fill="none"
         stroke-width="0.277658"
         stroke-linecap="butt"
         stroke-linejoin="miter"
         stroke="#000000"
         stroke-opacity="1"
         stroke-miterlimit="10"
         d="M 27.328125,20.305625 H 40.492187"
         id="path2503"
         transform="scale(0.352778)" />
      <g
         clip-path="url(#clipPath6229)"
         id="g91"
         transform="matrix(0.352778,0,0,0.352778,-0.42168,0.00308679)"
         style="stroke-width:0.773424">
        <g
           fill="#000000"
           fill-opacity="1"
           id="g89"
           style="stroke-width:0.578043">
          <g
             id="use87"
             transform="translate(32.339001,25.415001)"
             style="stroke-width:0.773424">
            <path
               d="M 2.609375,-3.640625 C 2.65625,-3.84375 2.65625,-3.84375 2.90625,-3.84375 H 3.5 c 0.59375,0 1.03125,0.140625 1.03125,0.625 0,0.203125 -0.09375,0.640625 -0.5,0.859375 -0.234375,0.140625 -0.5625,0.21875 -0.96875,0.21875 H 2.21875 Z m 1.21875,1.609375 c 0.578125,-0.140625 1.34375,-0.546875 1.34375,-1.125 0,-0.5 -0.625,-0.9375 -1.5625,-0.9375 H 1.6875 c -0.125,0 -0.203125,0 -0.203125,0.15625 0,0.09375 0.078125,0.09375 0.1875,0.09375 0.109375,0 0.265625,0 0.390625,0.03125 0,0.0625 0,0.109375 -0.03125,0.203125 L 1.25,-0.5 c -0.046875,0.21875 -0.0625,0.265625 -0.515625,0.265625 -0.125,0 -0.140625,0 -0.171875,0.015625 C 0.53125,-0.203125 0.515625,-0.125 0.515625,-0.078125 0.515625,-0.0625 0.53125,0 0.609375,0 c 0.1875,0 0.625,-0.03125 0.796875,-0.03125 0.375,0 -0.015625,0 0.421875,0.015625 C 1.953125,-0.015625 2.09375,0 2.21875,0 2.265625,0 2.296875,0 2.328125,-0.046875 2.34375,-0.0625 2.359375,-0.125 2.359375,-0.15625 2.34375,-0.234375 2.296875,-0.234375 2.15625,-0.234375 2.078125,-0.234375 2,-0.25 1.921875,-0.25 1.8125,-0.265625 1.78125,-0.265625 1.78125,-0.328125 c 0,-0.03125 0,-0.046875 0.015625,-0.109375 l 0.375,-1.5 h 0.875 c 0.515625,0 0.78125,0.234375 0.78125,0.515625 0,0.078125 -0.046875,0.28125 -0.09375,0.421875 -0.0625,0.265625 -0.078125,0.359375 -0.078125,0.46875 0,0.4375 0.40625,0.65625 0.921875,0.65625 0.5625,0 0.828125,-0.5625 0.828125,-0.703125 0,-0.03125 -0.03125,-0.09375 -0.109375,-0.09375 -0.078125,0 -0.109375,0.046875 -0.109375,0.09375 -0.140625,0.40625 -0.4375,0.5 -0.578125,0.5 -0.15625,0 -0.296875,-0.046875 -0.296875,-0.40625 0,-0.140625 0.046875,-0.46875 0.0625,-0.625 0,-0.0625 0.03125,-0.1875 0.03125,-0.234375 0,-0.390625 -0.3125,-0.59375 -0.578125,-0.6875 z m 0,0"
               id="path141"
               style="stroke-width:0.773424" />
          </g>
        </g>
      </g>
    </g>
    <g
       inkscape:label=""
       transform="matrix(0.81,0,0,0.81,20.413296,17.119077)"
       id="g3208"
       style="stroke-width:1.23457">
      <g
         clip-path="url(#clipPath7021)"
         id="g3206"
         transform="matrix(0.352778,0,0,0.352778,-0.225998,-1.32219e-4)"
         style="stroke-width:1.23457">
        <g
           fill="#000000"
           fill-opacity="1"
           id="g3204"
           style="stroke-width:1.37174">
          <g
             id="g3202"
             transform="translate(0,6.8909998)"
             style="stroke-width:1.23457">
            <path
               d="M 4.765625,-2.765625 H 8.0625 c 0.171875,0 0.390625,0 0.390625,-0.203125 0,-0.234375 -0.203125,-0.234375 -0.390625,-0.234375 H 4.765625 V -6.5 c 0,-0.171875 0,-0.390625 -0.21875,-0.390625 -0.21875,0 -0.21875,0.203125 -0.21875,0.390625 v 3.296875 H 1.03125 c -0.171875,0 -0.390625,0 -0.390625,0.21875 0,0.21875 0.203125,0.21875 0.390625,0.21875 H 4.328125 V 0.53125 c 0,0.171875 0,0.390625 0.21875,0.390625 0.21875,0 0.21875,-0.203125 0.21875,-0.390625 z m 0,0"
               id="path3200"
               style="stroke-width:1.23457" />
          </g>
        </g>
      </g>
    </g>
    <g
       inkscape:label=""
       transform="matrix(0.81,0,0,0.81,22.826713,20.887667)"
       id="g3548"
       style="stroke-width:1.23457">
      <g
         fill="#000000"
         fill-opacity="1"
         id="g12"
         transform="matrix(0.352778,0,0,0.352778,-0.347266,-1.31926)"
         style="stroke-width:1.37174">
        <g
           id="use10"
           transform="translate(0,6.974)"
           style="stroke-width:1.23457">
          <path
             d="m 7.875,-2.75 c 0.203125,0 0.421875,0 0.421875,-0.234375 0,-0.25 -0.21875,-0.25 -0.421875,-0.25 H 1.40625 c -0.203125,0 -0.421875,0 -0.421875,0.25 0,0.234375 0.21875,0.234375 0.421875,0.234375 z m 0,0"
             id="path18"
             style="stroke-width:1.23457" />
        </g>
      </g>
    </g>
    <path
       style="fill:none;stroke:#000000;stroke-width:0.264583px;stroke-linecap:butt;stroke-linejoin:miter;stroke-opacity:1;marker-end:url(#Arrow2)"
       d="M 1.4256691,18.267876 H 19.54881"
       id="path3556" />
    <path
       style="fill:none;stroke:#000000;stroke-width:0.264583px;stroke-linecap:butt;stroke-linejoin:miter;stroke-opacity:1;marker-end:url(#Arrow2)"
       d="M 27.917189,18.267876 H 32.58873"
       id="path4463" />
    <rect
       style="opacity:1;fill:none;stroke:#000000;stroke-width:0.264998;stop-color:#000000"
       id="rect5995"
       width="9.622716"
       height="12.997606"
       x="32.97438"
       y="12.01092" />
    <path
       style="fill:none;stroke:#000000;stroke-width:0.264585px;stroke-linecap:butt;stroke-linejoin:miter;stroke-opacity:1;marker-end:url(#Arrow2)"
       d="M 42.729595,18.267877 H 55.166618"
       id="path5999" />
    <rect
       style="opacity:1;fill:none;stroke:#000000;stroke-width:0.264998;stop-color:#000000"
       id="rect6003"
       width="9.622716"
       height="12.997606"
       x="55.69537"
       y="12.01092" />
    <rect
       style="opacity:1;fill:none;stroke:#000000;stroke-width:0.264999;stop-color:#000000"
       id="rect6005"
       width="26.343304"
       height="12.997606"
       x="78.449547"
       y="12.01092" />
    <path
       style="fill:none;stroke:#000000;stroke-width:0.264583px;stroke-linecap:butt;stroke-linejoin:miter;stroke-opacity:1;marker-end:url(#Arrow2)"
       d="M 65.410844,18.267875 H 77.964357"
       id="path6009" />
    <path
       style="fill:none;stroke:#000000;stroke-width:0.264584px;stroke-linecap:butt;stroke-linejoin:miter;stroke-opacity:1;marker-end:url(#Arrow2)"
       d="M 104.79285,18.267876 H 120.6947"
       id="path6015" />
    <rect
       style="opacity:1;fill:none;stroke:#000000;stroke-width:0.264998;stop-color:#000000"
       id="rect6017"
       width="9.622716"
       height="12.997606"
       x="121.08796"
       y="12.01092" />
    <path
       style="fill:none;stroke:#000000;stroke-width:0.264583px;stroke-linecap:butt;stroke-linejoin:miter;stroke-opacity:1;marker-end:url(#Arrow2)"
       d="m 130.71067,18.267875 h 18.80939"
       id="path6198" />
    <path
       style="fill:none;stroke:#000000;stroke-width:0.264583px;stroke-linecap:butt;stroke-linejoin:miter;stroke-opacity:1;marker-end:url(#Arrow2)"
       d="m 136.97384,18.234118 v 16.9532 H 23.80497 V 22.672189"
       id="path6200"
       sodipodi:nodetypes="cccc" />
    <text
       xml:space="preserve"
       transform="matrix(0.26458333,0,0,0.26458333,14.021883,3.7963799)"
       id="text7514"
       style="font-size:13.3333px;line-height:0.95;font-family:sans-serif;white-space:pre;shape-inside:url(#rect7516);display:inline"
       x="52.525909"
       y="0" />
    <text
       xml:space="preserve"
       transform="matrix(0.26458333,0,0,0.26458333,44.18439,3.7963799)"
       id="text7526"
       style="font-size:13.3333px;line-height:0.95;font-family:sans-serif;white-space:pre;shape-inside:url(#rect7528);display:inline"
       x="52.525909"
       y="0" />
    <text
       xml:space="preserve"
       transform="matrix(0.26458333,0,0,0.26458333,79.06246,-2.5536203)"
       id="text7538"
       style="font-size:13.3333px;line-height:0.95;font-family:sans-serif;white-space:pre;shape-inside:url(#rect7540);display:inline"
       x="52.525909"
       y="0" />
    <g
       inkscape:label=""
       transform="translate(107.50508,13.395798)"
       id="g8178">
      <g
         fill="#000000"
         fill-opacity="1"
         id="g28"
         transform="matrix(0.352778,0,0,0.352778,-0.0496094,0.0473605)">
        <g
           id="use26"
           transform="translate(0,5.1469998)">
          <path
             d="m 7.09375,-4.5 c 0,-0.34375 -0.09375,-0.78125 -0.5,-0.78125 -0.25,0 -0.515625,0.296875 -0.515625,0.53125 0,0.109375 0.046875,0.1875 0.140625,0.296875 C 6.390625,-4.25 6.625,-3.9375 6.625,-3.375 c 0,0.4375 -0.265625,1.109375 -0.453125,1.484375 -0.34375,0.65625 -0.890625,1.21875 -1.515625,1.21875 -0.75,0 -1.03125,-0.46875 -1.171875,-1.140625 0.140625,-0.3125 0.40625,-1.09375 0.40625,-1.40625 0,-0.125 -0.046875,-0.234375 -0.203125,-0.234375 -0.078125,0 -0.171875,0.046875 -0.234375,0.140625 -0.171875,0.265625 -0.328125,1.203125 -0.3125,1.453125 -0.21875,0.453125 -0.875,1.1875 -1.640625,1.1875 -0.796875,0 -1.015625,-0.703125 -1.015625,-1.390625 0,-1.234375 0.78125,-2.328125 1,-2.625 0.125,-0.171875 0.203125,-0.296875 0.203125,-0.328125 0,-0.078125 -0.046875,-0.203125 -0.15625,-0.203125 -0.1875,0 -0.25,0.15625 -0.34375,0.296875 -0.609375,0.9375 -1.046875,2.265625 -1.046875,3.421875 0,0.734375 0.28125,1.625 1.171875,1.625 1,0 1.609375,-0.859375 1.859375,-1.3125 C 3.28125,-0.515625 3.640625,0.125 4.5,0.125 c 0.921875,0 1.484375,-0.8125 1.921875,-1.78125 0.3125,-0.6875 0.671875,-2.1875 0.671875,-2.84375 z m 0,0"
             id="path50" />
        </g>
      </g>
      <g
         clip-path="url(#clipPath6677)"
         id="g44"
         transform="matrix(0.352778,0,0,0.352778,-0.0496094,0.0473605)">
        <g
           fill="#000000"
           fill-opacity="1"
           id="g42">
          <g
             id="use30"
             transform="translate(7.289,6.9400001)">
            <path
               d="m 3.984375,-1.703125 c 0,-0.984375 -0.828125,-1.84375 -1.875,-1.84375 -1.046875,0 -1.875,0.859375 -1.875,1.84375 0,1 0.859375,1.78125 1.875,1.78125 1.03125,0 1.875,-0.78125 1.875,-1.78125 z m -1.875,1.53125 C 1.6875,-0.171875 1.34375,-0.375 1.171875,-0.65625 0.96875,-0.984375 0.953125,-1.375 0.953125,-1.765625 c 0,-0.3125 0,-0.78125 0.234375,-1.125 0.21875,-0.28125 0.546875,-0.4375 0.921875,-0.4375 0.421875,0 0.765625,0.203125 0.9375,0.46875 0.21875,0.34375 0.234375,0.765625 0.234375,1.09375 0,0.359375 -0.015625,0.796875 -0.25,1.140625 -0.203125,0.3125 -0.5625,0.453125 -0.921875,0.453125 z m 0,0"
               id="path54" />
          </g>
          <g
             id="use32"
             transform="translate(11.523514,6.9400001)">
            <path
               d="m 2.65625,-3.421875 v 0.265625 c 0.546875,0 0.609375,0.046875 0.609375,0.4375 v 1.390625 c 0,0.6875 -0.40625,1.1875 -1.015625,1.1875 -0.6875,0 -0.71875,-0.34375 -0.71875,-0.75 v -2.625 l -1.203125,0.09375 v 0.265625 c 0.609375,0 0.609375,0.015625 0.609375,0.71875 v 1.203125 c 0,0.578125 0,1.3125 1.265625,1.3125 0.75,0 1.046875,-0.578125 1.078125,-0.640625 H 3.296875 V 0.078125 L 4.484375,0 V -0.265625 C 3.9375,-0.265625 3.875,-0.3125 3.875,-0.703125 v -2.8125 z m 0,0"
               id="path58" />
          </g>
          <g
             id="use34"
             transform="translate(16.228264,6.9400001)">
            <path
               d="m 1.484375,-3.171875 h 1.1875 V -3.4375 h -1.1875 v -1.46875 h -0.25 c 0,0.734375 -0.328125,1.484375 -1.078125,1.515625 v 0.21875 H 0.875 V -1 c 0,0.9375 0.71875,1.078125 1.078125,1.078125 C 2.5,0.078125 2.8125,-0.390625 2.8125,-1 v -0.4375 h -0.25 v 0.421875 c 0,0.546875 -0.25,0.84375 -0.546875,0.84375 -0.53125,0 -0.53125,-0.6875 -0.53125,-0.8125 z m 0,0"
               id="path62" />
          </g>
          <g
             id="g8169"
             transform="translate(19.521509,6.9400001)">
            <path
               d="m 2.09375,1.28125 c -0.515625,0 -0.609375,0 -0.609375,-0.359375 v -1.3125 c 0.375,0.40625 0.78125,0.46875 1.046875,0.46875 1,0 1.890625,-0.78125 1.890625,-1.796875 0,-1 -0.8125,-1.796875 -1.78125,-1.796875 -0.3125,0 -0.765625,0.078125 -1.171875,0.5 v -0.5 l -1.1875,0.09375 v 0.265625 c 0.5625,0 0.609375,0.046875 0.609375,0.375 v 3.703125 c 0,0.359375 -0.109375,0.359375 -0.609375,0.359375 v 0.265625 c 0.34375,-0.03125 0.6875,-0.03125 0.90625,-0.03125 0.234375,0 0.5625,0 0.90625,0.03125 z m -0.609375,-3.9375 c 0.1875,-0.3125 0.59375,-0.609375 1.09375,-0.609375 0.609375,0 1.125,0.671875 1.125,1.546875 0,0.90625 -0.578125,1.578125 -1.21875,1.578125 -0.28125,0 -0.640625,-0.125 -0.90625,-0.515625 -0.09375,-0.140625 -0.09375,-0.15625 -0.09375,-0.296875 z m 0,0"
               id="path66" />
          </g>
          <g
             id="use38"
             transform="translate(24.226259,6.9400001)">
            <path
               d="m 2.65625,-3.421875 v 0.265625 c 0.546875,0 0.609375,0.046875 0.609375,0.4375 v 1.390625 c 0,0.6875 -0.40625,1.1875 -1.015625,1.1875 -0.6875,0 -0.71875,-0.34375 -0.71875,-0.75 v -2.625 l -1.203125,0.09375 v 0.265625 c 0.609375,0 0.609375,0.015625 0.609375,0.71875 v 1.203125 c 0,0.578125 0,1.3125 1.265625,1.3125 0.75,0 1.046875,-0.578125 1.078125,-0.640625 H 3.296875 V 0.078125 L 4.484375,0 V -0.265625 C 3.9375,-0.265625 3.875,-0.3125 3.875,-0.703125 v -2.8125 z m 0,0"
               id="path70" />
          </g>
          <g
             id="g8174"
             transform="translate(28.931009,6.9400001)">
            <path
               d="m 1.484375,-3.171875 h 1.1875 V -3.4375 h -1.1875 v -1.46875 h -0.25 c 0,0.734375 -0.328125,1.484375 -1.078125,1.515625 v 0.21875 H 0.875 V -1 c 0,0.9375 0.71875,1.078125 1.078125,1.078125 C 2.5,0.078125 2.8125,-0.390625 2.8125,-1 v -0.4375 h -0.25 v 0.421875 c 0,0.546875 -0.25,0.84375 -0.546875,0.84375 -0.53125,0 -0.53125,-0.6875 -0.53125,-0.8125 z m 0,0"
               id="path74" />
          </g>
        </g>
      </g>
    </g>
    <g
       inkscape:label=""
       transform="translate(44.170704,12.926614)"
       id="g8693">
      <g
         fill="#000000"
         fill-opacity="1"
         id="g25"
         transform="matrix(0.352778,0,0,0.352778,-0.225998,-0.00485072)">
        <g
           id="g8672"
           transform="translate(0,8.1700001)">
          <path
             d="M 7.40625,-6.84375 C 7.8125,-7.484375 8.171875,-7.765625 8.78125,-7.8125 8.90625,-7.828125 9,-7.828125 9,-8.046875 9,-8.09375 8.984375,-8.15625 8.875,-8.15625 c -0.21875,0 -0.734375,0.015625 -0.953125,0.015625 -0.34375,0 -0.703125,-0.015625 -1.03125,-0.015625 -0.09375,0 -0.21875,0 -0.21875,0.21875 0,0.109375 0.109375,0.125 0.15625,0.125 0.4375,0.03125 0.484375,0.25 0.484375,0.390625 0,0.171875 -0.171875,0.453125 -0.171875,0.46875 L 3.375,-1 2.546875,-7.453125 c 0,-0.34375 0.625,-0.359375 0.75,-0.359375 0.1875,0 0.28125,0 0.28125,-0.234375 0,-0.109375 -0.125,-0.109375 -0.15625,-0.109375 -0.203125,0 -0.453125,0.015625 -0.65625,0.015625 h -0.65625 c -0.875,0 -1.234375,-0.015625 -1.25,-0.015625 -0.078125,0 -0.21875,0 -0.21875,0.203125 0,0.140625 0.09375,0.140625 0.28125,0.140625 0.609375,0 0.640625,0.109375 0.6875,0.40625 l 0.953125,7.375 C 2.59375,0.21875 2.59375,0.25 2.765625,0.25 2.90625,0.25 2.96875,0.21875 3.078125,0.03125 Z m 0,0"
             id="path8670" />
        </g>
      </g>
      <g
         clip-path="url(#clipPath9567)"
         id="g8691"
         transform="matrix(0.352778,0,0,0.352778,-0.225998,-0.00485072)">
        <g
           fill="#000000"
           fill-opacity="1"
           id="g8689">
          <g
             id="use27"
             transform="translate(6.8239999,9.9630003)">
            <path
               d="m 3.296875,-1.8125 c 0.171875,0 0.21875,0 0.21875,-0.1875 C 3.515625,-2.703125 3.125,-3.546875 2,-3.546875 c -0.984375,0 -1.765625,0.8125 -1.765625,1.796875 0,1.03125 0.859375,1.828125 1.875,1.828125 1,0 1.40625,-0.84375 1.40625,-1.03125 0,-0.03125 -0.03125,-0.109375 -0.125,-0.109375 -0.09375,0 -0.109375,0.046875 -0.125,0.09375 -0.28125,0.78125 -0.96875,0.796875 -1.109375,0.796875 -0.359375,0 -0.734375,-0.15625 -0.96875,-0.53125 C 0.953125,-1.0625 0.953125,-1.578125 0.953125,-1.8125 Z M 0.953125,-2.03125 C 1.03125,-3.140625 1.703125,-3.328125 2,-3.328125 c 0.9375,0 0.96875,1.125 0.96875,1.296875 z m 0,0"
               id="path8675" />
          </g>
          <g
             id="g8680"
             transform="translate(10.587481,9.9630003)">
            <path
               d="m 1.46875,-1.8125 c 0,-0.609375 0.25,-1.46875 1.015625,-1.484375 -0.046875,0.03125 -0.140625,0.09375 -0.140625,0.28125 0,0.25 0.203125,0.359375 0.359375,0.359375 0.1875,0 0.359375,-0.125 0.359375,-0.359375 0,-0.28125 -0.25,-0.5 -0.609375,-0.5 -0.515625,0 -0.875,0.390625 -1.03125,0.84375 H 1.40625 v -0.84375 l -1.125,0.09375 v 0.265625 c 0.546875,0 0.609375,0.046875 0.609375,0.4375 V -0.625 c 0,0.359375 -0.109375,0.359375 -0.609375,0.359375 V 0 c 0.3125,-0.03125 0.75,-0.03125 0.9375,-0.03125 0.46875,0 0.484375,0 1,0.03125 V -0.265625 H 2.0625 c -0.578125,0 -0.59375,-0.078125 -0.59375,-0.375 z m 0,0"
               id="path8678" />
          </g>
          <g
             id="use31"
             transform="translate(13.8879,9.9630003)">
            <path
               d="m 1.46875,-1.8125 c 0,-0.609375 0.25,-1.46875 1.015625,-1.484375 -0.046875,0.03125 -0.140625,0.09375 -0.140625,0.28125 0,0.25 0.203125,0.359375 0.359375,0.359375 0.1875,0 0.359375,-0.125 0.359375,-0.359375 0,-0.28125 -0.25,-0.5 -0.609375,-0.5 -0.515625,0 -0.875,0.390625 -1.03125,0.84375 H 1.40625 v -0.84375 l -1.125,0.09375 v 0.265625 c 0.546875,0 0.609375,0.046875 0.609375,0.4375 V -0.625 c 0,0.359375 -0.109375,0.359375 -0.609375,0.359375 V 0 c 0.3125,-0.03125 0.75,-0.03125 0.9375,-0.03125 0.46875,0 0.484375,0 1,0.03125 V -0.265625 H 2.0625 c -0.578125,0 -0.59375,-0.078125 -0.59375,-0.375 z m 0,0"
               id="path57" />
          </g>
          <g
             id="use33"
             transform="translate(17.188318,9.9630003)">
            <path
               d="m 3.984375,-1.703125 c 0,-0.984375 -0.828125,-1.84375 -1.875,-1.84375 -1.046875,0 -1.875,0.859375 -1.875,1.84375 0,1 0.859375,1.78125 1.875,1.78125 1.03125,0 1.875,-0.78125 1.875,-1.78125 z m -1.875,1.53125 C 1.6875,-0.171875 1.34375,-0.375 1.171875,-0.65625 0.96875,-0.984375 0.953125,-1.375 0.953125,-1.765625 c 0,-0.3125 0,-0.78125 0.234375,-1.125 0.21875,-0.28125 0.546875,-0.4375 0.921875,-0.4375 0.421875,0 0.765625,0.203125 0.9375,0.46875 0.21875,0.34375 0.234375,0.765625 0.234375,1.09375 0,0.359375 -0.015625,0.796875 -0.25,1.140625 -0.203125,0.3125 -0.5625,0.453125 -0.921875,0.453125 z m 0,0"
               id="path61" />
          </g>
          <g
             id="g8687"
             transform="translate(21.422832,9.9630003)">
            <path
               d="m 1.46875,-1.8125 c 0,-0.609375 0.25,-1.46875 1.015625,-1.484375 -0.046875,0.03125 -0.140625,0.09375 -0.140625,0.28125 0,0.25 0.203125,0.359375 0.359375,0.359375 0.1875,0 0.359375,-0.125 0.359375,-0.359375 0,-0.28125 -0.25,-0.5 -0.609375,-0.5 -0.515625,0 -0.875,0.390625 -1.03125,0.84375 H 1.40625 v -0.84375 l -1.125,0.09375 v 0.265625 c 0.546875,0 0.609375,0.046875 0.609375,0.4375 V -0.625 c 0,0.359375 -0.109375,0.359375 -0.609375,0.359375 V 0 c 0.3125,-0.03125 0.75,-0.03125 0.9375,-0.03125 0.46875,0 0.484375,0 1,0.03125 V -0.265625 H 2.0625 c -0.578125,0 -0.59375,-0.078125 -0.59375,-0.375 z m 0,0"
               id="path65" />
          </g>
        </g>
      </g>
    </g>
    <g
       inkscape:label=""
       transform="translate(66.469182,12.380557)"
       id="g9250">
      <g
         fill="#000000"
         fill-opacity="1"
         id="g9223"
         transform="matrix(0.352778,0,0,0.352778,-0.225998,-0.0044978)">
        <g
           id="g9221"
           transform="translate(0,8.1689997)">
          <path
             d="M 7.40625,-6.84375 C 7.8125,-7.484375 8.171875,-7.765625 8.78125,-7.8125 8.90625,-7.828125 9,-7.828125 9,-8.046875 9,-8.09375 8.984375,-8.15625 8.875,-8.15625 c -0.21875,0 -0.734375,0.015625 -0.953125,0.015625 -0.34375,0 -0.703125,-0.015625 -1.03125,-0.015625 -0.09375,0 -0.21875,0 -0.21875,0.21875 0,0.109375 0.109375,0.125 0.15625,0.125 0.4375,0.03125 0.484375,0.25 0.484375,0.390625 0,0.171875 -0.171875,0.453125 -0.171875,0.46875 L 3.375,-1 2.546875,-7.453125 c 0,-0.34375 0.625,-0.359375 0.75,-0.359375 0.1875,0 0.28125,0 0.28125,-0.234375 0,-0.109375 -0.125,-0.109375 -0.15625,-0.109375 -0.203125,0 -0.453125,0.015625 -0.65625,0.015625 h -0.65625 c -0.875,0 -1.234375,-0.015625 -1.25,-0.015625 -0.078125,0 -0.21875,0 -0.21875,0.203125 0,0.140625 0.09375,0.140625 0.28125,0.140625 0.609375,0 0.640625,0.109375 0.6875,0.40625 l 0.953125,7.375 C 2.59375,0.21875 2.59375,0.25 2.765625,0.25 2.90625,0.25 2.96875,0.21875 3.078125,0.03125 Z m 0,0"
             id="path9219" />
        </g>
      </g>
      <g
         clip-path="url(#clipPath2079)"
         id="g47"
         transform="matrix(0.352778,0,0,0.352778,-0.225998,-0.0044978)">
        <g
           fill="#000000"
           fill-opacity="1"
           id="g45">
          <g
             id="g9227"
             transform="translate(6.8239999,9.9619999)">
            <path
               d="m 2.84375,-3.34375 c 0,-0.125 0,-0.203125 -0.109375,-0.203125 -0.046875,0 -0.0625,0 -0.1875,0.125 -0.015625,0 -0.09375,0.078125 -0.109375,0.078125 -0.015625,0 -0.03125,0 -0.078125,-0.03125 C 2.234375,-3.46875 2,-3.546875 1.640625,-3.546875 c -1.109375,0 -1.359375,0.59375 -1.359375,0.984375 0,0.390625 0.296875,0.625 0.3125,0.65625 0.328125,0.234375 0.5,0.265625 1.046875,0.359375 0.375,0.078125 0.984375,0.1875 0.984375,0.71875 0,0.3125 -0.203125,0.6875 -0.9375,0.6875 -0.8125,0 -1.046875,-0.625 -1.140625,-1.046875 C 0.515625,-1.296875 0.5,-1.328125 0.40625,-1.328125 c -0.125,0 -0.125,0.0625 -0.125,0.21875 V -0.125 c 0,0.125 0,0.203125 0.09375,0.203125 0.0625,0 0.0625,0 0.203125,-0.15625 C 0.625,-0.125 0.703125,-0.21875 0.75,-0.265625 c 0.359375,0.328125 0.734375,0.34375 0.9375,0.34375 1.015625,0 1.359375,-0.578125 1.359375,-1.109375 0,-0.375 -0.21875,-0.9375 -1.171875,-1.109375 -0.0625,-0.015625 -0.515625,-0.09375 -0.546875,-0.09375 -0.25,-0.0625 -0.625,-0.234375 -0.625,-0.546875 0,-0.234375 0.1875,-0.578125 0.9375,-0.578125 0.890625,0 0.9375,0.65625 0.953125,0.875 0,0.0625 0.0625,0.09375 0.109375,0.09375 0.140625,0 0.140625,-0.0625 0.140625,-0.203125 z m 0,0"
               id="path9225" />
          </g>
          <g
             id="g9231"
             transform="translate(10.164269,9.9619999)">
            <path
               d="m 2.65625,-3.421875 v 0.265625 c 0.546875,0 0.609375,0.046875 0.609375,0.4375 v 1.390625 c 0,0.6875 -0.40625,1.1875 -1.015625,1.1875 -0.6875,0 -0.71875,-0.34375 -0.71875,-0.75 v -2.625 l -1.203125,0.09375 v 0.265625 c 0.609375,0 0.609375,0.015625 0.609375,0.71875 v 1.203125 c 0,0.578125 0,1.3125 1.265625,1.3125 0.75,0 1.046875,-0.578125 1.078125,-0.640625 H 3.296875 V 0.078125 L 4.484375,0 V -0.265625 C 3.9375,-0.265625 3.875,-0.3125 3.875,-0.703125 v -2.8125 z m 0,0"
               id="path9229" />
          </g>
          <g
             id="g9235"
             transform="translate(14.869019,9.9619999)">
            <path
               d="m 2.09375,1.28125 c -0.515625,0 -0.609375,0 -0.609375,-0.359375 v -1.3125 c 0.375,0.40625 0.78125,0.46875 1.046875,0.46875 1,0 1.890625,-0.78125 1.890625,-1.796875 0,-1 -0.8125,-1.796875 -1.78125,-1.796875 -0.3125,0 -0.765625,0.078125 -1.171875,0.5 v -0.5 l -1.1875,0.09375 v 0.265625 c 0.5625,0 0.609375,0.046875 0.609375,0.375 v 3.703125 c 0,0.359375 -0.109375,0.359375 -0.609375,0.359375 v 0.265625 c 0.34375,-0.03125 0.6875,-0.03125 0.90625,-0.03125 0.234375,0 0.5625,0 0.90625,0.03125 z m -0.609375,-3.9375 c 0.1875,-0.3125 0.59375,-0.609375 1.09375,-0.609375 0.609375,0 1.125,0.671875 1.125,1.546875 0,0.90625 -0.578125,1.578125 -1.21875,1.578125 -0.28125,0 -0.640625,-0.125 -0.90625,-0.515625 -0.09375,-0.140625 -0.09375,-0.15625 -0.09375,-0.296875 z m 0,0"
               id="path9233" />
          </g>
          <g
             id="g9238"
             transform="translate(19.573769,9.9619999)">
            <path
               d="m 2.09375,1.28125 c -0.515625,0 -0.609375,0 -0.609375,-0.359375 v -1.3125 c 0.375,0.40625 0.78125,0.46875 1.046875,0.46875 1,0 1.890625,-0.78125 1.890625,-1.796875 0,-1 -0.8125,-1.796875 -1.78125,-1.796875 -0.3125,0 -0.765625,0.078125 -1.171875,0.5 v -0.5 l -1.1875,0.09375 v 0.265625 c 0.5625,0 0.609375,0.046875 0.609375,0.375 v 3.703125 c 0,0.359375 -0.109375,0.359375 -0.609375,0.359375 v 0.265625 c 0.34375,-0.03125 0.6875,-0.03125 0.90625,-0.03125 0.234375,0 0.5625,0 0.90625,0.03125 z m -0.609375,-3.9375 c 0.1875,-0.3125 0.59375,-0.609375 1.09375,-0.609375 0.609375,0 1.125,0.671875 1.125,1.546875 0,0.90625 -0.578125,1.578125 -1.21875,1.578125 -0.28125,0 -0.640625,-0.125 -0.90625,-0.515625 -0.09375,-0.140625 -0.09375,-0.15625 -0.09375,-0.296875 z m 0,0"
               id="path69" />
          </g>
          <g
             id="g9242"
             transform="translate(24.278519,9.9619999)">
            <path
               d="m 1.515625,-5.53125 -1.1875,0.09375 v 0.265625 c 0.546875,0 0.609375,0.046875 0.609375,0.4375 V -0.625 c 0,0.359375 -0.09375,0.359375 -0.609375,0.359375 V 0 c 0.3125,-0.03125 0.765625,-0.03125 0.90625,-0.03125 0.15625,0 0.578125,0 0.890625,0.03125 v -0.265625 c -0.5,0 -0.609375,0 -0.609375,-0.359375 z m 0,0"
               id="path9240" />
          </g>
          <g
             id="g9246"
             transform="translate(26.630495,9.9619999)">
            <path
               d="m 3.53125,-2.625 c 0.203125,-0.453125 0.5,-0.53125 0.75,-0.546875 V -3.4375 C 4.015625,-3.40625 4,-3.40625 3.65625,-3.40625 c -0.03125,0 -0.453125,0 -0.6875,-0.03125 v 0.265625 c 0.234375,0.015625 0.34375,0.140625 0.34375,0.328125 0,0.046875 0,0.109375 -0.046875,0.203125 L 2.421875,-0.71875 1.484375,-2.8125 C 1.4375,-2.921875 1.4375,-2.9375 1.4375,-2.96875 c 0,-0.1875 0.25,-0.203125 0.421875,-0.203125 V -3.4375 C 1.5,-3.40625 1.15625,-3.40625 0.984375,-3.40625 c -0.171875,0 -0.546875,0 -0.8125,-0.03125 v 0.265625 c 0.421875,0 0.53125,0.015625 0.671875,0.3125 L 2.09375,0 C 1.734375,0.84375 1.5,1.40625 0.9375,1.40625 0.734375,1.40625 0.609375,1.3125 0.609375,1.3125 c 0.0625,-0.015625 0.25,-0.109375 0.25,-0.34375 C 0.859375,0.75 0.6875,0.625 0.515625,0.625 c -0.171875,0 -0.34375,0.109375 -0.34375,0.359375 0,0.34375 0.34375,0.640625 0.765625,0.640625 0.71875,0 1.09375,-0.859375 1.125,-0.9375 z m 0,0"
               id="path9244" />
          </g>
        </g>
      </g>
    </g>
    <text
       xml:space="preserve"
       transform="matrix(0.26458333,0,0,0.26458333,24.351288,27.608891)"
       id="text9660"
       style="font-size:13.3333px;line-height:0.95;font-family:sans-serif;white-space:pre;shape-inside:url(#rect9662);display:inline"
       x="52.525909"
       y="0" />
    <text
       xml:space="preserve"
       transform="matrix(0.26458333,0,0,0.26458333,-10.617808,22.137593)"
       id="text10048"
       style="font-size:10.6667px;line-height:0.95;font-family:sans-serif;white-space:pre;shape-inside:url(#rect10050);display:inline"
       x="52.525909"
       y="0" />
    <text
       xml:space="preserve"
       style="font-size:3.52778px;line-height:1.25;font-family:sans-serif;stroke-width:0.264583"
       x="31.059328"
       y="7.6994104"
       id="text656"><tspan
         sodipodi:role="line"
         id="tspan654"
         style="font-size:3.52778px;stroke-width:0.264583"
         x="31.059328"
         y="7.6994104">sensor</tspan></text>
    <text
       xml:space="preserve"
       style="font-size:3.52778px;line-height:1.25;font-family:sans-serif;stroke-width:0.264583"
       x="51.138496"
       y="7.6994104"
       id="text660"><tspan
         sodipodi:role="line"
         id="tspan658"
         style="font-size:3.52778px;stroke-width:0.264583"
         x="51.138496"
         y="7.6994104">controller</tspan></text>
    <text
       xml:space="preserve"
       style="font-size:3.52778px;line-height:1.25;font-family:sans-serif;stroke-width:0.264583"
       x="83.435326"
       y="7.6994104"
       id="text711"><tspan
         sodipodi:role="line"
         id="tspan709"
         style="font-size:3.52778px;stroke-width:0.264583"
         x="83.435326"
         y="7.6994104">DC motor</tspan></text>
    <text
       xml:space="preserve"
       style="font-size:3.52778px;line-height:0.95;font-family:sans-serif;stroke-width:0.264583"
       x="125.94476"
       y="3.9701948"
       id="text715"><tspan
         sodipodi:role="line"
         id="tspan713"
         style="font-size:3.52778px;text-align:center;text-anchor:middle;stroke-width:0.264583"
         x="125.94476"
         y="3.9701948">gearbox</tspan><tspan
         sodipodi:role="line"
         style="font-size:3.52778px;text-align:center;text-anchor:middle;stroke-width:0.264583"
         x="125.94476"
         y="7.3215857"
         id="tspan717">and</tspan><tspan
         sodipodi:role="line"
         style="font-size:3.52778px;text-align:center;text-anchor:middle;stroke-width:0.264583"
         x="125.94476"
         y="10.672976"
         id="tspan719">integrator</tspan></text>
    <text
       xml:space="preserve"
       style="font-size:2.82222px;line-height:1.25;font-family:sans-serif;stroke-width:0.264583"
       x="26.892563"
       y="28.008095"
       id="text723"><tspan
         sodipodi:role="line"
         id="tspan721"
         style="font-size:2.82222px;stroke-width:0.264583"
         x="26.892563"
         y="28.008095">&quot;p&quot; for potentiometer</tspan></text>
    <text
       xml:space="preserve"
       style="font-size:3.52778px;line-height:1.25;font-family:sans-serif;stroke-width:0.264583"
       x="64.149887"
       y="33.457577"
       id="text727"><tspan
         sodipodi:role="line"
         id="tspan725"
         style="font-size:3.52778px;stroke-width:0.264583"
         x="64.149887"
         y="33.457577">signal feedback path</tspan></text>
  </g>
</svg>
