<svg width="373" height="295" xmlns="http://www.w3.org/2000/svg" xmlns:xlink="http://www.w3.org/1999/xlink" xml:space="preserve" overflow="hidden"><defs><clipPath id="clip0"><rect x="0" y="0" width="373" height="295"/></clipPath></defs><g clip-path="url(#clip0)"><path d="M0 0 640.872 0 640.872 360.49 0 360.49Z" fill="#FFFFFF" transform="matrix(1.00024 0 0 1 -155.449 -65.4903)"/><text font-family="Calibri,Calibri_MSFontService,sans-serif" font-weight="700" font-size="37" transform="matrix(0.500801 0 0 0.500681 126.362 130)">Model Based</text><text font-family="Calibri,Calibri_MSFontService,sans-serif" font-weight="700" font-size="37" transform="matrix(0.500801 0 0 0.500681 138.364 150)">D</text><text font-family="Calibri,Calibri_MSFontService,sans-serif" font-weight="700" font-size="37" transform="matrix(0.500801 0 0 0.500681 150.133 150)">efinition</text><text fill="#ED7D31" font-family="Calibri,Calibri_MSFontService,sans-serif" font-weight="700" font-size="32" transform="matrix(0.500801 0 0 0.500681 210.908 17)">2</text><text fill="#ED7D31" font-family="Calibri,Calibri_MSFontService,sans-serif" font-weight="700" font-size="32" transform="matrix(0.500801 0 0 0.500681 218.921 17)">. </text><text fill="#ED7D31" font-family="Calibri,Calibri_MSFontService,sans-serif" font-weight="700" font-size="32" transform="matrix(0.500801 0 0 0.500681 226.934 17)">Create a</text><text fill="#ED7D31" font-family="Calibri,Calibri_MSFontService,sans-serif" font-weight="700" font-size="32" transform="matrix(0.500801 0 0 0.500681 210.908 36)">Detailed </text><text fill="#ED7D31" font-family="Calibri,Calibri_MSFontService,sans-serif" font-weight="700" font-size="32" transform="matrix(0.500801 0 0 0.500681 270.504 36)">3</text><text fill="#ED7D31" font-family="Calibri,Calibri_MSFontService,sans-serif" font-weight="700" font-size="32" transform="matrix(0.500801 0 0 0.500681 278.517 36)">D</text><text fill="#ED7D31" font-family="Calibri,Calibri_MSFontService,sans-serif" font-weight="700" font-size="32" transform="matrix(0.500801 0 0 0.500681 210.908 56)">CAD Model</text><text fill="#5B9BD5" font-family="Calibri,Calibri_MSFontService,sans-serif" font-weight="700" font-size="32" transform="matrix(0.500801 0 0 0.500681 279.387 143)">3</text><text fill="#5B9BD5" font-family="Calibri,Calibri_MSFontService,sans-serif" font-weight="700" font-size="32" transform="matrix(0.500801 0 0 0.500681 287.399 143)">. </text><text fill="#5B9BD5" font-family="Calibri,Calibri_MSFontService,sans-serif" font-weight="700" font-size="32" transform="matrix(0.500801 0 0 0.500681 295.412 143)">The Model</text><text fill="#4472C4" font-family="Calibri,Calibri_MSFontService,sans-serif" font-weight="700" font-size="32" transform="matrix(0.500801 0 0 0.500681 183.85 242)">4</text><text fill="#4472C4" font-family="Calibri,Calibri_MSFontService,sans-serif" font-weight="700" font-size="32" transform="matrix(0.500801 0 0 0.500681 191.862 242)">. </text><text fill="#4472C4" font-family="Calibri,Calibri_MSFontService,sans-serif" font-weight="700" font-size="32" transform="matrix(0.500801 0 0 0.500681 199.875 242)">Validate and</text><text fill="#4472C4" font-family="Calibri,Calibri_MSFontService,sans-serif" font-weight="700" font-size="32" transform="matrix(0.500801 0 0 0.500681 183.85 261)">Review the</text><text fill="#4472C4" font-family="Calibri,Calibri_MSFontService,sans-serif" font-weight="700" font-size="32" transform="matrix(0.500801 0 0 0.500681 183.85 280)">Model</text><text fill="#FFC000" font-family="Calibri,Calibri_MSFontService,sans-serif" font-weight="700" font-size="32" transform="matrix(0.500801 0 0 0.500681 7.6868 191)">5</text><text fill="#FFC000" font-family="Calibri,Calibri_MSFontService,sans-serif" font-weight="700" font-size="32" transform="matrix(0.500801 0 0 0.500681 15.6996 191)">. </text><text fill="#FFC000" font-family="Calibri,Calibri_MSFontService,sans-serif" font-weight="700" font-size="32" transform="matrix(0.500801 0 0 0.500681 23.7124 191)">Release and</text><text fill="#FFC000" font-family="Calibri,Calibri_MSFontService,sans-serif" font-weight="700" font-size="32" transform="matrix(0.500801 0 0 0.500681 7.6868 210)">Implement the</text><text fill="#FFC000" font-family="Calibri,Calibri_MSFontService,sans-serif" font-weight="700" font-size="32" transform="matrix(0.500801 0 0 0.500681 7.6868 229)">Model</text><text fill="#70AD47" font-family="Calibri,Calibri_MSFontService,sans-serif" font-weight="700" font-size="32" transform="matrix(0.500801 0 0 0.500681 23.436 60)">1</text><text fill="#70AD47" font-family="Calibri,Calibri_MSFontService,sans-serif" font-weight="700" font-size="32" transform="matrix(0.500801 0 0 0.500681 31.4488 60)">. </text><text fill="#70AD47" font-family="Calibri,Calibri_MSFontService,sans-serif" font-weight="700" font-size="32" transform="matrix(0.500801 0 0 0.500681 39.4616 60)">Define Model</text><text fill="#70AD47" font-family="Calibri,Calibri_MSFontService,sans-serif" font-weight="700" font-size="32" transform="matrix(0.500801 0 0 0.500681 23.436 79)">Requirements</text><text fill="#70AD47" font-family="Calibri,Calibri_MSFontService,sans-serif" font-weight="700" font-size="32" transform="matrix(0.500801 0 0 0.500681 23.436 98)">and Scope</text><path d="M358.928 249.595C358.196 249.595 357.463 249.96 357.097 250.691L295.929 250.691C291.534 250.691 287.872 248.133 286.773 244.113L259.668 161.146 262.599 160.05C263.698 159.685 264.064 158.222 262.965 157.492L256.372 152.009C255.64 151.278 254.175 152.009 253.808 152.74L252.343 161.146C252.343 162.243 253.076 162.974 254.175 162.608L256.739 161.512 283.842 244.478C285.674 249.595 290.435 253.25 295.929 253.25L357.097 253.25C357.463 253.98 358.196 254.346 358.928 254.346 360.393 254.346 361.492 253.25 361.492 251.787 361.492 250.326 360.393 249.229 358.928 249.229Z" fill="#70AD47" fill-rule="evenodd" transform="matrix(1.00024 0 0 1 -155.449 -65.4903)"/><path d="M297.27 240.952C297.27 240.222 296.538 239.857 295.805 239.492L276.773 181.814C275.309 177.798 276.773 173.417 280.433 170.862L350.706 119.024 352.536 121.58C353.268 122.31 354.732 122.31 355.098 121.58L358.392 113.549C358.758 112.453 358.026 111.358 356.928 111.723L348.51 113.184C347.412 113.184 347.046 114.644 347.412 115.374L349.242 117.564 278.969 169.037C274.577 172.322 272.747 177.798 274.577 182.909L293.609 240.587C293.243 241.318 292.877 242.047 293.243 242.778 293.609 243.873 295.073 244.603 296.171 244.238 297.27 243.873 298.001 242.413 297.635 241.318Z" fill="#ED7D31" fill-rule="evenodd" transform="matrix(1.00024 0 0 1 -155.449 -65.4903)"/><path d="M285.922 178.655C286.654 178.289 287.019 177.557 287.019 176.826L336.768 141.349C340.06 138.789 344.816 138.789 348.108 141.349L418.341 193.284 416.512 195.845C415.781 196.942 416.512 198.039 417.61 198.039L426.023 198.77C427.121 198.77 427.852 197.674 427.486 196.576L423.829 188.896C423.463 187.798 422 187.798 421.268 188.896L419.805 191.09 349.571 139.155C345.182 135.863 339.329 135.863 334.939 139.155L285.19 174.632C284.459 174.632 283.727 174.632 282.995 174.632 281.898 175.363 281.532 176.826 282.264 177.923 282.995 179.02 284.459 179.386 285.556 178.655Z" fill="#5B9BD5" fill-rule="evenodd" transform="matrix(1.00024 0 0 1 -155.449 -65.4903)"/><path d="M341.195 149.857C341.921 150.222 342.647 150.222 343.373 149.857L392.033 185.991C395.301 188.546 396.754 192.926 395.664 196.941L368.43 279.796 365.524 279.065C364.436 279.065 363.346 279.796 363.709 280.891L365.524 289.285C365.524 290.38 366.977 290.745 368.066 290.015L374.24 284.175C374.966 283.445 374.603 281.985 373.513 281.62L370.972 280.891 397.843 198.036C399.659 192.926 397.843 187.086 393.486 184.166L344.826 148.032C344.826 147.302 344.826 146.572 343.736 146.207 342.647 145.477 341.195 145.477 340.469 146.572 339.742 147.667 339.742 149.127 340.832 149.857Z" fill="#4472C4" fill-rule="evenodd" transform="matrix(1.00024 0 0 1 -155.449 -65.4903)"/><path d="M386.155 192.717C386.155 193.446 386.155 194.177 386.52 194.907L367.538 252.588C366.077 256.603 362.427 259.159 358.412 259.159L271.167 259.159C271.167 259.159 271.167 255.873 271.167 255.873 271.167 254.778 270.072 254.048 268.977 254.778L261.676 259.159C260.581 259.889 260.581 260.984 261.676 261.714L269.342 265.73C270.437 266.095 271.532 265.73 271.532 264.27L271.532 261.714C271.532 261.714 358.412 261.714 358.412 261.714 363.888 261.714 368.633 258.428 370.458 252.953L389.441 195.272C390.171 195.272 390.9 194.542 390.9 193.812 391.266 192.717 390.9 191.257 389.441 190.891 387.98 190.526 386.885 190.891 386.52 192.352Z" fill="#FFC000" fill-rule="evenodd" transform="matrix(1.00024 0 0 1 -155.449 -65.4903)"/></g></svg>